<?xml version="1.0" encoding="utf-8" standalone="no"?>
<!DOCTYPE svg PUBLIC "-//W3C//DTD SVG 1.1//EN"
  "http://www.w3.org/Graphics/SVG/1.1/DTD/svg11.dtd">
<svg xmlns:xlink="http://www.w3.org/1999/xlink" width="864pt" height="360pt" viewBox="0 0 864 360" xmlns="http://www.w3.org/2000/svg" version="1.1">
 <metadata>
  <rdf:RDF xmlns:dc="http://purl.org/dc/elements/1.1/" xmlns:cc="http://creativecommons.org/ns#" xmlns:rdf="http://www.w3.org/1999/02/22-rdf-syntax-ns#">
   <cc:Work>
    <dc:type rdf:resource="http://purl.org/dc/dcmitype/StillImage"/>
    <dc:date>2024-11-20T08:13:59.289874</dc:date>
    <dc:format>image/svg+xml</dc:format>
    <dc:creator>
     <cc:Agent>
      <dc:title>Matplotlib v3.9.2, https://matplotlib.org/</dc:title>
     </cc:Agent>
    </dc:creator>
   </cc:Work>
  </rdf:RDF>
 </metadata>
 <defs>
  <style type="text/css">*{stroke-linejoin: round; stroke-linecap: butt}</style>
 </defs>
 <g id="figure_1">
  <g id="patch_1">
   <path d="M 0 360 
L 864 360 
L 864 0 
L 0 0 
L 0 360 
z
" style="fill: none; opacity: 0"/>
  </g>
  <g id="axes_1">
   <g id="patch_2">
    <path d="M 108 320.4 
L 777.6 320.4 
L 777.6 43.2 
L 108 43.2 
L 108 320.4 
z
" style="fill: none; opacity: 0"/>
   </g>
   <g id="matplotlib.axis_1">
    <g id="xtick_1">
     <g id="line2d_1">
      <path d="M 157.975758 320.4 
L 157.975758 43.2 
" clip-path="url(#pc5fc89660f)" style="fill: none; stroke-dasharray: 5.12,1.28,0.8,1.28; stroke-dashoffset: 0; stroke: #b0b0b0; stroke-width: 0.8"/>
     </g>
     <g id="line2d_2">
      <defs>
       <path id="m35376f159b" d="M 0 0 
L 0 3.5 
" style="stroke: #a9a9a9; stroke-width: 0.8"/>
      </defs>
      <g>
       <use xlink:href="#m35376f159b" x="157.975758" y="320.4" style="fill: #a9a9a9; stroke: #a9a9a9; stroke-width: 0.8"/>
      </g>
     </g>
     <g id="text_1">
      <!-- 2021-09 -->
      <g style="fill: #a9a9a9" transform="translate(137.084351 334.998438) scale(0.1 -0.1)">
       <defs>
        <path id="DejaVuSans-32" d="M 1228 531 
L 3431 531 
L 3431 0 
L 469 0 
L 469 531 
Q 828 903 1448 1529 
Q 2069 2156 2228 2338 
Q 2531 2678 2651 2914 
Q 2772 3150 2772 3378 
Q 2772 3750 2511 3984 
Q 2250 4219 1831 4219 
Q 1534 4219 1204 4116 
Q 875 4013 500 3803 
L 500 4441 
Q 881 4594 1212 4672 
Q 1544 4750 1819 4750 
Q 2544 4750 2975 4387 
Q 3406 4025 3406 3419 
Q 3406 3131 3298 2873 
Q 3191 2616 2906 2266 
Q 2828 2175 2409 1742 
Q 1991 1309 1228 531 
z
" transform="scale(0.015625)"/>
        <path id="DejaVuSans-30" d="M 2034 4250 
Q 1547 4250 1301 3770 
Q 1056 3291 1056 2328 
Q 1056 1369 1301 889 
Q 1547 409 2034 409 
Q 2525 409 2770 889 
Q 3016 1369 3016 2328 
Q 3016 3291 2770 3770 
Q 2525 4250 2034 4250 
z
M 2034 4750 
Q 2819 4750 3233 4129 
Q 3647 3509 3647 2328 
Q 3647 1150 3233 529 
Q 2819 -91 2034 -91 
Q 1250 -91 836 529 
Q 422 1150 422 2328 
Q 422 3509 836 4129 
Q 1250 4750 2034 4750 
z
" transform="scale(0.015625)"/>
        <path id="DejaVuSans-31" d="M 794 531 
L 1825 531 
L 1825 4091 
L 703 3866 
L 703 4441 
L 1819 4666 
L 2450 4666 
L 2450 531 
L 3481 531 
L 3481 0 
L 794 0 
L 794 531 
z
" transform="scale(0.015625)"/>
        <path id="DejaVuSans-2d" d="M 313 2009 
L 1997 2009 
L 1997 1497 
L 313 1497 
L 313 2009 
z
" transform="scale(0.015625)"/>
        <path id="DejaVuSans-39" d="M 703 97 
L 703 672 
Q 941 559 1184 500 
Q 1428 441 1663 441 
Q 2288 441 2617 861 
Q 2947 1281 2994 2138 
Q 2813 1869 2534 1725 
Q 2256 1581 1919 1581 
Q 1219 1581 811 2004 
Q 403 2428 403 3163 
Q 403 3881 828 4315 
Q 1253 4750 1959 4750 
Q 2769 4750 3195 4129 
Q 3622 3509 3622 2328 
Q 3622 1225 3098 567 
Q 2575 -91 1691 -91 
Q 1453 -91 1209 -44 
Q 966 3 703 97 
z
M 1959 2075 
Q 2384 2075 2632 2365 
Q 2881 2656 2881 3163 
Q 2881 3666 2632 3958 
Q 2384 4250 1959 4250 
Q 1534 4250 1286 3958 
Q 1038 3666 1038 3163 
Q 1038 2656 1286 2365 
Q 1534 2075 1959 2075 
z
" transform="scale(0.015625)"/>
       </defs>
       <use xlink:href="#DejaVuSans-32"/>
       <use xlink:href="#DejaVuSans-30" x="63.623047"/>
       <use xlink:href="#DejaVuSans-32" x="127.246094"/>
       <use xlink:href="#DejaVuSans-31" x="190.869141"/>
       <use xlink:href="#DejaVuSans-2d" x="254.492188"/>
       <use xlink:href="#DejaVuSans-30" x="290.576172"/>
       <use xlink:href="#DejaVuSans-39" x="354.199219"/>
      </g>
     </g>
    </g>
    <g id="xtick_2">
     <g id="line2d_3">
      <path d="M 219.09899 320.4 
L 219.09899 43.2 
" clip-path="url(#pc5fc89660f)" style="fill: none; stroke-dasharray: 5.12,1.28,0.8,1.28; stroke-dashoffset: 0; stroke: #b0b0b0; stroke-width: 0.8"/>
     </g>
     <g id="line2d_4">
      <g>
       <use xlink:href="#m35376f159b" x="219.09899" y="320.4" style="fill: #a9a9a9; stroke: #a9a9a9; stroke-width: 0.8"/>
      </g>
     </g>
     <g id="text_2">
      <!-- 2022-01 -->
      <g style="fill: #a9a9a9" transform="translate(198.207584 334.998438) scale(0.1 -0.1)">
       <use xlink:href="#DejaVuSans-32"/>
       <use xlink:href="#DejaVuSans-30" x="63.623047"/>
       <use xlink:href="#DejaVuSans-32" x="127.246094"/>
       <use xlink:href="#DejaVuSans-32" x="190.869141"/>
       <use xlink:href="#DejaVuSans-2d" x="254.492188"/>
       <use xlink:href="#DejaVuSans-30" x="290.576172"/>
       <use xlink:href="#DejaVuSans-31" x="354.199219"/>
      </g>
     </g>
    </g>
    <g id="xtick_3">
     <g id="line2d_5">
      <path d="M 279.220202 320.4 
L 279.220202 43.2 
" clip-path="url(#pc5fc89660f)" style="fill: none; stroke-dasharray: 5.12,1.28,0.8,1.28; stroke-dashoffset: 0; stroke: #b0b0b0; stroke-width: 0.8"/>
     </g>
     <g id="line2d_6">
      <g>
       <use xlink:href="#m35376f159b" x="279.220202" y="320.4" style="fill: #a9a9a9; stroke: #a9a9a9; stroke-width: 0.8"/>
      </g>
     </g>
     <g id="text_3">
      <!-- 2022-05 -->
      <g style="fill: #a9a9a9" transform="translate(258.328796 334.998438) scale(0.1 -0.1)">
       <defs>
        <path id="DejaVuSans-35" d="M 691 4666 
L 3169 4666 
L 3169 4134 
L 1269 4134 
L 1269 2991 
Q 1406 3038 1543 3061 
Q 1681 3084 1819 3084 
Q 2600 3084 3056 2656 
Q 3513 2228 3513 1497 
Q 3513 744 3044 326 
Q 2575 -91 1722 -91 
Q 1428 -91 1123 -41 
Q 819 9 494 109 
L 494 744 
Q 775 591 1075 516 
Q 1375 441 1709 441 
Q 2250 441 2565 725 
Q 2881 1009 2881 1497 
Q 2881 1984 2565 2268 
Q 2250 2553 1709 2553 
Q 1456 2553 1204 2497 
Q 953 2441 691 2322 
L 691 4666 
z
" transform="scale(0.015625)"/>
       </defs>
       <use xlink:href="#DejaVuSans-32"/>
       <use xlink:href="#DejaVuSans-30" x="63.623047"/>
       <use xlink:href="#DejaVuSans-32" x="127.246094"/>
       <use xlink:href="#DejaVuSans-32" x="190.869141"/>
       <use xlink:href="#DejaVuSans-2d" x="254.492188"/>
       <use xlink:href="#DejaVuSans-30" x="290.576172"/>
       <use xlink:href="#DejaVuSans-35" x="354.199219"/>
      </g>
     </g>
    </g>
    <g id="xtick_4">
     <g id="line2d_7">
      <path d="M 340.844444 320.4 
L 340.844444 43.2 
" clip-path="url(#pc5fc89660f)" style="fill: none; stroke-dasharray: 5.12,1.28,0.8,1.28; stroke-dashoffset: 0; stroke: #b0b0b0; stroke-width: 0.8"/>
     </g>
     <g id="line2d_8">
      <g>
       <use xlink:href="#m35376f159b" x="340.844444" y="320.4" style="fill: #a9a9a9; stroke: #a9a9a9; stroke-width: 0.8"/>
      </g>
     </g>
     <g id="text_4">
      <!-- 2022-09 -->
      <g style="fill: #a9a9a9" transform="translate(319.953038 334.998438) scale(0.1 -0.1)">
       <use xlink:href="#DejaVuSans-32"/>
       <use xlink:href="#DejaVuSans-30" x="63.623047"/>
       <use xlink:href="#DejaVuSans-32" x="127.246094"/>
       <use xlink:href="#DejaVuSans-32" x="190.869141"/>
       <use xlink:href="#DejaVuSans-2d" x="254.492188"/>
       <use xlink:href="#DejaVuSans-30" x="290.576172"/>
       <use xlink:href="#DejaVuSans-39" x="354.199219"/>
      </g>
     </g>
    </g>
    <g id="xtick_5">
     <g id="line2d_9">
      <path d="M 401.967677 320.4 
L 401.967677 43.2 
" clip-path="url(#pc5fc89660f)" style="fill: none; stroke-dasharray: 5.12,1.28,0.8,1.28; stroke-dashoffset: 0; stroke: #b0b0b0; stroke-width: 0.8"/>
     </g>
     <g id="line2d_10">
      <g>
       <use xlink:href="#m35376f159b" x="401.967677" y="320.4" style="fill: #a9a9a9; stroke: #a9a9a9; stroke-width: 0.8"/>
      </g>
     </g>
     <g id="text_5">
      <!-- 2023-01 -->
      <g style="fill: #a9a9a9" transform="translate(381.076271 334.998438) scale(0.1 -0.1)">
       <defs>
        <path id="DejaVuSans-33" d="M 2597 2516 
Q 3050 2419 3304 2112 
Q 3559 1806 3559 1356 
Q 3559 666 3084 287 
Q 2609 -91 1734 -91 
Q 1441 -91 1130 -33 
Q 819 25 488 141 
L 488 750 
Q 750 597 1062 519 
Q 1375 441 1716 441 
Q 2309 441 2620 675 
Q 2931 909 2931 1356 
Q 2931 1769 2642 2001 
Q 2353 2234 1838 2234 
L 1294 2234 
L 1294 2753 
L 1863 2753 
Q 2328 2753 2575 2939 
Q 2822 3125 2822 3475 
Q 2822 3834 2567 4026 
Q 2313 4219 1838 4219 
Q 1578 4219 1281 4162 
Q 984 4106 628 3988 
L 628 4550 
Q 988 4650 1302 4700 
Q 1616 4750 1894 4750 
Q 2613 4750 3031 4423 
Q 3450 4097 3450 3541 
Q 3450 3153 3228 2886 
Q 3006 2619 2597 2516 
z
" transform="scale(0.015625)"/>
       </defs>
       <use xlink:href="#DejaVuSans-32"/>
       <use xlink:href="#DejaVuSans-30" x="63.623047"/>
       <use xlink:href="#DejaVuSans-32" x="127.246094"/>
       <use xlink:href="#DejaVuSans-33" x="190.869141"/>
       <use xlink:href="#DejaVuSans-2d" x="254.492188"/>
       <use xlink:href="#DejaVuSans-30" x="290.576172"/>
       <use xlink:href="#DejaVuSans-31" x="354.199219"/>
      </g>
     </g>
    </g>
    <g id="xtick_6">
     <g id="line2d_11">
      <path d="M 462.088889 320.4 
L 462.088889 43.2 
" clip-path="url(#pc5fc89660f)" style="fill: none; stroke-dasharray: 5.12,1.28,0.8,1.28; stroke-dashoffset: 0; stroke: #b0b0b0; stroke-width: 0.8"/>
     </g>
     <g id="line2d_12">
      <g>
       <use xlink:href="#m35376f159b" x="462.088889" y="320.4" style="fill: #a9a9a9; stroke: #a9a9a9; stroke-width: 0.8"/>
      </g>
     </g>
     <g id="text_6">
      <!-- 2023-05 -->
      <g style="fill: #a9a9a9" transform="translate(441.197483 334.998438) scale(0.1 -0.1)">
       <use xlink:href="#DejaVuSans-32"/>
       <use xlink:href="#DejaVuSans-30" x="63.623047"/>
       <use xlink:href="#DejaVuSans-32" x="127.246094"/>
       <use xlink:href="#DejaVuSans-33" x="190.869141"/>
       <use xlink:href="#DejaVuSans-2d" x="254.492188"/>
       <use xlink:href="#DejaVuSans-30" x="290.576172"/>
       <use xlink:href="#DejaVuSans-35" x="354.199219"/>
      </g>
     </g>
    </g>
    <g id="xtick_7">
     <g id="line2d_13">
      <path d="M 523.713131 320.4 
L 523.713131 43.2 
" clip-path="url(#pc5fc89660f)" style="fill: none; stroke-dasharray: 5.12,1.28,0.8,1.28; stroke-dashoffset: 0; stroke: #b0b0b0; stroke-width: 0.8"/>
     </g>
     <g id="line2d_14">
      <g>
       <use xlink:href="#m35376f159b" x="523.713131" y="320.4" style="fill: #a9a9a9; stroke: #a9a9a9; stroke-width: 0.8"/>
      </g>
     </g>
     <g id="text_7">
      <!-- 2023-09 -->
      <g style="fill: #a9a9a9" transform="translate(502.821725 334.998438) scale(0.1 -0.1)">
       <use xlink:href="#DejaVuSans-32"/>
       <use xlink:href="#DejaVuSans-30" x="63.623047"/>
       <use xlink:href="#DejaVuSans-32" x="127.246094"/>
       <use xlink:href="#DejaVuSans-33" x="190.869141"/>
       <use xlink:href="#DejaVuSans-2d" x="254.492188"/>
       <use xlink:href="#DejaVuSans-30" x="290.576172"/>
       <use xlink:href="#DejaVuSans-39" x="354.199219"/>
      </g>
     </g>
    </g>
    <g id="xtick_8">
     <g id="line2d_15">
      <path d="M 584.836364 320.4 
L 584.836364 43.2 
" clip-path="url(#pc5fc89660f)" style="fill: none; stroke-dasharray: 5.12,1.28,0.8,1.28; stroke-dashoffset: 0; stroke: #b0b0b0; stroke-width: 0.8"/>
     </g>
     <g id="line2d_16">
      <g>
       <use xlink:href="#m35376f159b" x="584.836364" y="320.4" style="fill: #a9a9a9; stroke: #a9a9a9; stroke-width: 0.8"/>
      </g>
     </g>
     <g id="text_8">
      <!-- 2024-01 -->
      <g style="fill: #a9a9a9" transform="translate(563.944957 334.998438) scale(0.1 -0.1)">
       <defs>
        <path id="DejaVuSans-34" d="M 2419 4116 
L 825 1625 
L 2419 1625 
L 2419 4116 
z
M 2253 4666 
L 3047 4666 
L 3047 1625 
L 3713 1625 
L 3713 1100 
L 3047 1100 
L 3047 0 
L 2419 0 
L 2419 1100 
L 313 1100 
L 313 1709 
L 2253 4666 
z
" transform="scale(0.015625)"/>
       </defs>
       <use xlink:href="#DejaVuSans-32"/>
       <use xlink:href="#DejaVuSans-30" x="63.623047"/>
       <use xlink:href="#DejaVuSans-32" x="127.246094"/>
       <use xlink:href="#DejaVuSans-34" x="190.869141"/>
       <use xlink:href="#DejaVuSans-2d" x="254.492188"/>
       <use xlink:href="#DejaVuSans-30" x="290.576172"/>
       <use xlink:href="#DejaVuSans-31" x="354.199219"/>
      </g>
     </g>
    </g>
    <g id="xtick_9">
     <g id="line2d_17">
      <path d="M 645.458586 320.4 
L 645.458586 43.2 
" clip-path="url(#pc5fc89660f)" style="fill: none; stroke-dasharray: 5.12,1.28,0.8,1.28; stroke-dashoffset: 0; stroke: #b0b0b0; stroke-width: 0.8"/>
     </g>
     <g id="line2d_18">
      <g>
       <use xlink:href="#m35376f159b" x="645.458586" y="320.4" style="fill: #a9a9a9; stroke: #a9a9a9; stroke-width: 0.8"/>
      </g>
     </g>
     <g id="text_9">
      <!-- 2024-05 -->
      <g style="fill: #a9a9a9" transform="translate(624.56718 334.998438) scale(0.1 -0.1)">
       <use xlink:href="#DejaVuSans-32"/>
       <use xlink:href="#DejaVuSans-30" x="63.623047"/>
       <use xlink:href="#DejaVuSans-32" x="127.246094"/>
       <use xlink:href="#DejaVuSans-34" x="190.869141"/>
       <use xlink:href="#DejaVuSans-2d" x="254.492188"/>
       <use xlink:href="#DejaVuSans-30" x="290.576172"/>
       <use xlink:href="#DejaVuSans-35" x="354.199219"/>
      </g>
     </g>
    </g>
    <g id="xtick_10">
     <g id="line2d_19">
      <path d="M 707.082828 320.4 
L 707.082828 43.2 
" clip-path="url(#pc5fc89660f)" style="fill: none; stroke-dasharray: 5.12,1.28,0.8,1.28; stroke-dashoffset: 0; stroke: #b0b0b0; stroke-width: 0.8"/>
     </g>
     <g id="line2d_20">
      <g>
       <use xlink:href="#m35376f159b" x="707.082828" y="320.4" style="fill: #a9a9a9; stroke: #a9a9a9; stroke-width: 0.8"/>
      </g>
     </g>
     <g id="text_10">
      <!-- 2024-09 -->
      <g style="fill: #a9a9a9" transform="translate(686.191422 334.998438) scale(0.1 -0.1)">
       <use xlink:href="#DejaVuSans-32"/>
       <use xlink:href="#DejaVuSans-30" x="63.623047"/>
       <use xlink:href="#DejaVuSans-32" x="127.246094"/>
       <use xlink:href="#DejaVuSans-34" x="190.869141"/>
       <use xlink:href="#DejaVuSans-2d" x="254.492188"/>
       <use xlink:href="#DejaVuSans-30" x="290.576172"/>
       <use xlink:href="#DejaVuSans-39" x="354.199219"/>
      </g>
     </g>
    </g>
    <g id="xtick_11">
     <g id="line2d_21">
      <path d="M 768.206061 320.4 
L 768.206061 43.2 
" clip-path="url(#pc5fc89660f)" style="fill: none; stroke-dasharray: 5.12,1.28,0.8,1.28; stroke-dashoffset: 0; stroke: #b0b0b0; stroke-width: 0.8"/>
     </g>
     <g id="line2d_22">
      <g>
       <use xlink:href="#m35376f159b" x="768.206061" y="320.4" style="fill: #a9a9a9; stroke: #a9a9a9; stroke-width: 0.8"/>
      </g>
     </g>
     <g id="text_11">
      <!-- 2025-01 -->
      <g style="fill: #a9a9a9" transform="translate(747.314654 334.998438) scale(0.1 -0.1)">
       <use xlink:href="#DejaVuSans-32"/>
       <use xlink:href="#DejaVuSans-30" x="63.623047"/>
       <use xlink:href="#DejaVuSans-32" x="127.246094"/>
       <use xlink:href="#DejaVuSans-35" x="190.869141"/>
       <use xlink:href="#DejaVuSans-2d" x="254.492188"/>
       <use xlink:href="#DejaVuSans-30" x="290.576172"/>
       <use xlink:href="#DejaVuSans-31" x="354.199219"/>
      </g>
     </g>
    </g>
   </g>
   <g id="matplotlib.axis_2">
    <g id="ytick_1">
     <g id="line2d_23">
      <path d="M 108 307.836103 
L 777.6 307.836103 
" clip-path="url(#pc5fc89660f)" style="fill: none; stroke-dasharray: 5.12,1.28,0.8,1.28; stroke-dashoffset: 0; stroke: #b0b0b0; stroke-width: 0.8"/>
     </g>
     <g id="line2d_24">
      <defs>
       <path id="mbd844ca40b" d="M 0 0 
L -3.5 0 
" style="stroke: #a9a9a9; stroke-width: 0.8"/>
      </defs>
      <g>
       <use xlink:href="#mbd844ca40b" x="108" y="307.836103" style="fill: #a9a9a9; stroke: #a9a9a9; stroke-width: 0.8"/>
      </g>
     </g>
     <g id="text_12">
      <!-- 0 -->
      <g style="fill: #a9a9a9" transform="translate(94.6375 311.635322) scale(0.1 -0.1)">
       <use xlink:href="#DejaVuSans-30"/>
      </g>
     </g>
    </g>
    <g id="ytick_2">
     <g id="line2d_25">
      <path d="M 108 278.953582 
L 777.6 278.953582 
" clip-path="url(#pc5fc89660f)" style="fill: none; stroke-dasharray: 5.12,1.28,0.8,1.28; stroke-dashoffset: 0; stroke: #b0b0b0; stroke-width: 0.8"/>
     </g>
     <g id="line2d_26">
      <g>
       <use xlink:href="#mbd844ca40b" x="108" y="278.953582" style="fill: #a9a9a9; stroke: #a9a9a9; stroke-width: 0.8"/>
      </g>
     </g>
     <g id="text_13">
      <!-- 800 -->
      <g style="fill: #a9a9a9" transform="translate(81.9125 282.7528) scale(0.1 -0.1)">
       <defs>
        <path id="DejaVuSans-38" d="M 2034 2216 
Q 1584 2216 1326 1975 
Q 1069 1734 1069 1313 
Q 1069 891 1326 650 
Q 1584 409 2034 409 
Q 2484 409 2743 651 
Q 3003 894 3003 1313 
Q 3003 1734 2745 1975 
Q 2488 2216 2034 2216 
z
M 1403 2484 
Q 997 2584 770 2862 
Q 544 3141 544 3541 
Q 544 4100 942 4425 
Q 1341 4750 2034 4750 
Q 2731 4750 3128 4425 
Q 3525 4100 3525 3541 
Q 3525 3141 3298 2862 
Q 3072 2584 2669 2484 
Q 3125 2378 3379 2068 
Q 3634 1759 3634 1313 
Q 3634 634 3220 271 
Q 2806 -91 2034 -91 
Q 1263 -91 848 271 
Q 434 634 434 1313 
Q 434 1759 690 2068 
Q 947 2378 1403 2484 
z
M 1172 3481 
Q 1172 3119 1398 2916 
Q 1625 2713 2034 2713 
Q 2441 2713 2670 2916 
Q 2900 3119 2900 3481 
Q 2900 3844 2670 4047 
Q 2441 4250 2034 4250 
Q 1625 4250 1398 4047 
Q 1172 3844 1172 3481 
z
" transform="scale(0.015625)"/>
       </defs>
       <use xlink:href="#DejaVuSans-38"/>
       <use xlink:href="#DejaVuSans-30" x="63.623047"/>
       <use xlink:href="#DejaVuSans-30" x="127.246094"/>
      </g>
     </g>
    </g>
    <g id="ytick_3">
     <g id="line2d_27">
      <path d="M 108 250.07106 
L 777.6 250.07106 
" clip-path="url(#pc5fc89660f)" style="fill: none; stroke-dasharray: 5.12,1.28,0.8,1.28; stroke-dashoffset: 0; stroke: #b0b0b0; stroke-width: 0.8"/>
     </g>
     <g id="line2d_28">
      <g>
       <use xlink:href="#mbd844ca40b" x="108" y="250.07106" style="fill: #a9a9a9; stroke: #a9a9a9; stroke-width: 0.8"/>
      </g>
     </g>
     <g id="text_14">
      <!-- 1600 -->
      <g style="fill: #a9a9a9" transform="translate(75.55 253.870279) scale(0.1 -0.1)">
       <defs>
        <path id="DejaVuSans-36" d="M 2113 2584 
Q 1688 2584 1439 2293 
Q 1191 2003 1191 1497 
Q 1191 994 1439 701 
Q 1688 409 2113 409 
Q 2538 409 2786 701 
Q 3034 994 3034 1497 
Q 3034 2003 2786 2293 
Q 2538 2584 2113 2584 
z
M 3366 4563 
L 3366 3988 
Q 3128 4100 2886 4159 
Q 2644 4219 2406 4219 
Q 1781 4219 1451 3797 
Q 1122 3375 1075 2522 
Q 1259 2794 1537 2939 
Q 1816 3084 2150 3084 
Q 2853 3084 3261 2657 
Q 3669 2231 3669 1497 
Q 3669 778 3244 343 
Q 2819 -91 2113 -91 
Q 1303 -91 875 529 
Q 447 1150 447 2328 
Q 447 3434 972 4092 
Q 1497 4750 2381 4750 
Q 2619 4750 2861 4703 
Q 3103 4656 3366 4563 
z
" transform="scale(0.015625)"/>
       </defs>
       <use xlink:href="#DejaVuSans-31"/>
       <use xlink:href="#DejaVuSans-36" x="63.623047"/>
       <use xlink:href="#DejaVuSans-30" x="127.246094"/>
       <use xlink:href="#DejaVuSans-30" x="190.869141"/>
      </g>
     </g>
    </g>
    <g id="ytick_4">
     <g id="line2d_29">
      <path d="M 108 221.188539 
L 777.6 221.188539 
" clip-path="url(#pc5fc89660f)" style="fill: none; stroke-dasharray: 5.12,1.28,0.8,1.28; stroke-dashoffset: 0; stroke: #b0b0b0; stroke-width: 0.8"/>
     </g>
     <g id="line2d_30">
      <g>
       <use xlink:href="#mbd844ca40b" x="108" y="221.188539" style="fill: #a9a9a9; stroke: #a9a9a9; stroke-width: 0.8"/>
      </g>
     </g>
     <g id="text_15">
      <!-- 2400 -->
      <g style="fill: #a9a9a9" transform="translate(75.55 224.987757) scale(0.1 -0.1)">
       <use xlink:href="#DejaVuSans-32"/>
       <use xlink:href="#DejaVuSans-34" x="63.623047"/>
       <use xlink:href="#DejaVuSans-30" x="127.246094"/>
       <use xlink:href="#DejaVuSans-30" x="190.869141"/>
      </g>
     </g>
    </g>
    <g id="ytick_5">
     <g id="line2d_31">
      <path d="M 108 192.306017 
L 777.6 192.306017 
" clip-path="url(#pc5fc89660f)" style="fill: none; stroke-dasharray: 5.12,1.28,0.8,1.28; stroke-dashoffset: 0; stroke: #b0b0b0; stroke-width: 0.8"/>
     </g>
     <g id="line2d_32">
      <g>
       <use xlink:href="#mbd844ca40b" x="108" y="192.306017" style="fill: #a9a9a9; stroke: #a9a9a9; stroke-width: 0.8"/>
      </g>
     </g>
     <g id="text_16">
      <!-- 3200 -->
      <g style="fill: #a9a9a9" transform="translate(75.55 196.105236) scale(0.1 -0.1)">
       <use xlink:href="#DejaVuSans-33"/>
       <use xlink:href="#DejaVuSans-32" x="63.623047"/>
       <use xlink:href="#DejaVuSans-30" x="127.246094"/>
       <use xlink:href="#DejaVuSans-30" x="190.869141"/>
      </g>
     </g>
    </g>
    <g id="ytick_6">
     <g id="line2d_33">
      <path d="M 108 163.423496 
L 777.6 163.423496 
" clip-path="url(#pc5fc89660f)" style="fill: none; stroke-dasharray: 5.12,1.28,0.8,1.28; stroke-dashoffset: 0; stroke: #b0b0b0; stroke-width: 0.8"/>
     </g>
     <g id="line2d_34">
      <g>
       <use xlink:href="#mbd844ca40b" x="108" y="163.423496" style="fill: #a9a9a9; stroke: #a9a9a9; stroke-width: 0.8"/>
      </g>
     </g>
     <g id="text_17">
      <!-- 4000 -->
      <g style="fill: #a9a9a9" transform="translate(75.55 167.222714) scale(0.1 -0.1)">
       <use xlink:href="#DejaVuSans-34"/>
       <use xlink:href="#DejaVuSans-30" x="63.623047"/>
       <use xlink:href="#DejaVuSans-30" x="127.246094"/>
       <use xlink:href="#DejaVuSans-30" x="190.869141"/>
      </g>
     </g>
    </g>
    <g id="ytick_7">
     <g id="line2d_35">
      <path d="M 108 134.540974 
L 777.6 134.540974 
" clip-path="url(#pc5fc89660f)" style="fill: none; stroke-dasharray: 5.12,1.28,0.8,1.28; stroke-dashoffset: 0; stroke: #b0b0b0; stroke-width: 0.8"/>
     </g>
     <g id="line2d_36">
      <g>
       <use xlink:href="#mbd844ca40b" x="108" y="134.540974" style="fill: #a9a9a9; stroke: #a9a9a9; stroke-width: 0.8"/>
      </g>
     </g>
     <g id="text_18">
      <!-- 4800 -->
      <g style="fill: #a9a9a9" transform="translate(75.55 138.340193) scale(0.1 -0.1)">
       <use xlink:href="#DejaVuSans-34"/>
       <use xlink:href="#DejaVuSans-38" x="63.623047"/>
       <use xlink:href="#DejaVuSans-30" x="127.246094"/>
       <use xlink:href="#DejaVuSans-30" x="190.869141"/>
      </g>
     </g>
    </g>
    <g id="ytick_8">
     <g id="line2d_37">
      <path d="M 108 105.658453 
L 777.6 105.658453 
" clip-path="url(#pc5fc89660f)" style="fill: none; stroke-dasharray: 5.12,1.28,0.8,1.28; stroke-dashoffset: 0; stroke: #b0b0b0; stroke-width: 0.8"/>
     </g>
     <g id="line2d_38">
      <g>
       <use xlink:href="#mbd844ca40b" x="108" y="105.658453" style="fill: #a9a9a9; stroke: #a9a9a9; stroke-width: 0.8"/>
      </g>
     </g>
     <g id="text_19">
      <!-- 5600 -->
      <g style="fill: #a9a9a9" transform="translate(75.55 109.457671) scale(0.1 -0.1)">
       <use xlink:href="#DejaVuSans-35"/>
       <use xlink:href="#DejaVuSans-36" x="63.623047"/>
       <use xlink:href="#DejaVuSans-30" x="127.246094"/>
       <use xlink:href="#DejaVuSans-30" x="190.869141"/>
      </g>
     </g>
    </g>
    <g id="ytick_9">
     <g id="line2d_39">
      <path d="M 108 76.775931 
L 777.6 76.775931 
" clip-path="url(#pc5fc89660f)" style="fill: none; stroke-dasharray: 5.12,1.28,0.8,1.28; stroke-dashoffset: 0; stroke: #b0b0b0; stroke-width: 0.8"/>
     </g>
     <g id="line2d_40">
      <g>
       <use xlink:href="#mbd844ca40b" x="108" y="76.775931" style="fill: #a9a9a9; stroke: #a9a9a9; stroke-width: 0.8"/>
      </g>
     </g>
     <g id="text_20">
      <!-- 6400 -->
      <g style="fill: #a9a9a9" transform="translate(75.55 80.57515) scale(0.1 -0.1)">
       <use xlink:href="#DejaVuSans-36"/>
       <use xlink:href="#DejaVuSans-34" x="63.623047"/>
       <use xlink:href="#DejaVuSans-30" x="127.246094"/>
       <use xlink:href="#DejaVuSans-30" x="190.869141"/>
      </g>
     </g>
    </g>
    <g id="ytick_10">
     <g id="line2d_41">
      <path d="M 108 47.89341 
L 777.6 47.89341 
" clip-path="url(#pc5fc89660f)" style="fill: none; stroke-dasharray: 5.12,1.28,0.8,1.28; stroke-dashoffset: 0; stroke: #b0b0b0; stroke-width: 0.8"/>
     </g>
     <g id="line2d_42">
      <g>
       <use xlink:href="#mbd844ca40b" x="108" y="47.89341" style="fill: #a9a9a9; stroke: #a9a9a9; stroke-width: 0.8"/>
      </g>
     </g>
     <g id="text_21">
      <!-- 7200 -->
      <g style="fill: #a9a9a9" transform="translate(75.55 51.692628) scale(0.1 -0.1)">
       <defs>
        <path id="DejaVuSans-37" d="M 525 4666 
L 3525 4666 
L 3525 4397 
L 1831 0 
L 1172 0 
L 2766 4134 
L 525 4134 
L 525 4666 
z
" transform="scale(0.015625)"/>
       </defs>
       <use xlink:href="#DejaVuSans-37"/>
       <use xlink:href="#DejaVuSans-32" x="63.623047"/>
       <use xlink:href="#DejaVuSans-30" x="127.246094"/>
       <use xlink:href="#DejaVuSans-30" x="190.869141"/>
      </g>
     </g>
    </g>
   </g>
   <g id="line2d_43">
    <path d="M 138.436364 307.727794 
L 141.442424 307.475072 
L 141.943434 307.258453 
L 143.947475 307.005731 
L 145.951515 306.608596 
L 146.953535 306.464183 
L 149.458586 306.247564 
L 150.460606 305.85043 
L 150.961616 305.200573 
L 151.462626 304.839542 
L 151.963636 303.720344 
L 152.464646 303.648138 
L 152.965657 303.251003 
L 153.967677 302.745559 
L 155.971717 301.15702 
L 157.975758 300.182235 
L 159.478788 299.496275 
L 159.979798 298.702006 
L 160.981818 297.979943 
L 161.482828 297.763324 
L 166.492929 297.041261 
L 166.993939 296.824642 
L 170.50101 296.535817 
L 172.505051 296.066476 
L 176.513131 295.524928 
L 177.014141 295.272206 
L 177.515152 295.2 
L 178.517172 294.875072 
L 182.024242 294.297421 
L 183.026263 294.008596 
L 187.535354 293.25043 
L 188.537374 293.033811 
L 189.539394 292.997708 
L 191.543434 292.528367 
L 192.044444 291.842407 
L 193.547475 291.264756 
L 195.050505 290.867622 
L 195.551515 290.6149 
L 196.553535 290.434384 
L 198.557576 289.856734 
L 199.559596 289.784527 
L 200.561616 289.531805 
L 202.565657 289.026361 
L 203.066667 288.990258 
L 204.068687 288.520917 
L 204.569697 288.448711 
L 205.070707 288.195989 
L 210.581818 287.29341 
L 212.585859 286.715759 
L 213.086869 286.390831 
L 215.591919 285.560458 
L 216.593939 284.874499 
L 218.09697 284.585673 
L 231.123232 280.939255 
L 231.624242 280.939255 
L 232.125253 280.722636 
L 233.127273 280.614327 
L 233.628283 280.433811 
L 235.632323 280.325501 
L 236.634343 280.144986 
L 237.636364 279.639542 
L 239.139394 279.097994 
L 239.640404 278.773066 
L 240.642424 278.339828 
L 241.143434 278.087106 
L 242.145455 277.762178 
L 242.646465 277.617765 
L 243.648485 277.004011 
L 244.149495 276.462464 
L 245.151515 274.946132 
L 245.652525 274.801719 
L 246.153535 274.801719 
L 247.656566 273.935244 
L 248.157576 273.682521 
L 248.658586 273.574212 
L 249.159596 273.104871 
L 250.161616 272.707736 
L 251.163636 272.238395 
L 253.668687 269.061318 
L 256.674747 267.472779 
L 257.676768 266.67851 
L 258.177778 266.353582 
L 258.678788 265.595415 
L 259.179798 264.476218 
L 259.680808 263.718052 
L 260.181818 263.320917 
L 260.682828 263.104298 
L 264.189899 260.14384 
L 265.191919 258.952436 
L 266.193939 258.230372 
L 267.69697 257.219484 
L 268.19798 256.786246 
L 269.2 256.461318 
L 270.70303 255.594842 
L 272.206061 254.620057 
L 274.210101 252.851003 
L 275.212121 252.453868 
L 276.214141 251.767908 
L 276.715152 251.479083 
L 277.216162 251.406877 
L 278.719192 250.576504 
L 279.220202 250.034957 
L 281.725253 248.69914 
L 282.226263 248.518625 
L 283.729293 247.507736 
L 291.244444 244.872206 
L 292.246465 243.969628 
L 293.248485 243.500287 
L 294.250505 242.958739 
L 294.751515 242.669914 
L 295.753535 242.381089 
L 296.254545 242.05616 
L 296.755556 241.911748 
L 298.258586 240.936963 
L 300.763636 240.359312 
L 302.266667 239.492837 
L 303.769697 239.167908 
L 304.270707 239.023496 
L 305.773737 237.904298 
L 307.777778 237.362751 
L 308.278788 236.965616 
L 311.284848 235.954728 
L 312.286869 235.774212 
L 313.288889 235.377077 
L 316.79596 234.113467 
L 317.79798 233.969054 
L 319.30101 233.46361 
L 321.806061 232.272206 
L 323.810101 231.189112 
L 327.818182 229.56447 
L 328.319192 229.492264 
L 329.321212 228.87851 
L 329.822222 228.806304 
L 331.826263 227.975931 
L 333.830303 227.687106 
L 334.832323 227.181662 
L 335.333333 226.748424 
L 335.834343 225.845845 
L 337.838384 225.304298 
L 339.341414 224.546132 
L 339.842424 224.437822 
L 343.850505 222.524355 
L 345.353535 222.23553 
L 346.355556 221.730086 
L 346.856566 221.513467 
L 347.357576 221.441261 
L 349.361616 220.538682 
L 350.864646 219.6 
L 352.367677 219.311175 
L 354.872727 218.697421 
L 355.373737 218.300287 
L 356.876768 217.758739 
L 358.880808 216.96447 
L 359.381818 216.603438 
L 359.882828 216.422923 
L 360.884848 215.881375 
L 363.389899 215.051003 
L 364.892929 213.859599 
L 365.393939 213.751289 
L 366.39596 212.95702 
L 366.89697 212.884814 
L 367.39798 212.090544 
L 367.89899 211.873926 
L 368.4 211.476791 
L 368.90101 211.404585 
L 369.90303 210.790831 
L 370.905051 210.465903 
L 371.406061 210.104871 
L 371.907071 209.924355 
L 373.410101 208.877364 
L 375.414141 207.830372 
L 375.915152 207.758166 
L 377.418182 207 
L 377.919192 206.169628 
L 378.921212 205.447564 
L 379.422222 205.339255 
L 380.424242 204.725501 
L 380.925253 204.617192 
L 381.927273 204.111748 
L 383.931313 203.136963 
L 384.432323 202.775931 
L 385.434343 201.801146 
L 386.436364 201.187393 
L 386.937374 200.862464 
L 387.438384 200.320917 
L 389.442424 198.948997 
L 389.943434 198.371347 
L 390.444444 197.974212 
L 391.446465 197.613181 
L 392.448485 196.927221 
L 393.951515 196.169054 
L 394.452525 196.096848 
L 395.955556 195.302579 
L 396.957576 194.688825 
L 401.967677 192.883668 
L 402.468687 192.486533 
L 404.472727 191.728367 
L 404.973737 191.583954 
L 405.474747 191.186819 
L 407.979798 189.8149 
L 408.981818 187.829226 
L 409.983838 186.673926 
L 410.985859 186.096275 
L 412.488889 185.482521 
L 412.989899 185.410315 
L 413.490909 185.12149 
L 415.99596 184.327221 
L 416.49697 184.110602 
L 417.49899 183.424642 
L 419.00202 182.774785 
L 420.00404 182.233238 
L 420.505051 181.872206 
L 421.006061 181.655587 
L 421.507071 181.294556 
L 422.008081 180.753009 
L 423.010101 180.211461 
L 425.515152 178.875645 
L 428.521212 177.395415 
L 430.024242 176.962178 
L 431.527273 176.384527 
L 432.028283 176.023496 
L 433.030303 175.73467 
L 434.032323 175.337536 
L 434.533333 174.940401 
L 436.537374 174.254441 
L 437.539394 173.532378 
L 438.541414 173.09914 
L 439.543434 172.304871 
L 440.545455 171.94384 
L 441.046465 171.510602 
L 441.547475 171.438395 
L 442.549495 170.680229 
L 443.551515 170.174785 
L 444.052525 169.958166 
L 444.553535 169.452722 
L 448.060606 168.080802 
L 449.062626 167.647564 
L 450.565657 167.178223 
L 451.567677 167.033811 
L 452.068687 166.817192 
L 452.569697 166.744986 
L 453.571717 166.311748 
L 454.072727 166.275645 
L 456.076768 165.517479 
L 457.579798 164.470487 
L 458.080808 164.289971 
L 459.082828 163.748424 
L 459.583838 163.604011 
L 462.589899 161.943266 
L 463.090909 161.834957 
L 464.593939 160.968481 
L 466.09697 160.463037 
L 467.09899 160.138109 
L 469.10303 159.488252 
L 470.105051 159.163324 
L 472.109091 158.766189 
L 472.610101 158.54957 
L 473.111111 158.477364 
L 474.113131 158.044126 
L 474.614141 157.97192 
L 475.115152 157.719198 
L 476.117172 157.538682 
L 477.620202 156.997135 
L 478.622222 156.888825 
L 480.125253 156.563897 
L 482.630303 156.130659 
L 495.656566 152.375931 
L 496.157576 151.870487 
L 497.159596 151.473352 
L 500.165657 150.390258 
L 500.666667 150.06533 
L 501.167677 149.95702 
L 501.668687 149.668195 
L 503.171717 149.234957 
L 504.173737 148.982235 
L 504.674747 148.657307 
L 505.175758 148.548997 
L 505.676768 148.115759 
L 507.179798 147.826934 
L 508.181818 147.357593 
L 508.682828 146.779943 
L 510.686869 146.310602 
L 514.193939 145.588539 
L 514.694949 145.588539 
L 515.19596 145.37192 
L 517.2 145.010888 
L 517.70101 144.794269 
L 519.705051 144.433238 
L 520.707071 144 
L 521.709091 143.819484 
L 524.214141 143.205731 
L 526.218182 142.591977 
L 526.719192 142.483668 
L 527.220202 142.230946 
L 528.222222 141.978223 
L 528.723232 141.689398 
L 530.226263 141.183954 
L 530.727273 140.859026 
L 531.729293 140.570201 
L 532.731313 140.245272 
L 533.733333 139.848138 
L 535.236364 139.198281 
L 537.240404 138.945559 
L 541.248485 137.537536 
L 541.749495 137.176504 
L 542.250505 137.068195 
L 542.751515 136.815473 
L 543.252525 136.77937 
L 548.763636 134.865903 
L 551.268687 134.216046 
L 552.270707 133.746705 
L 553.773737 133.421777 
L 554.274747 133.024642 
L 554.775758 132.77192 
L 555.276768 132.158166 
L 555.777778 131.797135 
L 556.779798 131.508309 
L 557.280808 131.111175 
L 560.286869 129.991977 
L 560.787879 129.667049 
L 561.789899 129.378223 
L 562.290909 129.053295 
L 564.79596 128.259026 
L 566.29899 127.39255 
L 566.8 127.284241 
L 569.305051 125.948424 
L 570.808081 125.298567 
L 571.309091 124.937536 
L 572.311111 124.612607 
L 573.313131 124.034957 
L 573.814141 123.854441 
L 574.315152 123.49341 
L 580.828283 121.218911 
L 581.329293 121.110602 
L 581.830303 120.785673 
L 583.834343 120.388539 
L 584.836364 119.991404 
L 585.337374 119.702579 
L 585.838384 119.558166 
L 587.842424 118.511175 
L 588.343434 118.438968 
L 589.846465 117.608596 
L 591.349495 117.103152 
L 594.856566 115.695129 
L 595.357576 115.550716 
L 595.858586 115.225788 
L 596.860606 115.117479 
L 597.361616 114.79255 
L 598.363636 114.612034 
L 599.365657 114.142693 
L 599.866667 113.926074 
L 600.367677 113.853868 
L 602.872727 112.879083 
L 604.375758 112.481948 
L 605.377778 112.229226 
L 606.880808 111.795989 
L 607.882828 111.398854 
L 609.886869 110.315759 
L 610.888889 109.918625 
L 611.389899 109.593696 
L 612.391919 109.377077 
L 612.892929 109.088252 
L 613.393939 108.979943 
L 614.89697 108.14957 
L 615.89899 107.752436 
L 617.90303 106.994269 
L 620.408081 106.163897 
L 621.410101 105.658453 
L 623.915152 104.82808 
L 625.418182 104.286533 
L 625.919192 104.14212 
L 626.921212 103.600573 
L 628.925253 102.697994 
L 633.935354 100.784527 
L 634.436364 100.459599 
L 636.440404 99.773639 
L 636.941414 99.773639 
L 637.943434 99.340401 
L 638.945455 98.437822 
L 639.446465 98.004585 
L 640.949495 97.282521 
L 641.450505 97.174212 
L 641.951515 96.92149 
L 642.452525 96.849284 
L 642.953535 96.488252 
L 643.454545 96.379943 
L 644.456566 95.766189 
L 645.959596 95.008023 
L 646.961616 94.610888 
L 647.462626 94.358166 
L 648.965657 94.033238 
L 651.470707 93.202865 
L 652.472727 92.877937 
L 653.975758 92.119771 
L 654.977778 91.65043 
L 655.979798 91.397708 
L 657.482828 90.711748 
L 661.991919 89.051003 
L 663.494949 88.148424 
L 663.99596 88.040115 
L 664.99798 87.53467 
L 666 87.173639 
L 666.50101 86.740401 
L 667.50303 86.343266 
L 669.006061 85.729513 
L 669.507071 85.332378 
L 670.008081 85.296275 
L 671.010101 85.00745 
L 672.012121 84.682521 
L 672.513131 84.429799 
L 673.014141 84.357593 
L 674.517172 83.816046 
L 676.020202 83.274499 
L 677.022222 82.877364 
L 677.523232 82.480229 
L 679.026263 82.083095 
L 679.527273 81.794269 
L 680.529293 81.541547 
L 682.032323 80.711175 
L 682.533333 80.675072 
L 684.036364 80.205731 
L 685.038384 80.133524 
L 686.040404 79.73639 
L 689.046465 78.869914 
L 690.048485 78.833811 
L 694.056566 77.570201 
L 695.058586 77.028653 
L 695.559596 76.595415 
L 697.062626 75.72894 
L 698.064646 75.115186 
L 700.068687 74.537536 
L 700.569697 74.248711 
L 701.070707 74.140401 
L 701.571717 73.743266 
L 704.577778 72.515759 
L 706.581818 71.974212 
L 707.583838 71.540974 
L 708.084848 71.288252 
L 709.086869 70.999427 
L 709.587879 70.674499 
L 710.589899 70.493983 
L 713.094949 69.338682 
L 713.59596 69.049857 
L 715.09899 68.688825 
L 716.60202 67.71404 
L 717.10303 67.641834 
L 719.608081 66.667049 
L 721.111111 66.306017 
L 721.612121 66.233811 
L 722.113131 66.017192 
L 722.614141 65.981089 
L 723.616162 65.65616 
L 724.117172 65.620057 
L 725.620202 65.042407 
L 727.624242 64.464756 
L 728.626263 63.70659 
L 730.630303 62.623496 
L 732.133333 62.118052 
L 735.139394 60.782235 
L 736.141414 60.240688 
L 736.642424 59.987966 
L 737.143434 59.518625 
L 739.648485 58.796562 
L 740.650505 58.255014 
L 742.654545 57.532951 
L 743.155556 57.06361 
L 745.159596 56.522063 
L 745.660606 56.161032 
L 746.662626 55.8 
L 747.163636 55.8 
L 747.163636 55.8 
" clip-path="url(#pc5fc89660f)" style="fill: none; stroke: #1f77b4; stroke-width: 1.5; stroke-linecap: square"/>
   </g>
   <g id="line2d_44">
    <path d="M 138.937374 307.8 
L 143.446465 307.691691 
L 147.454545 307.511175 
L 149.458586 307.511175 
L 149.959596 307.366762 
L 152.464646 307.258453 
L 155.470707 306.933524 
L 158.476768 306.825215 
L 159.478788 306.716905 
L 162.985859 306.572493 
L 166.492929 306.464183 
L 168.99798 306.391977 
L 175.511111 306.283668 
L 178.016162 306.211461 
L 181.523232 306.103152 
L 184.028283 306.030946 
L 189.539394 305.922636 
L 191.543434 305.74212 
L 193.547475 305.706017 
L 196.553535 305.597708 
L 198.557576 305.561605 
L 201.062626 305.489398 
L 203.066667 305.308883 
L 207.575758 305.200573 
L 208.577778 305.128367 
L 210.581818 305.020057 
L 213.587879 304.911748 
L 215.591919 304.803438 
L 224.610101 304.261891 
L 228.117172 304.153582 
L 229.620202 304.009169 
L 232.125253 303.90086 
L 237.135354 303.648138 
L 242.145455 303.575931 
L 244.149495 303.359312 
L 246.153535 303.251003 
L 251.664646 302.745559 
L 255.171717 302.348424 
L 256.674747 302.276218 
L 261.183838 301.73467 
L 263.688889 301.662464 
L 265.191919 301.518052 
L 266.694949 301.409742 
L 280.723232 300.362751 
L 281.725253 300.182235 
L 284.731313 300.073926 
L 292.747475 299.604585 
L 296.254545 299.496275 
L 298.258586 299.279656 
L 300.763636 299.171347 
L 303.769697 299.063037 
L 306.274747 298.954728 
L 308.278788 298.918625 
L 310.783838 298.846418 
L 311.785859 298.702006 
L 318.8 298.593696 
L 319.80202 298.485387 
L 325.814141 298.377077 
L 330.323232 298.160458 
L 333.830303 298.052149 
L 335.834343 297.83553 
L 339.341414 297.727221 
L 340.343434 297.546705 
L 342.848485 297.474499 
L 347.858586 297.402292 
L 350.363636 297.14957 
L 353.369697 297.041261 
L 355.373737 296.860745 
L 360.383838 296.608023 
L 365.393939 296.499713 
L 369.90303 296.283095 
L 371.406061 296.246991 
L 372.408081 296.102579 
L 374.913131 295.994269 
L 375.915152 295.922063 
L 376.917172 295.849857 
L 377.919192 295.77765 
L 382.428283 295.705444 
L 383.931313 295.597135 
L 397.458586 294.730659 
L 399.963636 294.62235 
L 402.468687 294.550143 
L 409.482828 294.441834 
L 410.484848 294.297421 
L 417.49899 294.189112 
L 422.509091 293.93639 
L 423.511111 293.900287 
L 424.513131 293.791977 
L 427.018182 293.683668 
L 429.523232 293.611461 
L 432.028283 293.503152 
L 434.533333 293.430946 
L 439.042424 293.322636 
L 442.048485 293.214327 
L 449.062626 293.106017 
L 454.573737 292.817192 
L 456.577778 292.744986 
L 458.080808 292.636676 
L 465.094949 292.528367 
L 468.10101 292.420057 
L 477.119192 292.311748 
L 479.123232 292.275645 
L 485.135354 292.203438 
L 486.137374 292.131232 
L 493.151515 292.022923 
L 495.155556 291.986819 
L 508.181818 291.87851 
L 509.684848 291.734097 
L 532.230303 291.625788 
L 534.735354 291.553582 
L 547.761616 291.445272 
L 548.763636 291.373066 
L 551.268687 291.30086 
L 552.771717 291.156447 
L 555.777778 291.048138 
L 559.284848 290.903725 
L 563.793939 290.795415 
L 566.29899 290.723209 
L 569.806061 290.6149 
L 573.814141 290.434384 
L 576.319192 290.326074 
L 578.323232 290.289971 
L 582.832323 290.181662 
L 584.836364 290.145559 
L 591.349495 290.037249 
L 593.353535 290.001146 
L 595.858586 289.892837 
L 598.864646 289.784527 
L 602.371717 289.712321 
L 603.373737 289.640115 
L 615.39798 289.531805 
L 621.911111 289.170774 
L 624.416162 289.098567 
L 625.418182 288.990258 
L 626.420202 288.918052 
L 630.428283 288.809742 
L 633.434343 288.701433 
L 638.444444 288.593123 
L 640.949495 288.340401 
L 645.959596 288.232092 
L 646.961616 288.123782 
L 651.971717 288.015473 
L 654.476768 287.943266 
L 659.987879 287.907163 
L 660.989899 287.798854 
L 666.50101 287.690544 
L 667.50303 287.618338 
L 678.525253 287.510029 
L 681.531313 287.401719 
L 689.046465 287.29341 
L 691.050505 287.257307 
L 695.559596 287.1851 
L 696.561616 287.076791 
L 702.573737 286.968481 
L 705.579798 286.860172 
L 714.59798 286.751862 
L 716.10101 286.643553 
L 717.60404 286.535244 
L 719.107071 286.426934 
L 726.622222 286.318625 
L 730.129293 286.174212 
L 743.155556 286.065903 
L 747.163636 285.885387 
L 747.163636 285.885387 
" clip-path="url(#pc5fc89660f)" style="fill: none; stroke: #ff7f0e; stroke-width: 1.5; stroke-linecap: square"/>
   </g>
   <g id="patch_3">
    <path d="M 108 320.4 
L 108 43.2 
" style="fill: none; stroke: #a9a9a9; stroke-width: 0.8; stroke-linejoin: miter; stroke-linecap: square"/>
   </g>
   <g id="patch_4">
    <path d="M 777.6 320.4 
L 777.6 43.2 
" style="fill: none"/>
   </g>
   <g id="patch_5">
    <path d="M 108 320.4 
L 777.6 320.4 
" style="fill: none; stroke: #a9a9a9; stroke-width: 0.8; stroke-linejoin: miter; stroke-linecap: square"/>
   </g>
   <g id="patch_6">
    <path d="M 108 43.2 
L 777.6 43.2 
" style="fill: none"/>
   </g>
   <g id="text_22">
    <!-- get_subscribe history -->
    <g style="fill: #a9a9a9" transform="translate(378.6075 37.2) scale(0.12 -0.12)">
     <defs>
      <path id="DejaVuSans-67" d="M 2906 1791 
Q 2906 2416 2648 2759 
Q 2391 3103 1925 3103 
Q 1463 3103 1205 2759 
Q 947 2416 947 1791 
Q 947 1169 1205 825 
Q 1463 481 1925 481 
Q 2391 481 2648 825 
Q 2906 1169 2906 1791 
z
M 3481 434 
Q 3481 -459 3084 -895 
Q 2688 -1331 1869 -1331 
Q 1566 -1331 1297 -1286 
Q 1028 -1241 775 -1147 
L 775 -588 
Q 1028 -725 1275 -790 
Q 1522 -856 1778 -856 
Q 2344 -856 2625 -561 
Q 2906 -266 2906 331 
L 2906 616 
Q 2728 306 2450 153 
Q 2172 0 1784 0 
Q 1141 0 747 490 
Q 353 981 353 1791 
Q 353 2603 747 3093 
Q 1141 3584 1784 3584 
Q 2172 3584 2450 3431 
Q 2728 3278 2906 2969 
L 2906 3500 
L 3481 3500 
L 3481 434 
z
" transform="scale(0.015625)"/>
      <path id="DejaVuSans-65" d="M 3597 1894 
L 3597 1613 
L 953 1613 
Q 991 1019 1311 708 
Q 1631 397 2203 397 
Q 2534 397 2845 478 
Q 3156 559 3463 722 
L 3463 178 
Q 3153 47 2828 -22 
Q 2503 -91 2169 -91 
Q 1331 -91 842 396 
Q 353 884 353 1716 
Q 353 2575 817 3079 
Q 1281 3584 2069 3584 
Q 2775 3584 3186 3129 
Q 3597 2675 3597 1894 
z
M 3022 2063 
Q 3016 2534 2758 2815 
Q 2500 3097 2075 3097 
Q 1594 3097 1305 2825 
Q 1016 2553 972 2059 
L 3022 2063 
z
" transform="scale(0.015625)"/>
      <path id="DejaVuSans-74" d="M 1172 4494 
L 1172 3500 
L 2356 3500 
L 2356 3053 
L 1172 3053 
L 1172 1153 
Q 1172 725 1289 603 
Q 1406 481 1766 481 
L 2356 481 
L 2356 0 
L 1766 0 
Q 1100 0 847 248 
Q 594 497 594 1153 
L 594 3053 
L 172 3053 
L 172 3500 
L 594 3500 
L 594 4494 
L 1172 4494 
z
" transform="scale(0.015625)"/>
      <path id="DejaVuSans-5f" d="M 3263 -1063 
L 3263 -1509 
L -63 -1509 
L -63 -1063 
L 3263 -1063 
z
" transform="scale(0.015625)"/>
      <path id="DejaVuSans-73" d="M 2834 3397 
L 2834 2853 
Q 2591 2978 2328 3040 
Q 2066 3103 1784 3103 
Q 1356 3103 1142 2972 
Q 928 2841 928 2578 
Q 928 2378 1081 2264 
Q 1234 2150 1697 2047 
L 1894 2003 
Q 2506 1872 2764 1633 
Q 3022 1394 3022 966 
Q 3022 478 2636 193 
Q 2250 -91 1575 -91 
Q 1294 -91 989 -36 
Q 684 19 347 128 
L 347 722 
Q 666 556 975 473 
Q 1284 391 1588 391 
Q 1994 391 2212 530 
Q 2431 669 2431 922 
Q 2431 1156 2273 1281 
Q 2116 1406 1581 1522 
L 1381 1569 
Q 847 1681 609 1914 
Q 372 2147 372 2553 
Q 372 3047 722 3315 
Q 1072 3584 1716 3584 
Q 2034 3584 2315 3537 
Q 2597 3491 2834 3397 
z
" transform="scale(0.015625)"/>
      <path id="DejaVuSans-75" d="M 544 1381 
L 544 3500 
L 1119 3500 
L 1119 1403 
Q 1119 906 1312 657 
Q 1506 409 1894 409 
Q 2359 409 2629 706 
Q 2900 1003 2900 1516 
L 2900 3500 
L 3475 3500 
L 3475 0 
L 2900 0 
L 2900 538 
Q 2691 219 2414 64 
Q 2138 -91 1772 -91 
Q 1169 -91 856 284 
Q 544 659 544 1381 
z
M 1991 3584 
L 1991 3584 
z
" transform="scale(0.015625)"/>
      <path id="DejaVuSans-62" d="M 3116 1747 
Q 3116 2381 2855 2742 
Q 2594 3103 2138 3103 
Q 1681 3103 1420 2742 
Q 1159 2381 1159 1747 
Q 1159 1113 1420 752 
Q 1681 391 2138 391 
Q 2594 391 2855 752 
Q 3116 1113 3116 1747 
z
M 1159 2969 
Q 1341 3281 1617 3432 
Q 1894 3584 2278 3584 
Q 2916 3584 3314 3078 
Q 3713 2572 3713 1747 
Q 3713 922 3314 415 
Q 2916 -91 2278 -91 
Q 1894 -91 1617 61 
Q 1341 213 1159 525 
L 1159 0 
L 581 0 
L 581 4863 
L 1159 4863 
L 1159 2969 
z
" transform="scale(0.015625)"/>
      <path id="DejaVuSans-63" d="M 3122 3366 
L 3122 2828 
Q 2878 2963 2633 3030 
Q 2388 3097 2138 3097 
Q 1578 3097 1268 2742 
Q 959 2388 959 1747 
Q 959 1106 1268 751 
Q 1578 397 2138 397 
Q 2388 397 2633 464 
Q 2878 531 3122 666 
L 3122 134 
Q 2881 22 2623 -34 
Q 2366 -91 2075 -91 
Q 1284 -91 818 406 
Q 353 903 353 1747 
Q 353 2603 823 3093 
Q 1294 3584 2113 3584 
Q 2378 3584 2631 3529 
Q 2884 3475 3122 3366 
z
" transform="scale(0.015625)"/>
      <path id="DejaVuSans-72" d="M 2631 2963 
Q 2534 3019 2420 3045 
Q 2306 3072 2169 3072 
Q 1681 3072 1420 2755 
Q 1159 2438 1159 1844 
L 1159 0 
L 581 0 
L 581 3500 
L 1159 3500 
L 1159 2956 
Q 1341 3275 1631 3429 
Q 1922 3584 2338 3584 
Q 2397 3584 2469 3576 
Q 2541 3569 2628 3553 
L 2631 2963 
z
" transform="scale(0.015625)"/>
      <path id="DejaVuSans-69" d="M 603 3500 
L 1178 3500 
L 1178 0 
L 603 0 
L 603 3500 
z
M 603 4863 
L 1178 4863 
L 1178 4134 
L 603 4134 
L 603 4863 
z
" transform="scale(0.015625)"/>
      <path id="DejaVuSans-20" transform="scale(0.015625)"/>
      <path id="DejaVuSans-68" d="M 3513 2113 
L 3513 0 
L 2938 0 
L 2938 2094 
Q 2938 2591 2744 2837 
Q 2550 3084 2163 3084 
Q 1697 3084 1428 2787 
Q 1159 2491 1159 1978 
L 1159 0 
L 581 0 
L 581 4863 
L 1159 4863 
L 1159 2956 
Q 1366 3272 1645 3428 
Q 1925 3584 2291 3584 
Q 2894 3584 3203 3211 
Q 3513 2838 3513 2113 
z
" transform="scale(0.015625)"/>
      <path id="DejaVuSans-6f" d="M 1959 3097 
Q 1497 3097 1228 2736 
Q 959 2375 959 1747 
Q 959 1119 1226 758 
Q 1494 397 1959 397 
Q 2419 397 2687 759 
Q 2956 1122 2956 1747 
Q 2956 2369 2687 2733 
Q 2419 3097 1959 3097 
z
M 1959 3584 
Q 2709 3584 3137 3096 
Q 3566 2609 3566 1747 
Q 3566 888 3137 398 
Q 2709 -91 1959 -91 
Q 1206 -91 779 398 
Q 353 888 353 1747 
Q 353 2609 779 3096 
Q 1206 3584 1959 3584 
z
" transform="scale(0.015625)"/>
      <path id="DejaVuSans-79" d="M 2059 -325 
Q 1816 -950 1584 -1140 
Q 1353 -1331 966 -1331 
L 506 -1331 
L 506 -850 
L 844 -850 
Q 1081 -850 1212 -737 
Q 1344 -625 1503 -206 
L 1606 56 
L 191 3500 
L 800 3500 
L 1894 763 
L 2988 3500 
L 3597 3500 
L 2059 -325 
z
" transform="scale(0.015625)"/>
     </defs>
     <use xlink:href="#DejaVuSans-67"/>
     <use xlink:href="#DejaVuSans-65" x="63.476562"/>
     <use xlink:href="#DejaVuSans-74" x="125"/>
     <use xlink:href="#DejaVuSans-5f" x="164.208984"/>
     <use xlink:href="#DejaVuSans-73" x="214.208984"/>
     <use xlink:href="#DejaVuSans-75" x="266.308594"/>
     <use xlink:href="#DejaVuSans-62" x="329.6875"/>
     <use xlink:href="#DejaVuSans-73" x="393.164062"/>
     <use xlink:href="#DejaVuSans-63" x="445.263672"/>
     <use xlink:href="#DejaVuSans-72" x="500.244141"/>
     <use xlink:href="#DejaVuSans-69" x="541.357422"/>
     <use xlink:href="#DejaVuSans-62" x="569.140625"/>
     <use xlink:href="#DejaVuSans-65" x="632.617188"/>
     <use xlink:href="#DejaVuSans-20" x="694.140625"/>
     <use xlink:href="#DejaVuSans-68" x="725.927734"/>
     <use xlink:href="#DejaVuSans-69" x="789.306641"/>
     <use xlink:href="#DejaVuSans-73" x="817.089844"/>
     <use xlink:href="#DejaVuSans-74" x="869.189453"/>
     <use xlink:href="#DejaVuSans-6f" x="908.398438"/>
     <use xlink:href="#DejaVuSans-72" x="969.580078"/>
     <use xlink:href="#DejaVuSans-79" x="1010.693359"/>
    </g>
   </g>
   <g id="legend_1">
    <g id="line2d_45">
     <path d="M 815.08 328.498438 
L 825.08 328.498438 
L 835.08 328.498438 
" style="fill: none; stroke: #1f77b4; stroke-width: 1.5; stroke-linecap: square"/>
    </g>
    <g id="text_23">
     <!-- star -->
     <g style="fill: #a9a9a9" transform="translate(843.08 331.998438) scale(0.1 -0.1)">
      <defs>
       <path id="DejaVuSans-61" d="M 2194 1759 
Q 1497 1759 1228 1600 
Q 959 1441 959 1056 
Q 959 750 1161 570 
Q 1363 391 1709 391 
Q 2188 391 2477 730 
Q 2766 1069 2766 1631 
L 2766 1759 
L 2194 1759 
z
M 3341 1997 
L 3341 0 
L 2766 0 
L 2766 531 
Q 2569 213 2275 61 
Q 1981 -91 1556 -91 
Q 1019 -91 701 211 
Q 384 513 384 1019 
Q 384 1609 779 1909 
Q 1175 2209 1959 2209 
L 2766 2209 
L 2766 2266 
Q 2766 2663 2505 2880 
Q 2244 3097 1772 3097 
Q 1472 3097 1187 3025 
Q 903 2953 641 2809 
L 641 3341 
Q 956 3463 1253 3523 
Q 1550 3584 1831 3584 
Q 2591 3584 2966 3190 
Q 3341 2797 3341 1997 
z
" transform="scale(0.015625)"/>
      </defs>
      <use xlink:href="#DejaVuSans-73"/>
      <use xlink:href="#DejaVuSans-74" x="52.099609"/>
      <use xlink:href="#DejaVuSans-61" x="91.308594"/>
      <use xlink:href="#DejaVuSans-72" x="152.587891"/>
     </g>
    </g>
    <g id="line2d_46">
     <path d="M 815.08 343.176562 
L 825.08 343.176562 
L 835.08 343.176562 
" style="fill: none; stroke: #ff7f0e; stroke-width: 1.5; stroke-linecap: square"/>
    </g>
    <g id="text_24">
     <!-- fork -->
     <g style="fill: #a9a9a9" transform="translate(843.08 346.676562) scale(0.1 -0.1)">
      <defs>
       <path id="DejaVuSans-66" d="M 2375 4863 
L 2375 4384 
L 1825 4384 
Q 1516 4384 1395 4259 
Q 1275 4134 1275 3809 
L 1275 3500 
L 2222 3500 
L 2222 3053 
L 1275 3053 
L 1275 0 
L 697 0 
L 697 3053 
L 147 3053 
L 147 3500 
L 697 3500 
L 697 3744 
Q 697 4328 969 4595 
Q 1241 4863 1831 4863 
L 2375 4863 
z
" transform="scale(0.015625)"/>
       <path id="DejaVuSans-6b" d="M 581 4863 
L 1159 4863 
L 1159 1991 
L 2875 3500 
L 3609 3500 
L 1753 1863 
L 3688 0 
L 2938 0 
L 1159 1709 
L 1159 0 
L 581 0 
L 581 4863 
z
" transform="scale(0.015625)"/>
      </defs>
      <use xlink:href="#DejaVuSans-66"/>
      <use xlink:href="#DejaVuSans-6f" x="35.205078"/>
      <use xlink:href="#DejaVuSans-72" x="96.386719"/>
      <use xlink:href="#DejaVuSans-6b" x="137.5"/>
     </g>
    </g>
   </g>
  </g>
 </g>
 <defs>
  <clipPath id="pc5fc89660f">
   <rect x="108" y="43.2" width="669.6" height="277.2"/>
  </clipPath>
 </defs>
</svg>
