<?xml version="1.0" encoding="utf-8" standalone="no"?>
<!DOCTYPE svg PUBLIC "-//W3C//DTD SVG 1.1//EN"
  "http://www.w3.org/Graphics/SVG/1.1/DTD/svg11.dtd">
<svg xmlns:xlink="http://www.w3.org/1999/xlink" width="864pt" height="360pt" viewBox="0 0 864 360" xmlns="http://www.w3.org/2000/svg" version="1.1">
 <metadata>
  <rdf:RDF xmlns:dc="http://purl.org/dc/elements/1.1/" xmlns:cc="http://creativecommons.org/ns#" xmlns:rdf="http://www.w3.org/1999/02/22-rdf-syntax-ns#">
   <cc:Work>
    <dc:type rdf:resource="http://purl.org/dc/dcmitype/StillImage"/>
    <dc:date>2024-11-18T20:06:25.220948</dc:date>
    <dc:format>image/svg+xml</dc:format>
    <dc:creator>
     <cc:Agent>
      <dc:title>Matplotlib v3.9.2, https://matplotlib.org/</dc:title>
     </cc:Agent>
    </dc:creator>
   </cc:Work>
  </rdf:RDF>
 </metadata>
 <defs>
  <style type="text/css">*{stroke-linejoin: round; stroke-linecap: butt}</style>
 </defs>
 <g id="figure_1">
  <g id="patch_1">
   <path d="M 0 360 
L 864 360 
L 864 0 
L 0 0 
L 0 360 
z
" style="fill: none; opacity: 0"/>
  </g>
  <g id="axes_1">
   <g id="patch_2">
    <path d="M 108 320.4 
L 777.6 320.4 
L 777.6 43.2 
L 108 43.2 
L 108 320.4 
z
" style="fill: none; opacity: 0"/>
   </g>
   <g id="matplotlib.axis_1">
    <g id="xtick_1">
     <g id="line2d_1">
      <path d="M 158.007974 320.4 
L 158.007974 43.2 
" clip-path="url(#pc33385ae12)" style="fill: none; stroke-dasharray: 5.12,1.28,0.8,1.28; stroke-dashoffset: 0; stroke: #b0b0b0; stroke-width: 0.8"/>
     </g>
     <g id="line2d_2">
      <defs>
       <path id="m996e31513f" d="M 0 0 
L 0 3.5 
" style="stroke: #a9a9a9; stroke-width: 0.8"/>
      </defs>
      <g>
       <use xlink:href="#m996e31513f" x="158.007974" y="320.4" style="fill: #a9a9a9; stroke: #a9a9a9; stroke-width: 0.8"/>
      </g>
     </g>
     <g id="text_1">
      <!-- 2021-09 -->
      <g style="fill: #a9a9a9" transform="translate(137.116568 334.998438) scale(0.1 -0.1)">
       <defs>
        <path id="DejaVuSans-32" d="M 1228 531 
L 3431 531 
L 3431 0 
L 469 0 
L 469 531 
Q 828 903 1448 1529 
Q 2069 2156 2228 2338 
Q 2531 2678 2651 2914 
Q 2772 3150 2772 3378 
Q 2772 3750 2511 3984 
Q 2250 4219 1831 4219 
Q 1534 4219 1204 4116 
Q 875 4013 500 3803 
L 500 4441 
Q 881 4594 1212 4672 
Q 1544 4750 1819 4750 
Q 2544 4750 2975 4387 
Q 3406 4025 3406 3419 
Q 3406 3131 3298 2873 
Q 3191 2616 2906 2266 
Q 2828 2175 2409 1742 
Q 1991 1309 1228 531 
z
" transform="scale(0.015625)"/>
        <path id="DejaVuSans-30" d="M 2034 4250 
Q 1547 4250 1301 3770 
Q 1056 3291 1056 2328 
Q 1056 1369 1301 889 
Q 1547 409 2034 409 
Q 2525 409 2770 889 
Q 3016 1369 3016 2328 
Q 3016 3291 2770 3770 
Q 2525 4250 2034 4250 
z
M 2034 4750 
Q 2819 4750 3233 4129 
Q 3647 3509 3647 2328 
Q 3647 1150 3233 529 
Q 2819 -91 2034 -91 
Q 1250 -91 836 529 
Q 422 1150 422 2328 
Q 422 3509 836 4129 
Q 1250 4750 2034 4750 
z
" transform="scale(0.015625)"/>
        <path id="DejaVuSans-31" d="M 794 531 
L 1825 531 
L 1825 4091 
L 703 3866 
L 703 4441 
L 1819 4666 
L 2450 4666 
L 2450 531 
L 3481 531 
L 3481 0 
L 794 0 
L 794 531 
z
" transform="scale(0.015625)"/>
        <path id="DejaVuSans-2d" d="M 313 2009 
L 1997 2009 
L 1997 1497 
L 313 1497 
L 313 2009 
z
" transform="scale(0.015625)"/>
        <path id="DejaVuSans-39" d="M 703 97 
L 703 672 
Q 941 559 1184 500 
Q 1428 441 1663 441 
Q 2288 441 2617 861 
Q 2947 1281 2994 2138 
Q 2813 1869 2534 1725 
Q 2256 1581 1919 1581 
Q 1219 1581 811 2004 
Q 403 2428 403 3163 
Q 403 3881 828 4315 
Q 1253 4750 1959 4750 
Q 2769 4750 3195 4129 
Q 3622 3509 3622 2328 
Q 3622 1225 3098 567 
Q 2575 -91 1691 -91 
Q 1453 -91 1209 -44 
Q 966 3 703 97 
z
M 1959 2075 
Q 2384 2075 2632 2365 
Q 2881 2656 2881 3163 
Q 2881 3666 2632 3958 
Q 2384 4250 1959 4250 
Q 1534 4250 1286 3958 
Q 1038 3666 1038 3163 
Q 1038 2656 1286 2365 
Q 1534 2075 1959 2075 
z
" transform="scale(0.015625)"/>
       </defs>
       <use xlink:href="#DejaVuSans-32"/>
       <use xlink:href="#DejaVuSans-30" x="63.623047"/>
       <use xlink:href="#DejaVuSans-32" x="127.246094"/>
       <use xlink:href="#DejaVuSans-31" x="190.869141"/>
       <use xlink:href="#DejaVuSans-2d" x="254.492188"/>
       <use xlink:href="#DejaVuSans-30" x="290.576172"/>
       <use xlink:href="#DejaVuSans-39" x="354.199219"/>
      </g>
     </g>
    </g>
    <g id="xtick_2">
     <g id="line2d_3">
      <path d="M 219.231987 320.4 
L 219.231987 43.2 
" clip-path="url(#pc33385ae12)" style="fill: none; stroke-dasharray: 5.12,1.28,0.8,1.28; stroke-dashoffset: 0; stroke: #b0b0b0; stroke-width: 0.8"/>
     </g>
     <g id="line2d_4">
      <g>
       <use xlink:href="#m996e31513f" x="219.231987" y="320.4" style="fill: #a9a9a9; stroke: #a9a9a9; stroke-width: 0.8"/>
      </g>
     </g>
     <g id="text_2">
      <!-- 2022-01 -->
      <g style="fill: #a9a9a9" transform="translate(198.340581 334.998438) scale(0.1 -0.1)">
       <use xlink:href="#DejaVuSans-32"/>
       <use xlink:href="#DejaVuSans-30" x="63.623047"/>
       <use xlink:href="#DejaVuSans-32" x="127.246094"/>
       <use xlink:href="#DejaVuSans-32" x="190.869141"/>
       <use xlink:href="#DejaVuSans-2d" x="254.492188"/>
       <use xlink:href="#DejaVuSans-30" x="290.576172"/>
       <use xlink:href="#DejaVuSans-31" x="354.199219"/>
      </g>
     </g>
    </g>
    <g id="xtick_3">
     <g id="line2d_5">
      <path d="M 279.452327 320.4 
L 279.452327 43.2 
" clip-path="url(#pc33385ae12)" style="fill: none; stroke-dasharray: 5.12,1.28,0.8,1.28; stroke-dashoffset: 0; stroke: #b0b0b0; stroke-width: 0.8"/>
     </g>
     <g id="line2d_6">
      <g>
       <use xlink:href="#m996e31513f" x="279.452327" y="320.4" style="fill: #a9a9a9; stroke: #a9a9a9; stroke-width: 0.8"/>
      </g>
     </g>
     <g id="text_3">
      <!-- 2022-05 -->
      <g style="fill: #a9a9a9" transform="translate(258.560921 334.998438) scale(0.1 -0.1)">
       <defs>
        <path id="DejaVuSans-35" d="M 691 4666 
L 3169 4666 
L 3169 4134 
L 1269 4134 
L 1269 2991 
Q 1406 3038 1543 3061 
Q 1681 3084 1819 3084 
Q 2600 3084 3056 2656 
Q 3513 2228 3513 1497 
Q 3513 744 3044 326 
Q 2575 -91 1722 -91 
Q 1428 -91 1123 -41 
Q 819 9 494 109 
L 494 744 
Q 775 591 1075 516 
Q 1375 441 1709 441 
Q 2250 441 2565 725 
Q 2881 1009 2881 1497 
Q 2881 1984 2565 2268 
Q 2250 2553 1709 2553 
Q 1456 2553 1204 2497 
Q 953 2441 691 2322 
L 691 4666 
z
" transform="scale(0.015625)"/>
       </defs>
       <use xlink:href="#DejaVuSans-32"/>
       <use xlink:href="#DejaVuSans-30" x="63.623047"/>
       <use xlink:href="#DejaVuSans-32" x="127.246094"/>
       <use xlink:href="#DejaVuSans-32" x="190.869141"/>
       <use xlink:href="#DejaVuSans-2d" x="254.492188"/>
       <use xlink:href="#DejaVuSans-30" x="290.576172"/>
       <use xlink:href="#DejaVuSans-35" x="354.199219"/>
      </g>
     </g>
    </g>
    <g id="xtick_4">
     <g id="line2d_7">
      <path d="M 341.178176 320.4 
L 341.178176 43.2 
" clip-path="url(#pc33385ae12)" style="fill: none; stroke-dasharray: 5.12,1.28,0.8,1.28; stroke-dashoffset: 0; stroke: #b0b0b0; stroke-width: 0.8"/>
     </g>
     <g id="line2d_8">
      <g>
       <use xlink:href="#m996e31513f" x="341.178176" y="320.4" style="fill: #a9a9a9; stroke: #a9a9a9; stroke-width: 0.8"/>
      </g>
     </g>
     <g id="text_4">
      <!-- 2022-09 -->
      <g style="fill: #a9a9a9" transform="translate(320.28677 334.998438) scale(0.1 -0.1)">
       <use xlink:href="#DejaVuSans-32"/>
       <use xlink:href="#DejaVuSans-30" x="63.623047"/>
       <use xlink:href="#DejaVuSans-32" x="127.246094"/>
       <use xlink:href="#DejaVuSans-32" x="190.869141"/>
       <use xlink:href="#DejaVuSans-2d" x="254.492188"/>
       <use xlink:href="#DejaVuSans-30" x="290.576172"/>
       <use xlink:href="#DejaVuSans-39" x="354.199219"/>
      </g>
     </g>
    </g>
    <g id="xtick_5">
     <g id="line2d_9">
      <path d="M 402.402188 320.4 
L 402.402188 43.2 
" clip-path="url(#pc33385ae12)" style="fill: none; stroke-dasharray: 5.12,1.28,0.8,1.28; stroke-dashoffset: 0; stroke: #b0b0b0; stroke-width: 0.8"/>
     </g>
     <g id="line2d_10">
      <g>
       <use xlink:href="#m996e31513f" x="402.402188" y="320.4" style="fill: #a9a9a9; stroke: #a9a9a9; stroke-width: 0.8"/>
      </g>
     </g>
     <g id="text_5">
      <!-- 2023-01 -->
      <g style="fill: #a9a9a9" transform="translate(381.510782 334.998438) scale(0.1 -0.1)">
       <defs>
        <path id="DejaVuSans-33" d="M 2597 2516 
Q 3050 2419 3304 2112 
Q 3559 1806 3559 1356 
Q 3559 666 3084 287 
Q 2609 -91 1734 -91 
Q 1441 -91 1130 -33 
Q 819 25 488 141 
L 488 750 
Q 750 597 1062 519 
Q 1375 441 1716 441 
Q 2309 441 2620 675 
Q 2931 909 2931 1356 
Q 2931 1769 2642 2001 
Q 2353 2234 1838 2234 
L 1294 2234 
L 1294 2753 
L 1863 2753 
Q 2328 2753 2575 2939 
Q 2822 3125 2822 3475 
Q 2822 3834 2567 4026 
Q 2313 4219 1838 4219 
Q 1578 4219 1281 4162 
Q 984 4106 628 3988 
L 628 4550 
Q 988 4650 1302 4700 
Q 1616 4750 1894 4750 
Q 2613 4750 3031 4423 
Q 3450 4097 3450 3541 
Q 3450 3153 3228 2886 
Q 3006 2619 2597 2516 
z
" transform="scale(0.015625)"/>
       </defs>
       <use xlink:href="#DejaVuSans-32"/>
       <use xlink:href="#DejaVuSans-30" x="63.623047"/>
       <use xlink:href="#DejaVuSans-32" x="127.246094"/>
       <use xlink:href="#DejaVuSans-33" x="190.869141"/>
       <use xlink:href="#DejaVuSans-2d" x="254.492188"/>
       <use xlink:href="#DejaVuSans-30" x="290.576172"/>
       <use xlink:href="#DejaVuSans-31" x="354.199219"/>
      </g>
     </g>
    </g>
    <g id="xtick_6">
     <g id="line2d_11">
      <path d="M 462.622529 320.4 
L 462.622529 43.2 
" clip-path="url(#pc33385ae12)" style="fill: none; stroke-dasharray: 5.12,1.28,0.8,1.28; stroke-dashoffset: 0; stroke: #b0b0b0; stroke-width: 0.8"/>
     </g>
     <g id="line2d_12">
      <g>
       <use xlink:href="#m996e31513f" x="462.622529" y="320.4" style="fill: #a9a9a9; stroke: #a9a9a9; stroke-width: 0.8"/>
      </g>
     </g>
     <g id="text_6">
      <!-- 2023-05 -->
      <g style="fill: #a9a9a9" transform="translate(441.731122 334.998438) scale(0.1 -0.1)">
       <use xlink:href="#DejaVuSans-32"/>
       <use xlink:href="#DejaVuSans-30" x="63.623047"/>
       <use xlink:href="#DejaVuSans-32" x="127.246094"/>
       <use xlink:href="#DejaVuSans-33" x="190.869141"/>
       <use xlink:href="#DejaVuSans-2d" x="254.492188"/>
       <use xlink:href="#DejaVuSans-30" x="290.576172"/>
       <use xlink:href="#DejaVuSans-35" x="354.199219"/>
      </g>
     </g>
    </g>
    <g id="xtick_7">
     <g id="line2d_13">
      <path d="M 524.348377 320.4 
L 524.348377 43.2 
" clip-path="url(#pc33385ae12)" style="fill: none; stroke-dasharray: 5.12,1.28,0.8,1.28; stroke-dashoffset: 0; stroke: #b0b0b0; stroke-width: 0.8"/>
     </g>
     <g id="line2d_14">
      <g>
       <use xlink:href="#m996e31513f" x="524.348377" y="320.4" style="fill: #a9a9a9; stroke: #a9a9a9; stroke-width: 0.8"/>
      </g>
     </g>
     <g id="text_7">
      <!-- 2023-09 -->
      <g style="fill: #a9a9a9" transform="translate(503.456971 334.998438) scale(0.1 -0.1)">
       <use xlink:href="#DejaVuSans-32"/>
       <use xlink:href="#DejaVuSans-30" x="63.623047"/>
       <use xlink:href="#DejaVuSans-32" x="127.246094"/>
       <use xlink:href="#DejaVuSans-33" x="190.869141"/>
       <use xlink:href="#DejaVuSans-2d" x="254.492188"/>
       <use xlink:href="#DejaVuSans-30" x="290.576172"/>
       <use xlink:href="#DejaVuSans-39" x="354.199219"/>
      </g>
     </g>
    </g>
    <g id="xtick_8">
     <g id="line2d_15">
      <path d="M 585.57239 320.4 
L 585.57239 43.2 
" clip-path="url(#pc33385ae12)" style="fill: none; stroke-dasharray: 5.12,1.28,0.8,1.28; stroke-dashoffset: 0; stroke: #b0b0b0; stroke-width: 0.8"/>
     </g>
     <g id="line2d_16">
      <g>
       <use xlink:href="#m996e31513f" x="585.57239" y="320.4" style="fill: #a9a9a9; stroke: #a9a9a9; stroke-width: 0.8"/>
      </g>
     </g>
     <g id="text_8">
      <!-- 2024-01 -->
      <g style="fill: #a9a9a9" transform="translate(564.680984 334.998438) scale(0.1 -0.1)">
       <defs>
        <path id="DejaVuSans-34" d="M 2419 4116 
L 825 1625 
L 2419 1625 
L 2419 4116 
z
M 2253 4666 
L 3047 4666 
L 3047 1625 
L 3713 1625 
L 3713 1100 
L 3047 1100 
L 3047 0 
L 2419 0 
L 2419 1100 
L 313 1100 
L 313 1709 
L 2253 4666 
z
" transform="scale(0.015625)"/>
       </defs>
       <use xlink:href="#DejaVuSans-32"/>
       <use xlink:href="#DejaVuSans-30" x="63.623047"/>
       <use xlink:href="#DejaVuSans-32" x="127.246094"/>
       <use xlink:href="#DejaVuSans-34" x="190.869141"/>
       <use xlink:href="#DejaVuSans-2d" x="254.492188"/>
       <use xlink:href="#DejaVuSans-30" x="290.576172"/>
       <use xlink:href="#DejaVuSans-31" x="354.199219"/>
      </g>
     </g>
    </g>
    <g id="xtick_9">
     <g id="line2d_17">
      <path d="M 646.294566 320.4 
L 646.294566 43.2 
" clip-path="url(#pc33385ae12)" style="fill: none; stroke-dasharray: 5.12,1.28,0.8,1.28; stroke-dashoffset: 0; stroke: #b0b0b0; stroke-width: 0.8"/>
     </g>
     <g id="line2d_18">
      <g>
       <use xlink:href="#m996e31513f" x="646.294566" y="320.4" style="fill: #a9a9a9; stroke: #a9a9a9; stroke-width: 0.8"/>
      </g>
     </g>
     <g id="text_9">
      <!-- 2024-05 -->
      <g style="fill: #a9a9a9" transform="translate(625.40316 334.998438) scale(0.1 -0.1)">
       <use xlink:href="#DejaVuSans-32"/>
       <use xlink:href="#DejaVuSans-30" x="63.623047"/>
       <use xlink:href="#DejaVuSans-32" x="127.246094"/>
       <use xlink:href="#DejaVuSans-34" x="190.869141"/>
       <use xlink:href="#DejaVuSans-2d" x="254.492188"/>
       <use xlink:href="#DejaVuSans-30" x="290.576172"/>
       <use xlink:href="#DejaVuSans-35" x="354.199219"/>
      </g>
     </g>
    </g>
    <g id="xtick_10">
     <g id="line2d_19">
      <path d="M 708.020415 320.4 
L 708.020415 43.2 
" clip-path="url(#pc33385ae12)" style="fill: none; stroke-dasharray: 5.12,1.28,0.8,1.28; stroke-dashoffset: 0; stroke: #b0b0b0; stroke-width: 0.8"/>
     </g>
     <g id="line2d_20">
      <g>
       <use xlink:href="#m996e31513f" x="708.020415" y="320.4" style="fill: #a9a9a9; stroke: #a9a9a9; stroke-width: 0.8"/>
      </g>
     </g>
     <g id="text_10">
      <!-- 2024-09 -->
      <g style="fill: #a9a9a9" transform="translate(687.129009 334.998438) scale(0.1 -0.1)">
       <use xlink:href="#DejaVuSans-32"/>
       <use xlink:href="#DejaVuSans-30" x="63.623047"/>
       <use xlink:href="#DejaVuSans-32" x="127.246094"/>
       <use xlink:href="#DejaVuSans-34" x="190.869141"/>
       <use xlink:href="#DejaVuSans-2d" x="254.492188"/>
       <use xlink:href="#DejaVuSans-30" x="290.576172"/>
       <use xlink:href="#DejaVuSans-39" x="354.199219"/>
      </g>
     </g>
    </g>
    <g id="xtick_11">
     <g id="line2d_21">
      <path d="M 769.244428 320.4 
L 769.244428 43.2 
" clip-path="url(#pc33385ae12)" style="fill: none; stroke-dasharray: 5.12,1.28,0.8,1.28; stroke-dashoffset: 0; stroke: #b0b0b0; stroke-width: 0.8"/>
     </g>
     <g id="line2d_22">
      <g>
       <use xlink:href="#m996e31513f" x="769.244428" y="320.4" style="fill: #a9a9a9; stroke: #a9a9a9; stroke-width: 0.8"/>
      </g>
     </g>
     <g id="text_11">
      <!-- 2025-01 -->
      <g style="fill: #a9a9a9" transform="translate(748.353022 334.998438) scale(0.1 -0.1)">
       <use xlink:href="#DejaVuSans-32"/>
       <use xlink:href="#DejaVuSans-30" x="63.623047"/>
       <use xlink:href="#DejaVuSans-32" x="127.246094"/>
       <use xlink:href="#DejaVuSans-35" x="190.869141"/>
       <use xlink:href="#DejaVuSans-2d" x="254.492188"/>
       <use xlink:href="#DejaVuSans-30" x="290.576172"/>
       <use xlink:href="#DejaVuSans-31" x="354.199219"/>
      </g>
     </g>
    </g>
   </g>
   <g id="matplotlib.axis_2">
    <g id="ytick_1">
     <g id="line2d_23">
      <path d="M 108 307.836129 
L 777.6 307.836129 
" clip-path="url(#pc33385ae12)" style="fill: none; stroke-dasharray: 5.12,1.28,0.8,1.28; stroke-dashoffset: 0; stroke: #b0b0b0; stroke-width: 0.8"/>
     </g>
     <g id="line2d_24">
      <defs>
       <path id="m8a83943618" d="M 0 0 
L -3.5 0 
" style="stroke: #a9a9a9; stroke-width: 0.8"/>
      </defs>
      <g>
       <use xlink:href="#m8a83943618" x="108" y="307.836129" style="fill: #a9a9a9; stroke: #a9a9a9; stroke-width: 0.8"/>
      </g>
     </g>
     <g id="text_12">
      <!-- 0 -->
      <g style="fill: #a9a9a9" transform="translate(94.6375 311.635348) scale(0.1 -0.1)">
       <use xlink:href="#DejaVuSans-30"/>
      </g>
     </g>
    </g>
    <g id="ytick_2">
     <g id="line2d_25">
      <path d="M 108 278.932903 
L 777.6 278.932903 
" clip-path="url(#pc33385ae12)" style="fill: none; stroke-dasharray: 5.12,1.28,0.8,1.28; stroke-dashoffset: 0; stroke: #b0b0b0; stroke-width: 0.8"/>
     </g>
     <g id="line2d_26">
      <g>
       <use xlink:href="#m8a83943618" x="108" y="278.932903" style="fill: #a9a9a9; stroke: #a9a9a9; stroke-width: 0.8"/>
      </g>
     </g>
     <g id="text_13">
      <!-- 800 -->
      <g style="fill: #a9a9a9" transform="translate(81.9125 282.732122) scale(0.1 -0.1)">
       <defs>
        <path id="DejaVuSans-38" d="M 2034 2216 
Q 1584 2216 1326 1975 
Q 1069 1734 1069 1313 
Q 1069 891 1326 650 
Q 1584 409 2034 409 
Q 2484 409 2743 651 
Q 3003 894 3003 1313 
Q 3003 1734 2745 1975 
Q 2488 2216 2034 2216 
z
M 1403 2484 
Q 997 2584 770 2862 
Q 544 3141 544 3541 
Q 544 4100 942 4425 
Q 1341 4750 2034 4750 
Q 2731 4750 3128 4425 
Q 3525 4100 3525 3541 
Q 3525 3141 3298 2862 
Q 3072 2584 2669 2484 
Q 3125 2378 3379 2068 
Q 3634 1759 3634 1313 
Q 3634 634 3220 271 
Q 2806 -91 2034 -91 
Q 1263 -91 848 271 
Q 434 634 434 1313 
Q 434 1759 690 2068 
Q 947 2378 1403 2484 
z
M 1172 3481 
Q 1172 3119 1398 2916 
Q 1625 2713 2034 2713 
Q 2441 2713 2670 2916 
Q 2900 3119 2900 3481 
Q 2900 3844 2670 4047 
Q 2441 4250 2034 4250 
Q 1625 4250 1398 4047 
Q 1172 3844 1172 3481 
z
" transform="scale(0.015625)"/>
       </defs>
       <use xlink:href="#DejaVuSans-38"/>
       <use xlink:href="#DejaVuSans-30" x="63.623047"/>
       <use xlink:href="#DejaVuSans-30" x="127.246094"/>
      </g>
     </g>
    </g>
    <g id="ytick_3">
     <g id="line2d_27">
      <path d="M 108 250.029677 
L 777.6 250.029677 
" clip-path="url(#pc33385ae12)" style="fill: none; stroke-dasharray: 5.12,1.28,0.8,1.28; stroke-dashoffset: 0; stroke: #b0b0b0; stroke-width: 0.8"/>
     </g>
     <g id="line2d_28">
      <g>
       <use xlink:href="#m8a83943618" x="108" y="250.029677" style="fill: #a9a9a9; stroke: #a9a9a9; stroke-width: 0.8"/>
      </g>
     </g>
     <g id="text_14">
      <!-- 1600 -->
      <g style="fill: #a9a9a9" transform="translate(75.55 253.828896) scale(0.1 -0.1)">
       <defs>
        <path id="DejaVuSans-36" d="M 2113 2584 
Q 1688 2584 1439 2293 
Q 1191 2003 1191 1497 
Q 1191 994 1439 701 
Q 1688 409 2113 409 
Q 2538 409 2786 701 
Q 3034 994 3034 1497 
Q 3034 2003 2786 2293 
Q 2538 2584 2113 2584 
z
M 3366 4563 
L 3366 3988 
Q 3128 4100 2886 4159 
Q 2644 4219 2406 4219 
Q 1781 4219 1451 3797 
Q 1122 3375 1075 2522 
Q 1259 2794 1537 2939 
Q 1816 3084 2150 3084 
Q 2853 3084 3261 2657 
Q 3669 2231 3669 1497 
Q 3669 778 3244 343 
Q 2819 -91 2113 -91 
Q 1303 -91 875 529 
Q 447 1150 447 2328 
Q 447 3434 972 4092 
Q 1497 4750 2381 4750 
Q 2619 4750 2861 4703 
Q 3103 4656 3366 4563 
z
" transform="scale(0.015625)"/>
       </defs>
       <use xlink:href="#DejaVuSans-31"/>
       <use xlink:href="#DejaVuSans-36" x="63.623047"/>
       <use xlink:href="#DejaVuSans-30" x="127.246094"/>
       <use xlink:href="#DejaVuSans-30" x="190.869141"/>
      </g>
     </g>
    </g>
    <g id="ytick_4">
     <g id="line2d_29">
      <path d="M 108 221.126452 
L 777.6 221.126452 
" clip-path="url(#pc33385ae12)" style="fill: none; stroke-dasharray: 5.12,1.28,0.8,1.28; stroke-dashoffset: 0; stroke: #b0b0b0; stroke-width: 0.8"/>
     </g>
     <g id="line2d_30">
      <g>
       <use xlink:href="#m8a83943618" x="108" y="221.126452" style="fill: #a9a9a9; stroke: #a9a9a9; stroke-width: 0.8"/>
      </g>
     </g>
     <g id="text_15">
      <!-- 2400 -->
      <g style="fill: #a9a9a9" transform="translate(75.55 224.92567) scale(0.1 -0.1)">
       <use xlink:href="#DejaVuSans-32"/>
       <use xlink:href="#DejaVuSans-34" x="63.623047"/>
       <use xlink:href="#DejaVuSans-30" x="127.246094"/>
       <use xlink:href="#DejaVuSans-30" x="190.869141"/>
      </g>
     </g>
    </g>
    <g id="ytick_5">
     <g id="line2d_31">
      <path d="M 108 192.223226 
L 777.6 192.223226 
" clip-path="url(#pc33385ae12)" style="fill: none; stroke-dasharray: 5.12,1.28,0.8,1.28; stroke-dashoffset: 0; stroke: #b0b0b0; stroke-width: 0.8"/>
     </g>
     <g id="line2d_32">
      <g>
       <use xlink:href="#m8a83943618" x="108" y="192.223226" style="fill: #a9a9a9; stroke: #a9a9a9; stroke-width: 0.8"/>
      </g>
     </g>
     <g id="text_16">
      <!-- 3200 -->
      <g style="fill: #a9a9a9" transform="translate(75.55 196.022445) scale(0.1 -0.1)">
       <use xlink:href="#DejaVuSans-33"/>
       <use xlink:href="#DejaVuSans-32" x="63.623047"/>
       <use xlink:href="#DejaVuSans-30" x="127.246094"/>
       <use xlink:href="#DejaVuSans-30" x="190.869141"/>
      </g>
     </g>
    </g>
    <g id="ytick_6">
     <g id="line2d_33">
      <path d="M 108 163.32 
L 777.6 163.32 
" clip-path="url(#pc33385ae12)" style="fill: none; stroke-dasharray: 5.12,1.28,0.8,1.28; stroke-dashoffset: 0; stroke: #b0b0b0; stroke-width: 0.8"/>
     </g>
     <g id="line2d_34">
      <g>
       <use xlink:href="#m8a83943618" x="108" y="163.32" style="fill: #a9a9a9; stroke: #a9a9a9; stroke-width: 0.8"/>
      </g>
     </g>
     <g id="text_17">
      <!-- 4000 -->
      <g style="fill: #a9a9a9" transform="translate(75.55 167.119219) scale(0.1 -0.1)">
       <use xlink:href="#DejaVuSans-34"/>
       <use xlink:href="#DejaVuSans-30" x="63.623047"/>
       <use xlink:href="#DejaVuSans-30" x="127.246094"/>
       <use xlink:href="#DejaVuSans-30" x="190.869141"/>
      </g>
     </g>
    </g>
    <g id="ytick_7">
     <g id="line2d_35">
      <path d="M 108 134.416774 
L 777.6 134.416774 
" clip-path="url(#pc33385ae12)" style="fill: none; stroke-dasharray: 5.12,1.28,0.8,1.28; stroke-dashoffset: 0; stroke: #b0b0b0; stroke-width: 0.8"/>
     </g>
     <g id="line2d_36">
      <g>
       <use xlink:href="#m8a83943618" x="108" y="134.416774" style="fill: #a9a9a9; stroke: #a9a9a9; stroke-width: 0.8"/>
      </g>
     </g>
     <g id="text_18">
      <!-- 4800 -->
      <g style="fill: #a9a9a9" transform="translate(75.55 138.215993) scale(0.1 -0.1)">
       <use xlink:href="#DejaVuSans-34"/>
       <use xlink:href="#DejaVuSans-38" x="63.623047"/>
       <use xlink:href="#DejaVuSans-30" x="127.246094"/>
       <use xlink:href="#DejaVuSans-30" x="190.869141"/>
      </g>
     </g>
    </g>
    <g id="ytick_8">
     <g id="line2d_37">
      <path d="M 108 105.513548 
L 777.6 105.513548 
" clip-path="url(#pc33385ae12)" style="fill: none; stroke-dasharray: 5.12,1.28,0.8,1.28; stroke-dashoffset: 0; stroke: #b0b0b0; stroke-width: 0.8"/>
     </g>
     <g id="line2d_38">
      <g>
       <use xlink:href="#m8a83943618" x="108" y="105.513548" style="fill: #a9a9a9; stroke: #a9a9a9; stroke-width: 0.8"/>
      </g>
     </g>
     <g id="text_19">
      <!-- 5600 -->
      <g style="fill: #a9a9a9" transform="translate(75.55 109.312767) scale(0.1 -0.1)">
       <use xlink:href="#DejaVuSans-35"/>
       <use xlink:href="#DejaVuSans-36" x="63.623047"/>
       <use xlink:href="#DejaVuSans-30" x="127.246094"/>
       <use xlink:href="#DejaVuSans-30" x="190.869141"/>
      </g>
     </g>
    </g>
    <g id="ytick_9">
     <g id="line2d_39">
      <path d="M 108 76.610323 
L 777.6 76.610323 
" clip-path="url(#pc33385ae12)" style="fill: none; stroke-dasharray: 5.12,1.28,0.8,1.28; stroke-dashoffset: 0; stroke: #b0b0b0; stroke-width: 0.8"/>
     </g>
     <g id="line2d_40">
      <g>
       <use xlink:href="#m8a83943618" x="108" y="76.610323" style="fill: #a9a9a9; stroke: #a9a9a9; stroke-width: 0.8"/>
      </g>
     </g>
     <g id="text_20">
      <!-- 6400 -->
      <g style="fill: #a9a9a9" transform="translate(75.55 80.409541) scale(0.1 -0.1)">
       <use xlink:href="#DejaVuSans-36"/>
       <use xlink:href="#DejaVuSans-34" x="63.623047"/>
       <use xlink:href="#DejaVuSans-30" x="127.246094"/>
       <use xlink:href="#DejaVuSans-30" x="190.869141"/>
      </g>
     </g>
    </g>
    <g id="ytick_10">
     <g id="line2d_41">
      <path d="M 108 47.707097 
L 777.6 47.707097 
" clip-path="url(#pc33385ae12)" style="fill: none; stroke-dasharray: 5.12,1.28,0.8,1.28; stroke-dashoffset: 0; stroke: #b0b0b0; stroke-width: 0.8"/>
     </g>
     <g id="line2d_42">
      <g>
       <use xlink:href="#m8a83943618" x="108" y="47.707097" style="fill: #a9a9a9; stroke: #a9a9a9; stroke-width: 0.8"/>
      </g>
     </g>
     <g id="text_21">
      <!-- 7200 -->
      <g style="fill: #a9a9a9" transform="translate(75.55 51.506316) scale(0.1 -0.1)">
       <defs>
        <path id="DejaVuSans-37" d="M 525 4666 
L 3525 4666 
L 3525 4397 
L 1831 0 
L 1172 0 
L 2766 4134 
L 525 4134 
L 525 4666 
z
" transform="scale(0.015625)"/>
       </defs>
       <use xlink:href="#DejaVuSans-37"/>
       <use xlink:href="#DejaVuSans-32" x="63.623047"/>
       <use xlink:href="#DejaVuSans-30" x="127.246094"/>
       <use xlink:href="#DejaVuSans-30" x="190.869141"/>
      </g>
     </g>
    </g>
   </g>
   <g id="line2d_43">
    <path d="M 138.436364 307.727742 
L 141.447381 307.474839 
L 141.949217 307.258065 
L 143.956561 307.005161 
L 145.963906 306.607742 
L 146.967579 306.463226 
L 149.476759 306.246452 
L 150.480432 305.849032 
L 150.982268 305.19871 
L 151.484104 304.837419 
L 151.98594 303.717419 
L 152.487776 303.645161 
L 152.989613 303.247742 
L 153.993285 302.741935 
L 156.00063 301.152258 
L 158.007974 300.176774 
L 159.513483 299.490323 
L 160.015319 298.695484 
L 161.018991 297.972903 
L 161.520827 297.756129 
L 166.539189 297.033548 
L 167.041025 296.816774 
L 170.553878 296.527742 
L 172.561223 296.058065 
L 176.575912 295.516129 
L 177.077749 295.263226 
L 177.579585 295.190968 
L 178.583257 294.865806 
L 182.09611 294.287742 
L 183.099783 293.99871 
L 187.616308 293.24 
L 188.619981 293.023226 
L 189.623653 292.987097 
L 191.630998 292.517419 
L 192.132834 291.830968 
L 193.638342 291.252903 
L 195.143851 290.855484 
L 195.645687 290.602581 
L 196.649359 290.421935 
L 198.656704 289.843871 
L 199.660376 289.771613 
L 200.664049 289.51871 
L 202.671393 289.012903 
L 203.173229 288.976774 
L 204.176902 288.507097 
L 204.678738 288.434839 
L 205.180574 288.181935 
L 210.700772 287.27871 
L 212.708117 286.700645 
L 213.209953 286.375484 
L 215.719134 285.544516 
L 216.722806 284.858065 
L 218.228314 284.569032 
L 231.276055 280.92 
L 231.777891 280.92 
L 232.279727 280.703226 
L 233.2834 280.594839 
L 233.785236 280.414194 
L 235.79258 280.305806 
L 236.796253 280.125161 
L 237.799925 279.619355 
L 239.305434 279.077419 
L 239.80727 278.752258 
L 240.810942 278.31871 
L 241.312778 278.065806 
L 242.316451 277.740645 
L 242.818287 277.596129 
L 243.821959 276.981935 
L 244.323795 276.44 
L 245.327468 274.922581 
L 245.829304 274.778065 
L 246.33114 274.778065 
L 247.836648 273.910968 
L 248.338485 273.658065 
L 248.840321 273.549677 
L 249.342157 273.08 
L 250.345829 272.682581 
L 251.349502 272.212903 
L 253.858682 269.033548 
L 256.869699 267.443871 
L 257.873372 266.649032 
L 258.375208 266.323871 
L 258.877044 265.565161 
L 259.37888 264.445161 
L 259.880716 263.686452 
L 260.382553 263.289032 
L 260.884389 263.072258 
L 264.397242 260.109677 
L 265.400914 258.917419 
L 266.404587 258.194839 
L 267.910095 257.183226 
L 268.411931 256.749677 
L 269.415604 256.424516 
L 270.921112 255.557419 
L 272.426621 254.581935 
L 274.433965 252.811613 
L 275.437638 252.414194 
L 276.44131 251.727742 
L 276.943146 251.43871 
L 277.444982 251.366452 
L 278.950491 250.535484 
L 279.452327 249.993548 
L 281.961508 248.656774 
L 282.463344 248.476129 
L 283.968853 247.464516 
L 291.496395 244.827097 
L 292.500067 243.923871 
L 293.50374 243.454194 
L 294.507412 242.912258 
L 295.009248 242.623226 
L 296.012921 242.334194 
L 296.514757 242.009032 
L 297.016593 241.864516 
L 298.522101 240.889032 
L 301.031282 240.310968 
L 302.536791 239.443871 
L 304.042299 239.11871 
L 304.544136 238.974194 
L 306.049644 237.854194 
L 308.056989 237.312258 
L 308.558825 236.914839 
L 311.569842 235.903226 
L 312.573514 235.722581 
L 313.577187 235.325161 
L 317.09004 234.060645 
L 318.093712 233.916129 
L 319.599221 233.410323 
L 322.108401 232.218065 
L 324.115746 231.134194 
L 328.130435 229.508387 
L 328.632272 229.436129 
L 329.635944 228.821935 
L 330.13778 228.749677 
L 332.145125 227.91871 
L 334.152469 227.629677 
L 335.156142 227.123871 
L 335.657978 226.690323 
L 336.159814 225.787097 
L 338.167159 225.245161 
L 339.672667 224.486452 
L 340.174503 224.378065 
L 344.189193 222.463226 
L 345.694701 222.174194 
L 346.698374 221.668387 
L 347.20021 221.451613 
L 347.702046 221.379355 
L 349.709391 220.476129 
L 351.214899 219.536774 
L 352.720408 219.247742 
L 355.229589 218.633548 
L 355.731425 218.236129 
L 357.236933 217.694194 
L 359.244278 216.899355 
L 359.746114 216.538065 
L 360.24795 216.357419 
L 361.251623 215.815484 
L 363.760803 214.984516 
L 365.266312 213.792258 
L 365.768148 213.683871 
L 366.77182 212.889032 
L 367.273657 212.816774 
L 367.775493 212.021935 
L 368.277329 211.805161 
L 368.779165 211.407742 
L 369.281001 211.335484 
L 370.284674 210.72129 
L 371.288346 210.396129 
L 371.790182 210.034839 
L 372.292018 209.854194 
L 373.797527 208.806452 
L 375.804871 207.75871 
L 376.306708 207.686452 
L 377.812216 206.927742 
L 378.314052 206.096774 
L 379.317725 205.374194 
L 379.819561 205.265806 
L 380.823233 204.651613 
L 381.325069 204.543226 
L 382.328742 204.037419 
L 384.336086 203.061935 
L 384.837923 202.700645 
L 385.841595 201.725161 
L 386.845267 201.110968 
L 387.347103 200.785806 
L 387.84894 200.243871 
L 389.856284 198.870968 
L 390.35812 198.292903 
L 390.859957 197.895484 
L 391.863629 197.534194 
L 392.867301 196.847742 
L 394.37281 196.089032 
L 394.874646 196.016774 
L 396.380154 195.221935 
L 397.383827 194.607742 
L 402.402188 192.80129 
L 402.904025 192.403871 
L 404.911369 191.645161 
L 405.413205 191.500645 
L 405.915042 191.103226 
L 408.424222 189.730323 
L 409.427895 187.743226 
L 410.431567 186.587097 
L 411.435239 186.009032 
L 412.940748 185.394839 
L 413.442584 185.322581 
L 413.94442 185.033548 
L 416.453601 184.23871 
L 416.955437 184.021935 
L 417.95911 183.335484 
L 419.464618 182.685161 
L 420.46829 182.143226 
L 420.970127 181.781935 
L 421.471963 181.565161 
L 421.973799 181.203871 
L 422.475635 180.661935 
L 423.479308 180.12 
L 425.988488 178.783226 
L 428.999505 177.301935 
L 430.505014 176.868387 
L 432.010522 176.290323 
L 432.512359 175.929032 
L 433.516031 175.64 
L 434.519703 175.242581 
L 435.021539 174.845161 
L 437.028884 174.15871 
L 438.032556 173.436129 
L 439.036229 173.002581 
L 440.039901 172.207742 
L 441.043573 171.846452 
L 441.54541 171.412903 
L 442.047246 171.340645 
L 443.050918 170.581935 
L 444.05459 170.076129 
L 444.556427 169.859355 
L 445.058263 169.353548 
L 448.571116 167.980645 
L 449.574788 167.547097 
L 451.080297 167.077419 
L 452.083969 166.932903 
L 452.585805 166.716129 
L 453.087641 166.643871 
L 454.091314 166.210323 
L 454.59315 166.174194 
L 456.600495 165.415484 
L 458.106003 164.367742 
L 458.607839 164.187097 
L 459.611512 163.645161 
L 460.113348 163.500645 
L 463.124365 161.83871 
L 463.626201 161.730323 
L 465.13171 160.863226 
L 466.637218 160.357419 
L 467.64089 160.032258 
L 469.648235 159.381935 
L 470.651907 159.056774 
L 472.659252 158.659355 
L 473.161088 158.442581 
L 473.662924 158.370323 
L 474.666597 157.936774 
L 475.168433 157.864516 
L 475.670269 157.611613 
L 476.673941 157.430968 
L 478.17945 156.889032 
L 479.183122 156.780645 
L 480.688631 156.455484 
L 483.197812 156.021935 
L 496.245552 152.264516 
L 496.747388 151.75871 
L 497.75106 151.36129 
L 500.762077 150.277419 
L 501.263914 149.952258 
L 501.76575 149.843871 
L 502.267586 149.554839 
L 503.773095 149.12129 
L 504.776767 148.868387 
L 505.278603 148.543226 
L 505.780439 148.434839 
L 506.282275 148.00129 
L 507.787784 147.712258 
L 508.791456 147.242581 
L 509.293292 146.664516 
L 511.300637 146.194839 
L 514.81349 145.472258 
L 515.315326 145.472258 
L 515.817163 145.255484 
L 517.824507 144.894194 
L 518.326343 144.677419 
L 520.333688 144.316129 
L 521.33736 143.882581 
L 522.341033 143.701935 
L 524.850214 143.087742 
L 526.857558 142.473548 
L 527.359394 142.365161 
L 527.861231 142.112258 
L 528.864903 141.859355 
L 529.366739 141.570323 
L 530.872248 141.064516 
L 531.374084 140.739355 
L 532.377756 140.450323 
L 533.381428 140.125161 
L 534.385101 139.727742 
L 535.890609 139.077419 
L 537.897954 138.824516 
L 541.912643 137.415484 
L 542.41448 137.054194 
L 542.916316 136.945806 
L 543.418152 136.692903 
L 543.919988 136.656774 
L 549.440186 134.741935 
L 551.949367 134.091613 
L 552.953039 133.621935 
L 554.458548 133.296774 
L 554.960384 132.899355 
L 555.46222 132.646452 
L 555.964056 132.032258 
L 556.465892 131.670968 
L 557.469565 131.381935 
L 557.971401 130.984516 
L 560.982418 129.864516 
L 561.484254 129.539355 
L 562.487926 129.250323 
L 562.989762 128.925161 
L 565.498943 128.130323 
L 567.004452 127.263226 
L 567.506288 127.154839 
L 570.015469 125.818065 
L 571.520977 125.167742 
L 572.022813 124.806452 
L 573.026486 124.48129 
L 574.030158 123.903226 
L 574.531994 123.722581 
L 575.03383 123.36129 
L 581.557701 121.085161 
L 582.059537 120.976774 
L 582.561373 120.651613 
L 584.568718 120.254194 
L 585.57239 119.856774 
L 586.074226 119.567742 
L 586.576062 119.423226 
L 588.583407 118.375484 
L 589.085243 118.303226 
L 590.590752 117.472258 
L 592.09626 116.966452 
L 595.609113 115.557419 
L 596.11095 115.412903 
L 596.612786 115.087742 
L 597.616458 114.979355 
L 598.118294 114.654194 
L 599.121967 114.473548 
L 600.125639 114.003871 
L 600.627475 113.787097 
L 601.129311 113.714839 
L 603.638492 112.739355 
L 605.144001 112.341935 
L 606.147673 112.089032 
L 607.653181 111.655484 
L 608.656854 111.258065 
L 610.664198 110.174194 
L 611.667871 109.776774 
L 612.169707 109.451613 
L 613.173379 109.234839 
L 613.675215 108.945806 
L 614.177052 108.837419 
L 615.68256 108.006452 
L 616.686232 107.609032 
L 618.693577 106.850323 
L 621.202758 106.019355 
L 622.20643 105.513548 
L 624.715611 104.682581 
L 626.22112 104.140645 
L 626.722956 103.996129 
L 627.726628 103.454194 
L 629.733973 102.550968 
L 634.752335 100.636129 
L 635.254171 100.310968 
L 637.261515 99.624516 
L 637.763352 99.624516 
L 638.767024 99.190968 
L 639.770696 98.287742 
L 640.272532 97.854194 
L 641.778041 97.131613 
L 642.279877 97.023226 
L 642.781713 96.770323 
L 643.283549 96.698065 
L 643.785386 96.336774 
L 644.287222 96.228387 
L 645.290894 95.614194 
L 646.796403 94.855484 
L 647.800075 94.458065 
L 648.301911 94.205161 
L 649.80742 93.88 
L 652.3166 93.049032 
L 653.320273 92.723871 
L 654.825781 91.965161 
L 655.829454 91.495484 
L 656.833126 91.242581 
L 658.338634 90.556129 
L 662.85516 88.894194 
L 664.360669 87.990968 
L 664.862505 87.882581 
L 665.866177 87.376774 
L 666.869849 87.015484 
L 667.371686 86.581935 
L 668.375358 86.184516 
L 669.880866 85.570323 
L 670.382703 85.172903 
L 670.884539 85.136774 
L 671.888211 84.847742 
L 672.891883 84.522581 
L 673.39372 84.269677 
L 673.895556 84.197419 
L 675.401064 83.655484 
L 676.906573 83.113548 
L 677.910245 82.716129 
L 678.412081 82.31871 
L 679.91759 81.92129 
L 680.419426 81.632258 
L 681.423098 81.379355 
L 682.928607 80.548387 
L 683.430443 80.512258 
L 684.935951 80.042581 
L 685.939624 79.970323 
L 686.943296 79.572903 
L 689.954313 78.705806 
L 690.957985 78.669677 
L 694.972675 77.405161 
L 695.976347 76.863226 
L 696.478183 76.429677 
L 697.983692 75.562581 
L 698.987364 74.948387 
L 700.994709 74.370323 
L 701.496545 74.08129 
L 701.998381 73.972903 
L 702.500217 73.575484 
L 705.511234 72.347097 
L 707.518579 71.805161 
L 708.522251 71.371613 
L 709.024088 71.11871 
L 710.02776 70.829677 
L 710.529596 70.504516 
L 711.533268 70.323871 
L 714.042449 69.167742 
L 714.544285 68.87871 
L 716.049794 68.517419 
L 717.555302 67.541935 
L 718.057139 67.469677 
L 720.566319 66.494194 
L 722.071828 66.132903 
L 722.573664 66.060645 
L 723.0755 65.843871 
L 723.577336 65.807742 
L 724.581009 65.482581 
L 725.082845 65.446452 
L 726.588353 64.868387 
L 728.595698 64.290323 
L 729.59937 63.531613 
L 731.606715 62.447742 
L 733.112224 61.941935 
L 736.123241 60.605161 
L 737.126913 60.063226 
L 737.628749 59.810323 
L 738.130585 59.340645 
L 740.639766 58.618065 
L 741.643439 58.076129 
L 743.650783 57.353548 
L 744.152619 56.883871 
L 746.159964 56.341935 
L 746.6618 55.980645 
L 747.163636 55.8 
L 747.163636 55.8 
" clip-path="url(#pc33385ae12)" style="fill: none; stroke: #1f77b4; stroke-width: 1.5; stroke-linecap: square"/>
   </g>
   <g id="line2d_44">
    <path d="M 138.9382 307.8 
L 143.454725 307.691613 
L 147.469415 307.510968 
L 149.476759 307.510968 
L 149.978596 307.366452 
L 152.487776 307.258065 
L 155.498793 306.932903 
L 158.50981 306.824516 
L 159.513483 306.716129 
L 163.026336 306.571613 
L 166.539189 306.463226 
L 169.04837 306.390968 
L 175.57224 306.282581 
L 178.081421 306.210323 
L 181.594274 306.101935 
L 184.103455 306.029677 
L 189.623653 305.92129 
L 191.630998 305.740645 
L 193.638342 305.704516 
L 196.649359 305.596129 
L 198.656704 305.56 
L 201.165885 305.487742 
L 203.173229 305.307097 
L 207.689755 305.19871 
L 208.693427 305.126452 
L 210.700772 305.018065 
L 213.711789 304.909677 
L 215.719134 304.80129 
L 224.752185 304.259355 
L 228.265038 304.150968 
L 229.770546 304.006452 
L 232.279727 303.898065 
L 237.298089 303.645161 
L 242.316451 303.572903 
L 244.323795 303.356129 
L 246.33114 303.247742 
L 251.851338 302.741935 
L 255.364191 302.344516 
L 256.869699 302.272258 
L 261.386225 301.730323 
L 263.895406 301.658065 
L 265.400914 301.513548 
L 266.906423 301.405161 
L 280.957836 300.357419 
L 281.961508 300.176774 
L 284.972525 300.068387 
L 293.001904 299.59871 
L 296.514757 299.490323 
L 298.522101 299.273548 
L 301.031282 299.165161 
L 304.042299 299.056774 
L 306.55148 298.948387 
L 308.558825 298.912258 
L 311.068006 298.84 
L 312.071678 298.695484 
L 319.097384 298.587097 
L 320.101057 298.47871 
L 326.123091 298.370323 
L 330.639616 298.153548 
L 334.152469 298.045161 
L 336.159814 297.828387 
L 339.672667 297.72 
L 340.67634 297.539355 
L 343.18552 297.467097 
L 348.203882 297.394839 
L 350.713063 297.141935 
L 353.72408 297.033548 
L 355.731425 296.852903 
L 360.749786 296.6 
L 365.768148 296.491613 
L 370.284674 296.274839 
L 371.790182 296.23871 
L 372.793854 296.094194 
L 375.303035 295.985806 
L 376.306708 295.913548 
L 377.31038 295.84129 
L 378.314052 295.769032 
L 382.830578 295.696774 
L 384.336086 295.588387 
L 397.885663 294.72129 
L 400.394844 294.612903 
L 402.904025 294.540645 
L 409.929731 294.432258 
L 410.933403 294.287742 
L 417.95911 294.179355 
L 422.977471 293.926452 
L 423.981144 293.890323 
L 424.984816 293.781935 
L 427.493997 293.673548 
L 430.003178 293.60129 
L 432.512359 293.492903 
L 435.021539 293.420645 
L 439.538065 293.312258 
L 442.549082 293.203871 
L 449.574788 293.095484 
L 455.094986 292.806452 
L 457.102331 292.734194 
L 458.607839 292.625806 
L 465.633546 292.517419 
L 468.644563 292.409032 
L 477.677614 292.300645 
L 479.684958 292.264516 
L 485.706992 292.192258 
L 486.710665 292.12 
L 493.736371 292.011613 
L 495.743716 291.975484 
L 508.791456 291.867097 
L 510.296965 291.722581 
L 532.879592 291.614194 
L 535.388773 291.541935 
L 548.436514 291.433548 
L 549.440186 291.36129 
L 551.949367 291.289032 
L 553.454875 291.144516 
L 556.465892 291.036129 
L 559.978745 290.891613 
L 564.495271 290.783226 
L 567.004452 290.710968 
L 570.517305 290.602581 
L 574.531994 290.421935 
L 577.041175 290.313548 
L 579.04852 290.277419 
L 583.565045 290.169032 
L 585.57239 290.132903 
L 592.09626 290.024516 
L 594.103605 289.988387 
L 596.612786 289.88 
L 599.623803 289.771613 
L 603.136656 289.699355 
L 604.140328 289.627097 
L 616.184396 289.51871 
L 622.708267 289.157419 
L 625.217447 289.085161 
L 626.22112 288.976774 
L 627.224792 288.904516 
L 631.239481 288.796129 
L 634.250498 288.687742 
L 639.26886 288.579355 
L 641.778041 288.326452 
L 646.796403 288.218065 
L 647.800075 288.109677 
L 652.818437 288.00129 
L 655.327617 287.929032 
L 660.847815 287.892903 
L 661.851488 287.784516 
L 667.371686 287.676129 
L 668.375358 287.603871 
L 679.415754 287.495484 
L 682.426771 287.387097 
L 689.954313 287.27871 
L 691.961658 287.242581 
L 696.478183 287.170323 
L 697.481856 287.061935 
L 703.50389 286.953548 
L 706.514907 286.845161 
L 715.547958 286.736774 
L 717.053466 286.628387 
L 718.558975 286.52 
L 720.064483 286.411613 
L 727.592026 286.303226 
L 731.104879 286.15871 
L 744.152619 286.050323 
L 747.163636 285.905806 
L 747.163636 285.905806 
" clip-path="url(#pc33385ae12)" style="fill: none; stroke: #ff7f0e; stroke-width: 1.5; stroke-linecap: square"/>
   </g>
   <g id="patch_3">
    <path d="M 108 320.4 
L 108 43.2 
" style="fill: none; stroke: #a9a9a9; stroke-width: 0.8; stroke-linejoin: miter; stroke-linecap: square"/>
   </g>
   <g id="patch_4">
    <path d="M 777.6 320.4 
L 777.6 43.2 
" style="fill: none"/>
   </g>
   <g id="patch_5">
    <path d="M 108 320.4 
L 777.6 320.4 
" style="fill: none; stroke: #a9a9a9; stroke-width: 0.8; stroke-linejoin: miter; stroke-linecap: square"/>
   </g>
   <g id="patch_6">
    <path d="M 108 43.2 
L 777.6 43.2 
" style="fill: none"/>
   </g>
   <g id="text_22">
    <!-- get_subscribe history -->
    <g style="fill: #a9a9a9" transform="translate(378.6075 37.2) scale(0.12 -0.12)">
     <defs>
      <path id="DejaVuSans-67" d="M 2906 1791 
Q 2906 2416 2648 2759 
Q 2391 3103 1925 3103 
Q 1463 3103 1205 2759 
Q 947 2416 947 1791 
Q 947 1169 1205 825 
Q 1463 481 1925 481 
Q 2391 481 2648 825 
Q 2906 1169 2906 1791 
z
M 3481 434 
Q 3481 -459 3084 -895 
Q 2688 -1331 1869 -1331 
Q 1566 -1331 1297 -1286 
Q 1028 -1241 775 -1147 
L 775 -588 
Q 1028 -725 1275 -790 
Q 1522 -856 1778 -856 
Q 2344 -856 2625 -561 
Q 2906 -266 2906 331 
L 2906 616 
Q 2728 306 2450 153 
Q 2172 0 1784 0 
Q 1141 0 747 490 
Q 353 981 353 1791 
Q 353 2603 747 3093 
Q 1141 3584 1784 3584 
Q 2172 3584 2450 3431 
Q 2728 3278 2906 2969 
L 2906 3500 
L 3481 3500 
L 3481 434 
z
" transform="scale(0.015625)"/>
      <path id="DejaVuSans-65" d="M 3597 1894 
L 3597 1613 
L 953 1613 
Q 991 1019 1311 708 
Q 1631 397 2203 397 
Q 2534 397 2845 478 
Q 3156 559 3463 722 
L 3463 178 
Q 3153 47 2828 -22 
Q 2503 -91 2169 -91 
Q 1331 -91 842 396 
Q 353 884 353 1716 
Q 353 2575 817 3079 
Q 1281 3584 2069 3584 
Q 2775 3584 3186 3129 
Q 3597 2675 3597 1894 
z
M 3022 2063 
Q 3016 2534 2758 2815 
Q 2500 3097 2075 3097 
Q 1594 3097 1305 2825 
Q 1016 2553 972 2059 
L 3022 2063 
z
" transform="scale(0.015625)"/>
      <path id="DejaVuSans-74" d="M 1172 4494 
L 1172 3500 
L 2356 3500 
L 2356 3053 
L 1172 3053 
L 1172 1153 
Q 1172 725 1289 603 
Q 1406 481 1766 481 
L 2356 481 
L 2356 0 
L 1766 0 
Q 1100 0 847 248 
Q 594 497 594 1153 
L 594 3053 
L 172 3053 
L 172 3500 
L 594 3500 
L 594 4494 
L 1172 4494 
z
" transform="scale(0.015625)"/>
      <path id="DejaVuSans-5f" d="M 3263 -1063 
L 3263 -1509 
L -63 -1509 
L -63 -1063 
L 3263 -1063 
z
" transform="scale(0.015625)"/>
      <path id="DejaVuSans-73" d="M 2834 3397 
L 2834 2853 
Q 2591 2978 2328 3040 
Q 2066 3103 1784 3103 
Q 1356 3103 1142 2972 
Q 928 2841 928 2578 
Q 928 2378 1081 2264 
Q 1234 2150 1697 2047 
L 1894 2003 
Q 2506 1872 2764 1633 
Q 3022 1394 3022 966 
Q 3022 478 2636 193 
Q 2250 -91 1575 -91 
Q 1294 -91 989 -36 
Q 684 19 347 128 
L 347 722 
Q 666 556 975 473 
Q 1284 391 1588 391 
Q 1994 391 2212 530 
Q 2431 669 2431 922 
Q 2431 1156 2273 1281 
Q 2116 1406 1581 1522 
L 1381 1569 
Q 847 1681 609 1914 
Q 372 2147 372 2553 
Q 372 3047 722 3315 
Q 1072 3584 1716 3584 
Q 2034 3584 2315 3537 
Q 2597 3491 2834 3397 
z
" transform="scale(0.015625)"/>
      <path id="DejaVuSans-75" d="M 544 1381 
L 544 3500 
L 1119 3500 
L 1119 1403 
Q 1119 906 1312 657 
Q 1506 409 1894 409 
Q 2359 409 2629 706 
Q 2900 1003 2900 1516 
L 2900 3500 
L 3475 3500 
L 3475 0 
L 2900 0 
L 2900 538 
Q 2691 219 2414 64 
Q 2138 -91 1772 -91 
Q 1169 -91 856 284 
Q 544 659 544 1381 
z
M 1991 3584 
L 1991 3584 
z
" transform="scale(0.015625)"/>
      <path id="DejaVuSans-62" d="M 3116 1747 
Q 3116 2381 2855 2742 
Q 2594 3103 2138 3103 
Q 1681 3103 1420 2742 
Q 1159 2381 1159 1747 
Q 1159 1113 1420 752 
Q 1681 391 2138 391 
Q 2594 391 2855 752 
Q 3116 1113 3116 1747 
z
M 1159 2969 
Q 1341 3281 1617 3432 
Q 1894 3584 2278 3584 
Q 2916 3584 3314 3078 
Q 3713 2572 3713 1747 
Q 3713 922 3314 415 
Q 2916 -91 2278 -91 
Q 1894 -91 1617 61 
Q 1341 213 1159 525 
L 1159 0 
L 581 0 
L 581 4863 
L 1159 4863 
L 1159 2969 
z
" transform="scale(0.015625)"/>
      <path id="DejaVuSans-63" d="M 3122 3366 
L 3122 2828 
Q 2878 2963 2633 3030 
Q 2388 3097 2138 3097 
Q 1578 3097 1268 2742 
Q 959 2388 959 1747 
Q 959 1106 1268 751 
Q 1578 397 2138 397 
Q 2388 397 2633 464 
Q 2878 531 3122 666 
L 3122 134 
Q 2881 22 2623 -34 
Q 2366 -91 2075 -91 
Q 1284 -91 818 406 
Q 353 903 353 1747 
Q 353 2603 823 3093 
Q 1294 3584 2113 3584 
Q 2378 3584 2631 3529 
Q 2884 3475 3122 3366 
z
" transform="scale(0.015625)"/>
      <path id="DejaVuSans-72" d="M 2631 2963 
Q 2534 3019 2420 3045 
Q 2306 3072 2169 3072 
Q 1681 3072 1420 2755 
Q 1159 2438 1159 1844 
L 1159 0 
L 581 0 
L 581 3500 
L 1159 3500 
L 1159 2956 
Q 1341 3275 1631 3429 
Q 1922 3584 2338 3584 
Q 2397 3584 2469 3576 
Q 2541 3569 2628 3553 
L 2631 2963 
z
" transform="scale(0.015625)"/>
      <path id="DejaVuSans-69" d="M 603 3500 
L 1178 3500 
L 1178 0 
L 603 0 
L 603 3500 
z
M 603 4863 
L 1178 4863 
L 1178 4134 
L 603 4134 
L 603 4863 
z
" transform="scale(0.015625)"/>
      <path id="DejaVuSans-20" transform="scale(0.015625)"/>
      <path id="DejaVuSans-68" d="M 3513 2113 
L 3513 0 
L 2938 0 
L 2938 2094 
Q 2938 2591 2744 2837 
Q 2550 3084 2163 3084 
Q 1697 3084 1428 2787 
Q 1159 2491 1159 1978 
L 1159 0 
L 581 0 
L 581 4863 
L 1159 4863 
L 1159 2956 
Q 1366 3272 1645 3428 
Q 1925 3584 2291 3584 
Q 2894 3584 3203 3211 
Q 3513 2838 3513 2113 
z
" transform="scale(0.015625)"/>
      <path id="DejaVuSans-6f" d="M 1959 3097 
Q 1497 3097 1228 2736 
Q 959 2375 959 1747 
Q 959 1119 1226 758 
Q 1494 397 1959 397 
Q 2419 397 2687 759 
Q 2956 1122 2956 1747 
Q 2956 2369 2687 2733 
Q 2419 3097 1959 3097 
z
M 1959 3584 
Q 2709 3584 3137 3096 
Q 3566 2609 3566 1747 
Q 3566 888 3137 398 
Q 2709 -91 1959 -91 
Q 1206 -91 779 398 
Q 353 888 353 1747 
Q 353 2609 779 3096 
Q 1206 3584 1959 3584 
z
" transform="scale(0.015625)"/>
      <path id="DejaVuSans-79" d="M 2059 -325 
Q 1816 -950 1584 -1140 
Q 1353 -1331 966 -1331 
L 506 -1331 
L 506 -850 
L 844 -850 
Q 1081 -850 1212 -737 
Q 1344 -625 1503 -206 
L 1606 56 
L 191 3500 
L 800 3500 
L 1894 763 
L 2988 3500 
L 3597 3500 
L 2059 -325 
z
" transform="scale(0.015625)"/>
     </defs>
     <use xlink:href="#DejaVuSans-67"/>
     <use xlink:href="#DejaVuSans-65" x="63.476562"/>
     <use xlink:href="#DejaVuSans-74" x="125"/>
     <use xlink:href="#DejaVuSans-5f" x="164.208984"/>
     <use xlink:href="#DejaVuSans-73" x="214.208984"/>
     <use xlink:href="#DejaVuSans-75" x="266.308594"/>
     <use xlink:href="#DejaVuSans-62" x="329.6875"/>
     <use xlink:href="#DejaVuSans-73" x="393.164062"/>
     <use xlink:href="#DejaVuSans-63" x="445.263672"/>
     <use xlink:href="#DejaVuSans-72" x="500.244141"/>
     <use xlink:href="#DejaVuSans-69" x="541.357422"/>
     <use xlink:href="#DejaVuSans-62" x="569.140625"/>
     <use xlink:href="#DejaVuSans-65" x="632.617188"/>
     <use xlink:href="#DejaVuSans-20" x="694.140625"/>
     <use xlink:href="#DejaVuSans-68" x="725.927734"/>
     <use xlink:href="#DejaVuSans-69" x="789.306641"/>
     <use xlink:href="#DejaVuSans-73" x="817.089844"/>
     <use xlink:href="#DejaVuSans-74" x="869.189453"/>
     <use xlink:href="#DejaVuSans-6f" x="908.398438"/>
     <use xlink:href="#DejaVuSans-72" x="969.580078"/>
     <use xlink:href="#DejaVuSans-79" x="1010.693359"/>
    </g>
   </g>
   <g id="legend_1">
    <g id="line2d_45">
     <path d="M 815.08 328.498438 
L 825.08 328.498438 
L 835.08 328.498438 
" style="fill: none; stroke: #1f77b4; stroke-width: 1.5; stroke-linecap: square"/>
    </g>
    <g id="text_23">
     <!-- star -->
     <g style="fill: #a9a9a9" transform="translate(843.08 331.998438) scale(0.1 -0.1)">
      <defs>
       <path id="DejaVuSans-61" d="M 2194 1759 
Q 1497 1759 1228 1600 
Q 959 1441 959 1056 
Q 959 750 1161 570 
Q 1363 391 1709 391 
Q 2188 391 2477 730 
Q 2766 1069 2766 1631 
L 2766 1759 
L 2194 1759 
z
M 3341 1997 
L 3341 0 
L 2766 0 
L 2766 531 
Q 2569 213 2275 61 
Q 1981 -91 1556 -91 
Q 1019 -91 701 211 
Q 384 513 384 1019 
Q 384 1609 779 1909 
Q 1175 2209 1959 2209 
L 2766 2209 
L 2766 2266 
Q 2766 2663 2505 2880 
Q 2244 3097 1772 3097 
Q 1472 3097 1187 3025 
Q 903 2953 641 2809 
L 641 3341 
Q 956 3463 1253 3523 
Q 1550 3584 1831 3584 
Q 2591 3584 2966 3190 
Q 3341 2797 3341 1997 
z
" transform="scale(0.015625)"/>
      </defs>
      <use xlink:href="#DejaVuSans-73"/>
      <use xlink:href="#DejaVuSans-74" x="52.099609"/>
      <use xlink:href="#DejaVuSans-61" x="91.308594"/>
      <use xlink:href="#DejaVuSans-72" x="152.587891"/>
     </g>
    </g>
    <g id="line2d_46">
     <path d="M 815.08 343.176562 
L 825.08 343.176562 
L 835.08 343.176562 
" style="fill: none; stroke: #ff7f0e; stroke-width: 1.5; stroke-linecap: square"/>
    </g>
    <g id="text_24">
     <!-- fork -->
     <g style="fill: #a9a9a9" transform="translate(843.08 346.676562) scale(0.1 -0.1)">
      <defs>
       <path id="DejaVuSans-66" d="M 2375 4863 
L 2375 4384 
L 1825 4384 
Q 1516 4384 1395 4259 
Q 1275 4134 1275 3809 
L 1275 3500 
L 2222 3500 
L 2222 3053 
L 1275 3053 
L 1275 0 
L 697 0 
L 697 3053 
L 147 3053 
L 147 3500 
L 697 3500 
L 697 3744 
Q 697 4328 969 4595 
Q 1241 4863 1831 4863 
L 2375 4863 
z
" transform="scale(0.015625)"/>
       <path id="DejaVuSans-6b" d="M 581 4863 
L 1159 4863 
L 1159 1991 
L 2875 3500 
L 3609 3500 
L 1753 1863 
L 3688 0 
L 2938 0 
L 1159 1709 
L 1159 0 
L 581 0 
L 581 4863 
z
" transform="scale(0.015625)"/>
      </defs>
      <use xlink:href="#DejaVuSans-66"/>
      <use xlink:href="#DejaVuSans-6f" x="35.205078"/>
      <use xlink:href="#DejaVuSans-72" x="96.386719"/>
      <use xlink:href="#DejaVuSans-6b" x="137.5"/>
     </g>
    </g>
   </g>
  </g>
 </g>
 <defs>
  <clipPath id="pc33385ae12">
   <rect x="108" y="43.2" width="669.6" height="277.2"/>
  </clipPath>
 </defs>
</svg>
