<?xml version="1.0" encoding="utf-8" standalone="no"?>
<!DOCTYPE svg PUBLIC "-//W3C//DTD SVG 1.1//EN"
  "http://www.w3.org/Graphics/SVG/1.1/DTD/svg11.dtd">
<svg xmlns:xlink="http://www.w3.org/1999/xlink" width="864pt" height="360pt" viewBox="0 0 864 360" xmlns="http://www.w3.org/2000/svg" version="1.1">
 <metadata>
  <rdf:RDF xmlns:dc="http://purl.org/dc/elements/1.1/" xmlns:cc="http://creativecommons.org/ns#" xmlns:rdf="http://www.w3.org/1999/02/22-rdf-syntax-ns#">
   <cc:Work>
    <dc:type rdf:resource="http://purl.org/dc/dcmitype/StillImage"/>
    <dc:date>2024-11-20T20:06:27.084960</dc:date>
    <dc:format>image/svg+xml</dc:format>
    <dc:creator>
     <cc:Agent>
      <dc:title>Matplotlib v3.9.2, https://matplotlib.org/</dc:title>
     </cc:Agent>
    </dc:creator>
   </cc:Work>
  </rdf:RDF>
 </metadata>
 <defs>
  <style type="text/css">*{stroke-linejoin: round; stroke-linecap: butt}</style>
 </defs>
 <g id="figure_1">
  <g id="patch_1">
   <path d="M 0 360 
L 864 360 
L 864 0 
L 0 0 
L 0 360 
z
" style="fill: none; opacity: 0"/>
  </g>
  <g id="axes_1">
   <g id="patch_2">
    <path d="M 108 320.4 
L 777.6 320.4 
L 777.6 43.2 
L 108 43.2 
L 108 320.4 
z
" style="fill: none; opacity: 0"/>
   </g>
   <g id="matplotlib.axis_1">
    <g id="xtick_1">
     <g id="line2d_1">
      <path d="M 157.975758 320.4 
L 157.975758 43.2 
" clip-path="url(#p4fd1d1cdd1)" style="fill: none; stroke-dasharray: 5.12,1.28,0.8,1.28; stroke-dashoffset: 0; stroke: #b0b0b0; stroke-width: 0.8"/>
     </g>
     <g id="line2d_2">
      <defs>
       <path id="md455aaf1e4" d="M 0 0 
L 0 3.5 
" style="stroke: #a9a9a9; stroke-width: 0.8"/>
      </defs>
      <g>
       <use xlink:href="#md455aaf1e4" x="157.975758" y="320.4" style="fill: #a9a9a9; stroke: #a9a9a9; stroke-width: 0.8"/>
      </g>
     </g>
     <g id="text_1">
      <!-- 2021-09 -->
      <g style="fill: #a9a9a9" transform="translate(137.084351 334.998438) scale(0.1 -0.1)">
       <defs>
        <path id="DejaVuSans-32" d="M 1228 531 
L 3431 531 
L 3431 0 
L 469 0 
L 469 531 
Q 828 903 1448 1529 
Q 2069 2156 2228 2338 
Q 2531 2678 2651 2914 
Q 2772 3150 2772 3378 
Q 2772 3750 2511 3984 
Q 2250 4219 1831 4219 
Q 1534 4219 1204 4116 
Q 875 4013 500 3803 
L 500 4441 
Q 881 4594 1212 4672 
Q 1544 4750 1819 4750 
Q 2544 4750 2975 4387 
Q 3406 4025 3406 3419 
Q 3406 3131 3298 2873 
Q 3191 2616 2906 2266 
Q 2828 2175 2409 1742 
Q 1991 1309 1228 531 
z
" transform="scale(0.015625)"/>
        <path id="DejaVuSans-30" d="M 2034 4250 
Q 1547 4250 1301 3770 
Q 1056 3291 1056 2328 
Q 1056 1369 1301 889 
Q 1547 409 2034 409 
Q 2525 409 2770 889 
Q 3016 1369 3016 2328 
Q 3016 3291 2770 3770 
Q 2525 4250 2034 4250 
z
M 2034 4750 
Q 2819 4750 3233 4129 
Q 3647 3509 3647 2328 
Q 3647 1150 3233 529 
Q 2819 -91 2034 -91 
Q 1250 -91 836 529 
Q 422 1150 422 2328 
Q 422 3509 836 4129 
Q 1250 4750 2034 4750 
z
" transform="scale(0.015625)"/>
        <path id="DejaVuSans-31" d="M 794 531 
L 1825 531 
L 1825 4091 
L 703 3866 
L 703 4441 
L 1819 4666 
L 2450 4666 
L 2450 531 
L 3481 531 
L 3481 0 
L 794 0 
L 794 531 
z
" transform="scale(0.015625)"/>
        <path id="DejaVuSans-2d" d="M 313 2009 
L 1997 2009 
L 1997 1497 
L 313 1497 
L 313 2009 
z
" transform="scale(0.015625)"/>
        <path id="DejaVuSans-39" d="M 703 97 
L 703 672 
Q 941 559 1184 500 
Q 1428 441 1663 441 
Q 2288 441 2617 861 
Q 2947 1281 2994 2138 
Q 2813 1869 2534 1725 
Q 2256 1581 1919 1581 
Q 1219 1581 811 2004 
Q 403 2428 403 3163 
Q 403 3881 828 4315 
Q 1253 4750 1959 4750 
Q 2769 4750 3195 4129 
Q 3622 3509 3622 2328 
Q 3622 1225 3098 567 
Q 2575 -91 1691 -91 
Q 1453 -91 1209 -44 
Q 966 3 703 97 
z
M 1959 2075 
Q 2384 2075 2632 2365 
Q 2881 2656 2881 3163 
Q 2881 3666 2632 3958 
Q 2384 4250 1959 4250 
Q 1534 4250 1286 3958 
Q 1038 3666 1038 3163 
Q 1038 2656 1286 2365 
Q 1534 2075 1959 2075 
z
" transform="scale(0.015625)"/>
       </defs>
       <use xlink:href="#DejaVuSans-32"/>
       <use xlink:href="#DejaVuSans-30" x="63.623047"/>
       <use xlink:href="#DejaVuSans-32" x="127.246094"/>
       <use xlink:href="#DejaVuSans-31" x="190.869141"/>
       <use xlink:href="#DejaVuSans-2d" x="254.492188"/>
       <use xlink:href="#DejaVuSans-30" x="290.576172"/>
       <use xlink:href="#DejaVuSans-39" x="354.199219"/>
      </g>
     </g>
    </g>
    <g id="xtick_2">
     <g id="line2d_3">
      <path d="M 219.09899 320.4 
L 219.09899 43.2 
" clip-path="url(#p4fd1d1cdd1)" style="fill: none; stroke-dasharray: 5.12,1.28,0.8,1.28; stroke-dashoffset: 0; stroke: #b0b0b0; stroke-width: 0.8"/>
     </g>
     <g id="line2d_4">
      <g>
       <use xlink:href="#md455aaf1e4" x="219.09899" y="320.4" style="fill: #a9a9a9; stroke: #a9a9a9; stroke-width: 0.8"/>
      </g>
     </g>
     <g id="text_2">
      <!-- 2022-01 -->
      <g style="fill: #a9a9a9" transform="translate(198.207584 334.998438) scale(0.1 -0.1)">
       <use xlink:href="#DejaVuSans-32"/>
       <use xlink:href="#DejaVuSans-30" x="63.623047"/>
       <use xlink:href="#DejaVuSans-32" x="127.246094"/>
       <use xlink:href="#DejaVuSans-32" x="190.869141"/>
       <use xlink:href="#DejaVuSans-2d" x="254.492188"/>
       <use xlink:href="#DejaVuSans-30" x="290.576172"/>
       <use xlink:href="#DejaVuSans-31" x="354.199219"/>
      </g>
     </g>
    </g>
    <g id="xtick_3">
     <g id="line2d_5">
      <path d="M 279.220202 320.4 
L 279.220202 43.2 
" clip-path="url(#p4fd1d1cdd1)" style="fill: none; stroke-dasharray: 5.12,1.28,0.8,1.28; stroke-dashoffset: 0; stroke: #b0b0b0; stroke-width: 0.8"/>
     </g>
     <g id="line2d_6">
      <g>
       <use xlink:href="#md455aaf1e4" x="279.220202" y="320.4" style="fill: #a9a9a9; stroke: #a9a9a9; stroke-width: 0.8"/>
      </g>
     </g>
     <g id="text_3">
      <!-- 2022-05 -->
      <g style="fill: #a9a9a9" transform="translate(258.328796 334.998438) scale(0.1 -0.1)">
       <defs>
        <path id="DejaVuSans-35" d="M 691 4666 
L 3169 4666 
L 3169 4134 
L 1269 4134 
L 1269 2991 
Q 1406 3038 1543 3061 
Q 1681 3084 1819 3084 
Q 2600 3084 3056 2656 
Q 3513 2228 3513 1497 
Q 3513 744 3044 326 
Q 2575 -91 1722 -91 
Q 1428 -91 1123 -41 
Q 819 9 494 109 
L 494 744 
Q 775 591 1075 516 
Q 1375 441 1709 441 
Q 2250 441 2565 725 
Q 2881 1009 2881 1497 
Q 2881 1984 2565 2268 
Q 2250 2553 1709 2553 
Q 1456 2553 1204 2497 
Q 953 2441 691 2322 
L 691 4666 
z
" transform="scale(0.015625)"/>
       </defs>
       <use xlink:href="#DejaVuSans-32"/>
       <use xlink:href="#DejaVuSans-30" x="63.623047"/>
       <use xlink:href="#DejaVuSans-32" x="127.246094"/>
       <use xlink:href="#DejaVuSans-32" x="190.869141"/>
       <use xlink:href="#DejaVuSans-2d" x="254.492188"/>
       <use xlink:href="#DejaVuSans-30" x="290.576172"/>
       <use xlink:href="#DejaVuSans-35" x="354.199219"/>
      </g>
     </g>
    </g>
    <g id="xtick_4">
     <g id="line2d_7">
      <path d="M 340.844444 320.4 
L 340.844444 43.2 
" clip-path="url(#p4fd1d1cdd1)" style="fill: none; stroke-dasharray: 5.12,1.28,0.8,1.28; stroke-dashoffset: 0; stroke: #b0b0b0; stroke-width: 0.8"/>
     </g>
     <g id="line2d_8">
      <g>
       <use xlink:href="#md455aaf1e4" x="340.844444" y="320.4" style="fill: #a9a9a9; stroke: #a9a9a9; stroke-width: 0.8"/>
      </g>
     </g>
     <g id="text_4">
      <!-- 2022-09 -->
      <g style="fill: #a9a9a9" transform="translate(319.953038 334.998438) scale(0.1 -0.1)">
       <use xlink:href="#DejaVuSans-32"/>
       <use xlink:href="#DejaVuSans-30" x="63.623047"/>
       <use xlink:href="#DejaVuSans-32" x="127.246094"/>
       <use xlink:href="#DejaVuSans-32" x="190.869141"/>
       <use xlink:href="#DejaVuSans-2d" x="254.492188"/>
       <use xlink:href="#DejaVuSans-30" x="290.576172"/>
       <use xlink:href="#DejaVuSans-39" x="354.199219"/>
      </g>
     </g>
    </g>
    <g id="xtick_5">
     <g id="line2d_9">
      <path d="M 401.967677 320.4 
L 401.967677 43.2 
" clip-path="url(#p4fd1d1cdd1)" style="fill: none; stroke-dasharray: 5.12,1.28,0.8,1.28; stroke-dashoffset: 0; stroke: #b0b0b0; stroke-width: 0.8"/>
     </g>
     <g id="line2d_10">
      <g>
       <use xlink:href="#md455aaf1e4" x="401.967677" y="320.4" style="fill: #a9a9a9; stroke: #a9a9a9; stroke-width: 0.8"/>
      </g>
     </g>
     <g id="text_5">
      <!-- 2023-01 -->
      <g style="fill: #a9a9a9" transform="translate(381.076271 334.998438) scale(0.1 -0.1)">
       <defs>
        <path id="DejaVuSans-33" d="M 2597 2516 
Q 3050 2419 3304 2112 
Q 3559 1806 3559 1356 
Q 3559 666 3084 287 
Q 2609 -91 1734 -91 
Q 1441 -91 1130 -33 
Q 819 25 488 141 
L 488 750 
Q 750 597 1062 519 
Q 1375 441 1716 441 
Q 2309 441 2620 675 
Q 2931 909 2931 1356 
Q 2931 1769 2642 2001 
Q 2353 2234 1838 2234 
L 1294 2234 
L 1294 2753 
L 1863 2753 
Q 2328 2753 2575 2939 
Q 2822 3125 2822 3475 
Q 2822 3834 2567 4026 
Q 2313 4219 1838 4219 
Q 1578 4219 1281 4162 
Q 984 4106 628 3988 
L 628 4550 
Q 988 4650 1302 4700 
Q 1616 4750 1894 4750 
Q 2613 4750 3031 4423 
Q 3450 4097 3450 3541 
Q 3450 3153 3228 2886 
Q 3006 2619 2597 2516 
z
" transform="scale(0.015625)"/>
       </defs>
       <use xlink:href="#DejaVuSans-32"/>
       <use xlink:href="#DejaVuSans-30" x="63.623047"/>
       <use xlink:href="#DejaVuSans-32" x="127.246094"/>
       <use xlink:href="#DejaVuSans-33" x="190.869141"/>
       <use xlink:href="#DejaVuSans-2d" x="254.492188"/>
       <use xlink:href="#DejaVuSans-30" x="290.576172"/>
       <use xlink:href="#DejaVuSans-31" x="354.199219"/>
      </g>
     </g>
    </g>
    <g id="xtick_6">
     <g id="line2d_11">
      <path d="M 462.088889 320.4 
L 462.088889 43.2 
" clip-path="url(#p4fd1d1cdd1)" style="fill: none; stroke-dasharray: 5.12,1.28,0.8,1.28; stroke-dashoffset: 0; stroke: #b0b0b0; stroke-width: 0.8"/>
     </g>
     <g id="line2d_12">
      <g>
       <use xlink:href="#md455aaf1e4" x="462.088889" y="320.4" style="fill: #a9a9a9; stroke: #a9a9a9; stroke-width: 0.8"/>
      </g>
     </g>
     <g id="text_6">
      <!-- 2023-05 -->
      <g style="fill: #a9a9a9" transform="translate(441.197483 334.998438) scale(0.1 -0.1)">
       <use xlink:href="#DejaVuSans-32"/>
       <use xlink:href="#DejaVuSans-30" x="63.623047"/>
       <use xlink:href="#DejaVuSans-32" x="127.246094"/>
       <use xlink:href="#DejaVuSans-33" x="190.869141"/>
       <use xlink:href="#DejaVuSans-2d" x="254.492188"/>
       <use xlink:href="#DejaVuSans-30" x="290.576172"/>
       <use xlink:href="#DejaVuSans-35" x="354.199219"/>
      </g>
     </g>
    </g>
    <g id="xtick_7">
     <g id="line2d_13">
      <path d="M 523.713131 320.4 
L 523.713131 43.2 
" clip-path="url(#p4fd1d1cdd1)" style="fill: none; stroke-dasharray: 5.12,1.28,0.8,1.28; stroke-dashoffset: 0; stroke: #b0b0b0; stroke-width: 0.8"/>
     </g>
     <g id="line2d_14">
      <g>
       <use xlink:href="#md455aaf1e4" x="523.713131" y="320.4" style="fill: #a9a9a9; stroke: #a9a9a9; stroke-width: 0.8"/>
      </g>
     </g>
     <g id="text_7">
      <!-- 2023-09 -->
      <g style="fill: #a9a9a9" transform="translate(502.821725 334.998438) scale(0.1 -0.1)">
       <use xlink:href="#DejaVuSans-32"/>
       <use xlink:href="#DejaVuSans-30" x="63.623047"/>
       <use xlink:href="#DejaVuSans-32" x="127.246094"/>
       <use xlink:href="#DejaVuSans-33" x="190.869141"/>
       <use xlink:href="#DejaVuSans-2d" x="254.492188"/>
       <use xlink:href="#DejaVuSans-30" x="290.576172"/>
       <use xlink:href="#DejaVuSans-39" x="354.199219"/>
      </g>
     </g>
    </g>
    <g id="xtick_8">
     <g id="line2d_15">
      <path d="M 584.836364 320.4 
L 584.836364 43.2 
" clip-path="url(#p4fd1d1cdd1)" style="fill: none; stroke-dasharray: 5.12,1.28,0.8,1.28; stroke-dashoffset: 0; stroke: #b0b0b0; stroke-width: 0.8"/>
     </g>
     <g id="line2d_16">
      <g>
       <use xlink:href="#md455aaf1e4" x="584.836364" y="320.4" style="fill: #a9a9a9; stroke: #a9a9a9; stroke-width: 0.8"/>
      </g>
     </g>
     <g id="text_8">
      <!-- 2024-01 -->
      <g style="fill: #a9a9a9" transform="translate(563.944957 334.998438) scale(0.1 -0.1)">
       <defs>
        <path id="DejaVuSans-34" d="M 2419 4116 
L 825 1625 
L 2419 1625 
L 2419 4116 
z
M 2253 4666 
L 3047 4666 
L 3047 1625 
L 3713 1625 
L 3713 1100 
L 3047 1100 
L 3047 0 
L 2419 0 
L 2419 1100 
L 313 1100 
L 313 1709 
L 2253 4666 
z
" transform="scale(0.015625)"/>
       </defs>
       <use xlink:href="#DejaVuSans-32"/>
       <use xlink:href="#DejaVuSans-30" x="63.623047"/>
       <use xlink:href="#DejaVuSans-32" x="127.246094"/>
       <use xlink:href="#DejaVuSans-34" x="190.869141"/>
       <use xlink:href="#DejaVuSans-2d" x="254.492188"/>
       <use xlink:href="#DejaVuSans-30" x="290.576172"/>
       <use xlink:href="#DejaVuSans-31" x="354.199219"/>
      </g>
     </g>
    </g>
    <g id="xtick_9">
     <g id="line2d_17">
      <path d="M 645.458586 320.4 
L 645.458586 43.2 
" clip-path="url(#p4fd1d1cdd1)" style="fill: none; stroke-dasharray: 5.12,1.28,0.8,1.28; stroke-dashoffset: 0; stroke: #b0b0b0; stroke-width: 0.8"/>
     </g>
     <g id="line2d_18">
      <g>
       <use xlink:href="#md455aaf1e4" x="645.458586" y="320.4" style="fill: #a9a9a9; stroke: #a9a9a9; stroke-width: 0.8"/>
      </g>
     </g>
     <g id="text_9">
      <!-- 2024-05 -->
      <g style="fill: #a9a9a9" transform="translate(624.56718 334.998438) scale(0.1 -0.1)">
       <use xlink:href="#DejaVuSans-32"/>
       <use xlink:href="#DejaVuSans-30" x="63.623047"/>
       <use xlink:href="#DejaVuSans-32" x="127.246094"/>
       <use xlink:href="#DejaVuSans-34" x="190.869141"/>
       <use xlink:href="#DejaVuSans-2d" x="254.492188"/>
       <use xlink:href="#DejaVuSans-30" x="290.576172"/>
       <use xlink:href="#DejaVuSans-35" x="354.199219"/>
      </g>
     </g>
    </g>
    <g id="xtick_10">
     <g id="line2d_19">
      <path d="M 707.082828 320.4 
L 707.082828 43.2 
" clip-path="url(#p4fd1d1cdd1)" style="fill: none; stroke-dasharray: 5.12,1.28,0.8,1.28; stroke-dashoffset: 0; stroke: #b0b0b0; stroke-width: 0.8"/>
     </g>
     <g id="line2d_20">
      <g>
       <use xlink:href="#md455aaf1e4" x="707.082828" y="320.4" style="fill: #a9a9a9; stroke: #a9a9a9; stroke-width: 0.8"/>
      </g>
     </g>
     <g id="text_10">
      <!-- 2024-09 -->
      <g style="fill: #a9a9a9" transform="translate(686.191422 334.998438) scale(0.1 -0.1)">
       <use xlink:href="#DejaVuSans-32"/>
       <use xlink:href="#DejaVuSans-30" x="63.623047"/>
       <use xlink:href="#DejaVuSans-32" x="127.246094"/>
       <use xlink:href="#DejaVuSans-34" x="190.869141"/>
       <use xlink:href="#DejaVuSans-2d" x="254.492188"/>
       <use xlink:href="#DejaVuSans-30" x="290.576172"/>
       <use xlink:href="#DejaVuSans-39" x="354.199219"/>
      </g>
     </g>
    </g>
    <g id="xtick_11">
     <g id="line2d_21">
      <path d="M 768.206061 320.4 
L 768.206061 43.2 
" clip-path="url(#p4fd1d1cdd1)" style="fill: none; stroke-dasharray: 5.12,1.28,0.8,1.28; stroke-dashoffset: 0; stroke: #b0b0b0; stroke-width: 0.8"/>
     </g>
     <g id="line2d_22">
      <g>
       <use xlink:href="#md455aaf1e4" x="768.206061" y="320.4" style="fill: #a9a9a9; stroke: #a9a9a9; stroke-width: 0.8"/>
      </g>
     </g>
     <g id="text_11">
      <!-- 2025-01 -->
      <g style="fill: #a9a9a9" transform="translate(747.314654 334.998438) scale(0.1 -0.1)">
       <use xlink:href="#DejaVuSans-32"/>
       <use xlink:href="#DejaVuSans-30" x="63.623047"/>
       <use xlink:href="#DejaVuSans-32" x="127.246094"/>
       <use xlink:href="#DejaVuSans-35" x="190.869141"/>
       <use xlink:href="#DejaVuSans-2d" x="254.492188"/>
       <use xlink:href="#DejaVuSans-30" x="290.576172"/>
       <use xlink:href="#DejaVuSans-31" x="354.199219"/>
      </g>
     </g>
    </g>
   </g>
   <g id="matplotlib.axis_2">
    <g id="ytick_1">
     <g id="line2d_23">
      <path d="M 108 307.836077 
L 777.6 307.836077 
" clip-path="url(#p4fd1d1cdd1)" style="fill: none; stroke-dasharray: 5.12,1.28,0.8,1.28; stroke-dashoffset: 0; stroke: #b0b0b0; stroke-width: 0.8"/>
     </g>
     <g id="line2d_24">
      <defs>
       <path id="m3d7521e24b" d="M 0 0 
L -3.5 0 
" style="stroke: #a9a9a9; stroke-width: 0.8"/>
      </defs>
      <g>
       <use xlink:href="#m3d7521e24b" x="108" y="307.836077" style="fill: #a9a9a9; stroke: #a9a9a9; stroke-width: 0.8"/>
      </g>
     </g>
     <g id="text_12">
      <!-- 0 -->
      <g style="fill: #a9a9a9" transform="translate(94.6375 311.635296) scale(0.1 -0.1)">
       <use xlink:href="#DejaVuSans-30"/>
      </g>
     </g>
    </g>
    <g id="ytick_2">
     <g id="line2d_25">
      <path d="M 108 278.97423 
L 777.6 278.97423 
" clip-path="url(#p4fd1d1cdd1)" style="fill: none; stroke-dasharray: 5.12,1.28,0.8,1.28; stroke-dashoffset: 0; stroke: #b0b0b0; stroke-width: 0.8"/>
     </g>
     <g id="line2d_26">
      <g>
       <use xlink:href="#m3d7521e24b" x="108" y="278.97423" style="fill: #a9a9a9; stroke: #a9a9a9; stroke-width: 0.8"/>
      </g>
     </g>
     <g id="text_13">
      <!-- 800 -->
      <g style="fill: #a9a9a9" transform="translate(81.9125 282.773449) scale(0.1 -0.1)">
       <defs>
        <path id="DejaVuSans-38" d="M 2034 2216 
Q 1584 2216 1326 1975 
Q 1069 1734 1069 1313 
Q 1069 891 1326 650 
Q 1584 409 2034 409 
Q 2484 409 2743 651 
Q 3003 894 3003 1313 
Q 3003 1734 2745 1975 
Q 2488 2216 2034 2216 
z
M 1403 2484 
Q 997 2584 770 2862 
Q 544 3141 544 3541 
Q 544 4100 942 4425 
Q 1341 4750 2034 4750 
Q 2731 4750 3128 4425 
Q 3525 4100 3525 3541 
Q 3525 3141 3298 2862 
Q 3072 2584 2669 2484 
Q 3125 2378 3379 2068 
Q 3634 1759 3634 1313 
Q 3634 634 3220 271 
Q 2806 -91 2034 -91 
Q 1263 -91 848 271 
Q 434 634 434 1313 
Q 434 1759 690 2068 
Q 947 2378 1403 2484 
z
M 1172 3481 
Q 1172 3119 1398 2916 
Q 1625 2713 2034 2713 
Q 2441 2713 2670 2916 
Q 2900 3119 2900 3481 
Q 2900 3844 2670 4047 
Q 2441 4250 2034 4250 
Q 1625 4250 1398 4047 
Q 1172 3844 1172 3481 
z
" transform="scale(0.015625)"/>
       </defs>
       <use xlink:href="#DejaVuSans-38"/>
       <use xlink:href="#DejaVuSans-30" x="63.623047"/>
       <use xlink:href="#DejaVuSans-30" x="127.246094"/>
      </g>
     </g>
    </g>
    <g id="ytick_3">
     <g id="line2d_27">
      <path d="M 108 250.112384 
L 777.6 250.112384 
" clip-path="url(#p4fd1d1cdd1)" style="fill: none; stroke-dasharray: 5.12,1.28,0.8,1.28; stroke-dashoffset: 0; stroke: #b0b0b0; stroke-width: 0.8"/>
     </g>
     <g id="line2d_28">
      <g>
       <use xlink:href="#m3d7521e24b" x="108" y="250.112384" style="fill: #a9a9a9; stroke: #a9a9a9; stroke-width: 0.8"/>
      </g>
     </g>
     <g id="text_14">
      <!-- 1600 -->
      <g style="fill: #a9a9a9" transform="translate(75.55 253.911602) scale(0.1 -0.1)">
       <defs>
        <path id="DejaVuSans-36" d="M 2113 2584 
Q 1688 2584 1439 2293 
Q 1191 2003 1191 1497 
Q 1191 994 1439 701 
Q 1688 409 2113 409 
Q 2538 409 2786 701 
Q 3034 994 3034 1497 
Q 3034 2003 2786 2293 
Q 2538 2584 2113 2584 
z
M 3366 4563 
L 3366 3988 
Q 3128 4100 2886 4159 
Q 2644 4219 2406 4219 
Q 1781 4219 1451 3797 
Q 1122 3375 1075 2522 
Q 1259 2794 1537 2939 
Q 1816 3084 2150 3084 
Q 2853 3084 3261 2657 
Q 3669 2231 3669 1497 
Q 3669 778 3244 343 
Q 2819 -91 2113 -91 
Q 1303 -91 875 529 
Q 447 1150 447 2328 
Q 447 3434 972 4092 
Q 1497 4750 2381 4750 
Q 2619 4750 2861 4703 
Q 3103 4656 3366 4563 
z
" transform="scale(0.015625)"/>
       </defs>
       <use xlink:href="#DejaVuSans-31"/>
       <use xlink:href="#DejaVuSans-36" x="63.623047"/>
       <use xlink:href="#DejaVuSans-30" x="127.246094"/>
       <use xlink:href="#DejaVuSans-30" x="190.869141"/>
      </g>
     </g>
    </g>
    <g id="ytick_4">
     <g id="line2d_29">
      <path d="M 108 221.250537 
L 777.6 221.250537 
" clip-path="url(#p4fd1d1cdd1)" style="fill: none; stroke-dasharray: 5.12,1.28,0.8,1.28; stroke-dashoffset: 0; stroke: #b0b0b0; stroke-width: 0.8"/>
     </g>
     <g id="line2d_30">
      <g>
       <use xlink:href="#m3d7521e24b" x="108" y="221.250537" style="fill: #a9a9a9; stroke: #a9a9a9; stroke-width: 0.8"/>
      </g>
     </g>
     <g id="text_15">
      <!-- 2400 -->
      <g style="fill: #a9a9a9" transform="translate(75.55 225.049756) scale(0.1 -0.1)">
       <use xlink:href="#DejaVuSans-32"/>
       <use xlink:href="#DejaVuSans-34" x="63.623047"/>
       <use xlink:href="#DejaVuSans-30" x="127.246094"/>
       <use xlink:href="#DejaVuSans-30" x="190.869141"/>
      </g>
     </g>
    </g>
    <g id="ytick_5">
     <g id="line2d_31">
      <path d="M 108 192.38869 
L 777.6 192.38869 
" clip-path="url(#p4fd1d1cdd1)" style="fill: none; stroke-dasharray: 5.12,1.28,0.8,1.28; stroke-dashoffset: 0; stroke: #b0b0b0; stroke-width: 0.8"/>
     </g>
     <g id="line2d_32">
      <g>
       <use xlink:href="#m3d7521e24b" x="108" y="192.38869" style="fill: #a9a9a9; stroke: #a9a9a9; stroke-width: 0.8"/>
      </g>
     </g>
     <g id="text_16">
      <!-- 3200 -->
      <g style="fill: #a9a9a9" transform="translate(75.55 196.187909) scale(0.1 -0.1)">
       <use xlink:href="#DejaVuSans-33"/>
       <use xlink:href="#DejaVuSans-32" x="63.623047"/>
       <use xlink:href="#DejaVuSans-30" x="127.246094"/>
       <use xlink:href="#DejaVuSans-30" x="190.869141"/>
      </g>
     </g>
    </g>
    <g id="ytick_6">
     <g id="line2d_33">
      <path d="M 108 163.526843 
L 777.6 163.526843 
" clip-path="url(#p4fd1d1cdd1)" style="fill: none; stroke-dasharray: 5.12,1.28,0.8,1.28; stroke-dashoffset: 0; stroke: #b0b0b0; stroke-width: 0.8"/>
     </g>
     <g id="line2d_34">
      <g>
       <use xlink:href="#m3d7521e24b" x="108" y="163.526843" style="fill: #a9a9a9; stroke: #a9a9a9; stroke-width: 0.8"/>
      </g>
     </g>
     <g id="text_17">
      <!-- 4000 -->
      <g style="fill: #a9a9a9" transform="translate(75.55 167.326062) scale(0.1 -0.1)">
       <use xlink:href="#DejaVuSans-34"/>
       <use xlink:href="#DejaVuSans-30" x="63.623047"/>
       <use xlink:href="#DejaVuSans-30" x="127.246094"/>
       <use xlink:href="#DejaVuSans-30" x="190.869141"/>
      </g>
     </g>
    </g>
    <g id="ytick_7">
     <g id="line2d_35">
      <path d="M 108 134.664996 
L 777.6 134.664996 
" clip-path="url(#p4fd1d1cdd1)" style="fill: none; stroke-dasharray: 5.12,1.28,0.8,1.28; stroke-dashoffset: 0; stroke: #b0b0b0; stroke-width: 0.8"/>
     </g>
     <g id="line2d_36">
      <g>
       <use xlink:href="#m3d7521e24b" x="108" y="134.664996" style="fill: #a9a9a9; stroke: #a9a9a9; stroke-width: 0.8"/>
      </g>
     </g>
     <g id="text_18">
      <!-- 4800 -->
      <g style="fill: #a9a9a9" transform="translate(75.55 138.464215) scale(0.1 -0.1)">
       <use xlink:href="#DejaVuSans-34"/>
       <use xlink:href="#DejaVuSans-38" x="63.623047"/>
       <use xlink:href="#DejaVuSans-30" x="127.246094"/>
       <use xlink:href="#DejaVuSans-30" x="190.869141"/>
      </g>
     </g>
    </g>
    <g id="ytick_8">
     <g id="line2d_37">
      <path d="M 108 105.80315 
L 777.6 105.80315 
" clip-path="url(#p4fd1d1cdd1)" style="fill: none; stroke-dasharray: 5.12,1.28,0.8,1.28; stroke-dashoffset: 0; stroke: #b0b0b0; stroke-width: 0.8"/>
     </g>
     <g id="line2d_38">
      <g>
       <use xlink:href="#m3d7521e24b" x="108" y="105.80315" style="fill: #a9a9a9; stroke: #a9a9a9; stroke-width: 0.8"/>
      </g>
     </g>
     <g id="text_19">
      <!-- 5600 -->
      <g style="fill: #a9a9a9" transform="translate(75.55 109.602368) scale(0.1 -0.1)">
       <use xlink:href="#DejaVuSans-35"/>
       <use xlink:href="#DejaVuSans-36" x="63.623047"/>
       <use xlink:href="#DejaVuSans-30" x="127.246094"/>
       <use xlink:href="#DejaVuSans-30" x="190.869141"/>
      </g>
     </g>
    </g>
    <g id="ytick_9">
     <g id="line2d_39">
      <path d="M 108 76.941303 
L 777.6 76.941303 
" clip-path="url(#p4fd1d1cdd1)" style="fill: none; stroke-dasharray: 5.12,1.28,0.8,1.28; stroke-dashoffset: 0; stroke: #b0b0b0; stroke-width: 0.8"/>
     </g>
     <g id="line2d_40">
      <g>
       <use xlink:href="#m3d7521e24b" x="108" y="76.941303" style="fill: #a9a9a9; stroke: #a9a9a9; stroke-width: 0.8"/>
      </g>
     </g>
     <g id="text_20">
      <!-- 6400 -->
      <g style="fill: #a9a9a9" transform="translate(75.55 80.740522) scale(0.1 -0.1)">
       <use xlink:href="#DejaVuSans-36"/>
       <use xlink:href="#DejaVuSans-34" x="63.623047"/>
       <use xlink:href="#DejaVuSans-30" x="127.246094"/>
       <use xlink:href="#DejaVuSans-30" x="190.869141"/>
      </g>
     </g>
    </g>
    <g id="ytick_10">
     <g id="line2d_41">
      <path d="M 108 48.079456 
L 777.6 48.079456 
" clip-path="url(#p4fd1d1cdd1)" style="fill: none; stroke-dasharray: 5.12,1.28,0.8,1.28; stroke-dashoffset: 0; stroke: #b0b0b0; stroke-width: 0.8"/>
     </g>
     <g id="line2d_42">
      <g>
       <use xlink:href="#m3d7521e24b" x="108" y="48.079456" style="fill: #a9a9a9; stroke: #a9a9a9; stroke-width: 0.8"/>
      </g>
     </g>
     <g id="text_21">
      <!-- 7200 -->
      <g style="fill: #a9a9a9" transform="translate(75.55 51.878675) scale(0.1 -0.1)">
       <defs>
        <path id="DejaVuSans-37" d="M 525 4666 
L 3525 4666 
L 3525 4397 
L 1831 0 
L 1172 0 
L 2766 4134 
L 525 4134 
L 525 4666 
z
" transform="scale(0.015625)"/>
       </defs>
       <use xlink:href="#DejaVuSans-37"/>
       <use xlink:href="#DejaVuSans-32" x="63.623047"/>
       <use xlink:href="#DejaVuSans-30" x="127.246094"/>
       <use xlink:href="#DejaVuSans-30" x="190.869141"/>
      </g>
     </g>
    </g>
   </g>
   <g id="line2d_43">
    <path d="M 138.436364 307.727845 
L 141.442424 307.475304 
L 141.943434 307.25884 
L 143.947475 307.006299 
L 145.951515 306.609449 
L 146.953535 306.46514 
L 149.458586 306.248676 
L 150.460606 305.851825 
L 150.961616 305.202434 
L 151.462626 304.841661 
L 151.963636 303.723264 
L 152.464646 303.65111 
L 152.965657 303.254259 
L 153.967677 302.749177 
L 155.971717 301.161775 
L 157.975758 300.187688 
L 159.478788 299.502219 
L 159.979798 298.708518 
L 160.981818 297.986972 
L 161.482828 297.770508 
L 166.492929 297.048962 
L 166.993939 296.832498 
L 170.50101 296.54388 
L 172.505051 296.074875 
L 176.513131 295.533715 
L 177.014141 295.281174 
L 177.515152 295.209019 
L 178.517172 294.884324 
L 182.024242 294.307087 
L 183.026263 294.018468 
L 187.535354 293.260845 
L 188.537374 293.044381 
L 189.539394 293.008304 
L 191.543434 292.539298 
L 192.044444 291.85383 
L 193.547475 291.276593 
L 195.050505 290.879742 
L 195.551515 290.627201 
L 196.553535 290.446815 
L 198.557576 289.869578 
L 199.559596 289.797423 
L 200.561616 289.544882 
L 202.565657 289.0398 
L 203.066667 289.003722 
L 204.068687 288.534717 
L 204.569697 288.462563 
L 205.070707 288.210021 
L 210.581818 287.308089 
L 212.585859 286.730852 
L 213.086869 286.406156 
L 215.591919 285.576378 
L 216.593939 284.890909 
L 218.09697 284.602291 
L 231.123232 280.958482 
L 231.624242 280.958482 
L 232.125253 280.742019 
L 233.127273 280.633787 
L 233.628283 280.4534 
L 235.632323 280.345168 
L 236.634343 280.164782 
L 237.636364 279.659699 
L 239.139394 279.11854 
L 239.640404 278.793844 
L 240.642424 278.360916 
L 241.143434 278.108375 
L 242.145455 277.783679 
L 242.646465 277.63937 
L 243.648485 277.026056 
L 244.149495 276.484896 
L 245.151515 274.969649 
L 245.652525 274.82534 
L 246.153535 274.82534 
L 247.656566 273.959485 
L 248.157576 273.706943 
L 248.658586 273.598712 
L 249.159596 273.129707 
L 250.161616 272.732856 
L 251.163636 272.263851 
L 253.668687 269.089048 
L 256.674747 267.501646 
L 257.676768 266.707946 
L 258.177778 266.38325 
L 258.678788 265.625626 
L 259.179798 264.50723 
L 259.680808 263.749606 
L 260.181818 263.352756 
L 260.682828 263.136292 
L 264.189899 260.177953 
L 265.191919 258.987402 
L 266.193939 258.265855 
L 268.69899 256.750608 
L 269.70101 256.209449 
L 271.705051 255.163207 
L 274.210101 252.926414 
L 275.212121 252.529563 
L 276.214141 251.844094 
L 276.715152 251.555476 
L 277.216162 251.483321 
L 278.719192 250.653543 
L 279.220202 250.112384 
L 281.725253 248.777523 
L 282.226263 248.597137 
L 283.729293 247.586972 
L 291.244444 244.953329 
L 292.246465 244.051396 
L 293.248485 243.582391 
L 294.250505 243.041231 
L 294.751515 242.752613 
L 295.753535 242.463994 
L 296.254545 242.139298 
L 296.755556 241.994989 
L 298.258586 241.020902 
L 300.763636 240.443665 
L 302.266667 239.57781 
L 303.769697 239.253114 
L 304.270707 239.108805 
L 305.773737 237.990408 
L 307.777778 237.449248 
L 308.278788 237.052398 
L 311.284848 236.042233 
L 312.286869 235.861847 
L 313.288889 235.464996 
L 316.79596 234.202291 
L 317.79798 234.057981 
L 319.30101 233.552899 
L 321.806061 232.362348 
L 323.810101 231.280029 
L 327.818182 229.65655 
L 328.319192 229.584395 
L 329.321212 228.971081 
L 329.822222 228.898926 
L 331.826263 228.069148 
L 333.830303 227.78053 
L 334.832323 227.275447 
L 335.333333 226.84252 
L 335.834343 225.940587 
L 337.838384 225.399427 
L 339.341414 224.641804 
L 339.842424 224.533572 
L 343.850505 222.621475 
L 345.353535 222.332856 
L 346.355556 221.827774 
L 346.856566 221.61131 
L 347.357576 221.539155 
L 349.361616 220.637223 
L 350.864646 219.699213 
L 352.367677 219.410594 
L 354.872727 218.79728 
L 355.373737 218.400429 
L 356.876768 217.85927 
L 358.880808 217.065569 
L 359.381818 216.704796 
L 359.882828 216.524409 
L 360.884848 215.98325 
L 363.389899 215.153472 
L 364.892929 213.962921 
L 365.393939 213.854689 
L 366.39596 213.060988 
L 366.89697 212.988833 
L 367.39798 212.195132 
L 367.89899 211.978669 
L 368.4 211.581818 
L 368.90101 211.509664 
L 369.90303 210.896349 
L 370.905051 210.571654 
L 371.406061 210.21088 
L 371.907071 210.030494 
L 373.410101 208.984252 
L 375.414141 207.93801 
L 375.915152 207.865855 
L 377.418182 207.108232 
L 377.919192 206.278454 
L 378.921212 205.556908 
L 379.422222 205.448676 
L 380.424242 204.835361 
L 380.925253 204.72713 
L 381.927273 204.222047 
L 383.931313 203.24796 
L 384.432323 202.887187 
L 385.434343 201.913099 
L 386.436364 201.299785 
L 386.937374 200.975089 
L 387.438384 200.43393 
L 389.442424 199.062992 
L 389.943434 198.485755 
L 390.444444 198.088905 
L 391.446465 197.728132 
L 392.448485 197.042663 
L 393.951515 196.285039 
L 394.452525 196.212885 
L 395.955556 195.419184 
L 396.957576 194.80587 
L 401.967677 193.002004 
L 402.468687 192.605154 
L 404.472727 191.84753 
L 404.973737 191.703221 
L 405.474747 191.306371 
L 407.979798 189.935433 
L 408.981818 187.951181 
L 409.983838 186.796707 
L 410.985859 186.21947 
L 412.488889 185.606156 
L 412.989899 185.534001 
L 413.490909 185.245383 
L 415.99596 184.451682 
L 416.49697 184.235218 
L 417.49899 183.549749 
L 419.00202 182.900358 
L 420.00404 182.359198 
L 420.505051 181.998425 
L 421.006061 181.781961 
L 421.507071 181.421188 
L 422.008081 180.880029 
L 423.010101 180.338869 
L 425.515152 179.004009 
L 428.521212 177.524839 
L 430.024242 177.091911 
L 431.527273 176.514674 
L 432.028283 176.153901 
L 433.030303 175.865283 
L 434.032323 175.468432 
L 434.533333 175.071582 
L 436.537374 174.386113 
L 437.539394 173.664567 
L 438.541414 173.231639 
L 439.543434 172.437938 
L 440.545455 172.077165 
L 441.046465 171.644238 
L 441.547475 171.572083 
L 442.549495 170.81446 
L 443.551515 170.309377 
L 444.052525 170.092913 
L 444.553535 169.587831 
L 448.060606 168.216893 
L 449.062626 167.783966 
L 450.565657 167.314961 
L 451.567677 167.170651 
L 452.068687 166.954188 
L 452.569697 166.882033 
L 453.571717 166.449105 
L 454.072727 166.413028 
L 456.076768 165.655404 
L 457.579798 164.609162 
L 458.080808 164.428776 
L 459.082828 163.887616 
L 459.583838 163.743307 
L 462.589899 162.083751 
L 463.090909 161.975519 
L 464.593939 161.109664 
L 466.09697 160.604581 
L 467.09899 160.279885 
L 469.10303 159.630494 
L 470.105051 159.305798 
L 472.109091 158.908948 
L 472.610101 158.692484 
L 473.111111 158.620329 
L 474.113131 158.187402 
L 474.614141 158.115247 
L 475.115152 157.862706 
L 476.117172 157.682319 
L 477.620202 157.14116 
L 478.622222 157.032928 
L 480.125253 156.708232 
L 482.630303 156.275304 
L 495.656566 152.523264 
L 496.157576 152.018182 
L 497.159596 151.621331 
L 500.165657 150.539012 
L 500.666667 150.214316 
L 501.167677 150.106084 
L 501.668687 149.817466 
L 503.171717 149.384538 
L 504.173737 149.131997 
L 504.674747 148.807301 
L 505.175758 148.699069 
L 505.676768 148.266142 
L 507.179798 147.977523 
L 508.181818 147.508518 
L 508.682828 146.931281 
L 510.686869 146.462276 
L 514.193939 145.74073 
L 514.694949 145.74073 
L 515.19596 145.524266 
L 517.2 145.163493 
L 517.70101 144.947029 
L 519.705051 144.586256 
L 520.707071 144.153329 
L 521.709091 143.972942 
L 524.214141 143.359628 
L 526.218182 142.746314 
L 526.719192 142.638082 
L 527.220202 142.38554 
L 528.222222 142.132999 
L 528.723232 141.844381 
L 530.226263 141.339298 
L 530.727273 141.014603 
L 531.729293 140.725984 
L 532.731313 140.401288 
L 533.733333 140.004438 
L 535.236364 139.355047 
L 537.240404 139.102505 
L 541.248485 137.69549 
L 541.749495 137.334717 
L 542.250505 137.226485 
L 542.751515 136.973944 
L 543.252525 136.937867 
L 548.763636 135.02577 
L 551.268687 134.376378 
L 552.270707 133.907373 
L 553.773737 133.582677 
L 554.274747 133.185827 
L 554.775758 132.933286 
L 555.276768 132.319971 
L 555.777778 131.959198 
L 556.779798 131.67058 
L 557.280808 131.273729 
L 560.286869 130.155333 
L 560.787879 129.830637 
L 561.789899 129.542019 
L 562.290909 129.217323 
L 564.79596 128.423622 
L 566.29899 127.557767 
L 566.8 127.449535 
L 569.305051 126.114674 
L 570.808081 125.465283 
L 571.309091 125.10451 
L 572.311111 124.779814 
L 573.313131 124.202577 
L 573.814141 124.02219 
L 574.315152 123.661417 
L 580.828283 121.388547 
L 581.329293 121.280315 
L 581.830303 120.955619 
L 583.834343 120.558769 
L 584.836364 120.161918 
L 585.337374 119.8733 
L 585.838384 119.728991 
L 587.842424 118.682749 
L 588.343434 118.610594 
L 589.846465 117.780816 
L 591.349495 117.275734 
L 594.856566 115.868719 
L 595.357576 115.724409 
L 595.858586 115.399714 
L 596.860606 115.291482 
L 597.361616 114.966786 
L 598.363636 114.786399 
L 599.365657 114.317394 
L 599.866667 114.100931 
L 600.367677 114.028776 
L 602.872727 113.054689 
L 604.375758 112.657838 
L 605.377778 112.405297 
L 606.880808 111.972369 
L 607.882828 111.575519 
L 609.886869 110.4932 
L 610.888889 110.096349 
L 611.389899 109.771654 
L 612.391919 109.55519 
L 612.892929 109.266571 
L 613.393939 109.158339 
L 614.89697 108.328561 
L 615.89899 107.931711 
L 617.90303 107.174087 
L 620.408081 106.344309 
L 621.410101 105.839227 
L 623.915152 105.009449 
L 625.418182 104.468289 
L 625.919192 104.32398 
L 626.921212 103.78282 
L 628.925253 102.880888 
L 633.935354 100.96879 
L 634.436364 100.644094 
L 636.440404 99.958626 
L 636.941414 99.958626 
L 637.943434 99.525698 
L 638.945455 98.623765 
L 639.446465 98.190838 
L 640.949495 97.469291 
L 641.450505 97.361059 
L 641.951515 97.108518 
L 642.452525 97.036364 
L 642.953535 96.675591 
L 643.454545 96.567359 
L 644.456566 95.954044 
L 645.959596 95.196421 
L 646.961616 94.799571 
L 647.462626 94.547029 
L 648.965657 94.222334 
L 651.470707 93.392555 
L 652.472727 93.06786 
L 653.975758 92.310236 
L 654.977778 91.841231 
L 655.979798 91.58869 
L 657.482828 90.903221 
L 661.991919 89.243665 
L 663.494949 88.341732 
L 663.99596 88.2335 
L 664.99798 87.728418 
L 666 87.367645 
L 666.50101 86.934717 
L 667.50303 86.537867 
L 669.006061 85.924553 
L 669.507071 85.527702 
L 670.008081 85.491625 
L 671.010101 85.203006 
L 672.012121 84.878311 
L 672.513131 84.62577 
L 673.014141 84.553615 
L 674.517172 84.012455 
L 676.020202 83.471296 
L 677.022222 83.074445 
L 677.523232 82.677595 
L 679.026263 82.280744 
L 679.527273 81.992126 
L 680.529293 81.739585 
L 682.032323 80.909807 
L 682.533333 80.873729 
L 684.036364 80.404724 
L 685.038384 80.33257 
L 686.040404 79.935719 
L 689.046465 79.069864 
L 690.048485 79.033787 
L 694.056566 77.771081 
L 695.058586 77.229921 
L 695.559596 76.796994 
L 697.062626 75.931138 
L 698.064646 75.317824 
L 700.068687 74.740587 
L 700.569697 74.451969 
L 701.070707 74.343737 
L 701.571717 73.946886 
L 704.577778 72.720258 
L 706.581818 72.179098 
L 707.583838 71.74617 
L 708.084848 71.493629 
L 709.086869 71.205011 
L 709.587879 70.880315 
L 710.589899 70.699928 
L 713.094949 69.545455 
L 713.59596 69.256836 
L 715.09899 68.896063 
L 716.60202 67.921976 
L 717.10303 67.849821 
L 719.608081 66.875734 
L 721.111111 66.514961 
L 721.612121 66.442806 
L 722.113131 66.226342 
L 722.614141 66.190265 
L 723.616162 65.865569 
L 724.117172 65.829492 
L 725.620202 65.252255 
L 727.624242 64.675018 
L 728.626263 63.917394 
L 730.630303 62.835075 
L 732.133333 62.329993 
L 735.139394 60.995132 
L 736.141414 60.453973 
L 736.642424 60.201432 
L 737.143434 59.732427 
L 739.648485 59.01088 
L 740.650505 58.469721 
L 742.654545 57.748175 
L 743.155556 57.27917 
L 745.159596 56.73801 
L 745.660606 56.377237 
L 747.163636 55.8 
L 747.163636 55.8 
" clip-path="url(#p4fd1d1cdd1)" style="fill: none; stroke: #1f77b4; stroke-width: 1.5; stroke-linecap: square"/>
   </g>
   <g id="line2d_44">
    <path d="M 138.937374 307.8 
L 143.446465 307.691768 
L 147.454545 307.511382 
L 149.458586 307.511382 
L 149.959596 307.367072 
L 152.464646 307.25884 
L 155.470707 306.934145 
L 158.476768 306.825913 
L 159.478788 306.717681 
L 162.985859 306.573372 
L 166.492929 306.46514 
L 168.99798 306.392985 
L 175.511111 306.284753 
L 178.016162 306.212598 
L 181.523232 306.104366 
L 184.028283 306.032212 
L 189.539394 305.92398 
L 191.543434 305.743593 
L 193.547475 305.707516 
L 196.553535 305.599284 
L 198.557576 305.563207 
L 201.062626 305.491052 
L 203.066667 305.310666 
L 207.575758 305.202434 
L 208.577778 305.130279 
L 210.581818 305.022047 
L 213.587879 304.913815 
L 215.591919 304.805583 
L 224.610101 304.264424 
L 228.117172 304.156192 
L 229.620202 304.011883 
L 232.125253 303.903651 
L 237.135354 303.65111 
L 242.145455 303.578955 
L 244.149495 303.362491 
L 246.153535 303.254259 
L 251.664646 302.749177 
L 255.171717 302.352326 
L 256.674747 302.280172 
L 261.183838 301.739012 
L 263.688889 301.666858 
L 265.191919 301.522548 
L 266.694949 301.414316 
L 280.723232 300.368074 
L 281.725253 300.187688 
L 284.731313 300.079456 
L 292.747475 299.610451 
L 296.254545 299.502219 
L 298.258586 299.285755 
L 300.763636 299.177523 
L 303.769697 299.069291 
L 306.274747 298.961059 
L 308.278788 298.924982 
L 310.783838 298.852827 
L 311.785859 298.708518 
L 318.8 298.600286 
L 319.80202 298.492054 
L 325.814141 298.383822 
L 330.323232 298.167359 
L 333.830303 298.059127 
L 335.834343 297.842663 
L 339.341414 297.734431 
L 340.343434 297.554044 
L 342.848485 297.48189 
L 347.858586 297.409735 
L 350.363636 297.157194 
L 353.369697 297.048962 
L 355.373737 296.868576 
L 360.383838 296.616034 
L 365.393939 296.507802 
L 369.90303 296.291339 
L 371.406061 296.255261 
L 372.408081 296.110952 
L 374.913131 296.00272 
L 375.915152 295.930565 
L 376.917172 295.858411 
L 377.919192 295.786256 
L 382.428283 295.714102 
L 383.931313 295.60587 
L 397.458586 294.740014 
L 399.963636 294.631782 
L 402.468687 294.559628 
L 409.482828 294.451396 
L 410.484848 294.307087 
L 417.49899 294.198855 
L 422.509091 293.946314 
L 423.511111 293.910236 
L 424.513131 293.802004 
L 427.018182 293.693772 
L 429.523232 293.621618 
L 432.028283 293.513386 
L 434.533333 293.441231 
L 439.042424 293.332999 
L 442.048485 293.224767 
L 449.062626 293.116535 
L 454.573737 292.827917 
L 456.577778 292.755762 
L 458.080808 292.64753 
L 465.094949 292.539298 
L 468.10101 292.431067 
L 477.119192 292.322835 
L 479.123232 292.286757 
L 485.135354 292.214603 
L 486.137374 292.142448 
L 493.151515 292.034216 
L 495.155556 291.998139 
L 508.181818 291.889907 
L 509.684848 291.745598 
L 532.230303 291.637366 
L 534.735354 291.565211 
L 547.761616 291.456979 
L 548.763636 291.384825 
L 551.268687 291.31267 
L 552.771717 291.168361 
L 555.777778 291.060129 
L 559.284848 290.91582 
L 563.793939 290.807588 
L 566.29899 290.735433 
L 569.806061 290.627201 
L 573.814141 290.446815 
L 576.319192 290.338583 
L 578.323232 290.302505 
L 582.832323 290.194273 
L 584.836364 290.158196 
L 591.349495 290.049964 
L 593.353535 290.013887 
L 595.858586 289.905655 
L 598.864646 289.797423 
L 602.371717 289.725268 
L 603.373737 289.653114 
L 615.39798 289.544882 
L 621.911111 289.184109 
L 624.416162 289.111954 
L 625.418182 289.003722 
L 626.420202 288.931568 
L 630.428283 288.823336 
L 633.434343 288.715104 
L 638.444444 288.606872 
L 640.949495 288.354331 
L 645.959596 288.246099 
L 646.961616 288.137867 
L 651.971717 288.029635 
L 654.476768 287.95748 
L 659.987879 287.921403 
L 660.989899 287.813171 
L 666.50101 287.704939 
L 667.50303 287.632785 
L 678.525253 287.524553 
L 681.531313 287.416321 
L 689.046465 287.308089 
L 691.050505 287.272011 
L 695.559596 287.199857 
L 696.561616 287.091625 
L 702.573737 286.983393 
L 705.579798 286.875161 
L 714.59798 286.766929 
L 716.10101 286.658697 
L 717.60404 286.550465 
L 719.107071 286.442233 
L 726.622222 286.334001 
L 730.129293 286.189692 
L 743.155556 286.08146 
L 747.163636 285.864996 
L 747.163636 285.864996 
" clip-path="url(#p4fd1d1cdd1)" style="fill: none; stroke: #ff7f0e; stroke-width: 1.5; stroke-linecap: square"/>
   </g>
   <g id="patch_3">
    <path d="M 108 320.4 
L 108 43.2 
" style="fill: none; stroke: #a9a9a9; stroke-width: 0.8; stroke-linejoin: miter; stroke-linecap: square"/>
   </g>
   <g id="patch_4">
    <path d="M 777.6 320.4 
L 777.6 43.2 
" style="fill: none"/>
   </g>
   <g id="patch_5">
    <path d="M 108 320.4 
L 777.6 320.4 
" style="fill: none; stroke: #a9a9a9; stroke-width: 0.8; stroke-linejoin: miter; stroke-linecap: square"/>
   </g>
   <g id="patch_6">
    <path d="M 108 43.2 
L 777.6 43.2 
" style="fill: none"/>
   </g>
   <g id="text_22">
    <!-- get_subscribe history -->
    <g style="fill: #a9a9a9" transform="translate(378.6075 37.2) scale(0.12 -0.12)">
     <defs>
      <path id="DejaVuSans-67" d="M 2906 1791 
Q 2906 2416 2648 2759 
Q 2391 3103 1925 3103 
Q 1463 3103 1205 2759 
Q 947 2416 947 1791 
Q 947 1169 1205 825 
Q 1463 481 1925 481 
Q 2391 481 2648 825 
Q 2906 1169 2906 1791 
z
M 3481 434 
Q 3481 -459 3084 -895 
Q 2688 -1331 1869 -1331 
Q 1566 -1331 1297 -1286 
Q 1028 -1241 775 -1147 
L 775 -588 
Q 1028 -725 1275 -790 
Q 1522 -856 1778 -856 
Q 2344 -856 2625 -561 
Q 2906 -266 2906 331 
L 2906 616 
Q 2728 306 2450 153 
Q 2172 0 1784 0 
Q 1141 0 747 490 
Q 353 981 353 1791 
Q 353 2603 747 3093 
Q 1141 3584 1784 3584 
Q 2172 3584 2450 3431 
Q 2728 3278 2906 2969 
L 2906 3500 
L 3481 3500 
L 3481 434 
z
" transform="scale(0.015625)"/>
      <path id="DejaVuSans-65" d="M 3597 1894 
L 3597 1613 
L 953 1613 
Q 991 1019 1311 708 
Q 1631 397 2203 397 
Q 2534 397 2845 478 
Q 3156 559 3463 722 
L 3463 178 
Q 3153 47 2828 -22 
Q 2503 -91 2169 -91 
Q 1331 -91 842 396 
Q 353 884 353 1716 
Q 353 2575 817 3079 
Q 1281 3584 2069 3584 
Q 2775 3584 3186 3129 
Q 3597 2675 3597 1894 
z
M 3022 2063 
Q 3016 2534 2758 2815 
Q 2500 3097 2075 3097 
Q 1594 3097 1305 2825 
Q 1016 2553 972 2059 
L 3022 2063 
z
" transform="scale(0.015625)"/>
      <path id="DejaVuSans-74" d="M 1172 4494 
L 1172 3500 
L 2356 3500 
L 2356 3053 
L 1172 3053 
L 1172 1153 
Q 1172 725 1289 603 
Q 1406 481 1766 481 
L 2356 481 
L 2356 0 
L 1766 0 
Q 1100 0 847 248 
Q 594 497 594 1153 
L 594 3053 
L 172 3053 
L 172 3500 
L 594 3500 
L 594 4494 
L 1172 4494 
z
" transform="scale(0.015625)"/>
      <path id="DejaVuSans-5f" d="M 3263 -1063 
L 3263 -1509 
L -63 -1509 
L -63 -1063 
L 3263 -1063 
z
" transform="scale(0.015625)"/>
      <path id="DejaVuSans-73" d="M 2834 3397 
L 2834 2853 
Q 2591 2978 2328 3040 
Q 2066 3103 1784 3103 
Q 1356 3103 1142 2972 
Q 928 2841 928 2578 
Q 928 2378 1081 2264 
Q 1234 2150 1697 2047 
L 1894 2003 
Q 2506 1872 2764 1633 
Q 3022 1394 3022 966 
Q 3022 478 2636 193 
Q 2250 -91 1575 -91 
Q 1294 -91 989 -36 
Q 684 19 347 128 
L 347 722 
Q 666 556 975 473 
Q 1284 391 1588 391 
Q 1994 391 2212 530 
Q 2431 669 2431 922 
Q 2431 1156 2273 1281 
Q 2116 1406 1581 1522 
L 1381 1569 
Q 847 1681 609 1914 
Q 372 2147 372 2553 
Q 372 3047 722 3315 
Q 1072 3584 1716 3584 
Q 2034 3584 2315 3537 
Q 2597 3491 2834 3397 
z
" transform="scale(0.015625)"/>
      <path id="DejaVuSans-75" d="M 544 1381 
L 544 3500 
L 1119 3500 
L 1119 1403 
Q 1119 906 1312 657 
Q 1506 409 1894 409 
Q 2359 409 2629 706 
Q 2900 1003 2900 1516 
L 2900 3500 
L 3475 3500 
L 3475 0 
L 2900 0 
L 2900 538 
Q 2691 219 2414 64 
Q 2138 -91 1772 -91 
Q 1169 -91 856 284 
Q 544 659 544 1381 
z
M 1991 3584 
L 1991 3584 
z
" transform="scale(0.015625)"/>
      <path id="DejaVuSans-62" d="M 3116 1747 
Q 3116 2381 2855 2742 
Q 2594 3103 2138 3103 
Q 1681 3103 1420 2742 
Q 1159 2381 1159 1747 
Q 1159 1113 1420 752 
Q 1681 391 2138 391 
Q 2594 391 2855 752 
Q 3116 1113 3116 1747 
z
M 1159 2969 
Q 1341 3281 1617 3432 
Q 1894 3584 2278 3584 
Q 2916 3584 3314 3078 
Q 3713 2572 3713 1747 
Q 3713 922 3314 415 
Q 2916 -91 2278 -91 
Q 1894 -91 1617 61 
Q 1341 213 1159 525 
L 1159 0 
L 581 0 
L 581 4863 
L 1159 4863 
L 1159 2969 
z
" transform="scale(0.015625)"/>
      <path id="DejaVuSans-63" d="M 3122 3366 
L 3122 2828 
Q 2878 2963 2633 3030 
Q 2388 3097 2138 3097 
Q 1578 3097 1268 2742 
Q 959 2388 959 1747 
Q 959 1106 1268 751 
Q 1578 397 2138 397 
Q 2388 397 2633 464 
Q 2878 531 3122 666 
L 3122 134 
Q 2881 22 2623 -34 
Q 2366 -91 2075 -91 
Q 1284 -91 818 406 
Q 353 903 353 1747 
Q 353 2603 823 3093 
Q 1294 3584 2113 3584 
Q 2378 3584 2631 3529 
Q 2884 3475 3122 3366 
z
" transform="scale(0.015625)"/>
      <path id="DejaVuSans-72" d="M 2631 2963 
Q 2534 3019 2420 3045 
Q 2306 3072 2169 3072 
Q 1681 3072 1420 2755 
Q 1159 2438 1159 1844 
L 1159 0 
L 581 0 
L 581 3500 
L 1159 3500 
L 1159 2956 
Q 1341 3275 1631 3429 
Q 1922 3584 2338 3584 
Q 2397 3584 2469 3576 
Q 2541 3569 2628 3553 
L 2631 2963 
z
" transform="scale(0.015625)"/>
      <path id="DejaVuSans-69" d="M 603 3500 
L 1178 3500 
L 1178 0 
L 603 0 
L 603 3500 
z
M 603 4863 
L 1178 4863 
L 1178 4134 
L 603 4134 
L 603 4863 
z
" transform="scale(0.015625)"/>
      <path id="DejaVuSans-20" transform="scale(0.015625)"/>
      <path id="DejaVuSans-68" d="M 3513 2113 
L 3513 0 
L 2938 0 
L 2938 2094 
Q 2938 2591 2744 2837 
Q 2550 3084 2163 3084 
Q 1697 3084 1428 2787 
Q 1159 2491 1159 1978 
L 1159 0 
L 581 0 
L 581 4863 
L 1159 4863 
L 1159 2956 
Q 1366 3272 1645 3428 
Q 1925 3584 2291 3584 
Q 2894 3584 3203 3211 
Q 3513 2838 3513 2113 
z
" transform="scale(0.015625)"/>
      <path id="DejaVuSans-6f" d="M 1959 3097 
Q 1497 3097 1228 2736 
Q 959 2375 959 1747 
Q 959 1119 1226 758 
Q 1494 397 1959 397 
Q 2419 397 2687 759 
Q 2956 1122 2956 1747 
Q 2956 2369 2687 2733 
Q 2419 3097 1959 3097 
z
M 1959 3584 
Q 2709 3584 3137 3096 
Q 3566 2609 3566 1747 
Q 3566 888 3137 398 
Q 2709 -91 1959 -91 
Q 1206 -91 779 398 
Q 353 888 353 1747 
Q 353 2609 779 3096 
Q 1206 3584 1959 3584 
z
" transform="scale(0.015625)"/>
      <path id="DejaVuSans-79" d="M 2059 -325 
Q 1816 -950 1584 -1140 
Q 1353 -1331 966 -1331 
L 506 -1331 
L 506 -850 
L 844 -850 
Q 1081 -850 1212 -737 
Q 1344 -625 1503 -206 
L 1606 56 
L 191 3500 
L 800 3500 
L 1894 763 
L 2988 3500 
L 3597 3500 
L 2059 -325 
z
" transform="scale(0.015625)"/>
     </defs>
     <use xlink:href="#DejaVuSans-67"/>
     <use xlink:href="#DejaVuSans-65" x="63.476562"/>
     <use xlink:href="#DejaVuSans-74" x="125"/>
     <use xlink:href="#DejaVuSans-5f" x="164.208984"/>
     <use xlink:href="#DejaVuSans-73" x="214.208984"/>
     <use xlink:href="#DejaVuSans-75" x="266.308594"/>
     <use xlink:href="#DejaVuSans-62" x="329.6875"/>
     <use xlink:href="#DejaVuSans-73" x="393.164062"/>
     <use xlink:href="#DejaVuSans-63" x="445.263672"/>
     <use xlink:href="#DejaVuSans-72" x="500.244141"/>
     <use xlink:href="#DejaVuSans-69" x="541.357422"/>
     <use xlink:href="#DejaVuSans-62" x="569.140625"/>
     <use xlink:href="#DejaVuSans-65" x="632.617188"/>
     <use xlink:href="#DejaVuSans-20" x="694.140625"/>
     <use xlink:href="#DejaVuSans-68" x="725.927734"/>
     <use xlink:href="#DejaVuSans-69" x="789.306641"/>
     <use xlink:href="#DejaVuSans-73" x="817.089844"/>
     <use xlink:href="#DejaVuSans-74" x="869.189453"/>
     <use xlink:href="#DejaVuSans-6f" x="908.398438"/>
     <use xlink:href="#DejaVuSans-72" x="969.580078"/>
     <use xlink:href="#DejaVuSans-79" x="1010.693359"/>
    </g>
   </g>
   <g id="legend_1">
    <g id="line2d_45">
     <path d="M 815.08 328.498438 
L 825.08 328.498438 
L 835.08 328.498438 
" style="fill: none; stroke: #1f77b4; stroke-width: 1.5; stroke-linecap: square"/>
    </g>
    <g id="text_23">
     <!-- star -->
     <g style="fill: #a9a9a9" transform="translate(843.08 331.998438) scale(0.1 -0.1)">
      <defs>
       <path id="DejaVuSans-61" d="M 2194 1759 
Q 1497 1759 1228 1600 
Q 959 1441 959 1056 
Q 959 750 1161 570 
Q 1363 391 1709 391 
Q 2188 391 2477 730 
Q 2766 1069 2766 1631 
L 2766 1759 
L 2194 1759 
z
M 3341 1997 
L 3341 0 
L 2766 0 
L 2766 531 
Q 2569 213 2275 61 
Q 1981 -91 1556 -91 
Q 1019 -91 701 211 
Q 384 513 384 1019 
Q 384 1609 779 1909 
Q 1175 2209 1959 2209 
L 2766 2209 
L 2766 2266 
Q 2766 2663 2505 2880 
Q 2244 3097 1772 3097 
Q 1472 3097 1187 3025 
Q 903 2953 641 2809 
L 641 3341 
Q 956 3463 1253 3523 
Q 1550 3584 1831 3584 
Q 2591 3584 2966 3190 
Q 3341 2797 3341 1997 
z
" transform="scale(0.015625)"/>
      </defs>
      <use xlink:href="#DejaVuSans-73"/>
      <use xlink:href="#DejaVuSans-74" x="52.099609"/>
      <use xlink:href="#DejaVuSans-61" x="91.308594"/>
      <use xlink:href="#DejaVuSans-72" x="152.587891"/>
     </g>
    </g>
    <g id="line2d_46">
     <path d="M 815.08 343.176562 
L 825.08 343.176562 
L 835.08 343.176562 
" style="fill: none; stroke: #ff7f0e; stroke-width: 1.5; stroke-linecap: square"/>
    </g>
    <g id="text_24">
     <!-- fork -->
     <g style="fill: #a9a9a9" transform="translate(843.08 346.676562) scale(0.1 -0.1)">
      <defs>
       <path id="DejaVuSans-66" d="M 2375 4863 
L 2375 4384 
L 1825 4384 
Q 1516 4384 1395 4259 
Q 1275 4134 1275 3809 
L 1275 3500 
L 2222 3500 
L 2222 3053 
L 1275 3053 
L 1275 0 
L 697 0 
L 697 3053 
L 147 3053 
L 147 3500 
L 697 3500 
L 697 3744 
Q 697 4328 969 4595 
Q 1241 4863 1831 4863 
L 2375 4863 
z
" transform="scale(0.015625)"/>
       <path id="DejaVuSans-6b" d="M 581 4863 
L 1159 4863 
L 1159 1991 
L 2875 3500 
L 3609 3500 
L 1753 1863 
L 3688 0 
L 2938 0 
L 1159 1709 
L 1159 0 
L 581 0 
L 581 4863 
z
" transform="scale(0.015625)"/>
      </defs>
      <use xlink:href="#DejaVuSans-66"/>
      <use xlink:href="#DejaVuSans-6f" x="35.205078"/>
      <use xlink:href="#DejaVuSans-72" x="96.386719"/>
      <use xlink:href="#DejaVuSans-6b" x="137.5"/>
     </g>
    </g>
   </g>
  </g>
 </g>
 <defs>
  <clipPath id="p4fd1d1cdd1">
   <rect x="108" y="43.2" width="669.6" height="277.2"/>
  </clipPath>
 </defs>
</svg>
