<?xml version="1.0" encoding="utf-8" standalone="no"?>
<!DOCTYPE svg PUBLIC "-//W3C//DTD SVG 1.1//EN"
  "http://www.w3.org/Graphics/SVG/1.1/DTD/svg11.dtd">
<svg xmlns:xlink="http://www.w3.org/1999/xlink" width="864pt" height="360pt" viewBox="0 0 864 360" xmlns="http://www.w3.org/2000/svg" version="1.1">
 <metadata>
  <rdf:RDF xmlns:dc="http://purl.org/dc/elements/1.1/" xmlns:cc="http://creativecommons.org/ns#" xmlns:rdf="http://www.w3.org/1999/02/22-rdf-syntax-ns#">
   <cc:Work>
    <dc:type rdf:resource="http://purl.org/dc/dcmitype/StillImage"/>
    <dc:date>2024-11-21T08:14:09.662180</dc:date>
    <dc:format>image/svg+xml</dc:format>
    <dc:creator>
     <cc:Agent>
      <dc:title>Matplotlib v3.9.2, https://matplotlib.org/</dc:title>
     </cc:Agent>
    </dc:creator>
   </cc:Work>
  </rdf:RDF>
 </metadata>
 <defs>
  <style type="text/css">*{stroke-linejoin: round; stroke-linecap: butt}</style>
 </defs>
 <g id="figure_1">
  <g id="patch_1">
   <path d="M 0 360 
L 864 360 
L 864 0 
L 0 0 
L 0 360 
z
" style="fill: none; opacity: 0"/>
  </g>
  <g id="axes_1">
   <g id="patch_2">
    <path d="M 108 320.4 
L 777.6 320.4 
L 777.6 43.2 
L 108 43.2 
L 108 320.4 
z
" style="fill: none; opacity: 0"/>
   </g>
   <g id="matplotlib.axis_1">
    <g id="xtick_1">
     <g id="line2d_1">
      <path d="M 157.959689 320.4 
L 157.959689 43.2 
" clip-path="url(#pb4594be9be)" style="fill: none; stroke-dasharray: 5.12,1.28,0.8,1.28; stroke-dashoffset: 0; stroke: #b0b0b0; stroke-width: 0.8"/>
     </g>
     <g id="line2d_2">
      <defs>
       <path id="maeb02c673b" d="M 0 0 
L 0 3.5 
" style="stroke: #a9a9a9; stroke-width: 0.8"/>
      </defs>
      <g>
       <use xlink:href="#maeb02c673b" x="157.959689" y="320.4" style="fill: #a9a9a9; stroke: #a9a9a9; stroke-width: 0.8"/>
      </g>
     </g>
     <g id="text_1">
      <!-- 2021-09 -->
      <g style="fill: #a9a9a9" transform="translate(137.068283 334.998438) scale(0.1 -0.1)">
       <defs>
        <path id="DejaVuSans-32" d="M 1228 531 
L 3431 531 
L 3431 0 
L 469 0 
L 469 531 
Q 828 903 1448 1529 
Q 2069 2156 2228 2338 
Q 2531 2678 2651 2914 
Q 2772 3150 2772 3378 
Q 2772 3750 2511 3984 
Q 2250 4219 1831 4219 
Q 1534 4219 1204 4116 
Q 875 4013 500 3803 
L 500 4441 
Q 881 4594 1212 4672 
Q 1544 4750 1819 4750 
Q 2544 4750 2975 4387 
Q 3406 4025 3406 3419 
Q 3406 3131 3298 2873 
Q 3191 2616 2906 2266 
Q 2828 2175 2409 1742 
Q 1991 1309 1228 531 
z
" transform="scale(0.015625)"/>
        <path id="DejaVuSans-30" d="M 2034 4250 
Q 1547 4250 1301 3770 
Q 1056 3291 1056 2328 
Q 1056 1369 1301 889 
Q 1547 409 2034 409 
Q 2525 409 2770 889 
Q 3016 1369 3016 2328 
Q 3016 3291 2770 3770 
Q 2525 4250 2034 4250 
z
M 2034 4750 
Q 2819 4750 3233 4129 
Q 3647 3509 3647 2328 
Q 3647 1150 3233 529 
Q 2819 -91 2034 -91 
Q 1250 -91 836 529 
Q 422 1150 422 2328 
Q 422 3509 836 4129 
Q 1250 4750 2034 4750 
z
" transform="scale(0.015625)"/>
        <path id="DejaVuSans-31" d="M 794 531 
L 1825 531 
L 1825 4091 
L 703 3866 
L 703 4441 
L 1819 4666 
L 2450 4666 
L 2450 531 
L 3481 531 
L 3481 0 
L 794 0 
L 794 531 
z
" transform="scale(0.015625)"/>
        <path id="DejaVuSans-2d" d="M 313 2009 
L 1997 2009 
L 1997 1497 
L 313 1497 
L 313 2009 
z
" transform="scale(0.015625)"/>
        <path id="DejaVuSans-39" d="M 703 97 
L 703 672 
Q 941 559 1184 500 
Q 1428 441 1663 441 
Q 2288 441 2617 861 
Q 2947 1281 2994 2138 
Q 2813 1869 2534 1725 
Q 2256 1581 1919 1581 
Q 1219 1581 811 2004 
Q 403 2428 403 3163 
Q 403 3881 828 4315 
Q 1253 4750 1959 4750 
Q 2769 4750 3195 4129 
Q 3622 3509 3622 2328 
Q 3622 1225 3098 567 
Q 2575 -91 1691 -91 
Q 1453 -91 1209 -44 
Q 966 3 703 97 
z
M 1959 2075 
Q 2384 2075 2632 2365 
Q 2881 2656 2881 3163 
Q 2881 3666 2632 3958 
Q 2384 4250 1959 4250 
Q 1534 4250 1286 3958 
Q 1038 3666 1038 3163 
Q 1038 2656 1286 2365 
Q 1534 2075 1959 2075 
z
" transform="scale(0.015625)"/>
       </defs>
       <use xlink:href="#DejaVuSans-32"/>
       <use xlink:href="#DejaVuSans-30" x="63.623047"/>
       <use xlink:href="#DejaVuSans-32" x="127.246094"/>
       <use xlink:href="#DejaVuSans-31" x="190.869141"/>
       <use xlink:href="#DejaVuSans-2d" x="254.492188"/>
       <use xlink:href="#DejaVuSans-30" x="290.576172"/>
       <use xlink:href="#DejaVuSans-39" x="354.199219"/>
      </g>
     </g>
    </g>
    <g id="xtick_2">
     <g id="line2d_3">
      <path d="M 219.032656 320.4 
L 219.032656 43.2 
" clip-path="url(#pb4594be9be)" style="fill: none; stroke-dasharray: 5.12,1.28,0.8,1.28; stroke-dashoffset: 0; stroke: #b0b0b0; stroke-width: 0.8"/>
     </g>
     <g id="line2d_4">
      <g>
       <use xlink:href="#maeb02c673b" x="219.032656" y="320.4" style="fill: #a9a9a9; stroke: #a9a9a9; stroke-width: 0.8"/>
      </g>
     </g>
     <g id="text_2">
      <!-- 2022-01 -->
      <g style="fill: #a9a9a9" transform="translate(198.141249 334.998438) scale(0.1 -0.1)">
       <use xlink:href="#DejaVuSans-32"/>
       <use xlink:href="#DejaVuSans-30" x="63.623047"/>
       <use xlink:href="#DejaVuSans-32" x="127.246094"/>
       <use xlink:href="#DejaVuSans-32" x="190.869141"/>
       <use xlink:href="#DejaVuSans-2d" x="254.492188"/>
       <use xlink:href="#DejaVuSans-30" x="290.576172"/>
       <use xlink:href="#DejaVuSans-31" x="354.199219"/>
      </g>
     </g>
    </g>
    <g id="xtick_3">
     <g id="line2d_5">
      <path d="M 279.104426 320.4 
L 279.104426 43.2 
" clip-path="url(#pb4594be9be)" style="fill: none; stroke-dasharray: 5.12,1.28,0.8,1.28; stroke-dashoffset: 0; stroke: #b0b0b0; stroke-width: 0.8"/>
     </g>
     <g id="line2d_6">
      <g>
       <use xlink:href="#maeb02c673b" x="279.104426" y="320.4" style="fill: #a9a9a9; stroke: #a9a9a9; stroke-width: 0.8"/>
      </g>
     </g>
     <g id="text_3">
      <!-- 2022-05 -->
      <g style="fill: #a9a9a9" transform="translate(258.21302 334.998438) scale(0.1 -0.1)">
       <defs>
        <path id="DejaVuSans-35" d="M 691 4666 
L 3169 4666 
L 3169 4134 
L 1269 4134 
L 1269 2991 
Q 1406 3038 1543 3061 
Q 1681 3084 1819 3084 
Q 2600 3084 3056 2656 
Q 3513 2228 3513 1497 
Q 3513 744 3044 326 
Q 2575 -91 1722 -91 
Q 1428 -91 1123 -41 
Q 819 9 494 109 
L 494 744 
Q 775 591 1075 516 
Q 1375 441 1709 441 
Q 2250 441 2565 725 
Q 2881 1009 2881 1497 
Q 2881 1984 2565 2268 
Q 2250 2553 1709 2553 
Q 1456 2553 1204 2497 
Q 953 2441 691 2322 
L 691 4666 
z
" transform="scale(0.015625)"/>
       </defs>
       <use xlink:href="#DejaVuSans-32"/>
       <use xlink:href="#DejaVuSans-30" x="63.623047"/>
       <use xlink:href="#DejaVuSans-32" x="127.246094"/>
       <use xlink:href="#DejaVuSans-32" x="190.869141"/>
       <use xlink:href="#DejaVuSans-2d" x="254.492188"/>
       <use xlink:href="#DejaVuSans-30" x="290.576172"/>
       <use xlink:href="#DejaVuSans-35" x="354.199219"/>
      </g>
     </g>
    </g>
    <g id="xtick_4">
     <g id="line2d_7">
      <path d="M 340.67799 320.4 
L 340.67799 43.2 
" clip-path="url(#pb4594be9be)" style="fill: none; stroke-dasharray: 5.12,1.28,0.8,1.28; stroke-dashoffset: 0; stroke: #b0b0b0; stroke-width: 0.8"/>
     </g>
     <g id="line2d_8">
      <g>
       <use xlink:href="#maeb02c673b" x="340.67799" y="320.4" style="fill: #a9a9a9; stroke: #a9a9a9; stroke-width: 0.8"/>
      </g>
     </g>
     <g id="text_4">
      <!-- 2022-09 -->
      <g style="fill: #a9a9a9" transform="translate(319.786584 334.998438) scale(0.1 -0.1)">
       <use xlink:href="#DejaVuSans-32"/>
       <use xlink:href="#DejaVuSans-30" x="63.623047"/>
       <use xlink:href="#DejaVuSans-32" x="127.246094"/>
       <use xlink:href="#DejaVuSans-32" x="190.869141"/>
       <use xlink:href="#DejaVuSans-2d" x="254.492188"/>
       <use xlink:href="#DejaVuSans-30" x="290.576172"/>
       <use xlink:href="#DejaVuSans-39" x="354.199219"/>
      </g>
     </g>
    </g>
    <g id="xtick_5">
     <g id="line2d_9">
      <path d="M 401.750957 320.4 
L 401.750957 43.2 
" clip-path="url(#pb4594be9be)" style="fill: none; stroke-dasharray: 5.12,1.28,0.8,1.28; stroke-dashoffset: 0; stroke: #b0b0b0; stroke-width: 0.8"/>
     </g>
     <g id="line2d_10">
      <g>
       <use xlink:href="#maeb02c673b" x="401.750957" y="320.4" style="fill: #a9a9a9; stroke: #a9a9a9; stroke-width: 0.8"/>
      </g>
     </g>
     <g id="text_5">
      <!-- 2023-01 -->
      <g style="fill: #a9a9a9" transform="translate(380.859551 334.998438) scale(0.1 -0.1)">
       <defs>
        <path id="DejaVuSans-33" d="M 2597 2516 
Q 3050 2419 3304 2112 
Q 3559 1806 3559 1356 
Q 3559 666 3084 287 
Q 2609 -91 1734 -91 
Q 1441 -91 1130 -33 
Q 819 25 488 141 
L 488 750 
Q 750 597 1062 519 
Q 1375 441 1716 441 
Q 2309 441 2620 675 
Q 2931 909 2931 1356 
Q 2931 1769 2642 2001 
Q 2353 2234 1838 2234 
L 1294 2234 
L 1294 2753 
L 1863 2753 
Q 2328 2753 2575 2939 
Q 2822 3125 2822 3475 
Q 2822 3834 2567 4026 
Q 2313 4219 1838 4219 
Q 1578 4219 1281 4162 
Q 984 4106 628 3988 
L 628 4550 
Q 988 4650 1302 4700 
Q 1616 4750 1894 4750 
Q 2613 4750 3031 4423 
Q 3450 4097 3450 3541 
Q 3450 3153 3228 2886 
Q 3006 2619 2597 2516 
z
" transform="scale(0.015625)"/>
       </defs>
       <use xlink:href="#DejaVuSans-32"/>
       <use xlink:href="#DejaVuSans-30" x="63.623047"/>
       <use xlink:href="#DejaVuSans-32" x="127.246094"/>
       <use xlink:href="#DejaVuSans-33" x="190.869141"/>
       <use xlink:href="#DejaVuSans-2d" x="254.492188"/>
       <use xlink:href="#DejaVuSans-30" x="290.576172"/>
       <use xlink:href="#DejaVuSans-31" x="354.199219"/>
      </g>
     </g>
    </g>
    <g id="xtick_6">
     <g id="line2d_11">
      <path d="M 461.822727 320.4 
L 461.822727 43.2 
" clip-path="url(#pb4594be9be)" style="fill: none; stroke-dasharray: 5.12,1.28,0.8,1.28; stroke-dashoffset: 0; stroke: #b0b0b0; stroke-width: 0.8"/>
     </g>
     <g id="line2d_12">
      <g>
       <use xlink:href="#maeb02c673b" x="461.822727" y="320.4" style="fill: #a9a9a9; stroke: #a9a9a9; stroke-width: 0.8"/>
      </g>
     </g>
     <g id="text_6">
      <!-- 2023-05 -->
      <g style="fill: #a9a9a9" transform="translate(440.931321 334.998438) scale(0.1 -0.1)">
       <use xlink:href="#DejaVuSans-32"/>
       <use xlink:href="#DejaVuSans-30" x="63.623047"/>
       <use xlink:href="#DejaVuSans-32" x="127.246094"/>
       <use xlink:href="#DejaVuSans-33" x="190.869141"/>
       <use xlink:href="#DejaVuSans-2d" x="254.492188"/>
       <use xlink:href="#DejaVuSans-30" x="290.576172"/>
       <use xlink:href="#DejaVuSans-35" x="354.199219"/>
      </g>
     </g>
    </g>
    <g id="xtick_7">
     <g id="line2d_13">
      <path d="M 523.396292 320.4 
L 523.396292 43.2 
" clip-path="url(#pb4594be9be)" style="fill: none; stroke-dasharray: 5.12,1.28,0.8,1.28; stroke-dashoffset: 0; stroke: #b0b0b0; stroke-width: 0.8"/>
     </g>
     <g id="line2d_14">
      <g>
       <use xlink:href="#maeb02c673b" x="523.396292" y="320.4" style="fill: #a9a9a9; stroke: #a9a9a9; stroke-width: 0.8"/>
      </g>
     </g>
     <g id="text_7">
      <!-- 2023-09 -->
      <g style="fill: #a9a9a9" transform="translate(502.504886 334.998438) scale(0.1 -0.1)">
       <use xlink:href="#DejaVuSans-32"/>
       <use xlink:href="#DejaVuSans-30" x="63.623047"/>
       <use xlink:href="#DejaVuSans-32" x="127.246094"/>
       <use xlink:href="#DejaVuSans-33" x="190.869141"/>
       <use xlink:href="#DejaVuSans-2d" x="254.492188"/>
       <use xlink:href="#DejaVuSans-30" x="290.576172"/>
       <use xlink:href="#DejaVuSans-39" x="354.199219"/>
      </g>
     </g>
    </g>
    <g id="xtick_8">
     <g id="line2d_15">
      <path d="M 584.469258 320.4 
L 584.469258 43.2 
" clip-path="url(#pb4594be9be)" style="fill: none; stroke-dasharray: 5.12,1.28,0.8,1.28; stroke-dashoffset: 0; stroke: #b0b0b0; stroke-width: 0.8"/>
     </g>
     <g id="line2d_16">
      <g>
       <use xlink:href="#maeb02c673b" x="584.469258" y="320.4" style="fill: #a9a9a9; stroke: #a9a9a9; stroke-width: 0.8"/>
      </g>
     </g>
     <g id="text_8">
      <!-- 2024-01 -->
      <g style="fill: #a9a9a9" transform="translate(563.577852 334.998438) scale(0.1 -0.1)">
       <defs>
        <path id="DejaVuSans-34" d="M 2419 4116 
L 825 1625 
L 2419 1625 
L 2419 4116 
z
M 2253 4666 
L 3047 4666 
L 3047 1625 
L 3713 1625 
L 3713 1100 
L 3047 1100 
L 3047 0 
L 2419 0 
L 2419 1100 
L 313 1100 
L 313 1709 
L 2253 4666 
z
" transform="scale(0.015625)"/>
       </defs>
       <use xlink:href="#DejaVuSans-32"/>
       <use xlink:href="#DejaVuSans-30" x="63.623047"/>
       <use xlink:href="#DejaVuSans-32" x="127.246094"/>
       <use xlink:href="#DejaVuSans-34" x="190.869141"/>
       <use xlink:href="#DejaVuSans-2d" x="254.492188"/>
       <use xlink:href="#DejaVuSans-30" x="290.576172"/>
       <use xlink:href="#DejaVuSans-31" x="354.199219"/>
      </g>
     </g>
    </g>
    <g id="xtick_9">
     <g id="line2d_17">
      <path d="M 645.041627 320.4 
L 645.041627 43.2 
" clip-path="url(#pb4594be9be)" style="fill: none; stroke-dasharray: 5.12,1.28,0.8,1.28; stroke-dashoffset: 0; stroke: #b0b0b0; stroke-width: 0.8"/>
     </g>
     <g id="line2d_18">
      <g>
       <use xlink:href="#maeb02c673b" x="645.041627" y="320.4" style="fill: #a9a9a9; stroke: #a9a9a9; stroke-width: 0.8"/>
      </g>
     </g>
     <g id="text_9">
      <!-- 2024-05 -->
      <g style="fill: #a9a9a9" transform="translate(624.150221 334.998438) scale(0.1 -0.1)">
       <use xlink:href="#DejaVuSans-32"/>
       <use xlink:href="#DejaVuSans-30" x="63.623047"/>
       <use xlink:href="#DejaVuSans-32" x="127.246094"/>
       <use xlink:href="#DejaVuSans-34" x="190.869141"/>
       <use xlink:href="#DejaVuSans-2d" x="254.492188"/>
       <use xlink:href="#DejaVuSans-30" x="290.576172"/>
       <use xlink:href="#DejaVuSans-35" x="354.199219"/>
      </g>
     </g>
    </g>
    <g id="xtick_10">
     <g id="line2d_19">
      <path d="M 706.615191 320.4 
L 706.615191 43.2 
" clip-path="url(#pb4594be9be)" style="fill: none; stroke-dasharray: 5.12,1.28,0.8,1.28; stroke-dashoffset: 0; stroke: #b0b0b0; stroke-width: 0.8"/>
     </g>
     <g id="line2d_20">
      <g>
       <use xlink:href="#maeb02c673b" x="706.615191" y="320.4" style="fill: #a9a9a9; stroke: #a9a9a9; stroke-width: 0.8"/>
      </g>
     </g>
     <g id="text_10">
      <!-- 2024-09 -->
      <g style="fill: #a9a9a9" transform="translate(685.723785 334.998438) scale(0.1 -0.1)">
       <use xlink:href="#DejaVuSans-32"/>
       <use xlink:href="#DejaVuSans-30" x="63.623047"/>
       <use xlink:href="#DejaVuSans-32" x="127.246094"/>
       <use xlink:href="#DejaVuSans-34" x="190.869141"/>
       <use xlink:href="#DejaVuSans-2d" x="254.492188"/>
       <use xlink:href="#DejaVuSans-30" x="290.576172"/>
       <use xlink:href="#DejaVuSans-39" x="354.199219"/>
      </g>
     </g>
    </g>
    <g id="xtick_11">
     <g id="line2d_21">
      <path d="M 767.688158 320.4 
L 767.688158 43.2 
" clip-path="url(#pb4594be9be)" style="fill: none; stroke-dasharray: 5.12,1.28,0.8,1.28; stroke-dashoffset: 0; stroke: #b0b0b0; stroke-width: 0.8"/>
     </g>
     <g id="line2d_22">
      <g>
       <use xlink:href="#maeb02c673b" x="767.688158" y="320.4" style="fill: #a9a9a9; stroke: #a9a9a9; stroke-width: 0.8"/>
      </g>
     </g>
     <g id="text_11">
      <!-- 2025-01 -->
      <g style="fill: #a9a9a9" transform="translate(746.796752 334.998438) scale(0.1 -0.1)">
       <use xlink:href="#DejaVuSans-32"/>
       <use xlink:href="#DejaVuSans-30" x="63.623047"/>
       <use xlink:href="#DejaVuSans-32" x="127.246094"/>
       <use xlink:href="#DejaVuSans-35" x="190.869141"/>
       <use xlink:href="#DejaVuSans-2d" x="254.492188"/>
       <use xlink:href="#DejaVuSans-30" x="290.576172"/>
       <use xlink:href="#DejaVuSans-31" x="354.199219"/>
      </g>
     </g>
    </g>
   </g>
   <g id="matplotlib.axis_2">
    <g id="ytick_1">
     <g id="line2d_23">
      <path d="M 108 307.836077 
L 777.6 307.836077 
" clip-path="url(#pb4594be9be)" style="fill: none; stroke-dasharray: 5.12,1.28,0.8,1.28; stroke-dashoffset: 0; stroke: #b0b0b0; stroke-width: 0.8"/>
     </g>
     <g id="line2d_24">
      <defs>
       <path id="m5c28c541a5" d="M 0 0 
L -3.5 0 
" style="stroke: #a9a9a9; stroke-width: 0.8"/>
      </defs>
      <g>
       <use xlink:href="#m5c28c541a5" x="108" y="307.836077" style="fill: #a9a9a9; stroke: #a9a9a9; stroke-width: 0.8"/>
      </g>
     </g>
     <g id="text_12">
      <!-- 0 -->
      <g style="fill: #a9a9a9" transform="translate(94.6375 311.635296) scale(0.1 -0.1)">
       <use xlink:href="#DejaVuSans-30"/>
      </g>
     </g>
    </g>
    <g id="ytick_2">
     <g id="line2d_25">
      <path d="M 108 278.97423 
L 777.6 278.97423 
" clip-path="url(#pb4594be9be)" style="fill: none; stroke-dasharray: 5.12,1.28,0.8,1.28; stroke-dashoffset: 0; stroke: #b0b0b0; stroke-width: 0.8"/>
     </g>
     <g id="line2d_26">
      <g>
       <use xlink:href="#m5c28c541a5" x="108" y="278.97423" style="fill: #a9a9a9; stroke: #a9a9a9; stroke-width: 0.8"/>
      </g>
     </g>
     <g id="text_13">
      <!-- 800 -->
      <g style="fill: #a9a9a9" transform="translate(81.9125 282.773449) scale(0.1 -0.1)">
       <defs>
        <path id="DejaVuSans-38" d="M 2034 2216 
Q 1584 2216 1326 1975 
Q 1069 1734 1069 1313 
Q 1069 891 1326 650 
Q 1584 409 2034 409 
Q 2484 409 2743 651 
Q 3003 894 3003 1313 
Q 3003 1734 2745 1975 
Q 2488 2216 2034 2216 
z
M 1403 2484 
Q 997 2584 770 2862 
Q 544 3141 544 3541 
Q 544 4100 942 4425 
Q 1341 4750 2034 4750 
Q 2731 4750 3128 4425 
Q 3525 4100 3525 3541 
Q 3525 3141 3298 2862 
Q 3072 2584 2669 2484 
Q 3125 2378 3379 2068 
Q 3634 1759 3634 1313 
Q 3634 634 3220 271 
Q 2806 -91 2034 -91 
Q 1263 -91 848 271 
Q 434 634 434 1313 
Q 434 1759 690 2068 
Q 947 2378 1403 2484 
z
M 1172 3481 
Q 1172 3119 1398 2916 
Q 1625 2713 2034 2713 
Q 2441 2713 2670 2916 
Q 2900 3119 2900 3481 
Q 2900 3844 2670 4047 
Q 2441 4250 2034 4250 
Q 1625 4250 1398 4047 
Q 1172 3844 1172 3481 
z
" transform="scale(0.015625)"/>
       </defs>
       <use xlink:href="#DejaVuSans-38"/>
       <use xlink:href="#DejaVuSans-30" x="63.623047"/>
       <use xlink:href="#DejaVuSans-30" x="127.246094"/>
      </g>
     </g>
    </g>
    <g id="ytick_3">
     <g id="line2d_27">
      <path d="M 108 250.112384 
L 777.6 250.112384 
" clip-path="url(#pb4594be9be)" style="fill: none; stroke-dasharray: 5.12,1.28,0.8,1.28; stroke-dashoffset: 0; stroke: #b0b0b0; stroke-width: 0.8"/>
     </g>
     <g id="line2d_28">
      <g>
       <use xlink:href="#m5c28c541a5" x="108" y="250.112384" style="fill: #a9a9a9; stroke: #a9a9a9; stroke-width: 0.8"/>
      </g>
     </g>
     <g id="text_14">
      <!-- 1600 -->
      <g style="fill: #a9a9a9" transform="translate(75.55 253.911602) scale(0.1 -0.1)">
       <defs>
        <path id="DejaVuSans-36" d="M 2113 2584 
Q 1688 2584 1439 2293 
Q 1191 2003 1191 1497 
Q 1191 994 1439 701 
Q 1688 409 2113 409 
Q 2538 409 2786 701 
Q 3034 994 3034 1497 
Q 3034 2003 2786 2293 
Q 2538 2584 2113 2584 
z
M 3366 4563 
L 3366 3988 
Q 3128 4100 2886 4159 
Q 2644 4219 2406 4219 
Q 1781 4219 1451 3797 
Q 1122 3375 1075 2522 
Q 1259 2794 1537 2939 
Q 1816 3084 2150 3084 
Q 2853 3084 3261 2657 
Q 3669 2231 3669 1497 
Q 3669 778 3244 343 
Q 2819 -91 2113 -91 
Q 1303 -91 875 529 
Q 447 1150 447 2328 
Q 447 3434 972 4092 
Q 1497 4750 2381 4750 
Q 2619 4750 2861 4703 
Q 3103 4656 3366 4563 
z
" transform="scale(0.015625)"/>
       </defs>
       <use xlink:href="#DejaVuSans-31"/>
       <use xlink:href="#DejaVuSans-36" x="63.623047"/>
       <use xlink:href="#DejaVuSans-30" x="127.246094"/>
       <use xlink:href="#DejaVuSans-30" x="190.869141"/>
      </g>
     </g>
    </g>
    <g id="ytick_4">
     <g id="line2d_29">
      <path d="M 108 221.250537 
L 777.6 221.250537 
" clip-path="url(#pb4594be9be)" style="fill: none; stroke-dasharray: 5.12,1.28,0.8,1.28; stroke-dashoffset: 0; stroke: #b0b0b0; stroke-width: 0.8"/>
     </g>
     <g id="line2d_30">
      <g>
       <use xlink:href="#m5c28c541a5" x="108" y="221.250537" style="fill: #a9a9a9; stroke: #a9a9a9; stroke-width: 0.8"/>
      </g>
     </g>
     <g id="text_15">
      <!-- 2400 -->
      <g style="fill: #a9a9a9" transform="translate(75.55 225.049756) scale(0.1 -0.1)">
       <use xlink:href="#DejaVuSans-32"/>
       <use xlink:href="#DejaVuSans-34" x="63.623047"/>
       <use xlink:href="#DejaVuSans-30" x="127.246094"/>
       <use xlink:href="#DejaVuSans-30" x="190.869141"/>
      </g>
     </g>
    </g>
    <g id="ytick_5">
     <g id="line2d_31">
      <path d="M 108 192.38869 
L 777.6 192.38869 
" clip-path="url(#pb4594be9be)" style="fill: none; stroke-dasharray: 5.12,1.28,0.8,1.28; stroke-dashoffset: 0; stroke: #b0b0b0; stroke-width: 0.8"/>
     </g>
     <g id="line2d_32">
      <g>
       <use xlink:href="#m5c28c541a5" x="108" y="192.38869" style="fill: #a9a9a9; stroke: #a9a9a9; stroke-width: 0.8"/>
      </g>
     </g>
     <g id="text_16">
      <!-- 3200 -->
      <g style="fill: #a9a9a9" transform="translate(75.55 196.187909) scale(0.1 -0.1)">
       <use xlink:href="#DejaVuSans-33"/>
       <use xlink:href="#DejaVuSans-32" x="63.623047"/>
       <use xlink:href="#DejaVuSans-30" x="127.246094"/>
       <use xlink:href="#DejaVuSans-30" x="190.869141"/>
      </g>
     </g>
    </g>
    <g id="ytick_6">
     <g id="line2d_33">
      <path d="M 108 163.526843 
L 777.6 163.526843 
" clip-path="url(#pb4594be9be)" style="fill: none; stroke-dasharray: 5.12,1.28,0.8,1.28; stroke-dashoffset: 0; stroke: #b0b0b0; stroke-width: 0.8"/>
     </g>
     <g id="line2d_34">
      <g>
       <use xlink:href="#m5c28c541a5" x="108" y="163.526843" style="fill: #a9a9a9; stroke: #a9a9a9; stroke-width: 0.8"/>
      </g>
     </g>
     <g id="text_17">
      <!-- 4000 -->
      <g style="fill: #a9a9a9" transform="translate(75.55 167.326062) scale(0.1 -0.1)">
       <use xlink:href="#DejaVuSans-34"/>
       <use xlink:href="#DejaVuSans-30" x="63.623047"/>
       <use xlink:href="#DejaVuSans-30" x="127.246094"/>
       <use xlink:href="#DejaVuSans-30" x="190.869141"/>
      </g>
     </g>
    </g>
    <g id="ytick_7">
     <g id="line2d_35">
      <path d="M 108 134.664996 
L 777.6 134.664996 
" clip-path="url(#pb4594be9be)" style="fill: none; stroke-dasharray: 5.12,1.28,0.8,1.28; stroke-dashoffset: 0; stroke: #b0b0b0; stroke-width: 0.8"/>
     </g>
     <g id="line2d_36">
      <g>
       <use xlink:href="#m5c28c541a5" x="108" y="134.664996" style="fill: #a9a9a9; stroke: #a9a9a9; stroke-width: 0.8"/>
      </g>
     </g>
     <g id="text_18">
      <!-- 4800 -->
      <g style="fill: #a9a9a9" transform="translate(75.55 138.464215) scale(0.1 -0.1)">
       <use xlink:href="#DejaVuSans-34"/>
       <use xlink:href="#DejaVuSans-38" x="63.623047"/>
       <use xlink:href="#DejaVuSans-30" x="127.246094"/>
       <use xlink:href="#DejaVuSans-30" x="190.869141"/>
      </g>
     </g>
    </g>
    <g id="ytick_8">
     <g id="line2d_37">
      <path d="M 108 105.80315 
L 777.6 105.80315 
" clip-path="url(#pb4594be9be)" style="fill: none; stroke-dasharray: 5.12,1.28,0.8,1.28; stroke-dashoffset: 0; stroke: #b0b0b0; stroke-width: 0.8"/>
     </g>
     <g id="line2d_38">
      <g>
       <use xlink:href="#m5c28c541a5" x="108" y="105.80315" style="fill: #a9a9a9; stroke: #a9a9a9; stroke-width: 0.8"/>
      </g>
     </g>
     <g id="text_19">
      <!-- 5600 -->
      <g style="fill: #a9a9a9" transform="translate(75.55 109.602368) scale(0.1 -0.1)">
       <use xlink:href="#DejaVuSans-35"/>
       <use xlink:href="#DejaVuSans-36" x="63.623047"/>
       <use xlink:href="#DejaVuSans-30" x="127.246094"/>
       <use xlink:href="#DejaVuSans-30" x="190.869141"/>
      </g>
     </g>
    </g>
    <g id="ytick_9">
     <g id="line2d_39">
      <path d="M 108 76.941303 
L 777.6 76.941303 
" clip-path="url(#pb4594be9be)" style="fill: none; stroke-dasharray: 5.12,1.28,0.8,1.28; stroke-dashoffset: 0; stroke: #b0b0b0; stroke-width: 0.8"/>
     </g>
     <g id="line2d_40">
      <g>
       <use xlink:href="#m5c28c541a5" x="108" y="76.941303" style="fill: #a9a9a9; stroke: #a9a9a9; stroke-width: 0.8"/>
      </g>
     </g>
     <g id="text_20">
      <!-- 6400 -->
      <g style="fill: #a9a9a9" transform="translate(75.55 80.740522) scale(0.1 -0.1)">
       <use xlink:href="#DejaVuSans-36"/>
       <use xlink:href="#DejaVuSans-34" x="63.623047"/>
       <use xlink:href="#DejaVuSans-30" x="127.246094"/>
       <use xlink:href="#DejaVuSans-30" x="190.869141"/>
      </g>
     </g>
    </g>
    <g id="ytick_10">
     <g id="line2d_41">
      <path d="M 108 48.079456 
L 777.6 48.079456 
" clip-path="url(#pb4594be9be)" style="fill: none; stroke-dasharray: 5.12,1.28,0.8,1.28; stroke-dashoffset: 0; stroke: #b0b0b0; stroke-width: 0.8"/>
     </g>
     <g id="line2d_42">
      <g>
       <use xlink:href="#m5c28c541a5" x="108" y="48.079456" style="fill: #a9a9a9; stroke: #a9a9a9; stroke-width: 0.8"/>
      </g>
     </g>
     <g id="text_21">
      <!-- 7200 -->
      <g style="fill: #a9a9a9" transform="translate(75.55 51.878675) scale(0.1 -0.1)">
       <defs>
        <path id="DejaVuSans-37" d="M 525 4666 
L 3525 4666 
L 3525 4397 
L 1831 0 
L 1172 0 
L 2766 4134 
L 525 4134 
L 525 4666 
z
" transform="scale(0.015625)"/>
       </defs>
       <use xlink:href="#DejaVuSans-37"/>
       <use xlink:href="#DejaVuSans-32" x="63.623047"/>
       <use xlink:href="#DejaVuSans-30" x="127.246094"/>
       <use xlink:href="#DejaVuSans-30" x="190.869141"/>
      </g>
     </g>
    </g>
   </g>
   <g id="line2d_43">
    <path d="M 138.436364 307.727845 
L 141.439952 307.475304 
L 141.94055 307.25884 
L 143.942943 307.006299 
L 145.945335 306.609449 
L 146.946531 306.46514 
L 149.449522 306.248676 
L 150.450718 305.851825 
L 150.951316 305.202434 
L 151.451914 304.841661 
L 151.952512 303.723264 
L 152.45311 303.65111 
L 152.953708 303.254259 
L 153.954904 302.749177 
L 155.957297 301.161775 
L 157.959689 300.187688 
L 159.461483 299.502219 
L 159.962081 298.708518 
L 160.963278 297.986972 
L 161.463876 297.770508 
L 166.469856 297.048962 
L 166.970455 296.832498 
L 170.474641 296.54388 
L 172.477033 296.074875 
L 176.481818 295.533715 
L 176.982416 295.281174 
L 177.483014 295.209019 
L 178.484211 294.884324 
L 181.988397 294.307087 
L 182.989593 294.018468 
L 187.494976 293.260845 
L 188.496172 293.044381 
L 189.497368 293.008304 
L 191.499761 292.539298 
L 192.000359 291.85383 
L 193.502153 291.276593 
L 195.003947 290.879742 
L 195.504545 290.627201 
L 196.505742 290.446815 
L 198.508134 289.869578 
L 199.50933 289.797423 
L 200.510526 289.544882 
L 202.512919 289.0398 
L 203.013517 289.003722 
L 204.014713 288.534717 
L 204.515311 288.462563 
L 205.015909 288.210021 
L 210.522488 287.308089 
L 212.52488 286.730852 
L 213.025478 286.406156 
L 215.528469 285.576378 
L 216.529665 284.890909 
L 218.031459 284.602291 
L 231.04701 280.958482 
L 231.547608 280.958482 
L 232.048206 280.742019 
L 233.049402 280.633787 
L 233.55 280.4534 
L 235.552392 280.345168 
L 236.553589 280.164782 
L 237.554785 279.659699 
L 239.056579 279.11854 
L 239.557177 278.793844 
L 240.558373 278.360916 
L 241.058971 278.108375 
L 242.060167 277.783679 
L 242.560766 277.63937 
L 243.561962 277.026056 
L 244.06256 276.484896 
L 245.063756 274.969649 
L 245.564354 274.82534 
L 246.064952 274.82534 
L 247.566746 273.959485 
L 248.067344 273.706943 
L 248.567943 273.598712 
L 249.068541 273.129707 
L 250.069737 272.732856 
L 251.070933 272.263851 
L 253.573923 269.089048 
L 256.577512 267.501646 
L 257.578708 266.707946 
L 258.079306 266.38325 
L 258.579904 265.625626 
L 259.080502 264.50723 
L 259.5811 263.749606 
L 260.081699 263.352756 
L 260.582297 263.136292 
L 264.086483 260.177953 
L 265.087679 258.987402 
L 266.088876 258.265855 
L 268.591866 256.750608 
L 269.593062 256.209449 
L 271.595455 255.163207 
L 274.098445 252.926414 
L 275.099641 252.529563 
L 276.100837 251.844094 
L 276.601435 251.555476 
L 277.102033 251.483321 
L 278.603828 250.653543 
L 279.104426 250.112384 
L 281.607416 248.777523 
L 282.108014 248.597137 
L 283.609809 247.586972 
L 291.11878 244.953329 
L 292.119976 244.051396 
L 293.121172 243.582391 
L 294.122368 243.041231 
L 294.622967 242.752613 
L 295.624163 242.463994 
L 296.124761 242.139298 
L 296.625359 241.994989 
L 298.127153 241.020902 
L 300.630144 240.443665 
L 302.131938 239.57781 
L 303.633732 239.253114 
L 304.13433 239.108805 
L 305.636124 237.990408 
L 307.638517 237.449248 
L 308.139115 237.052398 
L 311.142703 236.042233 
L 312.1439 235.861847 
L 313.145096 235.464996 
L 316.649282 234.202291 
L 317.650478 234.057981 
L 319.152273 233.552899 
L 321.655263 232.362348 
L 323.657656 231.280029 
L 327.66244 229.65655 
L 328.163038 229.584395 
L 329.164234 228.971081 
L 329.664833 228.898926 
L 331.667225 228.069148 
L 333.669617 227.78053 
L 334.670813 227.275447 
L 335.171411 226.84252 
L 335.67201 225.940587 
L 337.674402 225.399427 
L 339.176196 224.641804 
L 339.676794 224.533572 
L 343.681579 222.621475 
L 345.183373 222.332856 
L 346.184569 221.827774 
L 346.685167 221.61131 
L 347.185766 221.539155 
L 349.188158 220.637223 
L 350.689952 219.699213 
L 352.191746 219.410594 
L 354.694737 218.79728 
L 355.195335 218.400429 
L 356.697129 217.85927 
L 358.699522 217.065569 
L 359.20012 216.704796 
L 359.700718 216.524409 
L 360.701914 215.98325 
L 363.204904 215.153472 
L 364.706699 213.962921 
L 365.207297 213.854689 
L 366.208493 213.060988 
L 366.709091 212.988833 
L 367.209689 212.195132 
L 367.710287 211.978669 
L 368.210885 211.581818 
L 368.711483 211.509664 
L 369.712679 210.896349 
L 370.713876 210.571654 
L 371.214474 210.21088 
L 371.715072 210.030494 
L 373.216866 208.984252 
L 375.219258 207.93801 
L 375.719856 207.865855 
L 377.221651 207.108232 
L 377.722249 206.278454 
L 378.723445 205.556908 
L 379.224043 205.448676 
L 380.225239 204.835361 
L 380.725837 204.72713 
L 381.727033 204.222047 
L 383.729426 203.24796 
L 384.230024 202.887187 
L 385.23122 201.913099 
L 386.232416 201.299785 
L 386.733014 200.975089 
L 387.233612 200.43393 
L 389.236005 199.062992 
L 389.736603 198.485755 
L 390.237201 198.088905 
L 391.238397 197.728132 
L 392.239593 197.042663 
L 393.741388 196.285039 
L 394.241986 196.212885 
L 395.74378 195.419184 
L 396.744976 194.80587 
L 401.750957 193.002004 
L 402.251555 192.605154 
L 404.253947 191.84753 
L 404.754545 191.703221 
L 405.255144 191.306371 
L 407.758134 189.935433 
L 408.75933 187.951181 
L 409.760526 186.796707 
L 410.761722 186.21947 
L 412.263517 185.606156 
L 412.764115 185.534001 
L 413.264713 185.245383 
L 415.767703 184.451682 
L 416.268301 184.235218 
L 417.269498 183.549749 
L 418.771292 182.900358 
L 419.772488 182.359198 
L 420.273086 181.998425 
L 420.773684 181.781961 
L 421.274282 181.421188 
L 421.77488 180.880029 
L 422.776077 180.338869 
L 425.279067 179.004009 
L 428.282656 177.524839 
L 429.78445 177.091911 
L 431.286244 176.514674 
L 431.786842 176.153901 
L 432.788038 175.865283 
L 433.789234 175.468432 
L 434.289833 175.071582 
L 436.292225 174.386113 
L 437.293421 173.664567 
L 438.294617 173.231639 
L 439.295813 172.437938 
L 440.29701 172.077165 
L 440.797608 171.644238 
L 441.298206 171.572083 
L 442.299402 170.81446 
L 443.300598 170.309377 
L 443.801196 170.092913 
L 444.301794 169.587831 
L 447.805981 168.216893 
L 448.807177 167.783966 
L 450.308971 167.314961 
L 451.310167 167.170651 
L 451.810766 166.954188 
L 452.311364 166.882033 
L 453.31256 166.449105 
L 453.813158 166.413028 
L 455.81555 165.655404 
L 457.317344 164.609162 
L 457.817943 164.428776 
L 458.819139 163.887616 
L 459.319737 163.743307 
L 462.323325 162.083751 
L 462.823923 161.975519 
L 464.325718 161.109664 
L 465.827512 160.604581 
L 466.828708 160.279885 
L 468.8311 159.630494 
L 469.832297 159.305798 
L 471.834689 158.908948 
L 472.335287 158.692484 
L 472.835885 158.620329 
L 473.837081 158.187402 
L 474.337679 158.115247 
L 474.838278 157.862706 
L 475.839474 157.682319 
L 477.341268 157.14116 
L 478.342464 157.032928 
L 479.844258 156.708232 
L 482.347249 156.275304 
L 495.362799 152.523264 
L 495.863397 152.018182 
L 496.864593 151.621331 
L 499.868182 150.539012 
L 500.36878 150.214316 
L 500.869378 150.106084 
L 501.369976 149.817466 
L 502.87177 149.384538 
L 503.872967 149.131997 
L 504.373565 148.807301 
L 504.874163 148.699069 
L 505.374761 148.266142 
L 506.876555 147.977523 
L 507.877751 147.508518 
L 508.378349 146.931281 
L 510.380742 146.462276 
L 513.884928 145.74073 
L 514.385526 145.74073 
L 514.886124 145.524266 
L 516.888517 145.163493 
L 517.389115 144.947029 
L 519.391507 144.586256 
L 520.392703 144.153329 
L 521.3939 143.972942 
L 523.89689 143.359628 
L 525.899282 142.746314 
L 526.39988 142.638082 
L 526.900478 142.38554 
L 527.901675 142.132999 
L 528.402273 141.844381 
L 529.904067 141.339298 
L 530.404665 141.014603 
L 531.405861 140.725984 
L 532.407057 140.401288 
L 533.408254 140.004438 
L 534.910048 139.355047 
L 536.91244 139.102505 
L 540.917225 137.69549 
L 541.417823 137.334717 
L 541.918421 137.226485 
L 542.419019 136.973944 
L 542.919617 136.937867 
L 548.426196 135.02577 
L 550.929187 134.376378 
L 551.930383 133.907373 
L 553.432177 133.582677 
L 553.932775 133.185827 
L 554.433373 132.933286 
L 554.933971 132.319971 
L 555.434569 131.959198 
L 556.435766 131.67058 
L 556.936364 131.273729 
L 559.939952 130.155333 
L 560.44055 129.830637 
L 561.441746 129.542019 
L 561.942344 129.217323 
L 564.445335 128.423622 
L 565.947129 127.557767 
L 566.447727 127.449535 
L 568.950718 126.114674 
L 570.452512 125.465283 
L 570.95311 125.10451 
L 571.954306 124.779814 
L 572.955502 124.202577 
L 573.4561 124.02219 
L 573.956699 123.661417 
L 580.464474 121.388547 
L 580.965072 121.280315 
L 581.46567 120.955619 
L 583.468062 120.558769 
L 584.469258 120.161918 
L 584.969856 119.8733 
L 585.470455 119.728991 
L 587.472847 118.682749 
L 587.973445 118.610594 
L 589.475239 117.780816 
L 590.977033 117.275734 
L 594.48122 115.868719 
L 594.981818 115.724409 
L 595.482416 115.399714 
L 596.483612 115.291482 
L 596.984211 114.966786 
L 597.985407 114.786399 
L 598.986603 114.317394 
L 599.487201 114.100931 
L 599.987799 114.028776 
L 602.490789 113.054689 
L 603.992584 112.657838 
L 604.99378 112.405297 
L 606.495574 111.972369 
L 607.49677 111.575519 
L 609.499163 110.4932 
L 610.500359 110.096349 
L 611.000957 109.771654 
L 612.002153 109.55519 
L 612.502751 109.266571 
L 613.003349 109.158339 
L 614.505144 108.328561 
L 615.50634 107.931711 
L 617.508732 107.174087 
L 620.011722 106.344309 
L 621.012919 105.839227 
L 623.515909 105.009449 
L 625.017703 104.468289 
L 625.518301 104.32398 
L 626.519498 103.78282 
L 628.52189 102.880888 
L 633.527871 100.96879 
L 634.028469 100.644094 
L 636.030861 99.958626 
L 636.531459 99.958626 
L 637.532656 99.525698 
L 638.533852 98.623765 
L 639.03445 98.190838 
L 640.536244 97.469291 
L 641.036842 97.361059 
L 641.53744 97.108518 
L 642.038038 97.036364 
L 642.538636 96.675591 
L 643.039234 96.567359 
L 644.040431 95.954044 
L 645.542225 95.196421 
L 646.543421 94.799571 
L 647.044019 94.547029 
L 648.545813 94.222334 
L 651.048804 93.392555 
L 652.05 93.06786 
L 653.551794 92.310236 
L 654.55299 91.841231 
L 655.554187 91.58869 
L 657.055981 90.903221 
L 661.561364 89.243665 
L 663.063158 88.341732 
L 663.563756 88.2335 
L 664.564952 87.728418 
L 665.566148 87.367645 
L 666.066746 86.934717 
L 667.067943 86.537867 
L 668.569737 85.924553 
L 669.070335 85.527702 
L 669.570933 85.491625 
L 670.572129 85.203006 
L 671.573325 84.878311 
L 672.073923 84.62577 
L 672.574522 84.553615 
L 674.076316 84.012455 
L 675.57811 83.471296 
L 676.579306 83.074445 
L 677.079904 82.677595 
L 678.581699 82.280744 
L 679.082297 81.992126 
L 680.083493 81.739585 
L 681.585287 80.909807 
L 682.085885 80.873729 
L 683.587679 80.404724 
L 684.588876 80.33257 
L 685.590072 79.935719 
L 688.59366 79.069864 
L 689.594856 79.033787 
L 693.599641 77.771081 
L 694.600837 77.229921 
L 695.101435 76.796994 
L 696.60323 75.931138 
L 697.604426 75.317824 
L 699.606818 74.740587 
L 700.107416 74.451969 
L 700.608014 74.343737 
L 701.108612 73.946886 
L 704.112201 72.720258 
L 706.114593 72.179098 
L 707.115789 71.74617 
L 707.616388 71.493629 
L 708.617584 71.205011 
L 709.118182 70.880315 
L 710.119378 70.699928 
L 712.622368 69.545455 
L 713.122967 69.256836 
L 714.624761 68.896063 
L 716.126555 67.921976 
L 716.627153 67.849821 
L 719.130144 66.875734 
L 720.631938 66.514961 
L 721.132536 66.442806 
L 721.633134 66.226342 
L 722.133732 66.190265 
L 723.134928 65.865569 
L 723.635526 65.829492 
L 725.137321 65.252255 
L 727.139713 64.675018 
L 728.140909 63.917394 
L 730.143301 62.835075 
L 731.645096 62.329993 
L 734.648684 60.995132 
L 735.64988 60.453973 
L 736.150478 60.201432 
L 736.651077 59.732427 
L 739.154067 59.01088 
L 740.155263 58.469721 
L 742.157656 57.748175 
L 742.658254 57.27917 
L 744.660646 56.73801 
L 745.161244 56.377237 
L 746.663038 55.8 
L 747.163636 55.8 
L 747.163636 55.8 
" clip-path="url(#pb4594be9be)" style="fill: none; stroke: #1f77b4; stroke-width: 1.5; stroke-linecap: square"/>
   </g>
   <g id="line2d_44">
    <path d="M 138.936962 307.8 
L 143.442344 307.691768 
L 147.447129 307.511382 
L 149.449522 307.511382 
L 149.95012 307.367072 
L 152.45311 307.25884 
L 155.456699 306.934145 
L 158.460287 306.825913 
L 159.461483 306.717681 
L 162.96567 306.573372 
L 166.469856 306.46514 
L 168.972847 306.392985 
L 175.480622 306.284753 
L 177.983612 306.212598 
L 181.487799 306.104366 
L 183.990789 306.032212 
L 189.497368 305.92398 
L 191.499761 305.743593 
L 193.502153 305.707516 
L 196.505742 305.599284 
L 198.508134 305.563207 
L 201.011124 305.491052 
L 203.013517 305.310666 
L 207.5189 305.202434 
L 208.520096 305.130279 
L 210.522488 305.022047 
L 213.526077 304.913815 
L 215.528469 304.805583 
L 224.539234 304.264424 
L 228.043421 304.156192 
L 229.545215 304.011883 
L 232.048206 303.903651 
L 237.054187 303.65111 
L 242.060167 303.578955 
L 244.06256 303.362491 
L 246.064952 303.254259 
L 251.571531 302.749177 
L 255.075718 302.352326 
L 256.577512 302.280172 
L 261.082895 301.739012 
L 263.585885 301.666858 
L 265.087679 301.522548 
L 266.589474 301.414316 
L 280.60622 300.368074 
L 281.607416 300.187688 
L 284.611005 300.079456 
L 292.620574 299.610451 
L 296.124761 299.502219 
L 298.127153 299.285755 
L 300.630144 299.177523 
L 303.633732 299.069291 
L 306.136722 298.961059 
L 308.139115 298.924982 
L 310.642105 298.852827 
L 311.643301 298.708518 
L 318.651675 298.600286 
L 319.652871 298.492054 
L 325.660048 298.383822 
L 330.165431 298.167359 
L 333.669617 298.059127 
L 335.67201 297.842663 
L 339.176196 297.734431 
L 340.177392 297.554044 
L 342.680383 297.48189 
L 347.686364 297.409735 
L 350.189354 297.157194 
L 353.192943 297.048962 
L 355.195335 296.868576 
L 360.201316 296.616034 
L 365.207297 296.507802 
L 369.712679 296.291339 
L 371.214474 296.255261 
L 372.21567 296.110952 
L 374.71866 296.00272 
L 375.719856 295.930565 
L 376.721053 295.858411 
L 377.722249 295.786256 
L 382.227632 295.714102 
L 383.729426 295.60587 
L 397.245574 294.740014 
L 399.748565 294.631782 
L 402.251555 294.559628 
L 409.259928 294.451396 
L 410.261124 294.307087 
L 417.269498 294.198855 
L 422.275478 293.946314 
L 423.276675 293.910236 
L 424.277871 293.802004 
L 426.780861 293.693772 
L 429.283852 293.621618 
L 431.786842 293.513386 
L 434.289833 293.441231 
L 438.795215 293.332999 
L 441.798804 293.224767 
L 448.807177 293.116535 
L 454.313756 292.827917 
L 456.316148 292.755762 
L 457.817943 292.64753 
L 464.826316 292.539298 
L 467.829904 292.431067 
L 476.84067 292.322835 
L 478.843062 292.286757 
L 484.850239 292.214603 
L 485.851435 292.142448 
L 492.859809 292.034216 
L 494.862201 291.998139 
L 507.877751 291.889907 
L 509.379545 291.745598 
L 531.906459 291.637366 
L 534.40945 291.565211 
L 547.425 291.456979 
L 548.426196 291.384825 
L 550.929187 291.31267 
L 552.430981 291.168361 
L 555.434569 291.060129 
L 558.938756 290.91582 
L 563.444139 290.807588 
L 565.947129 290.735433 
L 569.451316 290.627201 
L 573.4561 290.446815 
L 575.959091 290.338583 
L 577.961483 290.302505 
L 582.466866 290.194273 
L 584.469258 290.158196 
L 590.977033 290.049964 
L 592.979426 290.013887 
L 595.482416 289.905655 
L 598.486005 289.797423 
L 601.990191 289.725268 
L 602.991388 289.653114 
L 615.005742 289.544882 
L 621.513517 289.184109 
L 624.016507 289.111954 
L 625.017703 289.003722 
L 626.0189 288.931568 
L 630.023684 288.823336 
L 633.027273 288.715104 
L 638.033254 288.606872 
L 640.536244 288.354331 
L 645.542225 288.246099 
L 646.543421 288.137867 
L 651.549402 288.029635 
L 654.052392 287.95748 
L 659.558971 287.921403 
L 660.560167 287.813171 
L 666.066746 287.704939 
L 667.067943 287.632785 
L 678.0811 287.524553 
L 681.084689 287.416321 
L 688.59366 287.308089 
L 690.596053 287.272011 
L 695.101435 287.199857 
L 696.102632 287.091625 
L 702.109809 286.983393 
L 705.113397 286.875161 
L 714.124163 286.766929 
L 715.625957 286.658697 
L 717.127751 286.550465 
L 718.629545 286.442233 
L 726.138517 286.334001 
L 729.642703 286.189692 
L 742.658254 286.08146 
L 747.163636 285.864996 
L 747.163636 285.864996 
" clip-path="url(#pb4594be9be)" style="fill: none; stroke: #ff7f0e; stroke-width: 1.5; stroke-linecap: square"/>
   </g>
   <g id="patch_3">
    <path d="M 108 320.4 
L 108 43.2 
" style="fill: none; stroke: #a9a9a9; stroke-width: 0.8; stroke-linejoin: miter; stroke-linecap: square"/>
   </g>
   <g id="patch_4">
    <path d="M 777.6 320.4 
L 777.6 43.2 
" style="fill: none"/>
   </g>
   <g id="patch_5">
    <path d="M 108 320.4 
L 777.6 320.4 
" style="fill: none; stroke: #a9a9a9; stroke-width: 0.8; stroke-linejoin: miter; stroke-linecap: square"/>
   </g>
   <g id="patch_6">
    <path d="M 108 43.2 
L 777.6 43.2 
" style="fill: none"/>
   </g>
   <g id="text_22">
    <!-- get_subscribe history -->
    <g style="fill: #a9a9a9" transform="translate(378.6075 37.2) scale(0.12 -0.12)">
     <defs>
      <path id="DejaVuSans-67" d="M 2906 1791 
Q 2906 2416 2648 2759 
Q 2391 3103 1925 3103 
Q 1463 3103 1205 2759 
Q 947 2416 947 1791 
Q 947 1169 1205 825 
Q 1463 481 1925 481 
Q 2391 481 2648 825 
Q 2906 1169 2906 1791 
z
M 3481 434 
Q 3481 -459 3084 -895 
Q 2688 -1331 1869 -1331 
Q 1566 -1331 1297 -1286 
Q 1028 -1241 775 -1147 
L 775 -588 
Q 1028 -725 1275 -790 
Q 1522 -856 1778 -856 
Q 2344 -856 2625 -561 
Q 2906 -266 2906 331 
L 2906 616 
Q 2728 306 2450 153 
Q 2172 0 1784 0 
Q 1141 0 747 490 
Q 353 981 353 1791 
Q 353 2603 747 3093 
Q 1141 3584 1784 3584 
Q 2172 3584 2450 3431 
Q 2728 3278 2906 2969 
L 2906 3500 
L 3481 3500 
L 3481 434 
z
" transform="scale(0.015625)"/>
      <path id="DejaVuSans-65" d="M 3597 1894 
L 3597 1613 
L 953 1613 
Q 991 1019 1311 708 
Q 1631 397 2203 397 
Q 2534 397 2845 478 
Q 3156 559 3463 722 
L 3463 178 
Q 3153 47 2828 -22 
Q 2503 -91 2169 -91 
Q 1331 -91 842 396 
Q 353 884 353 1716 
Q 353 2575 817 3079 
Q 1281 3584 2069 3584 
Q 2775 3584 3186 3129 
Q 3597 2675 3597 1894 
z
M 3022 2063 
Q 3016 2534 2758 2815 
Q 2500 3097 2075 3097 
Q 1594 3097 1305 2825 
Q 1016 2553 972 2059 
L 3022 2063 
z
" transform="scale(0.015625)"/>
      <path id="DejaVuSans-74" d="M 1172 4494 
L 1172 3500 
L 2356 3500 
L 2356 3053 
L 1172 3053 
L 1172 1153 
Q 1172 725 1289 603 
Q 1406 481 1766 481 
L 2356 481 
L 2356 0 
L 1766 0 
Q 1100 0 847 248 
Q 594 497 594 1153 
L 594 3053 
L 172 3053 
L 172 3500 
L 594 3500 
L 594 4494 
L 1172 4494 
z
" transform="scale(0.015625)"/>
      <path id="DejaVuSans-5f" d="M 3263 -1063 
L 3263 -1509 
L -63 -1509 
L -63 -1063 
L 3263 -1063 
z
" transform="scale(0.015625)"/>
      <path id="DejaVuSans-73" d="M 2834 3397 
L 2834 2853 
Q 2591 2978 2328 3040 
Q 2066 3103 1784 3103 
Q 1356 3103 1142 2972 
Q 928 2841 928 2578 
Q 928 2378 1081 2264 
Q 1234 2150 1697 2047 
L 1894 2003 
Q 2506 1872 2764 1633 
Q 3022 1394 3022 966 
Q 3022 478 2636 193 
Q 2250 -91 1575 -91 
Q 1294 -91 989 -36 
Q 684 19 347 128 
L 347 722 
Q 666 556 975 473 
Q 1284 391 1588 391 
Q 1994 391 2212 530 
Q 2431 669 2431 922 
Q 2431 1156 2273 1281 
Q 2116 1406 1581 1522 
L 1381 1569 
Q 847 1681 609 1914 
Q 372 2147 372 2553 
Q 372 3047 722 3315 
Q 1072 3584 1716 3584 
Q 2034 3584 2315 3537 
Q 2597 3491 2834 3397 
z
" transform="scale(0.015625)"/>
      <path id="DejaVuSans-75" d="M 544 1381 
L 544 3500 
L 1119 3500 
L 1119 1403 
Q 1119 906 1312 657 
Q 1506 409 1894 409 
Q 2359 409 2629 706 
Q 2900 1003 2900 1516 
L 2900 3500 
L 3475 3500 
L 3475 0 
L 2900 0 
L 2900 538 
Q 2691 219 2414 64 
Q 2138 -91 1772 -91 
Q 1169 -91 856 284 
Q 544 659 544 1381 
z
M 1991 3584 
L 1991 3584 
z
" transform="scale(0.015625)"/>
      <path id="DejaVuSans-62" d="M 3116 1747 
Q 3116 2381 2855 2742 
Q 2594 3103 2138 3103 
Q 1681 3103 1420 2742 
Q 1159 2381 1159 1747 
Q 1159 1113 1420 752 
Q 1681 391 2138 391 
Q 2594 391 2855 752 
Q 3116 1113 3116 1747 
z
M 1159 2969 
Q 1341 3281 1617 3432 
Q 1894 3584 2278 3584 
Q 2916 3584 3314 3078 
Q 3713 2572 3713 1747 
Q 3713 922 3314 415 
Q 2916 -91 2278 -91 
Q 1894 -91 1617 61 
Q 1341 213 1159 525 
L 1159 0 
L 581 0 
L 581 4863 
L 1159 4863 
L 1159 2969 
z
" transform="scale(0.015625)"/>
      <path id="DejaVuSans-63" d="M 3122 3366 
L 3122 2828 
Q 2878 2963 2633 3030 
Q 2388 3097 2138 3097 
Q 1578 3097 1268 2742 
Q 959 2388 959 1747 
Q 959 1106 1268 751 
Q 1578 397 2138 397 
Q 2388 397 2633 464 
Q 2878 531 3122 666 
L 3122 134 
Q 2881 22 2623 -34 
Q 2366 -91 2075 -91 
Q 1284 -91 818 406 
Q 353 903 353 1747 
Q 353 2603 823 3093 
Q 1294 3584 2113 3584 
Q 2378 3584 2631 3529 
Q 2884 3475 3122 3366 
z
" transform="scale(0.015625)"/>
      <path id="DejaVuSans-72" d="M 2631 2963 
Q 2534 3019 2420 3045 
Q 2306 3072 2169 3072 
Q 1681 3072 1420 2755 
Q 1159 2438 1159 1844 
L 1159 0 
L 581 0 
L 581 3500 
L 1159 3500 
L 1159 2956 
Q 1341 3275 1631 3429 
Q 1922 3584 2338 3584 
Q 2397 3584 2469 3576 
Q 2541 3569 2628 3553 
L 2631 2963 
z
" transform="scale(0.015625)"/>
      <path id="DejaVuSans-69" d="M 603 3500 
L 1178 3500 
L 1178 0 
L 603 0 
L 603 3500 
z
M 603 4863 
L 1178 4863 
L 1178 4134 
L 603 4134 
L 603 4863 
z
" transform="scale(0.015625)"/>
      <path id="DejaVuSans-20" transform="scale(0.015625)"/>
      <path id="DejaVuSans-68" d="M 3513 2113 
L 3513 0 
L 2938 0 
L 2938 2094 
Q 2938 2591 2744 2837 
Q 2550 3084 2163 3084 
Q 1697 3084 1428 2787 
Q 1159 2491 1159 1978 
L 1159 0 
L 581 0 
L 581 4863 
L 1159 4863 
L 1159 2956 
Q 1366 3272 1645 3428 
Q 1925 3584 2291 3584 
Q 2894 3584 3203 3211 
Q 3513 2838 3513 2113 
z
" transform="scale(0.015625)"/>
      <path id="DejaVuSans-6f" d="M 1959 3097 
Q 1497 3097 1228 2736 
Q 959 2375 959 1747 
Q 959 1119 1226 758 
Q 1494 397 1959 397 
Q 2419 397 2687 759 
Q 2956 1122 2956 1747 
Q 2956 2369 2687 2733 
Q 2419 3097 1959 3097 
z
M 1959 3584 
Q 2709 3584 3137 3096 
Q 3566 2609 3566 1747 
Q 3566 888 3137 398 
Q 2709 -91 1959 -91 
Q 1206 -91 779 398 
Q 353 888 353 1747 
Q 353 2609 779 3096 
Q 1206 3584 1959 3584 
z
" transform="scale(0.015625)"/>
      <path id="DejaVuSans-79" d="M 2059 -325 
Q 1816 -950 1584 -1140 
Q 1353 -1331 966 -1331 
L 506 -1331 
L 506 -850 
L 844 -850 
Q 1081 -850 1212 -737 
Q 1344 -625 1503 -206 
L 1606 56 
L 191 3500 
L 800 3500 
L 1894 763 
L 2988 3500 
L 3597 3500 
L 2059 -325 
z
" transform="scale(0.015625)"/>
     </defs>
     <use xlink:href="#DejaVuSans-67"/>
     <use xlink:href="#DejaVuSans-65" x="63.476562"/>
     <use xlink:href="#DejaVuSans-74" x="125"/>
     <use xlink:href="#DejaVuSans-5f" x="164.208984"/>
     <use xlink:href="#DejaVuSans-73" x="214.208984"/>
     <use xlink:href="#DejaVuSans-75" x="266.308594"/>
     <use xlink:href="#DejaVuSans-62" x="329.6875"/>
     <use xlink:href="#DejaVuSans-73" x="393.164062"/>
     <use xlink:href="#DejaVuSans-63" x="445.263672"/>
     <use xlink:href="#DejaVuSans-72" x="500.244141"/>
     <use xlink:href="#DejaVuSans-69" x="541.357422"/>
     <use xlink:href="#DejaVuSans-62" x="569.140625"/>
     <use xlink:href="#DejaVuSans-65" x="632.617188"/>
     <use xlink:href="#DejaVuSans-20" x="694.140625"/>
     <use xlink:href="#DejaVuSans-68" x="725.927734"/>
     <use xlink:href="#DejaVuSans-69" x="789.306641"/>
     <use xlink:href="#DejaVuSans-73" x="817.089844"/>
     <use xlink:href="#DejaVuSans-74" x="869.189453"/>
     <use xlink:href="#DejaVuSans-6f" x="908.398438"/>
     <use xlink:href="#DejaVuSans-72" x="969.580078"/>
     <use xlink:href="#DejaVuSans-79" x="1010.693359"/>
    </g>
   </g>
   <g id="legend_1">
    <g id="line2d_45">
     <path d="M 815.08 328.498438 
L 825.08 328.498438 
L 835.08 328.498438 
" style="fill: none; stroke: #1f77b4; stroke-width: 1.5; stroke-linecap: square"/>
    </g>
    <g id="text_23">
     <!-- star -->
     <g style="fill: #a9a9a9" transform="translate(843.08 331.998438) scale(0.1 -0.1)">
      <defs>
       <path id="DejaVuSans-61" d="M 2194 1759 
Q 1497 1759 1228 1600 
Q 959 1441 959 1056 
Q 959 750 1161 570 
Q 1363 391 1709 391 
Q 2188 391 2477 730 
Q 2766 1069 2766 1631 
L 2766 1759 
L 2194 1759 
z
M 3341 1997 
L 3341 0 
L 2766 0 
L 2766 531 
Q 2569 213 2275 61 
Q 1981 -91 1556 -91 
Q 1019 -91 701 211 
Q 384 513 384 1019 
Q 384 1609 779 1909 
Q 1175 2209 1959 2209 
L 2766 2209 
L 2766 2266 
Q 2766 2663 2505 2880 
Q 2244 3097 1772 3097 
Q 1472 3097 1187 3025 
Q 903 2953 641 2809 
L 641 3341 
Q 956 3463 1253 3523 
Q 1550 3584 1831 3584 
Q 2591 3584 2966 3190 
Q 3341 2797 3341 1997 
z
" transform="scale(0.015625)"/>
      </defs>
      <use xlink:href="#DejaVuSans-73"/>
      <use xlink:href="#DejaVuSans-74" x="52.099609"/>
      <use xlink:href="#DejaVuSans-61" x="91.308594"/>
      <use xlink:href="#DejaVuSans-72" x="152.587891"/>
     </g>
    </g>
    <g id="line2d_46">
     <path d="M 815.08 343.176562 
L 825.08 343.176562 
L 835.08 343.176562 
" style="fill: none; stroke: #ff7f0e; stroke-width: 1.5; stroke-linecap: square"/>
    </g>
    <g id="text_24">
     <!-- fork -->
     <g style="fill: #a9a9a9" transform="translate(843.08 346.676562) scale(0.1 -0.1)">
      <defs>
       <path id="DejaVuSans-66" d="M 2375 4863 
L 2375 4384 
L 1825 4384 
Q 1516 4384 1395 4259 
Q 1275 4134 1275 3809 
L 1275 3500 
L 2222 3500 
L 2222 3053 
L 1275 3053 
L 1275 0 
L 697 0 
L 697 3053 
L 147 3053 
L 147 3500 
L 697 3500 
L 697 3744 
Q 697 4328 969 4595 
Q 1241 4863 1831 4863 
L 2375 4863 
z
" transform="scale(0.015625)"/>
       <path id="DejaVuSans-6b" d="M 581 4863 
L 1159 4863 
L 1159 1991 
L 2875 3500 
L 3609 3500 
L 1753 1863 
L 3688 0 
L 2938 0 
L 1159 1709 
L 1159 0 
L 581 0 
L 581 4863 
z
" transform="scale(0.015625)"/>
      </defs>
      <use xlink:href="#DejaVuSans-66"/>
      <use xlink:href="#DejaVuSans-6f" x="35.205078"/>
      <use xlink:href="#DejaVuSans-72" x="96.386719"/>
      <use xlink:href="#DejaVuSans-6b" x="137.5"/>
     </g>
    </g>
   </g>
  </g>
 </g>
 <defs>
  <clipPath id="pb4594be9be">
   <rect x="108" y="43.2" width="669.6" height="277.2"/>
  </clipPath>
 </defs>
</svg>
