<?xml version="1.0" encoding="utf-8" standalone="no"?>
<!DOCTYPE svg PUBLIC "-//W3C//DTD SVG 1.1//EN"
  "http://www.w3.org/Graphics/SVG/1.1/DTD/svg11.dtd">
<svg xmlns:xlink="http://www.w3.org/1999/xlink" width="864pt" height="360pt" viewBox="0 0 864 360" xmlns="http://www.w3.org/2000/svg" version="1.1">
 <metadata>
  <rdf:RDF xmlns:dc="http://purl.org/dc/elements/1.1/" xmlns:cc="http://creativecommons.org/ns#" xmlns:rdf="http://www.w3.org/1999/02/22-rdf-syntax-ns#">
   <cc:Work>
    <dc:type rdf:resource="http://purl.org/dc/dcmitype/StillImage"/>
    <dc:date>2024-11-22T08:14:44.566775</dc:date>
    <dc:format>image/svg+xml</dc:format>
    <dc:creator>
     <cc:Agent>
      <dc:title>Matplotlib v3.9.2, https://matplotlib.org/</dc:title>
     </cc:Agent>
    </dc:creator>
   </cc:Work>
  </rdf:RDF>
 </metadata>
 <defs>
  <style type="text/css">*{stroke-linejoin: round; stroke-linecap: butt}</style>
 </defs>
 <g id="figure_1">
  <g id="patch_1">
   <path d="M 0 360 
L 864 360 
L 864 0 
L 0 0 
L 0 360 
z
" style="fill: none; opacity: 0"/>
  </g>
  <g id="axes_1">
   <g id="patch_2">
    <path d="M 108 320.4 
L 777.6 320.4 
L 777.6 43.2 
L 108 43.2 
L 108 320.4 
z
" style="fill: none; opacity: 0"/>
   </g>
   <g id="matplotlib.axis_1">
    <g id="xtick_1">
     <g id="line2d_1">
      <path d="M 157.943647 320.4 
L 157.943647 43.2 
" clip-path="url(#p5705ef0687)" style="fill: none; stroke-dasharray: 5.12,1.28,0.8,1.28; stroke-dashoffset: 0; stroke: #b0b0b0; stroke-width: 0.8"/>
     </g>
     <g id="line2d_2">
      <defs>
       <path id="m6cc9518cf2" d="M 0 0 
L 0 3.5 
" style="stroke: #a9a9a9; stroke-width: 0.8"/>
      </defs>
      <g>
       <use xlink:href="#m6cc9518cf2" x="157.943647" y="320.4" style="fill: #a9a9a9; stroke: #a9a9a9; stroke-width: 0.8"/>
      </g>
     </g>
     <g id="text_1">
      <!-- 2021-09 -->
      <g style="fill: #a9a9a9" transform="translate(137.052241 334.998438) scale(0.1 -0.1)">
       <defs>
        <path id="DejaVuSans-32" d="M 1228 531 
L 3431 531 
L 3431 0 
L 469 0 
L 469 531 
Q 828 903 1448 1529 
Q 2069 2156 2228 2338 
Q 2531 2678 2651 2914 
Q 2772 3150 2772 3378 
Q 2772 3750 2511 3984 
Q 2250 4219 1831 4219 
Q 1534 4219 1204 4116 
Q 875 4013 500 3803 
L 500 4441 
Q 881 4594 1212 4672 
Q 1544 4750 1819 4750 
Q 2544 4750 2975 4387 
Q 3406 4025 3406 3419 
Q 3406 3131 3298 2873 
Q 3191 2616 2906 2266 
Q 2828 2175 2409 1742 
Q 1991 1309 1228 531 
z
" transform="scale(0.015625)"/>
        <path id="DejaVuSans-30" d="M 2034 4250 
Q 1547 4250 1301 3770 
Q 1056 3291 1056 2328 
Q 1056 1369 1301 889 
Q 1547 409 2034 409 
Q 2525 409 2770 889 
Q 3016 1369 3016 2328 
Q 3016 3291 2770 3770 
Q 2525 4250 2034 4250 
z
M 2034 4750 
Q 2819 4750 3233 4129 
Q 3647 3509 3647 2328 
Q 3647 1150 3233 529 
Q 2819 -91 2034 -91 
Q 1250 -91 836 529 
Q 422 1150 422 2328 
Q 422 3509 836 4129 
Q 1250 4750 2034 4750 
z
" transform="scale(0.015625)"/>
        <path id="DejaVuSans-31" d="M 794 531 
L 1825 531 
L 1825 4091 
L 703 3866 
L 703 4441 
L 1819 4666 
L 2450 4666 
L 2450 531 
L 3481 531 
L 3481 0 
L 794 0 
L 794 531 
z
" transform="scale(0.015625)"/>
        <path id="DejaVuSans-2d" d="M 313 2009 
L 1997 2009 
L 1997 1497 
L 313 1497 
L 313 2009 
z
" transform="scale(0.015625)"/>
        <path id="DejaVuSans-39" d="M 703 97 
L 703 672 
Q 941 559 1184 500 
Q 1428 441 1663 441 
Q 2288 441 2617 861 
Q 2947 1281 2994 2138 
Q 2813 1869 2534 1725 
Q 2256 1581 1919 1581 
Q 1219 1581 811 2004 
Q 403 2428 403 3163 
Q 403 3881 828 4315 
Q 1253 4750 1959 4750 
Q 2769 4750 3195 4129 
Q 3622 3509 3622 2328 
Q 3622 1225 3098 567 
Q 2575 -91 1691 -91 
Q 1453 -91 1209 -44 
Q 966 3 703 97 
z
M 1959 2075 
Q 2384 2075 2632 2365 
Q 2881 2656 2881 3163 
Q 2881 3666 2632 3958 
Q 2384 4250 1959 4250 
Q 1534 4250 1286 3958 
Q 1038 3666 1038 3163 
Q 1038 2656 1286 2365 
Q 1534 2075 1959 2075 
z
" transform="scale(0.015625)"/>
       </defs>
       <use xlink:href="#DejaVuSans-32"/>
       <use xlink:href="#DejaVuSans-30" x="63.623047"/>
       <use xlink:href="#DejaVuSans-32" x="127.246094"/>
       <use xlink:href="#DejaVuSans-31" x="190.869141"/>
       <use xlink:href="#DejaVuSans-2d" x="254.492188"/>
       <use xlink:href="#DejaVuSans-30" x="290.576172"/>
       <use xlink:href="#DejaVuSans-39" x="354.199219"/>
      </g>
     </g>
    </g>
    <g id="xtick_2">
     <g id="line2d_3">
      <path d="M 218.96643 320.4 
L 218.96643 43.2 
" clip-path="url(#p5705ef0687)" style="fill: none; stroke-dasharray: 5.12,1.28,0.8,1.28; stroke-dashoffset: 0; stroke: #b0b0b0; stroke-width: 0.8"/>
     </g>
     <g id="line2d_4">
      <g>
       <use xlink:href="#m6cc9518cf2" x="218.96643" y="320.4" style="fill: #a9a9a9; stroke: #a9a9a9; stroke-width: 0.8"/>
      </g>
     </g>
     <g id="text_2">
      <!-- 2022-01 -->
      <g style="fill: #a9a9a9" transform="translate(198.075024 334.998438) scale(0.1 -0.1)">
       <use xlink:href="#DejaVuSans-32"/>
       <use xlink:href="#DejaVuSans-30" x="63.623047"/>
       <use xlink:href="#DejaVuSans-32" x="127.246094"/>
       <use xlink:href="#DejaVuSans-32" x="190.869141"/>
       <use xlink:href="#DejaVuSans-2d" x="254.492188"/>
       <use xlink:href="#DejaVuSans-30" x="290.576172"/>
       <use xlink:href="#DejaVuSans-31" x="354.199219"/>
      </g>
     </g>
    </g>
    <g id="xtick_3">
     <g id="line2d_5">
      <path d="M 278.98884 320.4 
L 278.98884 43.2 
" clip-path="url(#p5705ef0687)" style="fill: none; stroke-dasharray: 5.12,1.28,0.8,1.28; stroke-dashoffset: 0; stroke: #b0b0b0; stroke-width: 0.8"/>
     </g>
     <g id="line2d_6">
      <g>
       <use xlink:href="#m6cc9518cf2" x="278.98884" y="320.4" style="fill: #a9a9a9; stroke: #a9a9a9; stroke-width: 0.8"/>
      </g>
     </g>
     <g id="text_3">
      <!-- 2022-05 -->
      <g style="fill: #a9a9a9" transform="translate(258.097434 334.998438) scale(0.1 -0.1)">
       <defs>
        <path id="DejaVuSans-35" d="M 691 4666 
L 3169 4666 
L 3169 4134 
L 1269 4134 
L 1269 2991 
Q 1406 3038 1543 3061 
Q 1681 3084 1819 3084 
Q 2600 3084 3056 2656 
Q 3513 2228 3513 1497 
Q 3513 744 3044 326 
Q 2575 -91 1722 -91 
Q 1428 -91 1123 -41 
Q 819 9 494 109 
L 494 744 
Q 775 591 1075 516 
Q 1375 441 1709 441 
Q 2250 441 2565 725 
Q 2881 1009 2881 1497 
Q 2881 1984 2565 2268 
Q 2250 2553 1709 2553 
Q 1456 2553 1204 2497 
Q 953 2441 691 2322 
L 691 4666 
z
" transform="scale(0.015625)"/>
       </defs>
       <use xlink:href="#DejaVuSans-32"/>
       <use xlink:href="#DejaVuSans-30" x="63.623047"/>
       <use xlink:href="#DejaVuSans-32" x="127.246094"/>
       <use xlink:href="#DejaVuSans-32" x="190.869141"/>
       <use xlink:href="#DejaVuSans-2d" x="254.492188"/>
       <use xlink:href="#DejaVuSans-30" x="290.576172"/>
       <use xlink:href="#DejaVuSans-35" x="354.199219"/>
      </g>
     </g>
    </g>
    <g id="xtick_4">
     <g id="line2d_7">
      <path d="M 340.51181 320.4 
L 340.51181 43.2 
" clip-path="url(#p5705ef0687)" style="fill: none; stroke-dasharray: 5.12,1.28,0.8,1.28; stroke-dashoffset: 0; stroke: #b0b0b0; stroke-width: 0.8"/>
     </g>
     <g id="line2d_8">
      <g>
       <use xlink:href="#m6cc9518cf2" x="340.51181" y="320.4" style="fill: #a9a9a9; stroke: #a9a9a9; stroke-width: 0.8"/>
      </g>
     </g>
     <g id="text_4">
      <!-- 2022-09 -->
      <g style="fill: #a9a9a9" transform="translate(319.620404 334.998438) scale(0.1 -0.1)">
       <use xlink:href="#DejaVuSans-32"/>
       <use xlink:href="#DejaVuSans-30" x="63.623047"/>
       <use xlink:href="#DejaVuSans-32" x="127.246094"/>
       <use xlink:href="#DejaVuSans-32" x="190.869141"/>
       <use xlink:href="#DejaVuSans-2d" x="254.492188"/>
       <use xlink:href="#DejaVuSans-30" x="290.576172"/>
       <use xlink:href="#DejaVuSans-39" x="354.199219"/>
      </g>
     </g>
    </g>
    <g id="xtick_5">
     <g id="line2d_9">
      <path d="M 401.534593 320.4 
L 401.534593 43.2 
" clip-path="url(#p5705ef0687)" style="fill: none; stroke-dasharray: 5.12,1.28,0.8,1.28; stroke-dashoffset: 0; stroke: #b0b0b0; stroke-width: 0.8"/>
     </g>
     <g id="line2d_10">
      <g>
       <use xlink:href="#m6cc9518cf2" x="401.534593" y="320.4" style="fill: #a9a9a9; stroke: #a9a9a9; stroke-width: 0.8"/>
      </g>
     </g>
     <g id="text_5">
      <!-- 2023-01 -->
      <g style="fill: #a9a9a9" transform="translate(380.643187 334.998438) scale(0.1 -0.1)">
       <defs>
        <path id="DejaVuSans-33" d="M 2597 2516 
Q 3050 2419 3304 2112 
Q 3559 1806 3559 1356 
Q 3559 666 3084 287 
Q 2609 -91 1734 -91 
Q 1441 -91 1130 -33 
Q 819 25 488 141 
L 488 750 
Q 750 597 1062 519 
Q 1375 441 1716 441 
Q 2309 441 2620 675 
Q 2931 909 2931 1356 
Q 2931 1769 2642 2001 
Q 2353 2234 1838 2234 
L 1294 2234 
L 1294 2753 
L 1863 2753 
Q 2328 2753 2575 2939 
Q 2822 3125 2822 3475 
Q 2822 3834 2567 4026 
Q 2313 4219 1838 4219 
Q 1578 4219 1281 4162 
Q 984 4106 628 3988 
L 628 4550 
Q 988 4650 1302 4700 
Q 1616 4750 1894 4750 
Q 2613 4750 3031 4423 
Q 3450 4097 3450 3541 
Q 3450 3153 3228 2886 
Q 3006 2619 2597 2516 
z
" transform="scale(0.015625)"/>
       </defs>
       <use xlink:href="#DejaVuSans-32"/>
       <use xlink:href="#DejaVuSans-30" x="63.623047"/>
       <use xlink:href="#DejaVuSans-32" x="127.246094"/>
       <use xlink:href="#DejaVuSans-33" x="190.869141"/>
       <use xlink:href="#DejaVuSans-2d" x="254.492188"/>
       <use xlink:href="#DejaVuSans-30" x="290.576172"/>
       <use xlink:href="#DejaVuSans-31" x="354.199219"/>
      </g>
     </g>
    </g>
    <g id="xtick_6">
     <g id="line2d_11">
      <path d="M 461.557003 320.4 
L 461.557003 43.2 
" clip-path="url(#p5705ef0687)" style="fill: none; stroke-dasharray: 5.12,1.28,0.8,1.28; stroke-dashoffset: 0; stroke: #b0b0b0; stroke-width: 0.8"/>
     </g>
     <g id="line2d_12">
      <g>
       <use xlink:href="#m6cc9518cf2" x="461.557003" y="320.4" style="fill: #a9a9a9; stroke: #a9a9a9; stroke-width: 0.8"/>
      </g>
     </g>
     <g id="text_6">
      <!-- 2023-05 -->
      <g style="fill: #a9a9a9" transform="translate(440.665597 334.998438) scale(0.1 -0.1)">
       <use xlink:href="#DejaVuSans-32"/>
       <use xlink:href="#DejaVuSans-30" x="63.623047"/>
       <use xlink:href="#DejaVuSans-32" x="127.246094"/>
       <use xlink:href="#DejaVuSans-33" x="190.869141"/>
       <use xlink:href="#DejaVuSans-2d" x="254.492188"/>
       <use xlink:href="#DejaVuSans-30" x="290.576172"/>
       <use xlink:href="#DejaVuSans-35" x="354.199219"/>
      </g>
     </g>
    </g>
    <g id="xtick_7">
     <g id="line2d_13">
      <path d="M 523.079973 320.4 
L 523.079973 43.2 
" clip-path="url(#p5705ef0687)" style="fill: none; stroke-dasharray: 5.12,1.28,0.8,1.28; stroke-dashoffset: 0; stroke: #b0b0b0; stroke-width: 0.8"/>
     </g>
     <g id="line2d_14">
      <g>
       <use xlink:href="#m6cc9518cf2" x="523.079973" y="320.4" style="fill: #a9a9a9; stroke: #a9a9a9; stroke-width: 0.8"/>
      </g>
     </g>
     <g id="text_7">
      <!-- 2023-09 -->
      <g style="fill: #a9a9a9" transform="translate(502.188567 334.998438) scale(0.1 -0.1)">
       <use xlink:href="#DejaVuSans-32"/>
       <use xlink:href="#DejaVuSans-30" x="63.623047"/>
       <use xlink:href="#DejaVuSans-32" x="127.246094"/>
       <use xlink:href="#DejaVuSans-33" x="190.869141"/>
       <use xlink:href="#DejaVuSans-2d" x="254.492188"/>
       <use xlink:href="#DejaVuSans-30" x="290.576172"/>
       <use xlink:href="#DejaVuSans-39" x="354.199219"/>
      </g>
     </g>
    </g>
    <g id="xtick_8">
     <g id="line2d_15">
      <path d="M 584.102756 320.4 
L 584.102756 43.2 
" clip-path="url(#p5705ef0687)" style="fill: none; stroke-dasharray: 5.12,1.28,0.8,1.28; stroke-dashoffset: 0; stroke: #b0b0b0; stroke-width: 0.8"/>
     </g>
     <g id="line2d_16">
      <g>
       <use xlink:href="#m6cc9518cf2" x="584.102756" y="320.4" style="fill: #a9a9a9; stroke: #a9a9a9; stroke-width: 0.8"/>
      </g>
     </g>
     <g id="text_8">
      <!-- 2024-01 -->
      <g style="fill: #a9a9a9" transform="translate(563.21135 334.998438) scale(0.1 -0.1)">
       <defs>
        <path id="DejaVuSans-34" d="M 2419 4116 
L 825 1625 
L 2419 1625 
L 2419 4116 
z
M 2253 4666 
L 3047 4666 
L 3047 1625 
L 3713 1625 
L 3713 1100 
L 3047 1100 
L 3047 0 
L 2419 0 
L 2419 1100 
L 313 1100 
L 313 1709 
L 2253 4666 
z
" transform="scale(0.015625)"/>
       </defs>
       <use xlink:href="#DejaVuSans-32"/>
       <use xlink:href="#DejaVuSans-30" x="63.623047"/>
       <use xlink:href="#DejaVuSans-32" x="127.246094"/>
       <use xlink:href="#DejaVuSans-34" x="190.869141"/>
       <use xlink:href="#DejaVuSans-2d" x="254.492188"/>
       <use xlink:href="#DejaVuSans-30" x="290.576172"/>
       <use xlink:href="#DejaVuSans-31" x="354.199219"/>
      </g>
     </g>
    </g>
    <g id="xtick_9">
     <g id="line2d_17">
      <path d="M 644.625353 320.4 
L 644.625353 43.2 
" clip-path="url(#p5705ef0687)" style="fill: none; stroke-dasharray: 5.12,1.28,0.8,1.28; stroke-dashoffset: 0; stroke: #b0b0b0; stroke-width: 0.8"/>
     </g>
     <g id="line2d_18">
      <g>
       <use xlink:href="#m6cc9518cf2" x="644.625353" y="320.4" style="fill: #a9a9a9; stroke: #a9a9a9; stroke-width: 0.8"/>
      </g>
     </g>
     <g id="text_9">
      <!-- 2024-05 -->
      <g style="fill: #a9a9a9" transform="translate(623.733947 334.998438) scale(0.1 -0.1)">
       <use xlink:href="#DejaVuSans-32"/>
       <use xlink:href="#DejaVuSans-30" x="63.623047"/>
       <use xlink:href="#DejaVuSans-32" x="127.246094"/>
       <use xlink:href="#DejaVuSans-34" x="190.869141"/>
       <use xlink:href="#DejaVuSans-2d" x="254.492188"/>
       <use xlink:href="#DejaVuSans-30" x="290.576172"/>
       <use xlink:href="#DejaVuSans-35" x="354.199219"/>
      </g>
     </g>
    </g>
    <g id="xtick_10">
     <g id="line2d_19">
      <path d="M 706.148323 320.4 
L 706.148323 43.2 
" clip-path="url(#p5705ef0687)" style="fill: none; stroke-dasharray: 5.12,1.28,0.8,1.28; stroke-dashoffset: 0; stroke: #b0b0b0; stroke-width: 0.8"/>
     </g>
     <g id="line2d_20">
      <g>
       <use xlink:href="#m6cc9518cf2" x="706.148323" y="320.4" style="fill: #a9a9a9; stroke: #a9a9a9; stroke-width: 0.8"/>
      </g>
     </g>
     <g id="text_10">
      <!-- 2024-09 -->
      <g style="fill: #a9a9a9" transform="translate(685.256917 334.998438) scale(0.1 -0.1)">
       <use xlink:href="#DejaVuSans-32"/>
       <use xlink:href="#DejaVuSans-30" x="63.623047"/>
       <use xlink:href="#DejaVuSans-32" x="127.246094"/>
       <use xlink:href="#DejaVuSans-34" x="190.869141"/>
       <use xlink:href="#DejaVuSans-2d" x="254.492188"/>
       <use xlink:href="#DejaVuSans-30" x="290.576172"/>
       <use xlink:href="#DejaVuSans-39" x="354.199219"/>
      </g>
     </g>
    </g>
    <g id="xtick_11">
     <g id="line2d_21">
      <path d="M 767.171106 320.4 
L 767.171106 43.2 
" clip-path="url(#p5705ef0687)" style="fill: none; stroke-dasharray: 5.12,1.28,0.8,1.28; stroke-dashoffset: 0; stroke: #b0b0b0; stroke-width: 0.8"/>
     </g>
     <g id="line2d_22">
      <g>
       <use xlink:href="#m6cc9518cf2" x="767.171106" y="320.4" style="fill: #a9a9a9; stroke: #a9a9a9; stroke-width: 0.8"/>
      </g>
     </g>
     <g id="text_11">
      <!-- 2025-01 -->
      <g style="fill: #a9a9a9" transform="translate(746.2797 334.998438) scale(0.1 -0.1)">
       <use xlink:href="#DejaVuSans-32"/>
       <use xlink:href="#DejaVuSans-30" x="63.623047"/>
       <use xlink:href="#DejaVuSans-32" x="127.246094"/>
       <use xlink:href="#DejaVuSans-35" x="190.869141"/>
       <use xlink:href="#DejaVuSans-2d" x="254.492188"/>
       <use xlink:href="#DejaVuSans-30" x="290.576172"/>
       <use xlink:href="#DejaVuSans-31" x="354.199219"/>
      </g>
     </g>
    </g>
   </g>
   <g id="matplotlib.axis_2">
    <g id="ytick_1">
     <g id="line2d_23">
      <path d="M 108 307.836052 
L 777.6 307.836052 
" clip-path="url(#p5705ef0687)" style="fill: none; stroke-dasharray: 5.12,1.28,0.8,1.28; stroke-dashoffset: 0; stroke: #b0b0b0; stroke-width: 0.8"/>
     </g>
     <g id="line2d_24">
      <defs>
       <path id="m04ac7f8003" d="M 0 0 
L -3.5 0 
" style="stroke: #a9a9a9; stroke-width: 0.8"/>
      </defs>
      <g>
       <use xlink:href="#m04ac7f8003" x="108" y="307.836052" style="fill: #a9a9a9; stroke: #a9a9a9; stroke-width: 0.8"/>
      </g>
     </g>
     <g id="text_12">
      <!-- 0 -->
      <g style="fill: #a9a9a9" transform="translate(94.6375 311.63527) scale(0.1 -0.1)">
       <use xlink:href="#DejaVuSans-30"/>
      </g>
     </g>
    </g>
    <g id="ytick_2">
     <g id="line2d_25">
      <path d="M 108 278.99485 
L 777.6 278.99485 
" clip-path="url(#p5705ef0687)" style="fill: none; stroke-dasharray: 5.12,1.28,0.8,1.28; stroke-dashoffset: 0; stroke: #b0b0b0; stroke-width: 0.8"/>
     </g>
     <g id="line2d_26">
      <g>
       <use xlink:href="#m04ac7f8003" x="108" y="278.99485" style="fill: #a9a9a9; stroke: #a9a9a9; stroke-width: 0.8"/>
      </g>
     </g>
     <g id="text_13">
      <!-- 800 -->
      <g style="fill: #a9a9a9" transform="translate(81.9125 282.794069) scale(0.1 -0.1)">
       <defs>
        <path id="DejaVuSans-38" d="M 2034 2216 
Q 1584 2216 1326 1975 
Q 1069 1734 1069 1313 
Q 1069 891 1326 650 
Q 1584 409 2034 409 
Q 2484 409 2743 651 
Q 3003 894 3003 1313 
Q 3003 1734 2745 1975 
Q 2488 2216 2034 2216 
z
M 1403 2484 
Q 997 2584 770 2862 
Q 544 3141 544 3541 
Q 544 4100 942 4425 
Q 1341 4750 2034 4750 
Q 2731 4750 3128 4425 
Q 3525 4100 3525 3541 
Q 3525 3141 3298 2862 
Q 3072 2584 2669 2484 
Q 3125 2378 3379 2068 
Q 3634 1759 3634 1313 
Q 3634 634 3220 271 
Q 2806 -91 2034 -91 
Q 1263 -91 848 271 
Q 434 634 434 1313 
Q 434 1759 690 2068 
Q 947 2378 1403 2484 
z
M 1172 3481 
Q 1172 3119 1398 2916 
Q 1625 2713 2034 2713 
Q 2441 2713 2670 2916 
Q 2900 3119 2900 3481 
Q 2900 3844 2670 4047 
Q 2441 4250 2034 4250 
Q 1625 4250 1398 4047 
Q 1172 3844 1172 3481 
z
" transform="scale(0.015625)"/>
       </defs>
       <use xlink:href="#DejaVuSans-38"/>
       <use xlink:href="#DejaVuSans-30" x="63.623047"/>
       <use xlink:href="#DejaVuSans-30" x="127.246094"/>
      </g>
     </g>
    </g>
    <g id="ytick_3">
     <g id="line2d_27">
      <path d="M 108 250.153648 
L 777.6 250.153648 
" clip-path="url(#p5705ef0687)" style="fill: none; stroke-dasharray: 5.12,1.28,0.8,1.28; stroke-dashoffset: 0; stroke: #b0b0b0; stroke-width: 0.8"/>
     </g>
     <g id="line2d_28">
      <g>
       <use xlink:href="#m04ac7f8003" x="108" y="250.153648" style="fill: #a9a9a9; stroke: #a9a9a9; stroke-width: 0.8"/>
      </g>
     </g>
     <g id="text_14">
      <!-- 1600 -->
      <g style="fill: #a9a9a9" transform="translate(75.55 253.952867) scale(0.1 -0.1)">
       <defs>
        <path id="DejaVuSans-36" d="M 2113 2584 
Q 1688 2584 1439 2293 
Q 1191 2003 1191 1497 
Q 1191 994 1439 701 
Q 1688 409 2113 409 
Q 2538 409 2786 701 
Q 3034 994 3034 1497 
Q 3034 2003 2786 2293 
Q 2538 2584 2113 2584 
z
M 3366 4563 
L 3366 3988 
Q 3128 4100 2886 4159 
Q 2644 4219 2406 4219 
Q 1781 4219 1451 3797 
Q 1122 3375 1075 2522 
Q 1259 2794 1537 2939 
Q 1816 3084 2150 3084 
Q 2853 3084 3261 2657 
Q 3669 2231 3669 1497 
Q 3669 778 3244 343 
Q 2819 -91 2113 -91 
Q 1303 -91 875 529 
Q 447 1150 447 2328 
Q 447 3434 972 4092 
Q 1497 4750 2381 4750 
Q 2619 4750 2861 4703 
Q 3103 4656 3366 4563 
z
" transform="scale(0.015625)"/>
       </defs>
       <use xlink:href="#DejaVuSans-31"/>
       <use xlink:href="#DejaVuSans-36" x="63.623047"/>
       <use xlink:href="#DejaVuSans-30" x="127.246094"/>
       <use xlink:href="#DejaVuSans-30" x="190.869141"/>
      </g>
     </g>
    </g>
    <g id="ytick_4">
     <g id="line2d_29">
      <path d="M 108 221.312446 
L 777.6 221.312446 
" clip-path="url(#p5705ef0687)" style="fill: none; stroke-dasharray: 5.12,1.28,0.8,1.28; stroke-dashoffset: 0; stroke: #b0b0b0; stroke-width: 0.8"/>
     </g>
     <g id="line2d_30">
      <g>
       <use xlink:href="#m04ac7f8003" x="108" y="221.312446" style="fill: #a9a9a9; stroke: #a9a9a9; stroke-width: 0.8"/>
      </g>
     </g>
     <g id="text_15">
      <!-- 2400 -->
      <g style="fill: #a9a9a9" transform="translate(75.55 225.111665) scale(0.1 -0.1)">
       <use xlink:href="#DejaVuSans-32"/>
       <use xlink:href="#DejaVuSans-34" x="63.623047"/>
       <use xlink:href="#DejaVuSans-30" x="127.246094"/>
       <use xlink:href="#DejaVuSans-30" x="190.869141"/>
      </g>
     </g>
    </g>
    <g id="ytick_5">
     <g id="line2d_31">
      <path d="M 108 192.471245 
L 777.6 192.471245 
" clip-path="url(#p5705ef0687)" style="fill: none; stroke-dasharray: 5.12,1.28,0.8,1.28; stroke-dashoffset: 0; stroke: #b0b0b0; stroke-width: 0.8"/>
     </g>
     <g id="line2d_32">
      <g>
       <use xlink:href="#m04ac7f8003" x="108" y="192.471245" style="fill: #a9a9a9; stroke: #a9a9a9; stroke-width: 0.8"/>
      </g>
     </g>
     <g id="text_16">
      <!-- 3200 -->
      <g style="fill: #a9a9a9" transform="translate(75.55 196.270463) scale(0.1 -0.1)">
       <use xlink:href="#DejaVuSans-33"/>
       <use xlink:href="#DejaVuSans-32" x="63.623047"/>
       <use xlink:href="#DejaVuSans-30" x="127.246094"/>
       <use xlink:href="#DejaVuSans-30" x="190.869141"/>
      </g>
     </g>
    </g>
    <g id="ytick_6">
     <g id="line2d_33">
      <path d="M 108 163.630043 
L 777.6 163.630043 
" clip-path="url(#p5705ef0687)" style="fill: none; stroke-dasharray: 5.12,1.28,0.8,1.28; stroke-dashoffset: 0; stroke: #b0b0b0; stroke-width: 0.8"/>
     </g>
     <g id="line2d_34">
      <g>
       <use xlink:href="#m04ac7f8003" x="108" y="163.630043" style="fill: #a9a9a9; stroke: #a9a9a9; stroke-width: 0.8"/>
      </g>
     </g>
     <g id="text_17">
      <!-- 4000 -->
      <g style="fill: #a9a9a9" transform="translate(75.55 167.429262) scale(0.1 -0.1)">
       <use xlink:href="#DejaVuSans-34"/>
       <use xlink:href="#DejaVuSans-30" x="63.623047"/>
       <use xlink:href="#DejaVuSans-30" x="127.246094"/>
       <use xlink:href="#DejaVuSans-30" x="190.869141"/>
      </g>
     </g>
    </g>
    <g id="ytick_7">
     <g id="line2d_35">
      <path d="M 108 134.788841 
L 777.6 134.788841 
" clip-path="url(#p5705ef0687)" style="fill: none; stroke-dasharray: 5.12,1.28,0.8,1.28; stroke-dashoffset: 0; stroke: #b0b0b0; stroke-width: 0.8"/>
     </g>
     <g id="line2d_36">
      <g>
       <use xlink:href="#m04ac7f8003" x="108" y="134.788841" style="fill: #a9a9a9; stroke: #a9a9a9; stroke-width: 0.8"/>
      </g>
     </g>
     <g id="text_18">
      <!-- 4800 -->
      <g style="fill: #a9a9a9" transform="translate(75.55 138.58806) scale(0.1 -0.1)">
       <use xlink:href="#DejaVuSans-34"/>
       <use xlink:href="#DejaVuSans-38" x="63.623047"/>
       <use xlink:href="#DejaVuSans-30" x="127.246094"/>
       <use xlink:href="#DejaVuSans-30" x="190.869141"/>
      </g>
     </g>
    </g>
    <g id="ytick_8">
     <g id="line2d_37">
      <path d="M 108 105.947639 
L 777.6 105.947639 
" clip-path="url(#p5705ef0687)" style="fill: none; stroke-dasharray: 5.12,1.28,0.8,1.28; stroke-dashoffset: 0; stroke: #b0b0b0; stroke-width: 0.8"/>
     </g>
     <g id="line2d_38">
      <g>
       <use xlink:href="#m04ac7f8003" x="108" y="105.947639" style="fill: #a9a9a9; stroke: #a9a9a9; stroke-width: 0.8"/>
      </g>
     </g>
     <g id="text_19">
      <!-- 5600 -->
      <g style="fill: #a9a9a9" transform="translate(75.55 109.746858) scale(0.1 -0.1)">
       <use xlink:href="#DejaVuSans-35"/>
       <use xlink:href="#DejaVuSans-36" x="63.623047"/>
       <use xlink:href="#DejaVuSans-30" x="127.246094"/>
       <use xlink:href="#DejaVuSans-30" x="190.869141"/>
      </g>
     </g>
    </g>
    <g id="ytick_9">
     <g id="line2d_39">
      <path d="M 108 77.106438 
L 777.6 77.106438 
" clip-path="url(#p5705ef0687)" style="fill: none; stroke-dasharray: 5.12,1.28,0.8,1.28; stroke-dashoffset: 0; stroke: #b0b0b0; stroke-width: 0.8"/>
     </g>
     <g id="line2d_40">
      <g>
       <use xlink:href="#m04ac7f8003" x="108" y="77.106438" style="fill: #a9a9a9; stroke: #a9a9a9; stroke-width: 0.8"/>
      </g>
     </g>
     <g id="text_20">
      <!-- 6400 -->
      <g style="fill: #a9a9a9" transform="translate(75.55 80.905657) scale(0.1 -0.1)">
       <use xlink:href="#DejaVuSans-36"/>
       <use xlink:href="#DejaVuSans-34" x="63.623047"/>
       <use xlink:href="#DejaVuSans-30" x="127.246094"/>
       <use xlink:href="#DejaVuSans-30" x="190.869141"/>
      </g>
     </g>
    </g>
    <g id="ytick_10">
     <g id="line2d_41">
      <path d="M 108 48.265236 
L 777.6 48.265236 
" clip-path="url(#p5705ef0687)" style="fill: none; stroke-dasharray: 5.12,1.28,0.8,1.28; stroke-dashoffset: 0; stroke: #b0b0b0; stroke-width: 0.8"/>
     </g>
     <g id="line2d_42">
      <g>
       <use xlink:href="#m04ac7f8003" x="108" y="48.265236" style="fill: #a9a9a9; stroke: #a9a9a9; stroke-width: 0.8"/>
      </g>
     </g>
     <g id="text_21">
      <!-- 7200 -->
      <g style="fill: #a9a9a9" transform="translate(75.55 52.064455) scale(0.1 -0.1)">
       <defs>
        <path id="DejaVuSans-37" d="M 525 4666 
L 3525 4666 
L 3525 4397 
L 1831 0 
L 1172 0 
L 2766 4134 
L 525 4134 
L 525 4666 
z
" transform="scale(0.015625)"/>
       </defs>
       <use xlink:href="#DejaVuSans-37"/>
       <use xlink:href="#DejaVuSans-32" x="63.623047"/>
       <use xlink:href="#DejaVuSans-30" x="127.246094"/>
       <use xlink:href="#DejaVuSans-30" x="190.869141"/>
      </g>
     </g>
    </g>
   </g>
   <g id="line2d_43">
    <path d="M 138.436364 307.727897 
L 141.437484 307.475536 
L 141.937671 307.259227 
L 143.938418 307.006867 
L 145.939165 306.6103 
L 146.939538 306.466094 
L 149.440472 306.249785 
L 150.440846 305.853219 
L 150.941032 305.204292 
L 151.441219 304.843777 
L 151.941406 303.72618 
L 152.441593 303.654077 
L 152.941779 303.257511 
L 153.942153 302.75279 
L 155.9429 301.166524 
L 157.943647 300.193133 
L 159.444207 299.508155 
L 159.944394 298.715021 
L 160.944767 297.993991 
L 161.444954 297.777682 
L 166.446822 297.056652 
L 166.947008 296.840343 
L 170.448316 296.551931 
L 172.449063 296.083262 
L 176.450557 295.542489 
L 176.950743 295.290129 
L 177.45093 295.218026 
L 178.451304 294.893562 
L 181.952611 294.316738 
L 182.952984 294.028326 
L 187.454665 293.271245 
L 188.455038 293.054936 
L 189.455412 293.018884 
L 191.456159 292.550215 
L 191.956346 291.865236 
L 193.456906 291.288412 
L 194.957466 290.891845 
L 195.457653 290.639485 
L 196.458026 290.459227 
L 198.458773 289.882403 
L 199.459147 289.8103 
L 200.45952 289.55794 
L 202.460267 289.053219 
L 202.960454 289.017167 
L 203.960828 288.548498 
L 204.461014 288.476395 
L 204.961201 288.224034 
L 210.463255 287.322747 
L 212.464002 286.745923 
L 212.964189 286.421459 
L 215.465123 285.592275 
L 216.465496 284.907296 
L 217.966057 284.618884 
L 230.970912 280.977682 
L 231.471099 280.977682 
L 231.971286 280.761373 
L 232.971659 280.653219 
L 233.471846 280.472961 
L 235.472593 280.364807 
L 236.472966 280.184549 
L 237.47334 279.679828 
L 238.9739 279.139056 
L 239.474087 278.814592 
L 240.47446 278.381974 
L 240.974647 278.129614 
L 241.975021 277.80515 
L 242.475207 277.660944 
L 243.475581 277.048069 
L 243.975768 276.507296 
L 244.976141 274.993133 
L 245.476328 274.848927 
L 245.976515 274.848927 
L 247.477075 273.983691 
L 247.977262 273.73133 
L 248.477448 273.623176 
L 248.977635 273.154506 
L 249.978009 272.75794 
L 250.978382 272.28927 
L 253.479316 269.116738 
L 256.480436 267.530472 
L 257.48081 266.737339 
L 257.980996 266.412876 
L 258.481183 265.655794 
L 258.98137 264.538197 
L 259.481557 263.781116 
L 259.981743 263.384549 
L 260.48193 263.16824 
L 263.983237 260.212017 
L 264.983611 259.022318 
L 265.983984 258.301288 
L 268.484918 256.787124 
L 269.485292 256.246352 
L 271.486039 255.200858 
L 273.986972 252.965665 
L 274.987346 252.569099 
L 275.987719 251.88412 
L 276.487906 251.595708 
L 276.988093 251.523605 
L 278.488653 250.694421 
L 278.98884 250.153648 
L 281.489774 248.819742 
L 281.98996 248.639485 
L 283.490521 247.630043 
L 290.993322 244.998283 
L 291.993695 244.096996 
L 292.994069 243.628326 
L 293.994442 243.087554 
L 294.494629 242.799142 
L 295.495003 242.51073 
L 295.995189 242.186266 
L 296.495376 242.04206 
L 297.995936 241.06867 
L 300.49687 240.491845 
L 301.99743 239.626609 
L 303.497991 239.302146 
L 303.998177 239.15794 
L 305.498738 238.040343 
L 307.499485 237.499571 
L 307.999671 237.103004 
L 311.000792 236.093562 
L 312.001165 235.913305 
L 313.001539 235.516738 
L 316.502846 234.254936 
L 317.50322 234.11073 
L 319.00378 233.606009 
L 321.504714 232.416309 
L 323.505461 231.334764 
L 327.506955 229.712446 
L 328.007141 229.640343 
L 329.007515 229.027468 
L 329.507702 228.955365 
L 331.508448 228.12618 
L 333.509195 227.837768 
L 334.509569 227.333047 
L 335.009756 226.900429 
L 335.509942 225.999142 
L 337.510689 225.458369 
L 339.01125 224.701288 
L 339.511436 224.593133 
L 343.51293 222.682403 
L 345.013491 222.393991 
L 346.013864 221.88927 
L 346.514051 221.672961 
L 347.014238 221.600858 
L 349.014985 220.699571 
L 350.515545 219.762232 
L 352.016105 219.47382 
L 354.517039 218.860944 
L 355.017226 218.464378 
L 356.517786 217.923605 
L 358.518533 217.130472 
L 359.01872 216.769957 
L 359.518906 216.5897 
L 360.51928 216.048927 
L 363.020214 215.219742 
L 364.520774 214.030043 
L 365.020961 213.921888 
L 366.021334 213.128755 
L 366.521521 213.056652 
L 367.021708 212.263519 
L 367.521894 212.04721 
L 368.022081 211.650644 
L 368.522268 211.578541 
L 369.522641 210.965665 
L 370.523015 210.641202 
L 371.023202 210.280687 
L 371.523388 210.100429 
L 373.023949 209.054936 
L 375.024696 208.009442 
L 375.524882 207.937339 
L 377.025443 207.180258 
L 377.525629 206.351073 
L 378.526003 205.630043 
L 379.02619 205.521888 
L 380.026563 204.909013 
L 380.52675 204.800858 
L 381.527123 204.296137 
L 383.52787 203.322747 
L 384.028057 202.962232 
L 385.028431 201.988841 
L 386.028804 201.375966 
L 386.528991 201.051502 
L 387.029178 200.51073 
L 389.029925 199.140773 
L 389.530111 198.563948 
L 390.030298 198.167382 
L 391.030672 197.806867 
L 392.031045 197.121888 
L 393.531605 196.364807 
L 394.031792 196.292704 
L 395.532352 195.499571 
L 396.532726 194.886695 
L 401.534593 193.08412 
L 402.03478 192.687554 
L 404.035527 191.930472 
L 404.535714 191.786266 
L 405.035901 191.3897 
L 407.536834 190.019742 
L 408.537208 188.03691 
L 409.537581 186.883262 
L 410.537955 186.306438 
L 412.038515 185.693562 
L 412.538702 185.621459 
L 413.038888 185.333047 
L 415.539822 184.539914 
L 416.040009 184.323605 
L 417.040382 183.638627 
L 418.540943 182.9897 
L 419.541316 182.448927 
L 420.041503 182.088412 
L 420.54169 181.872103 
L 421.041876 181.511588 
L 421.542063 180.970815 
L 422.542437 180.430043 
L 425.04337 179.096137 
L 428.044491 177.618026 
L 429.545051 177.185408 
L 431.045611 176.608584 
L 431.545798 176.248069 
L 432.546172 175.959657 
L 433.546545 175.56309 
L 434.046732 175.166524 
L 436.047479 174.481545 
L 437.047852 173.760515 
L 438.048226 173.327897 
L 439.048599 172.534764 
L 440.048973 172.174249 
L 440.54916 171.741631 
L 441.049346 171.669528 
L 442.04972 170.912446 
L 443.050093 170.407725 
L 443.55028 170.191416 
L 444.050467 169.686695 
L 447.551774 168.316738 
L 448.552148 167.88412 
L 450.052708 167.415451 
L 451.053081 167.271245 
L 451.553268 167.054936 
L 452.053455 166.982833 
L 453.053828 166.550215 
L 453.554015 166.514163 
L 455.554762 165.757082 
L 457.055322 164.711588 
L 457.555509 164.53133 
L 458.555883 163.990558 
L 459.056069 163.846352 
L 462.05719 162.187983 
L 462.557377 162.079828 
L 464.057937 161.214592 
L 465.558497 160.709871 
L 466.558871 160.385408 
L 468.559618 159.736481 
L 469.559991 159.412017 
L 471.560738 159.015451 
L 472.060925 158.799142 
L 472.561112 158.727039 
L 473.561485 158.294421 
L 474.061672 158.222318 
L 474.561859 157.969957 
L 475.562232 157.7897 
L 477.062792 157.248927 
L 478.063166 157.140773 
L 479.563726 156.816309 
L 482.06466 156.383691 
L 495.069515 152.634335 
L 495.569702 152.129614 
L 496.570075 151.733047 
L 499.571196 150.651502 
L 500.071383 150.327039 
L 500.571569 150.218884 
L 501.071756 149.930472 
L 502.572316 149.497854 
L 503.57269 149.245494 
L 504.072877 148.92103 
L 504.573063 148.812876 
L 505.07325 148.380258 
L 506.57381 148.091845 
L 507.574184 147.623176 
L 508.074371 147.046352 
L 510.075118 146.577682 
L 513.576425 145.856652 
L 514.076612 145.856652 
L 514.576798 145.640343 
L 516.577545 145.279828 
L 517.077732 145.063519 
L 519.078479 144.703004 
L 520.078853 144.270386 
L 521.079226 144.090129 
L 523.58016 143.477253 
L 525.580907 142.864378 
L 526.081094 142.756223 
L 526.58128 142.503863 
L 527.581654 142.251502 
L 528.081841 141.96309 
L 529.582401 141.458369 
L 530.082588 141.133906 
L 531.082961 140.845494 
L 532.083335 140.52103 
L 533.083708 140.124464 
L 534.584268 139.475536 
L 536.585015 139.223176 
L 540.586509 137.817167 
L 541.086696 137.456652 
L 541.586883 137.348498 
L 542.08707 137.096137 
L 542.587256 137.060086 
L 548.089311 135.149356 
L 550.590244 134.500429 
L 551.590618 134.03176 
L 553.091178 133.707296 
L 553.591365 133.31073 
L 554.091552 133.058369 
L 554.591738 132.445494 
L 555.091925 132.084979 
L 556.092298 131.796567 
L 556.592485 131.4 
L 559.593606 130.282403 
L 560.093792 129.95794 
L 561.094166 129.669528 
L 561.594353 129.345064 
L 564.095286 128.551931 
L 565.595847 127.686695 
L 566.096033 127.578541 
L 568.596967 126.244635 
L 570.097527 125.595708 
L 570.597714 125.235193 
L 571.598088 124.91073 
L 572.598461 124.333906 
L 573.098648 124.153648 
L 573.598835 123.793133 
L 580.101262 121.521888 
L 580.601449 121.413734 
L 581.101636 121.08927 
L 583.102383 120.692704 
L 584.102756 120.296137 
L 584.602943 120.007725 
L 585.10313 119.863519 
L 587.103877 118.818026 
L 587.604064 118.745923 
L 589.104624 117.916738 
L 590.605184 117.412017 
L 594.106491 116.006009 
L 594.606678 115.861803 
L 595.106865 115.537339 
L 596.107238 115.429185 
L 596.607425 115.104721 
L 597.607799 114.924464 
L 598.608172 114.455794 
L 599.108359 114.239485 
L 599.608546 114.167382 
L 602.109479 113.193991 
L 603.61004 112.797425 
L 604.610413 112.545064 
L 606.110973 112.112446 
L 607.111347 111.71588 
L 609.112094 110.634335 
L 610.112467 110.237768 
L 610.612654 109.913305 
L 611.613028 109.696996 
L 612.113214 109.408584 
L 612.613401 109.300429 
L 614.113961 108.471245 
L 615.114335 108.074678 
L 617.115082 107.317597 
L 619.616016 106.488412 
L 620.616389 105.983691 
L 623.117323 105.154506 
L 624.617883 104.613734 
L 625.11807 104.469528 
L 626.118443 103.928755 
L 628.11919 103.027468 
L 633.121058 101.116738 
L 633.621244 100.792275 
L 635.621991 100.107296 
L 636.122178 100.107296 
L 637.122552 99.674678 
L 638.122925 98.773391 
L 638.623112 98.340773 
L 640.123672 97.619742 
L 640.623859 97.511588 
L 641.124046 97.259227 
L 641.624232 97.187124 
L 642.124419 96.826609 
L 642.624606 96.718455 
L 643.624979 96.105579 
L 645.12554 95.348498 
L 646.125913 94.951931 
L 646.6261 94.699571 
L 648.12666 94.375107 
L 650.627594 93.545923 
L 651.627967 93.221459 
L 653.128528 92.464378 
L 654.128901 91.995708 
L 655.129275 91.743348 
L 656.629835 91.058369 
L 661.131516 89.4 
L 662.632076 88.498712 
L 663.132263 88.390558 
L 664.132636 87.885837 
L 665.13301 87.525322 
L 665.633196 87.092704 
L 666.63357 86.696137 
L 668.13413 86.083262 
L 668.634317 85.686695 
L 669.134504 85.650644 
L 670.134877 85.362232 
L 671.135251 85.037768 
L 671.635437 84.785408 
L 672.135624 84.713305 
L 673.636184 84.172532 
L 675.136745 83.63176 
L 676.137118 83.235193 
L 676.637305 82.838627 
L 678.137865 82.44206 
L 678.638052 82.153648 
L 679.638425 81.901288 
L 681.138986 81.072103 
L 681.639172 81.036052 
L 683.139733 80.567382 
L 684.140106 80.495279 
L 685.14048 80.098712 
L 688.1416 79.233476 
L 689.141974 79.197425 
L 693.143468 77.935622 
L 694.143841 77.39485 
L 694.644028 76.962232 
L 696.144588 76.096996 
L 697.144962 75.48412 
L 699.145709 74.907296 
L 699.645895 74.618884 
L 700.146082 74.51073 
L 700.646269 74.114163 
L 703.647389 72.888412 
L 705.648136 72.347639 
L 706.64851 71.915021 
L 707.148696 71.662661 
L 708.14907 71.374249 
L 708.649257 71.049785 
L 709.64963 70.869528 
L 712.150564 69.71588 
L 712.650751 69.427468 
L 714.151311 69.066953 
L 714.651498 68.742489 
L 715.151684 68.562232 
L 715.651871 68.129614 
L 716.152058 68.057511 
L 718.652992 67.08412 
L 720.153552 66.723605 
L 720.653739 66.651502 
L 721.153925 66.435193 
L 721.654112 66.399142 
L 722.654486 66.074678 
L 723.154672 66.038627 
L 724.655233 65.461803 
L 726.65598 64.884979 
L 727.656353 64.127897 
L 729.6571 63.046352 
L 731.15766 62.541631 
L 734.158781 61.207725 
L 735.159154 60.666953 
L 735.659341 60.414592 
L 736.159528 59.945923 
L 738.660462 59.224893 
L 739.660835 58.68412 
L 741.661582 57.96309 
L 742.161769 57.494421 
L 744.162516 56.953648 
L 744.662703 56.593133 
L 747.163636 55.8 
L 747.163636 55.8 
" clip-path="url(#p5705ef0687)" style="fill: none; stroke: #1f77b4; stroke-width: 1.5; stroke-linecap: square"/>
   </g>
   <g id="line2d_44">
    <path d="M 138.93655 307.8 
L 143.438231 307.691845 
L 147.439725 307.511588 
L 149.440472 307.511588 
L 149.940659 307.367382 
L 152.441593 307.259227 
L 155.442713 306.934764 
L 158.443834 306.826609 
L 159.444207 306.718455 
L 162.945514 306.574249 
L 166.446822 306.466094 
L 168.947755 306.393991 
L 175.450183 306.285837 
L 177.951117 306.213734 
L 181.452424 306.105579 
L 183.953358 306.033476 
L 189.455412 305.925322 
L 191.456159 305.745064 
L 193.456906 305.709013 
L 196.458026 305.600858 
L 198.458773 305.564807 
L 200.959707 305.492704 
L 202.960454 305.312446 
L 207.462135 305.204292 
L 208.462508 305.132189 
L 210.463255 305.024034 
L 213.464376 304.91588 
L 215.465123 304.807725 
L 224.468484 304.266953 
L 227.969792 304.158798 
L 229.470352 304.014592 
L 231.971286 303.906438 
L 236.973153 303.654077 
L 241.975021 303.581974 
L 243.975768 303.365665 
L 245.976515 303.257511 
L 251.478569 302.75279 
L 254.979876 302.356223 
L 256.480436 302.28412 
L 260.982117 301.743348 
L 263.483051 301.671245 
L 264.983611 301.527039 
L 266.484171 301.418884 
L 280.4894 300.373391 
L 281.489774 300.193133 
L 284.490894 300.084979 
L 292.493882 299.616309 
L 295.995189 299.508155 
L 297.995936 299.291845 
L 300.49687 299.183691 
L 303.497991 299.075536 
L 305.998924 298.967382 
L 307.999671 298.93133 
L 310.500605 298.859227 
L 311.500979 298.715021 
L 318.503593 298.606867 
L 319.503967 298.498712 
L 325.506208 298.390558 
L 330.007888 298.174249 
L 333.509195 298.066094 
L 335.509942 297.849785 
L 339.01125 297.741631 
L 340.011623 297.561373 
L 342.512557 297.48927 
L 347.514424 297.417167 
L 350.015358 297.164807 
L 353.016479 297.056652 
L 355.017226 296.876395 
L 360.019093 296.624034 
L 365.020961 296.51588 
L 369.522641 296.299571 
L 371.023202 296.263519 
L 372.023575 296.119313 
L 374.524509 296.011159 
L 375.524882 295.939056 
L 376.525256 295.866953 
L 377.525629 295.79485 
L 382.02731 295.722747 
L 383.52787 295.614592 
L 397.032913 294.749356 
L 399.533846 294.641202 
L 402.03478 294.569099 
L 409.037394 294.460944 
L 410.037768 294.316738 
L 417.040382 294.208584 
L 422.04225 293.956223 
L 423.042623 293.920172 
L 424.042997 293.812017 
L 426.543931 293.703863 
L 429.044864 293.63176 
L 431.545798 293.523605 
L 434.046732 293.451502 
L 438.548413 293.343348 
L 441.549533 293.235193 
L 448.552148 293.127039 
L 454.054202 292.838627 
L 456.054949 292.766524 
L 457.555509 292.658369 
L 464.558124 292.550215 
L 467.559244 292.44206 
L 476.562606 292.333906 
L 478.563353 292.297854 
L 484.565593 292.225751 
L 485.565967 292.153648 
L 492.568581 292.045494 
L 494.569328 292.009442 
L 507.574184 291.901288 
L 509.074744 291.757082 
L 531.583148 291.648927 
L 534.084082 291.576824 
L 547.088937 291.46867 
L 548.089311 291.396567 
L 550.590244 291.324464 
L 552.090805 291.180258 
L 555.091925 291.072103 
L 558.593232 290.927897 
L 563.094913 290.819742 
L 565.595847 290.747639 
L 569.097154 290.639485 
L 573.098648 290.459227 
L 575.599582 290.351073 
L 577.600329 290.315021 
L 582.102009 290.206867 
L 584.102756 290.170815 
L 590.605184 290.062661 
L 592.605931 290.026609 
L 595.106865 289.918455 
L 598.107985 289.8103 
L 601.609293 289.738197 
L 602.609666 289.666094 
L 614.614148 289.55794 
L 621.116576 289.197425 
L 623.61751 289.125322 
L 624.617883 289.017167 
L 625.618257 288.945064 
L 629.619751 288.83691 
L 632.620871 288.728755 
L 637.622738 288.620601 
L 640.123672 288.36824 
L 645.12554 288.260086 
L 646.125913 288.151931 
L 651.127781 288.043777 
L 653.628714 287.971674 
L 659.130769 287.935622 
L 660.131142 287.827468 
L 665.633196 287.719313 
L 666.63357 287.64721 
L 677.637678 287.539056 
L 680.638799 287.430901 
L 688.1416 287.322747 
L 690.142347 287.286695 
L 694.644028 287.214592 
L 695.644401 287.106438 
L 701.646642 286.998283 
L 704.647763 286.890129 
L 713.651124 286.781974 
L 715.151684 286.67382 
L 716.652245 286.565665 
L 718.152805 286.457511 
L 725.655606 286.349356 
L 729.156913 286.20515 
L 742.161769 286.096996 
L 746.66345 285.880687 
L 747.163636 285.880687 
L 747.163636 285.880687 
" clip-path="url(#p5705ef0687)" style="fill: none; stroke: #ff7f0e; stroke-width: 1.5; stroke-linecap: square"/>
   </g>
   <g id="patch_3">
    <path d="M 108 320.4 
L 108 43.2 
" style="fill: none; stroke: #a9a9a9; stroke-width: 0.8; stroke-linejoin: miter; stroke-linecap: square"/>
   </g>
   <g id="patch_4">
    <path d="M 777.6 320.4 
L 777.6 43.2 
" style="fill: none"/>
   </g>
   <g id="patch_5">
    <path d="M 108 320.4 
L 777.6 320.4 
" style="fill: none; stroke: #a9a9a9; stroke-width: 0.8; stroke-linejoin: miter; stroke-linecap: square"/>
   </g>
   <g id="patch_6">
    <path d="M 108 43.2 
L 777.6 43.2 
" style="fill: none"/>
   </g>
   <g id="text_22">
    <!-- get_subscribe history -->
    <g style="fill: #a9a9a9" transform="translate(378.6075 37.2) scale(0.12 -0.12)">
     <defs>
      <path id="DejaVuSans-67" d="M 2906 1791 
Q 2906 2416 2648 2759 
Q 2391 3103 1925 3103 
Q 1463 3103 1205 2759 
Q 947 2416 947 1791 
Q 947 1169 1205 825 
Q 1463 481 1925 481 
Q 2391 481 2648 825 
Q 2906 1169 2906 1791 
z
M 3481 434 
Q 3481 -459 3084 -895 
Q 2688 -1331 1869 -1331 
Q 1566 -1331 1297 -1286 
Q 1028 -1241 775 -1147 
L 775 -588 
Q 1028 -725 1275 -790 
Q 1522 -856 1778 -856 
Q 2344 -856 2625 -561 
Q 2906 -266 2906 331 
L 2906 616 
Q 2728 306 2450 153 
Q 2172 0 1784 0 
Q 1141 0 747 490 
Q 353 981 353 1791 
Q 353 2603 747 3093 
Q 1141 3584 1784 3584 
Q 2172 3584 2450 3431 
Q 2728 3278 2906 2969 
L 2906 3500 
L 3481 3500 
L 3481 434 
z
" transform="scale(0.015625)"/>
      <path id="DejaVuSans-65" d="M 3597 1894 
L 3597 1613 
L 953 1613 
Q 991 1019 1311 708 
Q 1631 397 2203 397 
Q 2534 397 2845 478 
Q 3156 559 3463 722 
L 3463 178 
Q 3153 47 2828 -22 
Q 2503 -91 2169 -91 
Q 1331 -91 842 396 
Q 353 884 353 1716 
Q 353 2575 817 3079 
Q 1281 3584 2069 3584 
Q 2775 3584 3186 3129 
Q 3597 2675 3597 1894 
z
M 3022 2063 
Q 3016 2534 2758 2815 
Q 2500 3097 2075 3097 
Q 1594 3097 1305 2825 
Q 1016 2553 972 2059 
L 3022 2063 
z
" transform="scale(0.015625)"/>
      <path id="DejaVuSans-74" d="M 1172 4494 
L 1172 3500 
L 2356 3500 
L 2356 3053 
L 1172 3053 
L 1172 1153 
Q 1172 725 1289 603 
Q 1406 481 1766 481 
L 2356 481 
L 2356 0 
L 1766 0 
Q 1100 0 847 248 
Q 594 497 594 1153 
L 594 3053 
L 172 3053 
L 172 3500 
L 594 3500 
L 594 4494 
L 1172 4494 
z
" transform="scale(0.015625)"/>
      <path id="DejaVuSans-5f" d="M 3263 -1063 
L 3263 -1509 
L -63 -1509 
L -63 -1063 
L 3263 -1063 
z
" transform="scale(0.015625)"/>
      <path id="DejaVuSans-73" d="M 2834 3397 
L 2834 2853 
Q 2591 2978 2328 3040 
Q 2066 3103 1784 3103 
Q 1356 3103 1142 2972 
Q 928 2841 928 2578 
Q 928 2378 1081 2264 
Q 1234 2150 1697 2047 
L 1894 2003 
Q 2506 1872 2764 1633 
Q 3022 1394 3022 966 
Q 3022 478 2636 193 
Q 2250 -91 1575 -91 
Q 1294 -91 989 -36 
Q 684 19 347 128 
L 347 722 
Q 666 556 975 473 
Q 1284 391 1588 391 
Q 1994 391 2212 530 
Q 2431 669 2431 922 
Q 2431 1156 2273 1281 
Q 2116 1406 1581 1522 
L 1381 1569 
Q 847 1681 609 1914 
Q 372 2147 372 2553 
Q 372 3047 722 3315 
Q 1072 3584 1716 3584 
Q 2034 3584 2315 3537 
Q 2597 3491 2834 3397 
z
" transform="scale(0.015625)"/>
      <path id="DejaVuSans-75" d="M 544 1381 
L 544 3500 
L 1119 3500 
L 1119 1403 
Q 1119 906 1312 657 
Q 1506 409 1894 409 
Q 2359 409 2629 706 
Q 2900 1003 2900 1516 
L 2900 3500 
L 3475 3500 
L 3475 0 
L 2900 0 
L 2900 538 
Q 2691 219 2414 64 
Q 2138 -91 1772 -91 
Q 1169 -91 856 284 
Q 544 659 544 1381 
z
M 1991 3584 
L 1991 3584 
z
" transform="scale(0.015625)"/>
      <path id="DejaVuSans-62" d="M 3116 1747 
Q 3116 2381 2855 2742 
Q 2594 3103 2138 3103 
Q 1681 3103 1420 2742 
Q 1159 2381 1159 1747 
Q 1159 1113 1420 752 
Q 1681 391 2138 391 
Q 2594 391 2855 752 
Q 3116 1113 3116 1747 
z
M 1159 2969 
Q 1341 3281 1617 3432 
Q 1894 3584 2278 3584 
Q 2916 3584 3314 3078 
Q 3713 2572 3713 1747 
Q 3713 922 3314 415 
Q 2916 -91 2278 -91 
Q 1894 -91 1617 61 
Q 1341 213 1159 525 
L 1159 0 
L 581 0 
L 581 4863 
L 1159 4863 
L 1159 2969 
z
" transform="scale(0.015625)"/>
      <path id="DejaVuSans-63" d="M 3122 3366 
L 3122 2828 
Q 2878 2963 2633 3030 
Q 2388 3097 2138 3097 
Q 1578 3097 1268 2742 
Q 959 2388 959 1747 
Q 959 1106 1268 751 
Q 1578 397 2138 397 
Q 2388 397 2633 464 
Q 2878 531 3122 666 
L 3122 134 
Q 2881 22 2623 -34 
Q 2366 -91 2075 -91 
Q 1284 -91 818 406 
Q 353 903 353 1747 
Q 353 2603 823 3093 
Q 1294 3584 2113 3584 
Q 2378 3584 2631 3529 
Q 2884 3475 3122 3366 
z
" transform="scale(0.015625)"/>
      <path id="DejaVuSans-72" d="M 2631 2963 
Q 2534 3019 2420 3045 
Q 2306 3072 2169 3072 
Q 1681 3072 1420 2755 
Q 1159 2438 1159 1844 
L 1159 0 
L 581 0 
L 581 3500 
L 1159 3500 
L 1159 2956 
Q 1341 3275 1631 3429 
Q 1922 3584 2338 3584 
Q 2397 3584 2469 3576 
Q 2541 3569 2628 3553 
L 2631 2963 
z
" transform="scale(0.015625)"/>
      <path id="DejaVuSans-69" d="M 603 3500 
L 1178 3500 
L 1178 0 
L 603 0 
L 603 3500 
z
M 603 4863 
L 1178 4863 
L 1178 4134 
L 603 4134 
L 603 4863 
z
" transform="scale(0.015625)"/>
      <path id="DejaVuSans-20" transform="scale(0.015625)"/>
      <path id="DejaVuSans-68" d="M 3513 2113 
L 3513 0 
L 2938 0 
L 2938 2094 
Q 2938 2591 2744 2837 
Q 2550 3084 2163 3084 
Q 1697 3084 1428 2787 
Q 1159 2491 1159 1978 
L 1159 0 
L 581 0 
L 581 4863 
L 1159 4863 
L 1159 2956 
Q 1366 3272 1645 3428 
Q 1925 3584 2291 3584 
Q 2894 3584 3203 3211 
Q 3513 2838 3513 2113 
z
" transform="scale(0.015625)"/>
      <path id="DejaVuSans-6f" d="M 1959 3097 
Q 1497 3097 1228 2736 
Q 959 2375 959 1747 
Q 959 1119 1226 758 
Q 1494 397 1959 397 
Q 2419 397 2687 759 
Q 2956 1122 2956 1747 
Q 2956 2369 2687 2733 
Q 2419 3097 1959 3097 
z
M 1959 3584 
Q 2709 3584 3137 3096 
Q 3566 2609 3566 1747 
Q 3566 888 3137 398 
Q 2709 -91 1959 -91 
Q 1206 -91 779 398 
Q 353 888 353 1747 
Q 353 2609 779 3096 
Q 1206 3584 1959 3584 
z
" transform="scale(0.015625)"/>
      <path id="DejaVuSans-79" d="M 2059 -325 
Q 1816 -950 1584 -1140 
Q 1353 -1331 966 -1331 
L 506 -1331 
L 506 -850 
L 844 -850 
Q 1081 -850 1212 -737 
Q 1344 -625 1503 -206 
L 1606 56 
L 191 3500 
L 800 3500 
L 1894 763 
L 2988 3500 
L 3597 3500 
L 2059 -325 
z
" transform="scale(0.015625)"/>
     </defs>
     <use xlink:href="#DejaVuSans-67"/>
     <use xlink:href="#DejaVuSans-65" x="63.476562"/>
     <use xlink:href="#DejaVuSans-74" x="125"/>
     <use xlink:href="#DejaVuSans-5f" x="164.208984"/>
     <use xlink:href="#DejaVuSans-73" x="214.208984"/>
     <use xlink:href="#DejaVuSans-75" x="266.308594"/>
     <use xlink:href="#DejaVuSans-62" x="329.6875"/>
     <use xlink:href="#DejaVuSans-73" x="393.164062"/>
     <use xlink:href="#DejaVuSans-63" x="445.263672"/>
     <use xlink:href="#DejaVuSans-72" x="500.244141"/>
     <use xlink:href="#DejaVuSans-69" x="541.357422"/>
     <use xlink:href="#DejaVuSans-62" x="569.140625"/>
     <use xlink:href="#DejaVuSans-65" x="632.617188"/>
     <use xlink:href="#DejaVuSans-20" x="694.140625"/>
     <use xlink:href="#DejaVuSans-68" x="725.927734"/>
     <use xlink:href="#DejaVuSans-69" x="789.306641"/>
     <use xlink:href="#DejaVuSans-73" x="817.089844"/>
     <use xlink:href="#DejaVuSans-74" x="869.189453"/>
     <use xlink:href="#DejaVuSans-6f" x="908.398438"/>
     <use xlink:href="#DejaVuSans-72" x="969.580078"/>
     <use xlink:href="#DejaVuSans-79" x="1010.693359"/>
    </g>
   </g>
   <g id="legend_1">
    <g id="line2d_45">
     <path d="M 815.08 328.498438 
L 825.08 328.498438 
L 835.08 328.498438 
" style="fill: none; stroke: #1f77b4; stroke-width: 1.5; stroke-linecap: square"/>
    </g>
    <g id="text_23">
     <!-- star -->
     <g style="fill: #a9a9a9" transform="translate(843.08 331.998438) scale(0.1 -0.1)">
      <defs>
       <path id="DejaVuSans-61" d="M 2194 1759 
Q 1497 1759 1228 1600 
Q 959 1441 959 1056 
Q 959 750 1161 570 
Q 1363 391 1709 391 
Q 2188 391 2477 730 
Q 2766 1069 2766 1631 
L 2766 1759 
L 2194 1759 
z
M 3341 1997 
L 3341 0 
L 2766 0 
L 2766 531 
Q 2569 213 2275 61 
Q 1981 -91 1556 -91 
Q 1019 -91 701 211 
Q 384 513 384 1019 
Q 384 1609 779 1909 
Q 1175 2209 1959 2209 
L 2766 2209 
L 2766 2266 
Q 2766 2663 2505 2880 
Q 2244 3097 1772 3097 
Q 1472 3097 1187 3025 
Q 903 2953 641 2809 
L 641 3341 
Q 956 3463 1253 3523 
Q 1550 3584 1831 3584 
Q 2591 3584 2966 3190 
Q 3341 2797 3341 1997 
z
" transform="scale(0.015625)"/>
      </defs>
      <use xlink:href="#DejaVuSans-73"/>
      <use xlink:href="#DejaVuSans-74" x="52.099609"/>
      <use xlink:href="#DejaVuSans-61" x="91.308594"/>
      <use xlink:href="#DejaVuSans-72" x="152.587891"/>
     </g>
    </g>
    <g id="line2d_46">
     <path d="M 815.08 343.176562 
L 825.08 343.176562 
L 835.08 343.176562 
" style="fill: none; stroke: #ff7f0e; stroke-width: 1.5; stroke-linecap: square"/>
    </g>
    <g id="text_24">
     <!-- fork -->
     <g style="fill: #a9a9a9" transform="translate(843.08 346.676562) scale(0.1 -0.1)">
      <defs>
       <path id="DejaVuSans-66" d="M 2375 4863 
L 2375 4384 
L 1825 4384 
Q 1516 4384 1395 4259 
Q 1275 4134 1275 3809 
L 1275 3500 
L 2222 3500 
L 2222 3053 
L 1275 3053 
L 1275 0 
L 697 0 
L 697 3053 
L 147 3053 
L 147 3500 
L 697 3500 
L 697 3744 
Q 697 4328 969 4595 
Q 1241 4863 1831 4863 
L 2375 4863 
z
" transform="scale(0.015625)"/>
       <path id="DejaVuSans-6b" d="M 581 4863 
L 1159 4863 
L 1159 1991 
L 2875 3500 
L 3609 3500 
L 1753 1863 
L 3688 0 
L 2938 0 
L 1159 1709 
L 1159 0 
L 581 0 
L 581 4863 
z
" transform="scale(0.015625)"/>
      </defs>
      <use xlink:href="#DejaVuSans-66"/>
      <use xlink:href="#DejaVuSans-6f" x="35.205078"/>
      <use xlink:href="#DejaVuSans-72" x="96.386719"/>
      <use xlink:href="#DejaVuSans-6b" x="137.5"/>
     </g>
    </g>
   </g>
  </g>
 </g>
 <defs>
  <clipPath id="p5705ef0687">
   <rect x="108" y="43.2" width="669.6" height="277.2"/>
  </clipPath>
 </defs>
</svg>
