<?xml version="1.0" encoding="utf-8" standalone="no"?>
<!DOCTYPE svg PUBLIC "-//W3C//DTD SVG 1.1//EN"
  "http://www.w3.org/Graphics/SVG/1.1/DTD/svg11.dtd">
<svg xmlns:xlink="http://www.w3.org/1999/xlink" width="864pt" height="360pt" viewBox="0 0 864 360" xmlns="http://www.w3.org/2000/svg" version="1.1">
 <metadata>
  <rdf:RDF xmlns:dc="http://purl.org/dc/elements/1.1/" xmlns:cc="http://creativecommons.org/ns#" xmlns:rdf="http://www.w3.org/1999/02/22-rdf-syntax-ns#">
   <cc:Work>
    <dc:type rdf:resource="http://purl.org/dc/dcmitype/StillImage"/>
    <dc:date>2024-11-19T08:14:08.526765</dc:date>
    <dc:format>image/svg+xml</dc:format>
    <dc:creator>
     <cc:Agent>
      <dc:title>Matplotlib v3.9.2, https://matplotlib.org/</dc:title>
     </cc:Agent>
    </dc:creator>
   </cc:Work>
  </rdf:RDF>
 </metadata>
 <defs>
  <style type="text/css">*{stroke-linejoin: round; stroke-linecap: butt}</style>
 </defs>
 <g id="figure_1">
  <g id="patch_1">
   <path d="M 0 360 
L 864 360 
L 864 0 
L 0 0 
L 0 360 
z
" style="fill: none; opacity: 0"/>
  </g>
  <g id="axes_1">
   <g id="patch_2">
    <path d="M 108 320.4 
L 777.6 320.4 
L 777.6 43.2 
L 108 43.2 
L 108 320.4 
z
" style="fill: none; opacity: 0"/>
   </g>
   <g id="matplotlib.axis_1">
    <g id="xtick_1">
     <g id="line2d_1">
      <path d="M 157.991853 320.4 
L 157.991853 43.2 
" clip-path="url(#p12d04f37d3)" style="fill: none; stroke-dasharray: 5.12,1.28,0.8,1.28; stroke-dashoffset: 0; stroke: #b0b0b0; stroke-width: 0.8"/>
     </g>
     <g id="line2d_2">
      <defs>
       <path id="m585ac93170" d="M 0 0 
L 0 3.5 
" style="stroke: #a9a9a9; stroke-width: 0.8"/>
      </defs>
      <g>
       <use xlink:href="#m585ac93170" x="157.991853" y="320.4" style="fill: #a9a9a9; stroke: #a9a9a9; stroke-width: 0.8"/>
      </g>
     </g>
     <g id="text_1">
      <!-- 2021-09 -->
      <g style="fill: #a9a9a9" transform="translate(137.100446 334.998438) scale(0.1 -0.1)">
       <defs>
        <path id="DejaVuSans-32" d="M 1228 531 
L 3431 531 
L 3431 0 
L 469 0 
L 469 531 
Q 828 903 1448 1529 
Q 2069 2156 2228 2338 
Q 2531 2678 2651 2914 
Q 2772 3150 2772 3378 
Q 2772 3750 2511 3984 
Q 2250 4219 1831 4219 
Q 1534 4219 1204 4116 
Q 875 4013 500 3803 
L 500 4441 
Q 881 4594 1212 4672 
Q 1544 4750 1819 4750 
Q 2544 4750 2975 4387 
Q 3406 4025 3406 3419 
Q 3406 3131 3298 2873 
Q 3191 2616 2906 2266 
Q 2828 2175 2409 1742 
Q 1991 1309 1228 531 
z
" transform="scale(0.015625)"/>
        <path id="DejaVuSans-30" d="M 2034 4250 
Q 1547 4250 1301 3770 
Q 1056 3291 1056 2328 
Q 1056 1369 1301 889 
Q 1547 409 2034 409 
Q 2525 409 2770 889 
Q 3016 1369 3016 2328 
Q 3016 3291 2770 3770 
Q 2525 4250 2034 4250 
z
M 2034 4750 
Q 2819 4750 3233 4129 
Q 3647 3509 3647 2328 
Q 3647 1150 3233 529 
Q 2819 -91 2034 -91 
Q 1250 -91 836 529 
Q 422 1150 422 2328 
Q 422 3509 836 4129 
Q 1250 4750 2034 4750 
z
" transform="scale(0.015625)"/>
        <path id="DejaVuSans-31" d="M 794 531 
L 1825 531 
L 1825 4091 
L 703 3866 
L 703 4441 
L 1819 4666 
L 2450 4666 
L 2450 531 
L 3481 531 
L 3481 0 
L 794 0 
L 794 531 
z
" transform="scale(0.015625)"/>
        <path id="DejaVuSans-2d" d="M 313 2009 
L 1997 2009 
L 1997 1497 
L 313 1497 
L 313 2009 
z
" transform="scale(0.015625)"/>
        <path id="DejaVuSans-39" d="M 703 97 
L 703 672 
Q 941 559 1184 500 
Q 1428 441 1663 441 
Q 2288 441 2617 861 
Q 2947 1281 2994 2138 
Q 2813 1869 2534 1725 
Q 2256 1581 1919 1581 
Q 1219 1581 811 2004 
Q 403 2428 403 3163 
Q 403 3881 828 4315 
Q 1253 4750 1959 4750 
Q 2769 4750 3195 4129 
Q 3622 3509 3622 2328 
Q 3622 1225 3098 567 
Q 2575 -91 1691 -91 
Q 1453 -91 1209 -44 
Q 966 3 703 97 
z
M 1959 2075 
Q 2384 2075 2632 2365 
Q 2881 2656 2881 3163 
Q 2881 3666 2632 3958 
Q 2384 4250 1959 4250 
Q 1534 4250 1286 3958 
Q 1038 3666 1038 3163 
Q 1038 2656 1286 2365 
Q 1534 2075 1959 2075 
z
" transform="scale(0.015625)"/>
       </defs>
       <use xlink:href="#DejaVuSans-32"/>
       <use xlink:href="#DejaVuSans-30" x="63.623047"/>
       <use xlink:href="#DejaVuSans-32" x="127.246094"/>
       <use xlink:href="#DejaVuSans-31" x="190.869141"/>
       <use xlink:href="#DejaVuSans-2d" x="254.492188"/>
       <use xlink:href="#DejaVuSans-30" x="290.576172"/>
       <use xlink:href="#DejaVuSans-39" x="354.199219"/>
      </g>
     </g>
    </g>
    <g id="xtick_2">
     <g id="line2d_3">
      <path d="M 219.165434 320.4 
L 219.165434 43.2 
" clip-path="url(#p12d04f37d3)" style="fill: none; stroke-dasharray: 5.12,1.28,0.8,1.28; stroke-dashoffset: 0; stroke: #b0b0b0; stroke-width: 0.8"/>
     </g>
     <g id="line2d_4">
      <g>
       <use xlink:href="#m585ac93170" x="219.165434" y="320.4" style="fill: #a9a9a9; stroke: #a9a9a9; stroke-width: 0.8"/>
      </g>
     </g>
     <g id="text_2">
      <!-- 2022-01 -->
      <g style="fill: #a9a9a9" transform="translate(198.274027 334.998438) scale(0.1 -0.1)">
       <use xlink:href="#DejaVuSans-32"/>
       <use xlink:href="#DejaVuSans-30" x="63.623047"/>
       <use xlink:href="#DejaVuSans-32" x="127.246094"/>
       <use xlink:href="#DejaVuSans-32" x="190.869141"/>
       <use xlink:href="#DejaVuSans-2d" x="254.492188"/>
       <use xlink:href="#DejaVuSans-30" x="290.576172"/>
       <use xlink:href="#DejaVuSans-31" x="354.199219"/>
      </g>
     </g>
    </g>
    <g id="xtick_3">
     <g id="line2d_5">
      <path d="M 279.336169 320.4 
L 279.336169 43.2 
" clip-path="url(#p12d04f37d3)" style="fill: none; stroke-dasharray: 5.12,1.28,0.8,1.28; stroke-dashoffset: 0; stroke: #b0b0b0; stroke-width: 0.8"/>
     </g>
     <g id="line2d_6">
      <g>
       <use xlink:href="#m585ac93170" x="279.336169" y="320.4" style="fill: #a9a9a9; stroke: #a9a9a9; stroke-width: 0.8"/>
      </g>
     </g>
     <g id="text_3">
      <!-- 2022-05 -->
      <g style="fill: #a9a9a9" transform="translate(258.444763 334.998438) scale(0.1 -0.1)">
       <defs>
        <path id="DejaVuSans-35" d="M 691 4666 
L 3169 4666 
L 3169 4134 
L 1269 4134 
L 1269 2991 
Q 1406 3038 1543 3061 
Q 1681 3084 1819 3084 
Q 2600 3084 3056 2656 
Q 3513 2228 3513 1497 
Q 3513 744 3044 326 
Q 2575 -91 1722 -91 
Q 1428 -91 1123 -41 
Q 819 9 494 109 
L 494 744 
Q 775 591 1075 516 
Q 1375 441 1709 441 
Q 2250 441 2565 725 
Q 2881 1009 2881 1497 
Q 2881 1984 2565 2268 
Q 2250 2553 1709 2553 
Q 1456 2553 1204 2497 
Q 953 2441 691 2322 
L 691 4666 
z
" transform="scale(0.015625)"/>
       </defs>
       <use xlink:href="#DejaVuSans-32"/>
       <use xlink:href="#DejaVuSans-30" x="63.623047"/>
       <use xlink:href="#DejaVuSans-32" x="127.246094"/>
       <use xlink:href="#DejaVuSans-32" x="190.869141"/>
       <use xlink:href="#DejaVuSans-2d" x="254.492188"/>
       <use xlink:href="#DejaVuSans-30" x="290.576172"/>
       <use xlink:href="#DejaVuSans-35" x="354.199219"/>
      </g>
     </g>
    </g>
    <g id="xtick_4">
     <g id="line2d_7">
      <path d="M 341.011173 320.4 
L 341.011173 43.2 
" clip-path="url(#p12d04f37d3)" style="fill: none; stroke-dasharray: 5.12,1.28,0.8,1.28; stroke-dashoffset: 0; stroke: #b0b0b0; stroke-width: 0.8"/>
     </g>
     <g id="line2d_8">
      <g>
       <use xlink:href="#m585ac93170" x="341.011173" y="320.4" style="fill: #a9a9a9; stroke: #a9a9a9; stroke-width: 0.8"/>
      </g>
     </g>
     <g id="text_4">
      <!-- 2022-09 -->
      <g style="fill: #a9a9a9" transform="translate(320.119766 334.998438) scale(0.1 -0.1)">
       <use xlink:href="#DejaVuSans-32"/>
       <use xlink:href="#DejaVuSans-30" x="63.623047"/>
       <use xlink:href="#DejaVuSans-32" x="127.246094"/>
       <use xlink:href="#DejaVuSans-32" x="190.869141"/>
       <use xlink:href="#DejaVuSans-2d" x="254.492188"/>
       <use xlink:href="#DejaVuSans-30" x="290.576172"/>
       <use xlink:href="#DejaVuSans-39" x="354.199219"/>
      </g>
     </g>
    </g>
    <g id="xtick_5">
     <g id="line2d_9">
      <path d="M 402.184754 320.4 
L 402.184754 43.2 
" clip-path="url(#p12d04f37d3)" style="fill: none; stroke-dasharray: 5.12,1.28,0.8,1.28; stroke-dashoffset: 0; stroke: #b0b0b0; stroke-width: 0.8"/>
     </g>
     <g id="line2d_10">
      <g>
       <use xlink:href="#m585ac93170" x="402.184754" y="320.4" style="fill: #a9a9a9; stroke: #a9a9a9; stroke-width: 0.8"/>
      </g>
     </g>
     <g id="text_5">
      <!-- 2023-01 -->
      <g style="fill: #a9a9a9" transform="translate(381.293347 334.998438) scale(0.1 -0.1)">
       <defs>
        <path id="DejaVuSans-33" d="M 2597 2516 
Q 3050 2419 3304 2112 
Q 3559 1806 3559 1356 
Q 3559 666 3084 287 
Q 2609 -91 1734 -91 
Q 1441 -91 1130 -33 
Q 819 25 488 141 
L 488 750 
Q 750 597 1062 519 
Q 1375 441 1716 441 
Q 2309 441 2620 675 
Q 2931 909 2931 1356 
Q 2931 1769 2642 2001 
Q 2353 2234 1838 2234 
L 1294 2234 
L 1294 2753 
L 1863 2753 
Q 2328 2753 2575 2939 
Q 2822 3125 2822 3475 
Q 2822 3834 2567 4026 
Q 2313 4219 1838 4219 
Q 1578 4219 1281 4162 
Q 984 4106 628 3988 
L 628 4550 
Q 988 4650 1302 4700 
Q 1616 4750 1894 4750 
Q 2613 4750 3031 4423 
Q 3450 4097 3450 3541 
Q 3450 3153 3228 2886 
Q 3006 2619 2597 2516 
z
" transform="scale(0.015625)"/>
       </defs>
       <use xlink:href="#DejaVuSans-32"/>
       <use xlink:href="#DejaVuSans-30" x="63.623047"/>
       <use xlink:href="#DejaVuSans-32" x="127.246094"/>
       <use xlink:href="#DejaVuSans-33" x="190.869141"/>
       <use xlink:href="#DejaVuSans-2d" x="254.492188"/>
       <use xlink:href="#DejaVuSans-30" x="290.576172"/>
       <use xlink:href="#DejaVuSans-31" x="354.199219"/>
      </g>
     </g>
    </g>
    <g id="xtick_6">
     <g id="line2d_11">
      <path d="M 462.355489 320.4 
L 462.355489 43.2 
" clip-path="url(#p12d04f37d3)" style="fill: none; stroke-dasharray: 5.12,1.28,0.8,1.28; stroke-dashoffset: 0; stroke: #b0b0b0; stroke-width: 0.8"/>
     </g>
     <g id="line2d_12">
      <g>
       <use xlink:href="#m585ac93170" x="462.355489" y="320.4" style="fill: #a9a9a9; stroke: #a9a9a9; stroke-width: 0.8"/>
      </g>
     </g>
     <g id="text_6">
      <!-- 2023-05 -->
      <g style="fill: #a9a9a9" transform="translate(441.464083 334.998438) scale(0.1 -0.1)">
       <use xlink:href="#DejaVuSans-32"/>
       <use xlink:href="#DejaVuSans-30" x="63.623047"/>
       <use xlink:href="#DejaVuSans-32" x="127.246094"/>
       <use xlink:href="#DejaVuSans-33" x="190.869141"/>
       <use xlink:href="#DejaVuSans-2d" x="254.492188"/>
       <use xlink:href="#DejaVuSans-30" x="290.576172"/>
       <use xlink:href="#DejaVuSans-35" x="354.199219"/>
      </g>
     </g>
    </g>
    <g id="xtick_7">
     <g id="line2d_13">
      <path d="M 524.030493 320.4 
L 524.030493 43.2 
" clip-path="url(#p12d04f37d3)" style="fill: none; stroke-dasharray: 5.12,1.28,0.8,1.28; stroke-dashoffset: 0; stroke: #b0b0b0; stroke-width: 0.8"/>
     </g>
     <g id="line2d_14">
      <g>
       <use xlink:href="#m585ac93170" x="524.030493" y="320.4" style="fill: #a9a9a9; stroke: #a9a9a9; stroke-width: 0.8"/>
      </g>
     </g>
     <g id="text_7">
      <!-- 2023-09 -->
      <g style="fill: #a9a9a9" transform="translate(503.139086 334.998438) scale(0.1 -0.1)">
       <use xlink:href="#DejaVuSans-32"/>
       <use xlink:href="#DejaVuSans-30" x="63.623047"/>
       <use xlink:href="#DejaVuSans-32" x="127.246094"/>
       <use xlink:href="#DejaVuSans-33" x="190.869141"/>
       <use xlink:href="#DejaVuSans-2d" x="254.492188"/>
       <use xlink:href="#DejaVuSans-30" x="290.576172"/>
       <use xlink:href="#DejaVuSans-39" x="354.199219"/>
      </g>
     </g>
    </g>
    <g id="xtick_8">
     <g id="line2d_15">
      <path d="M 585.204074 320.4 
L 585.204074 43.2 
" clip-path="url(#p12d04f37d3)" style="fill: none; stroke-dasharray: 5.12,1.28,0.8,1.28; stroke-dashoffset: 0; stroke: #b0b0b0; stroke-width: 0.8"/>
     </g>
     <g id="line2d_16">
      <g>
       <use xlink:href="#m585ac93170" x="585.204074" y="320.4" style="fill: #a9a9a9; stroke: #a9a9a9; stroke-width: 0.8"/>
      </g>
     </g>
     <g id="text_8">
      <!-- 2024-01 -->
      <g style="fill: #a9a9a9" transform="translate(564.312667 334.998438) scale(0.1 -0.1)">
       <defs>
        <path id="DejaVuSans-34" d="M 2419 4116 
L 825 1625 
L 2419 1625 
L 2419 4116 
z
M 2253 4666 
L 3047 4666 
L 3047 1625 
L 3713 1625 
L 3713 1100 
L 3047 1100 
L 3047 0 
L 2419 0 
L 2419 1100 
L 313 1100 
L 313 1709 
L 2253 4666 
z
" transform="scale(0.015625)"/>
       </defs>
       <use xlink:href="#DejaVuSans-32"/>
       <use xlink:href="#DejaVuSans-30" x="63.623047"/>
       <use xlink:href="#DejaVuSans-32" x="127.246094"/>
       <use xlink:href="#DejaVuSans-34" x="190.869141"/>
       <use xlink:href="#DejaVuSans-2d" x="254.492188"/>
       <use xlink:href="#DejaVuSans-30" x="290.576172"/>
       <use xlink:href="#DejaVuSans-31" x="354.199219"/>
      </g>
     </g>
    </g>
    <g id="xtick_9">
     <g id="line2d_17">
      <path d="M 645.876232 320.4 
L 645.876232 43.2 
" clip-path="url(#p12d04f37d3)" style="fill: none; stroke-dasharray: 5.12,1.28,0.8,1.28; stroke-dashoffset: 0; stroke: #b0b0b0; stroke-width: 0.8"/>
     </g>
     <g id="line2d_18">
      <g>
       <use xlink:href="#m585ac93170" x="645.876232" y="320.4" style="fill: #a9a9a9; stroke: #a9a9a9; stroke-width: 0.8"/>
      </g>
     </g>
     <g id="text_9">
      <!-- 2024-05 -->
      <g style="fill: #a9a9a9" transform="translate(624.984826 334.998438) scale(0.1 -0.1)">
       <use xlink:href="#DejaVuSans-32"/>
       <use xlink:href="#DejaVuSans-30" x="63.623047"/>
       <use xlink:href="#DejaVuSans-32" x="127.246094"/>
       <use xlink:href="#DejaVuSans-34" x="190.869141"/>
       <use xlink:href="#DejaVuSans-2d" x="254.492188"/>
       <use xlink:href="#DejaVuSans-30" x="290.576172"/>
       <use xlink:href="#DejaVuSans-35" x="354.199219"/>
      </g>
     </g>
    </g>
    <g id="xtick_10">
     <g id="line2d_19">
      <path d="M 707.551236 320.4 
L 707.551236 43.2 
" clip-path="url(#p12d04f37d3)" style="fill: none; stroke-dasharray: 5.12,1.28,0.8,1.28; stroke-dashoffset: 0; stroke: #b0b0b0; stroke-width: 0.8"/>
     </g>
     <g id="line2d_20">
      <g>
       <use xlink:href="#m585ac93170" x="707.551236" y="320.4" style="fill: #a9a9a9; stroke: #a9a9a9; stroke-width: 0.8"/>
      </g>
     </g>
     <g id="text_10">
      <!-- 2024-09 -->
      <g style="fill: #a9a9a9" transform="translate(686.659829 334.998438) scale(0.1 -0.1)">
       <use xlink:href="#DejaVuSans-32"/>
       <use xlink:href="#DejaVuSans-30" x="63.623047"/>
       <use xlink:href="#DejaVuSans-32" x="127.246094"/>
       <use xlink:href="#DejaVuSans-34" x="190.869141"/>
       <use xlink:href="#DejaVuSans-2d" x="254.492188"/>
       <use xlink:href="#DejaVuSans-30" x="290.576172"/>
       <use xlink:href="#DejaVuSans-39" x="354.199219"/>
      </g>
     </g>
    </g>
    <g id="xtick_11">
     <g id="line2d_21">
      <path d="M 768.724817 320.4 
L 768.724817 43.2 
" clip-path="url(#p12d04f37d3)" style="fill: none; stroke-dasharray: 5.12,1.28,0.8,1.28; stroke-dashoffset: 0; stroke: #b0b0b0; stroke-width: 0.8"/>
     </g>
     <g id="line2d_22">
      <g>
       <use xlink:href="#m585ac93170" x="768.724817" y="320.4" style="fill: #a9a9a9; stroke: #a9a9a9; stroke-width: 0.8"/>
      </g>
     </g>
     <g id="text_11">
      <!-- 2025-01 -->
      <g style="fill: #a9a9a9" transform="translate(747.83341 334.998438) scale(0.1 -0.1)">
       <use xlink:href="#DejaVuSans-32"/>
       <use xlink:href="#DejaVuSans-30" x="63.623047"/>
       <use xlink:href="#DejaVuSans-32" x="127.246094"/>
       <use xlink:href="#DejaVuSans-35" x="190.869141"/>
       <use xlink:href="#DejaVuSans-2d" x="254.492188"/>
       <use xlink:href="#DejaVuSans-30" x="290.576172"/>
       <use xlink:href="#DejaVuSans-31" x="354.199219"/>
      </g>
     </g>
    </g>
   </g>
   <g id="matplotlib.axis_2">
    <g id="ytick_1">
     <g id="line2d_23">
      <path d="M 108 307.836124 
L 777.6 307.836124 
" clip-path="url(#p12d04f37d3)" style="fill: none; stroke-dasharray: 5.12,1.28,0.8,1.28; stroke-dashoffset: 0; stroke: #b0b0b0; stroke-width: 0.8"/>
     </g>
     <g id="line2d_24">
      <defs>
       <path id="m43056c4933" d="M 0 0 
L -3.5 0 
" style="stroke: #a9a9a9; stroke-width: 0.8"/>
      </defs>
      <g>
       <use xlink:href="#m43056c4933" x="108" y="307.836124" style="fill: #a9a9a9; stroke: #a9a9a9; stroke-width: 0.8"/>
      </g>
     </g>
     <g id="text_12">
      <!-- 0 -->
      <g style="fill: #a9a9a9" transform="translate(94.6375 311.635343) scale(0.1 -0.1)">
       <use xlink:href="#DejaVuSans-30"/>
      </g>
     </g>
    </g>
    <g id="ytick_2">
     <g id="line2d_25">
      <path d="M 108 278.937041 
L 777.6 278.937041 
" clip-path="url(#p12d04f37d3)" style="fill: none; stroke-dasharray: 5.12,1.28,0.8,1.28; stroke-dashoffset: 0; stroke: #b0b0b0; stroke-width: 0.8"/>
     </g>
     <g id="line2d_26">
      <g>
       <use xlink:href="#m43056c4933" x="108" y="278.937041" style="fill: #a9a9a9; stroke: #a9a9a9; stroke-width: 0.8"/>
      </g>
     </g>
     <g id="text_13">
      <!-- 800 -->
      <g style="fill: #a9a9a9" transform="translate(81.9125 282.73626) scale(0.1 -0.1)">
       <defs>
        <path id="DejaVuSans-38" d="M 2034 2216 
Q 1584 2216 1326 1975 
Q 1069 1734 1069 1313 
Q 1069 891 1326 650 
Q 1584 409 2034 409 
Q 2484 409 2743 651 
Q 3003 894 3003 1313 
Q 3003 1734 2745 1975 
Q 2488 2216 2034 2216 
z
M 1403 2484 
Q 997 2584 770 2862 
Q 544 3141 544 3541 
Q 544 4100 942 4425 
Q 1341 4750 2034 4750 
Q 2731 4750 3128 4425 
Q 3525 4100 3525 3541 
Q 3525 3141 3298 2862 
Q 3072 2584 2669 2484 
Q 3125 2378 3379 2068 
Q 3634 1759 3634 1313 
Q 3634 634 3220 271 
Q 2806 -91 2034 -91 
Q 1263 -91 848 271 
Q 434 634 434 1313 
Q 434 1759 690 2068 
Q 947 2378 1403 2484 
z
M 1172 3481 
Q 1172 3119 1398 2916 
Q 1625 2713 2034 2713 
Q 2441 2713 2670 2916 
Q 2900 3119 2900 3481 
Q 2900 3844 2670 4047 
Q 2441 4250 2034 4250 
Q 1625 4250 1398 4047 
Q 1172 3844 1172 3481 
z
" transform="scale(0.015625)"/>
       </defs>
       <use xlink:href="#DejaVuSans-38"/>
       <use xlink:href="#DejaVuSans-30" x="63.623047"/>
       <use xlink:href="#DejaVuSans-30" x="127.246094"/>
      </g>
     </g>
    </g>
    <g id="ytick_3">
     <g id="line2d_27">
      <path d="M 108 250.037959 
L 777.6 250.037959 
" clip-path="url(#p12d04f37d3)" style="fill: none; stroke-dasharray: 5.12,1.28,0.8,1.28; stroke-dashoffset: 0; stroke: #b0b0b0; stroke-width: 0.8"/>
     </g>
     <g id="line2d_28">
      <g>
       <use xlink:href="#m43056c4933" x="108" y="250.037959" style="fill: #a9a9a9; stroke: #a9a9a9; stroke-width: 0.8"/>
      </g>
     </g>
     <g id="text_14">
      <!-- 1600 -->
      <g style="fill: #a9a9a9" transform="translate(75.55 253.837177) scale(0.1 -0.1)">
       <defs>
        <path id="DejaVuSans-36" d="M 2113 2584 
Q 1688 2584 1439 2293 
Q 1191 2003 1191 1497 
Q 1191 994 1439 701 
Q 1688 409 2113 409 
Q 2538 409 2786 701 
Q 3034 994 3034 1497 
Q 3034 2003 2786 2293 
Q 2538 2584 2113 2584 
z
M 3366 4563 
L 3366 3988 
Q 3128 4100 2886 4159 
Q 2644 4219 2406 4219 
Q 1781 4219 1451 3797 
Q 1122 3375 1075 2522 
Q 1259 2794 1537 2939 
Q 1816 3084 2150 3084 
Q 2853 3084 3261 2657 
Q 3669 2231 3669 1497 
Q 3669 778 3244 343 
Q 2819 -91 2113 -91 
Q 1303 -91 875 529 
Q 447 1150 447 2328 
Q 447 3434 972 4092 
Q 1497 4750 2381 4750 
Q 2619 4750 2861 4703 
Q 3103 4656 3366 4563 
z
" transform="scale(0.015625)"/>
       </defs>
       <use xlink:href="#DejaVuSans-31"/>
       <use xlink:href="#DejaVuSans-36" x="63.623047"/>
       <use xlink:href="#DejaVuSans-30" x="127.246094"/>
       <use xlink:href="#DejaVuSans-30" x="190.869141"/>
      </g>
     </g>
    </g>
    <g id="ytick_4">
     <g id="line2d_29">
      <path d="M 108 221.138876 
L 777.6 221.138876 
" clip-path="url(#p12d04f37d3)" style="fill: none; stroke-dasharray: 5.12,1.28,0.8,1.28; stroke-dashoffset: 0; stroke: #b0b0b0; stroke-width: 0.8"/>
     </g>
     <g id="line2d_30">
      <g>
       <use xlink:href="#m43056c4933" x="108" y="221.138876" style="fill: #a9a9a9; stroke: #a9a9a9; stroke-width: 0.8"/>
      </g>
     </g>
     <g id="text_15">
      <!-- 2400 -->
      <g style="fill: #a9a9a9" transform="translate(75.55 224.938095) scale(0.1 -0.1)">
       <use xlink:href="#DejaVuSans-32"/>
       <use xlink:href="#DejaVuSans-34" x="63.623047"/>
       <use xlink:href="#DejaVuSans-30" x="127.246094"/>
       <use xlink:href="#DejaVuSans-30" x="190.869141"/>
      </g>
     </g>
    </g>
    <g id="ytick_5">
     <g id="line2d_31">
      <path d="M 108 192.239794 
L 777.6 192.239794 
" clip-path="url(#p12d04f37d3)" style="fill: none; stroke-dasharray: 5.12,1.28,0.8,1.28; stroke-dashoffset: 0; stroke: #b0b0b0; stroke-width: 0.8"/>
     </g>
     <g id="line2d_32">
      <g>
       <use xlink:href="#m43056c4933" x="108" y="192.239794" style="fill: #a9a9a9; stroke: #a9a9a9; stroke-width: 0.8"/>
      </g>
     </g>
     <g id="text_16">
      <!-- 3200 -->
      <g style="fill: #a9a9a9" transform="translate(75.55 196.039012) scale(0.1 -0.1)">
       <use xlink:href="#DejaVuSans-33"/>
       <use xlink:href="#DejaVuSans-32" x="63.623047"/>
       <use xlink:href="#DejaVuSans-30" x="127.246094"/>
       <use xlink:href="#DejaVuSans-30" x="190.869141"/>
      </g>
     </g>
    </g>
    <g id="ytick_6">
     <g id="line2d_33">
      <path d="M 108 163.340711 
L 777.6 163.340711 
" clip-path="url(#p12d04f37d3)" style="fill: none; stroke-dasharray: 5.12,1.28,0.8,1.28; stroke-dashoffset: 0; stroke: #b0b0b0; stroke-width: 0.8"/>
     </g>
     <g id="line2d_34">
      <g>
       <use xlink:href="#m43056c4933" x="108" y="163.340711" style="fill: #a9a9a9; stroke: #a9a9a9; stroke-width: 0.8"/>
      </g>
     </g>
     <g id="text_17">
      <!-- 4000 -->
      <g style="fill: #a9a9a9" transform="translate(75.55 167.13993) scale(0.1 -0.1)">
       <use xlink:href="#DejaVuSans-34"/>
       <use xlink:href="#DejaVuSans-30" x="63.623047"/>
       <use xlink:href="#DejaVuSans-30" x="127.246094"/>
       <use xlink:href="#DejaVuSans-30" x="190.869141"/>
      </g>
     </g>
    </g>
    <g id="ytick_7">
     <g id="line2d_35">
      <path d="M 108 134.441628 
L 777.6 134.441628 
" clip-path="url(#p12d04f37d3)" style="fill: none; stroke-dasharray: 5.12,1.28,0.8,1.28; stroke-dashoffset: 0; stroke: #b0b0b0; stroke-width: 0.8"/>
     </g>
     <g id="line2d_36">
      <g>
       <use xlink:href="#m43056c4933" x="108" y="134.441628" style="fill: #a9a9a9; stroke: #a9a9a9; stroke-width: 0.8"/>
      </g>
     </g>
     <g id="text_18">
      <!-- 4800 -->
      <g style="fill: #a9a9a9" transform="translate(75.55 138.240847) scale(0.1 -0.1)">
       <use xlink:href="#DejaVuSans-34"/>
       <use xlink:href="#DejaVuSans-38" x="63.623047"/>
       <use xlink:href="#DejaVuSans-30" x="127.246094"/>
       <use xlink:href="#DejaVuSans-30" x="190.869141"/>
      </g>
     </g>
    </g>
    <g id="ytick_8">
     <g id="line2d_37">
      <path d="M 108 105.542546 
L 777.6 105.542546 
" clip-path="url(#p12d04f37d3)" style="fill: none; stroke-dasharray: 5.12,1.28,0.8,1.28; stroke-dashoffset: 0; stroke: #b0b0b0; stroke-width: 0.8"/>
     </g>
     <g id="line2d_38">
      <g>
       <use xlink:href="#m43056c4933" x="108" y="105.542546" style="fill: #a9a9a9; stroke: #a9a9a9; stroke-width: 0.8"/>
      </g>
     </g>
     <g id="text_19">
      <!-- 5600 -->
      <g style="fill: #a9a9a9" transform="translate(75.55 109.341765) scale(0.1 -0.1)">
       <use xlink:href="#DejaVuSans-35"/>
       <use xlink:href="#DejaVuSans-36" x="63.623047"/>
       <use xlink:href="#DejaVuSans-30" x="127.246094"/>
       <use xlink:href="#DejaVuSans-30" x="190.869141"/>
      </g>
     </g>
    </g>
    <g id="ytick_9">
     <g id="line2d_39">
      <path d="M 108 76.643463 
L 777.6 76.643463 
" clip-path="url(#p12d04f37d3)" style="fill: none; stroke-dasharray: 5.12,1.28,0.8,1.28; stroke-dashoffset: 0; stroke: #b0b0b0; stroke-width: 0.8"/>
     </g>
     <g id="line2d_40">
      <g>
       <use xlink:href="#m43056c4933" x="108" y="76.643463" style="fill: #a9a9a9; stroke: #a9a9a9; stroke-width: 0.8"/>
      </g>
     </g>
     <g id="text_20">
      <!-- 6400 -->
      <g style="fill: #a9a9a9" transform="translate(75.55 80.442682) scale(0.1 -0.1)">
       <use xlink:href="#DejaVuSans-36"/>
       <use xlink:href="#DejaVuSans-34" x="63.623047"/>
       <use xlink:href="#DejaVuSans-30" x="127.246094"/>
       <use xlink:href="#DejaVuSans-30" x="190.869141"/>
      </g>
     </g>
    </g>
    <g id="ytick_10">
     <g id="line2d_41">
      <path d="M 108 47.744381 
L 777.6 47.744381 
" clip-path="url(#p12d04f37d3)" style="fill: none; stroke-dasharray: 5.12,1.28,0.8,1.28; stroke-dashoffset: 0; stroke: #b0b0b0; stroke-width: 0.8"/>
     </g>
     <g id="line2d_42">
      <g>
       <use xlink:href="#m43056c4933" x="108" y="47.744381" style="fill: #a9a9a9; stroke: #a9a9a9; stroke-width: 0.8"/>
      </g>
     </g>
     <g id="text_21">
      <!-- 7200 -->
      <g style="fill: #a9a9a9" transform="translate(75.55 51.543599) scale(0.1 -0.1)">
       <defs>
        <path id="DejaVuSans-37" d="M 525 4666 
L 3525 4666 
L 3525 4397 
L 1831 0 
L 1172 0 
L 2766 4134 
L 525 4134 
L 525 4666 
z
" transform="scale(0.015625)"/>
       </defs>
       <use xlink:href="#DejaVuSans-37"/>
       <use xlink:href="#DejaVuSans-32" x="63.623047"/>
       <use xlink:href="#DejaVuSans-30" x="127.246094"/>
       <use xlink:href="#DejaVuSans-30" x="190.869141"/>
      </g>
     </g>
    </g>
   </g>
   <g id="line2d_43">
    <path d="M 138.436364 307.727752 
L 141.4449 307.474885 
L 141.946323 307.258142 
L 143.952014 307.005275 
L 145.957706 306.607913 
L 146.960551 306.463417 
L 149.467665 306.246674 
L 150.470511 305.849312 
L 150.971934 305.199083 
L 151.473356 304.837844 
L 151.974779 303.718005 
L 152.476202 303.645757 
L 152.977625 303.248394 
L 153.98047 302.742661 
L 155.986161 301.153211 
L 157.991853 300.177867 
L 159.496121 299.491514 
L 159.997544 298.696789 
L 161.000389 297.974312 
L 161.501812 297.757569 
L 166.51604 297.035092 
L 167.017463 296.818349 
L 170.527422 296.529358 
L 172.533114 296.059748 
L 176.544496 295.51789 
L 177.045919 295.265023 
L 177.547342 295.192775 
L 178.550187 294.867661 
L 182.060147 294.289679 
L 183.062992 294.000688 
L 187.575798 293.242087 
L 188.578643 293.025344 
L 189.581489 292.98922 
L 191.58718 292.51961 
L 192.088603 291.833257 
L 193.592871 291.255275 
L 195.097139 290.857913 
L 195.598562 290.605046 
L 196.601408 290.424427 
L 198.607099 289.846445 
L 199.609945 289.774197 
L 200.61279 289.52133 
L 202.618481 289.015596 
L 203.119904 288.979472 
L 204.12275 288.509862 
L 204.624173 288.437615 
L 205.125595 288.184748 
L 210.641246 287.281651 
L 212.646937 286.70367 
L 213.14836 286.378555 
L 215.655474 285.547706 
L 216.65832 284.861353 
L 218.162588 284.572362 
L 231.199581 280.923853 
L 231.701003 280.923853 
L 232.202426 280.70711 
L 233.205272 280.598739 
L 233.706695 280.418119 
L 235.712386 280.309748 
L 236.715231 280.129128 
L 237.718077 279.623394 
L 239.222345 279.081537 
L 239.723768 278.756422 
L 240.726614 278.322936 
L 241.228037 278.070069 
L 242.230882 277.744954 
L 242.732305 277.600459 
L 243.735151 276.986353 
L 244.236573 276.444495 
L 245.239419 274.927294 
L 245.740842 274.782798 
L 246.242264 274.782798 
L 247.746533 273.915826 
L 248.247956 273.662959 
L 248.749378 273.554587 
L 249.250801 273.084977 
L 250.253647 272.687615 
L 251.256492 272.218005 
L 253.763606 269.039106 
L 256.772143 267.449656 
L 257.774989 266.654931 
L 258.276412 266.329817 
L 258.777834 265.571216 
L 259.279257 264.451376 
L 259.78068 263.692775 
L 260.282103 263.295413 
L 260.783526 263.07867 
L 264.293485 260.116514 
L 265.296331 258.924427 
L 266.299176 258.20195 
L 267.803445 257.190482 
L 268.304867 256.756995 
L 269.307713 256.431881 
L 270.811981 255.564908 
L 272.31625 254.589564 
L 274.321941 252.819495 
L 275.324787 252.422133 
L 276.327632 251.73578 
L 276.829055 251.446789 
L 277.330478 251.374541 
L 278.834746 250.543693 
L 279.336169 250.001835 
L 281.843283 248.665252 
L 282.344706 248.484633 
L 283.848974 247.473165 
L 291.370316 244.836124 
L 292.373162 243.933028 
L 293.376007 243.463417 
L 294.378853 242.92156 
L 294.880276 242.632569 
L 295.883121 242.343578 
L 296.384544 242.018463 
L 296.885967 241.873968 
L 298.390235 240.898624 
L 300.897349 240.320642 
L 302.401617 239.45367 
L 303.905886 239.128555 
L 304.407309 238.98406 
L 305.911577 237.86422 
L 307.917268 237.322362 
L 308.418691 236.925 
L 311.427228 235.913532 
L 312.430073 235.732913 
L 313.432919 235.33555 
L 316.942879 234.071216 
L 317.945724 233.92672 
L 319.449993 233.420986 
L 321.957106 232.228899 
L 323.962798 231.145183 
L 327.97418 229.51961 
L 328.475603 229.447362 
L 329.478448 228.833257 
L 329.979871 228.761009 
L 331.985562 227.930161 
L 333.991254 227.64117 
L 334.994099 227.135436 
L 335.495522 226.70195 
L 335.996945 225.798853 
L 338.002636 225.256995 
L 339.506904 224.498394 
L 340.008327 224.390023 
L 344.019709 222.475459 
L 345.523978 222.186468 
L 346.526823 221.680734 
L 347.028246 221.463991 
L 347.529669 221.391743 
L 349.53536 220.488647 
L 351.039629 219.549427 
L 352.543897 219.260436 
L 355.051011 218.64633 
L 355.552434 218.248968 
L 357.056702 217.70711 
L 359.062393 216.912385 
L 359.563816 216.551147 
L 360.065239 216.370528 
L 361.068084 215.82867 
L 363.575198 214.997821 
L 365.079467 213.805734 
L 365.58089 213.697362 
L 366.583735 212.902638 
L 367.085158 212.83039 
L 367.586581 212.035665 
L 368.088004 211.818922 
L 368.589426 211.42156 
L 369.090849 211.349312 
L 370.093695 210.735206 
L 371.09654 210.410092 
L 371.597963 210.048853 
L 372.099386 209.868234 
L 373.603654 208.820642 
L 375.609346 207.77305 
L 376.110768 207.700803 
L 377.615037 206.942202 
L 378.116459 206.111353 
L 379.119305 205.388876 
L 379.620728 205.280505 
L 380.623573 204.666399 
L 381.124996 204.558028 
L 382.127842 204.052294 
L 384.133533 203.07695 
L 384.634956 202.715711 
L 385.637801 201.740367 
L 386.640647 201.126261 
L 387.14207 200.801147 
L 387.643493 200.259289 
L 389.649184 198.886583 
L 390.150607 198.308601 
L 390.652029 197.911239 
L 391.654875 197.55 
L 392.657721 196.863647 
L 394.161989 196.105046 
L 394.663412 196.032798 
L 396.16768 195.238073 
L 397.170526 194.623968 
L 402.184754 192.817775 
L 402.686176 192.420413 
L 404.691868 191.661812 
L 405.19329 191.517317 
L 405.694713 191.119954 
L 408.201827 189.747248 
L 409.204673 187.760436 
L 410.207518 186.604472 
L 411.210364 186.026491 
L 412.714632 185.412385 
L 413.216055 185.340138 
L 413.717478 185.051147 
L 416.224592 184.256422 
L 416.726015 184.039679 
L 417.72886 183.353326 
L 419.233129 182.703096 
L 420.235974 182.161239 
L 420.737397 181.8 
L 421.23882 181.583257 
L 421.740243 181.222018 
L 422.241665 180.680161 
L 423.244511 180.138303 
L 425.751625 178.80172 
L 428.760162 177.320642 
L 430.26443 176.887156 
L 431.768699 176.309174 
L 432.270121 175.947936 
L 433.272967 175.658945 
L 434.275812 175.261583 
L 434.777235 174.86422 
L 436.782926 174.177867 
L 437.785772 173.45539 
L 438.788618 173.021904 
L 439.791463 172.227179 
L 440.794309 171.86594 
L 441.295732 171.432454 
L 441.797154 171.360206 
L 442.8 170.601606 
L 443.802846 170.095872 
L 444.304268 169.879128 
L 444.805691 169.373394 
L 448.315651 168.000688 
L 449.318496 167.567202 
L 450.822765 167.097592 
L 451.82561 166.953096 
L 452.327033 166.736353 
L 452.828456 166.664106 
L 453.831301 166.230619 
L 454.332724 166.194495 
L 456.338415 165.435894 
L 457.842684 164.388303 
L 458.344107 164.207683 
L 459.346952 163.665826 
L 459.848375 163.52133 
L 462.856912 161.859633 
L 463.358335 161.751261 
L 464.862603 160.884289 
L 466.366871 160.378555 
L 467.369717 160.05344 
L 469.375408 159.403211 
L 470.378254 159.078096 
L 472.383945 158.680734 
L 472.885368 158.463991 
L 473.38679 158.391743 
L 474.389636 157.958257 
L 474.891059 157.886009 
L 475.392482 157.633142 
L 476.395327 157.452523 
L 477.899596 156.910665 
L 478.902441 156.802294 
L 480.40671 156.477179 
L 482.913824 156.043693 
L 495.950816 152.286812 
L 496.452239 151.781078 
L 497.455085 151.383716 
L 500.463621 150.3 
L 500.965044 149.974885 
L 501.466467 149.866514 
L 501.96789 149.577523 
L 503.472158 149.144037 
L 504.475004 148.89117 
L 504.976427 148.566055 
L 505.477849 148.457683 
L 505.979272 148.024197 
L 507.483541 147.735206 
L 508.486386 147.265596 
L 508.987809 146.687615 
L 510.9935 146.218005 
L 514.50346 145.495528 
L 515.004882 145.495528 
L 515.506305 145.278784 
L 517.511996 144.917546 
L 518.013419 144.700803 
L 520.01911 144.339564 
L 521.021956 143.906078 
L 522.024802 143.725459 
L 524.531916 143.111353 
L 526.537607 142.497248 
L 527.03903 142.388876 
L 527.540452 142.136009 
L 528.543298 141.883142 
L 529.044721 141.594151 
L 530.548989 141.088417 
L 531.050412 140.763303 
L 532.053257 140.474312 
L 533.056103 140.149197 
L 534.058949 139.751835 
L 535.563217 139.101606 
L 537.568908 138.848739 
L 541.580291 137.439908 
L 542.081713 137.07867 
L 542.583136 136.970298 
L 543.084559 136.717431 
L 543.585982 136.681307 
L 549.101632 134.766743 
L 551.608746 134.116514 
L 552.611592 133.646904 
L 554.11586 133.321789 
L 554.617283 132.924427 
L 555.118706 132.67156 
L 555.620129 132.057454 
L 556.121552 131.696216 
L 557.124397 131.407225 
L 557.62582 131.009862 
L 560.634357 129.890023 
L 561.13578 129.564908 
L 562.138625 129.275917 
L 562.640048 128.950803 
L 565.147162 128.156078 
L 566.65143 127.289106 
L 567.152853 127.180734 
L 569.659967 125.844151 
L 571.164235 125.193922 
L 571.665658 124.832683 
L 572.668504 124.507569 
L 573.671349 123.929587 
L 574.172772 123.748968 
L 574.674195 123.387729 
L 581.192691 121.111927 
L 581.694114 121.003555 
L 582.195537 120.67844 
L 584.201228 120.281078 
L 585.204074 119.883716 
L 585.705496 119.594725 
L 586.206919 119.450229 
L 588.21261 118.402638 
L 588.714033 118.33039 
L 590.218302 117.499541 
L 591.72257 116.993807 
L 595.23253 115.584977 
L 595.733952 115.440482 
L 596.235375 115.115367 
L 597.238221 115.006995 
L 597.739644 114.681881 
L 598.742489 114.501261 
L 599.745335 114.031651 
L 600.246758 113.814908 
L 600.74818 113.742661 
L 603.255294 112.767317 
L 604.759563 112.369954 
L 605.762408 112.117087 
L 607.266677 111.683601 
L 608.269522 111.286239 
L 610.275213 110.202523 
L 611.278059 109.805161 
L 611.779482 109.480046 
L 612.782327 109.263303 
L 613.28375 108.974312 
L 613.785173 108.86594 
L 615.289441 108.035092 
L 616.292287 107.637729 
L 618.297978 106.879128 
L 620.805092 106.04828 
L 621.807938 105.542546 
L 624.315052 104.711697 
L 625.81932 104.169839 
L 626.320743 104.025344 
L 627.323588 103.483486 
L 629.32928 102.58039 
L 634.343508 100.665826 
L 634.84493 100.340711 
L 636.850622 99.654358 
L 637.352044 99.654358 
L 638.35489 99.220872 
L 639.357736 98.317775 
L 639.859158 97.884289 
L 641.363427 97.161812 
L 641.864849 97.05344 
L 642.366272 96.800573 
L 642.867695 96.728326 
L 643.369118 96.367087 
L 643.870541 96.258716 
L 644.873386 95.64461 
L 646.377655 94.886009 
L 647.3805 94.488647 
L 647.881923 94.23578 
L 649.386191 93.910665 
L 651.893305 93.079817 
L 652.896151 92.754702 
L 654.400419 91.996101 
L 655.403265 91.526491 
L 656.406111 91.273624 
L 657.910379 90.587271 
L 662.423184 88.925573 
L 663.927452 88.022477 
L 664.428875 87.914106 
L 665.431721 87.408372 
L 666.434566 87.047133 
L 666.935989 86.613647 
L 667.938835 86.216284 
L 669.443103 85.602179 
L 669.944526 85.204817 
L 670.445949 85.168693 
L 671.448794 84.879702 
L 672.45164 84.554587 
L 672.953063 84.30172 
L 673.454486 84.229472 
L 674.958754 83.687615 
L 676.463022 83.145757 
L 677.465868 82.748394 
L 677.967291 82.351032 
L 679.471559 81.95367 
L 679.972982 81.664679 
L 680.975827 81.411812 
L 682.480096 80.580963 
L 682.981519 80.544839 
L 684.485787 80.075229 
L 685.488633 80.002982 
L 686.491478 79.605619 
L 689.500015 78.738647 
L 690.502861 78.702523 
L 694.514243 77.438188 
L 695.517089 76.89633 
L 696.018511 76.462844 
L 697.52278 75.595872 
L 698.525625 74.981766 
L 700.531316 74.403784 
L 701.032739 74.114794 
L 701.534162 74.006422 
L 702.035585 73.60906 
L 705.044122 72.380849 
L 707.049813 71.838991 
L 708.052658 71.405505 
L 708.554081 71.152638 
L 709.556927 70.863647 
L 710.05835 70.538532 
L 711.061195 70.357913 
L 713.568309 69.20195 
L 714.069732 68.912959 
L 715.574 68.55172 
L 717.078269 67.576376 
L 717.579691 67.504128 
L 720.086805 66.528784 
L 721.591074 66.167546 
L 722.092497 66.095298 
L 722.593919 65.878555 
L 723.095342 65.842431 
L 724.098188 65.517317 
L 724.599611 65.481193 
L 726.103879 64.903211 
L 728.10957 64.325229 
L 729.112416 63.566628 
L 731.118107 62.482913 
L 732.622375 61.977179 
L 735.630912 60.640596 
L 736.633758 60.098739 
L 737.13518 59.845872 
L 737.636603 59.376261 
L 740.143717 58.653784 
L 741.146563 58.111927 
L 743.152254 57.38945 
L 743.653677 56.919839 
L 745.659368 56.377982 
L 746.160791 56.016743 
L 746.662214 55.8 
L 747.163636 55.8 
L 747.163636 55.8 
" clip-path="url(#p12d04f37d3)" style="fill: none; stroke: #1f77b4; stroke-width: 1.5; stroke-linecap: square"/>
   </g>
   <g id="line2d_44">
    <path d="M 138.937786 307.8 
L 143.450592 307.691628 
L 147.461974 307.511009 
L 149.467665 307.511009 
L 149.969088 307.366514 
L 152.476202 307.258142 
L 155.484739 306.933028 
L 158.493275 306.824656 
L 159.496121 306.716284 
L 163.006081 306.571789 
L 166.51604 306.463417 
L 169.023154 306.39117 
L 175.54165 306.282798 
L 178.048764 306.21055 
L 181.558724 306.102179 
L 184.065838 306.029931 
L 189.581489 305.92156 
L 191.58718 305.74094 
L 193.592871 305.704817 
L 196.601408 305.596445 
L 198.607099 305.560321 
L 201.114213 305.488073 
L 203.119904 305.307454 
L 207.632709 305.199083 
L 208.635555 305.126835 
L 210.641246 305.018463 
L 213.649783 304.910092 
L 215.655474 304.80172 
L 224.681084 304.259862 
L 228.191044 304.151491 
L 229.695312 304.006995 
L 232.202426 303.898624 
L 237.216654 303.645757 
L 242.230882 303.573509 
L 244.236573 303.356766 
L 246.242264 303.248394 
L 251.757915 302.742661 
L 255.267875 302.345298 
L 256.772143 302.27305 
L 261.284948 301.731193 
L 263.792062 301.658945 
L 265.296331 301.51445 
L 266.800599 301.406078 
L 280.840437 300.358486 
L 281.843283 300.177867 
L 284.85182 300.069495 
L 292.874584 299.599885 
L 296.384544 299.491514 
L 298.390235 299.274771 
L 300.897349 299.166399 
L 303.905886 299.058028 
L 306.413 298.949656 
L 308.418691 298.913532 
L 310.925805 298.841284 
L 311.928651 298.696789 
L 318.94857 298.588417 
L 319.951415 298.480046 
L 325.968489 298.371674 
L 330.481294 298.154931 
L 333.991254 298.04656 
L 335.996945 297.829817 
L 339.506904 297.721445 
L 340.50975 297.540826 
L 343.016864 297.468578 
L 348.031092 297.39633 
L 350.538206 297.143463 
L 353.546743 297.035092 
L 355.552434 296.854472 
L 360.566662 296.601606 
L 365.58089 296.493234 
L 370.093695 296.276491 
L 371.597963 296.240367 
L 372.600809 296.095872 
L 375.107923 295.9875 
L 376.110768 295.915252 
L 377.113614 295.843005 
L 378.116459 295.770757 
L 382.629265 295.698509 
L 384.133533 295.590138 
L 397.671948 294.723165 
L 400.179062 294.614794 
L 402.686176 294.542546 
L 409.706096 294.434174 
L 410.708941 294.289679 
L 417.72886 294.181307 
L 422.743088 293.92844 
L 423.745934 293.892317 
L 424.748779 293.783945 
L 427.255893 293.675573 
L 429.763007 293.603326 
L 432.270121 293.494954 
L 434.777235 293.422706 
L 439.29004 293.314335 
L 442.298577 293.205963 
L 449.318496 293.097592 
L 454.834147 292.808601 
L 456.839838 292.736353 
L 458.344107 292.627982 
L 465.364026 292.51961 
L 468.372563 292.411239 
L 477.398173 292.302867 
L 479.403864 292.266743 
L 485.420938 292.194495 
L 486.423783 292.122248 
L 493.443702 292.013876 
L 495.449393 291.977752 
L 508.486386 291.869381 
L 509.990654 291.724885 
L 532.55468 291.616514 
L 535.061794 291.544266 
L 548.098787 291.435894 
L 549.101632 291.363647 
L 551.608746 291.291399 
L 553.113015 291.146904 
L 556.121552 291.038532 
L 559.631511 290.894037 
L 564.144316 290.785665 
L 566.65143 290.713417 
L 570.16139 290.605046 
L 574.172772 290.424427 
L 576.679886 290.316055 
L 578.685577 290.279931 
L 583.198383 290.17156 
L 585.204074 290.135436 
L 591.72257 290.027064 
L 593.728261 289.99094 
L 596.235375 289.882569 
L 599.243912 289.774197 
L 602.753871 289.70195 
L 603.756717 289.629702 
L 615.790864 289.52133 
L 622.30936 289.160092 
L 624.816474 289.087844 
L 625.81932 288.979472 
L 626.822166 288.907225 
L 630.833548 288.798853 
L 633.842085 288.690482 
L 638.856313 288.58211 
L 641.363427 288.329243 
L 646.377655 288.220872 
L 647.3805 288.1125 
L 652.394728 288.004128 
L 654.901842 287.931881 
L 660.417493 287.895757 
L 661.420338 287.787385 
L 666.935989 287.679014 
L 667.938835 287.606766 
L 678.970136 287.498394 
L 681.978673 287.390023 
L 689.500015 287.281651 
L 691.505706 287.245528 
L 696.018511 287.17328 
L 697.021357 287.064908 
L 703.03843 286.956537 
L 706.046967 286.848165 
L 715.072578 286.739794 
L 716.576846 286.631422 
L 718.081114 286.52305 
L 719.585383 286.414679 
L 727.106725 286.306307 
L 730.616684 286.161812 
L 743.653677 286.05344 
L 747.163636 285.908945 
L 747.163636 285.908945 
" clip-path="url(#p12d04f37d3)" style="fill: none; stroke: #ff7f0e; stroke-width: 1.5; stroke-linecap: square"/>
   </g>
   <g id="patch_3">
    <path d="M 108 320.4 
L 108 43.2 
" style="fill: none; stroke: #a9a9a9; stroke-width: 0.8; stroke-linejoin: miter; stroke-linecap: square"/>
   </g>
   <g id="patch_4">
    <path d="M 777.6 320.4 
L 777.6 43.2 
" style="fill: none"/>
   </g>
   <g id="patch_5">
    <path d="M 108 320.4 
L 777.6 320.4 
" style="fill: none; stroke: #a9a9a9; stroke-width: 0.8; stroke-linejoin: miter; stroke-linecap: square"/>
   </g>
   <g id="patch_6">
    <path d="M 108 43.2 
L 777.6 43.2 
" style="fill: none"/>
   </g>
   <g id="text_22">
    <!-- get_subscribe history -->
    <g style="fill: #a9a9a9" transform="translate(378.6075 37.2) scale(0.12 -0.12)">
     <defs>
      <path id="DejaVuSans-67" d="M 2906 1791 
Q 2906 2416 2648 2759 
Q 2391 3103 1925 3103 
Q 1463 3103 1205 2759 
Q 947 2416 947 1791 
Q 947 1169 1205 825 
Q 1463 481 1925 481 
Q 2391 481 2648 825 
Q 2906 1169 2906 1791 
z
M 3481 434 
Q 3481 -459 3084 -895 
Q 2688 -1331 1869 -1331 
Q 1566 -1331 1297 -1286 
Q 1028 -1241 775 -1147 
L 775 -588 
Q 1028 -725 1275 -790 
Q 1522 -856 1778 -856 
Q 2344 -856 2625 -561 
Q 2906 -266 2906 331 
L 2906 616 
Q 2728 306 2450 153 
Q 2172 0 1784 0 
Q 1141 0 747 490 
Q 353 981 353 1791 
Q 353 2603 747 3093 
Q 1141 3584 1784 3584 
Q 2172 3584 2450 3431 
Q 2728 3278 2906 2969 
L 2906 3500 
L 3481 3500 
L 3481 434 
z
" transform="scale(0.015625)"/>
      <path id="DejaVuSans-65" d="M 3597 1894 
L 3597 1613 
L 953 1613 
Q 991 1019 1311 708 
Q 1631 397 2203 397 
Q 2534 397 2845 478 
Q 3156 559 3463 722 
L 3463 178 
Q 3153 47 2828 -22 
Q 2503 -91 2169 -91 
Q 1331 -91 842 396 
Q 353 884 353 1716 
Q 353 2575 817 3079 
Q 1281 3584 2069 3584 
Q 2775 3584 3186 3129 
Q 3597 2675 3597 1894 
z
M 3022 2063 
Q 3016 2534 2758 2815 
Q 2500 3097 2075 3097 
Q 1594 3097 1305 2825 
Q 1016 2553 972 2059 
L 3022 2063 
z
" transform="scale(0.015625)"/>
      <path id="DejaVuSans-74" d="M 1172 4494 
L 1172 3500 
L 2356 3500 
L 2356 3053 
L 1172 3053 
L 1172 1153 
Q 1172 725 1289 603 
Q 1406 481 1766 481 
L 2356 481 
L 2356 0 
L 1766 0 
Q 1100 0 847 248 
Q 594 497 594 1153 
L 594 3053 
L 172 3053 
L 172 3500 
L 594 3500 
L 594 4494 
L 1172 4494 
z
" transform="scale(0.015625)"/>
      <path id="DejaVuSans-5f" d="M 3263 -1063 
L 3263 -1509 
L -63 -1509 
L -63 -1063 
L 3263 -1063 
z
" transform="scale(0.015625)"/>
      <path id="DejaVuSans-73" d="M 2834 3397 
L 2834 2853 
Q 2591 2978 2328 3040 
Q 2066 3103 1784 3103 
Q 1356 3103 1142 2972 
Q 928 2841 928 2578 
Q 928 2378 1081 2264 
Q 1234 2150 1697 2047 
L 1894 2003 
Q 2506 1872 2764 1633 
Q 3022 1394 3022 966 
Q 3022 478 2636 193 
Q 2250 -91 1575 -91 
Q 1294 -91 989 -36 
Q 684 19 347 128 
L 347 722 
Q 666 556 975 473 
Q 1284 391 1588 391 
Q 1994 391 2212 530 
Q 2431 669 2431 922 
Q 2431 1156 2273 1281 
Q 2116 1406 1581 1522 
L 1381 1569 
Q 847 1681 609 1914 
Q 372 2147 372 2553 
Q 372 3047 722 3315 
Q 1072 3584 1716 3584 
Q 2034 3584 2315 3537 
Q 2597 3491 2834 3397 
z
" transform="scale(0.015625)"/>
      <path id="DejaVuSans-75" d="M 544 1381 
L 544 3500 
L 1119 3500 
L 1119 1403 
Q 1119 906 1312 657 
Q 1506 409 1894 409 
Q 2359 409 2629 706 
Q 2900 1003 2900 1516 
L 2900 3500 
L 3475 3500 
L 3475 0 
L 2900 0 
L 2900 538 
Q 2691 219 2414 64 
Q 2138 -91 1772 -91 
Q 1169 -91 856 284 
Q 544 659 544 1381 
z
M 1991 3584 
L 1991 3584 
z
" transform="scale(0.015625)"/>
      <path id="DejaVuSans-62" d="M 3116 1747 
Q 3116 2381 2855 2742 
Q 2594 3103 2138 3103 
Q 1681 3103 1420 2742 
Q 1159 2381 1159 1747 
Q 1159 1113 1420 752 
Q 1681 391 2138 391 
Q 2594 391 2855 752 
Q 3116 1113 3116 1747 
z
M 1159 2969 
Q 1341 3281 1617 3432 
Q 1894 3584 2278 3584 
Q 2916 3584 3314 3078 
Q 3713 2572 3713 1747 
Q 3713 922 3314 415 
Q 2916 -91 2278 -91 
Q 1894 -91 1617 61 
Q 1341 213 1159 525 
L 1159 0 
L 581 0 
L 581 4863 
L 1159 4863 
L 1159 2969 
z
" transform="scale(0.015625)"/>
      <path id="DejaVuSans-63" d="M 3122 3366 
L 3122 2828 
Q 2878 2963 2633 3030 
Q 2388 3097 2138 3097 
Q 1578 3097 1268 2742 
Q 959 2388 959 1747 
Q 959 1106 1268 751 
Q 1578 397 2138 397 
Q 2388 397 2633 464 
Q 2878 531 3122 666 
L 3122 134 
Q 2881 22 2623 -34 
Q 2366 -91 2075 -91 
Q 1284 -91 818 406 
Q 353 903 353 1747 
Q 353 2603 823 3093 
Q 1294 3584 2113 3584 
Q 2378 3584 2631 3529 
Q 2884 3475 3122 3366 
z
" transform="scale(0.015625)"/>
      <path id="DejaVuSans-72" d="M 2631 2963 
Q 2534 3019 2420 3045 
Q 2306 3072 2169 3072 
Q 1681 3072 1420 2755 
Q 1159 2438 1159 1844 
L 1159 0 
L 581 0 
L 581 3500 
L 1159 3500 
L 1159 2956 
Q 1341 3275 1631 3429 
Q 1922 3584 2338 3584 
Q 2397 3584 2469 3576 
Q 2541 3569 2628 3553 
L 2631 2963 
z
" transform="scale(0.015625)"/>
      <path id="DejaVuSans-69" d="M 603 3500 
L 1178 3500 
L 1178 0 
L 603 0 
L 603 3500 
z
M 603 4863 
L 1178 4863 
L 1178 4134 
L 603 4134 
L 603 4863 
z
" transform="scale(0.015625)"/>
      <path id="DejaVuSans-20" transform="scale(0.015625)"/>
      <path id="DejaVuSans-68" d="M 3513 2113 
L 3513 0 
L 2938 0 
L 2938 2094 
Q 2938 2591 2744 2837 
Q 2550 3084 2163 3084 
Q 1697 3084 1428 2787 
Q 1159 2491 1159 1978 
L 1159 0 
L 581 0 
L 581 4863 
L 1159 4863 
L 1159 2956 
Q 1366 3272 1645 3428 
Q 1925 3584 2291 3584 
Q 2894 3584 3203 3211 
Q 3513 2838 3513 2113 
z
" transform="scale(0.015625)"/>
      <path id="DejaVuSans-6f" d="M 1959 3097 
Q 1497 3097 1228 2736 
Q 959 2375 959 1747 
Q 959 1119 1226 758 
Q 1494 397 1959 397 
Q 2419 397 2687 759 
Q 2956 1122 2956 1747 
Q 2956 2369 2687 2733 
Q 2419 3097 1959 3097 
z
M 1959 3584 
Q 2709 3584 3137 3096 
Q 3566 2609 3566 1747 
Q 3566 888 3137 398 
Q 2709 -91 1959 -91 
Q 1206 -91 779 398 
Q 353 888 353 1747 
Q 353 2609 779 3096 
Q 1206 3584 1959 3584 
z
" transform="scale(0.015625)"/>
      <path id="DejaVuSans-79" d="M 2059 -325 
Q 1816 -950 1584 -1140 
Q 1353 -1331 966 -1331 
L 506 -1331 
L 506 -850 
L 844 -850 
Q 1081 -850 1212 -737 
Q 1344 -625 1503 -206 
L 1606 56 
L 191 3500 
L 800 3500 
L 1894 763 
L 2988 3500 
L 3597 3500 
L 2059 -325 
z
" transform="scale(0.015625)"/>
     </defs>
     <use xlink:href="#DejaVuSans-67"/>
     <use xlink:href="#DejaVuSans-65" x="63.476562"/>
     <use xlink:href="#DejaVuSans-74" x="125"/>
     <use xlink:href="#DejaVuSans-5f" x="164.208984"/>
     <use xlink:href="#DejaVuSans-73" x="214.208984"/>
     <use xlink:href="#DejaVuSans-75" x="266.308594"/>
     <use xlink:href="#DejaVuSans-62" x="329.6875"/>
     <use xlink:href="#DejaVuSans-73" x="393.164062"/>
     <use xlink:href="#DejaVuSans-63" x="445.263672"/>
     <use xlink:href="#DejaVuSans-72" x="500.244141"/>
     <use xlink:href="#DejaVuSans-69" x="541.357422"/>
     <use xlink:href="#DejaVuSans-62" x="569.140625"/>
     <use xlink:href="#DejaVuSans-65" x="632.617188"/>
     <use xlink:href="#DejaVuSans-20" x="694.140625"/>
     <use xlink:href="#DejaVuSans-68" x="725.927734"/>
     <use xlink:href="#DejaVuSans-69" x="789.306641"/>
     <use xlink:href="#DejaVuSans-73" x="817.089844"/>
     <use xlink:href="#DejaVuSans-74" x="869.189453"/>
     <use xlink:href="#DejaVuSans-6f" x="908.398438"/>
     <use xlink:href="#DejaVuSans-72" x="969.580078"/>
     <use xlink:href="#DejaVuSans-79" x="1010.693359"/>
    </g>
   </g>
   <g id="legend_1">
    <g id="line2d_45">
     <path d="M 815.08 328.498438 
L 825.08 328.498438 
L 835.08 328.498438 
" style="fill: none; stroke: #1f77b4; stroke-width: 1.5; stroke-linecap: square"/>
    </g>
    <g id="text_23">
     <!-- star -->
     <g style="fill: #a9a9a9" transform="translate(843.08 331.998438) scale(0.1 -0.1)">
      <defs>
       <path id="DejaVuSans-61" d="M 2194 1759 
Q 1497 1759 1228 1600 
Q 959 1441 959 1056 
Q 959 750 1161 570 
Q 1363 391 1709 391 
Q 2188 391 2477 730 
Q 2766 1069 2766 1631 
L 2766 1759 
L 2194 1759 
z
M 3341 1997 
L 3341 0 
L 2766 0 
L 2766 531 
Q 2569 213 2275 61 
Q 1981 -91 1556 -91 
Q 1019 -91 701 211 
Q 384 513 384 1019 
Q 384 1609 779 1909 
Q 1175 2209 1959 2209 
L 2766 2209 
L 2766 2266 
Q 2766 2663 2505 2880 
Q 2244 3097 1772 3097 
Q 1472 3097 1187 3025 
Q 903 2953 641 2809 
L 641 3341 
Q 956 3463 1253 3523 
Q 1550 3584 1831 3584 
Q 2591 3584 2966 3190 
Q 3341 2797 3341 1997 
z
" transform="scale(0.015625)"/>
      </defs>
      <use xlink:href="#DejaVuSans-73"/>
      <use xlink:href="#DejaVuSans-74" x="52.099609"/>
      <use xlink:href="#DejaVuSans-61" x="91.308594"/>
      <use xlink:href="#DejaVuSans-72" x="152.587891"/>
     </g>
    </g>
    <g id="line2d_46">
     <path d="M 815.08 343.176562 
L 825.08 343.176562 
L 835.08 343.176562 
" style="fill: none; stroke: #ff7f0e; stroke-width: 1.5; stroke-linecap: square"/>
    </g>
    <g id="text_24">
     <!-- fork -->
     <g style="fill: #a9a9a9" transform="translate(843.08 346.676562) scale(0.1 -0.1)">
      <defs>
       <path id="DejaVuSans-66" d="M 2375 4863 
L 2375 4384 
L 1825 4384 
Q 1516 4384 1395 4259 
Q 1275 4134 1275 3809 
L 1275 3500 
L 2222 3500 
L 2222 3053 
L 1275 3053 
L 1275 0 
L 697 0 
L 697 3053 
L 147 3053 
L 147 3500 
L 697 3500 
L 697 3744 
Q 697 4328 969 4595 
Q 1241 4863 1831 4863 
L 2375 4863 
z
" transform="scale(0.015625)"/>
       <path id="DejaVuSans-6b" d="M 581 4863 
L 1159 4863 
L 1159 1991 
L 2875 3500 
L 3609 3500 
L 1753 1863 
L 3688 0 
L 2938 0 
L 1159 1709 
L 1159 0 
L 581 0 
L 581 4863 
z
" transform="scale(0.015625)"/>
      </defs>
      <use xlink:href="#DejaVuSans-66"/>
      <use xlink:href="#DejaVuSans-6f" x="35.205078"/>
      <use xlink:href="#DejaVuSans-72" x="96.386719"/>
      <use xlink:href="#DejaVuSans-6b" x="137.5"/>
     </g>
    </g>
   </g>
  </g>
 </g>
 <defs>
  <clipPath id="p12d04f37d3">
   <rect x="108" y="43.2" width="669.6" height="277.2"/>
  </clipPath>
 </defs>
</svg>
