<?xml version="1.0" encoding="utf-8" standalone="no"?>
<!DOCTYPE svg PUBLIC "-//W3C//DTD SVG 1.1//EN"
  "http://www.w3.org/Graphics/SVG/1.1/DTD/svg11.dtd">
<svg xmlns:xlink="http://www.w3.org/1999/xlink" width="864pt" height="360pt" viewBox="0 0 864 360" xmlns="http://www.w3.org/2000/svg" version="1.1">
 <metadata>
  <rdf:RDF xmlns:dc="http://purl.org/dc/elements/1.1/" xmlns:cc="http://creativecommons.org/ns#" xmlns:rdf="http://www.w3.org/1999/02/22-rdf-syntax-ns#">
   <cc:Work>
    <dc:type rdf:resource="http://purl.org/dc/dcmitype/StillImage"/>
    <dc:date>2024-11-23T08:14:02.636890</dc:date>
    <dc:format>image/svg+xml</dc:format>
    <dc:creator>
     <cc:Agent>
      <dc:title>Matplotlib v3.9.2, https://matplotlib.org/</dc:title>
     </cc:Agent>
    </dc:creator>
   </cc:Work>
  </rdf:RDF>
 </metadata>
 <defs>
  <style type="text/css">*{stroke-linejoin: round; stroke-linecap: butt}</style>
 </defs>
 <g id="figure_1">
  <g id="patch_1">
   <path d="M 0 360 
L 864 360 
L 864 0 
L 0 0 
L 0 360 
z
" style="fill: none; opacity: 0"/>
  </g>
  <g id="axes_1">
   <g id="patch_2">
    <path d="M 108 320.4 
L 777.6 320.4 
L 777.6 43.2 
L 108 43.2 
L 108 320.4 
z
" style="fill: none; opacity: 0"/>
   </g>
   <g id="matplotlib.axis_1">
    <g id="xtick_1">
     <g id="line2d_1">
      <path d="M 157.927631 320.4 
L 157.927631 43.2 
" clip-path="url(#pc93ba1ef08)" style="fill: none; stroke-dasharray: 5.12,1.28,0.8,1.28; stroke-dashoffset: 0; stroke: #b0b0b0; stroke-width: 0.8"/>
     </g>
     <g id="line2d_2">
      <defs>
       <path id="m158c3afb88" d="M 0 0 
L 0 3.5 
" style="stroke: #a9a9a9; stroke-width: 0.8"/>
      </defs>
      <g>
       <use xlink:href="#m158c3afb88" x="157.927631" y="320.4" style="fill: #a9a9a9; stroke: #a9a9a9; stroke-width: 0.8"/>
      </g>
     </g>
     <g id="text_1">
      <!-- 2021-09 -->
      <g style="fill: #a9a9a9" transform="translate(137.036225 334.998438) scale(0.1 -0.1)">
       <defs>
        <path id="DejaVuSans-32" d="M 1228 531 
L 3431 531 
L 3431 0 
L 469 0 
L 469 531 
Q 828 903 1448 1529 
Q 2069 2156 2228 2338 
Q 2531 2678 2651 2914 
Q 2772 3150 2772 3378 
Q 2772 3750 2511 3984 
Q 2250 4219 1831 4219 
Q 1534 4219 1204 4116 
Q 875 4013 500 3803 
L 500 4441 
Q 881 4594 1212 4672 
Q 1544 4750 1819 4750 
Q 2544 4750 2975 4387 
Q 3406 4025 3406 3419 
Q 3406 3131 3298 2873 
Q 3191 2616 2906 2266 
Q 2828 2175 2409 1742 
Q 1991 1309 1228 531 
z
" transform="scale(0.015625)"/>
        <path id="DejaVuSans-30" d="M 2034 4250 
Q 1547 4250 1301 3770 
Q 1056 3291 1056 2328 
Q 1056 1369 1301 889 
Q 1547 409 2034 409 
Q 2525 409 2770 889 
Q 3016 1369 3016 2328 
Q 3016 3291 2770 3770 
Q 2525 4250 2034 4250 
z
M 2034 4750 
Q 2819 4750 3233 4129 
Q 3647 3509 3647 2328 
Q 3647 1150 3233 529 
Q 2819 -91 2034 -91 
Q 1250 -91 836 529 
Q 422 1150 422 2328 
Q 422 3509 836 4129 
Q 1250 4750 2034 4750 
z
" transform="scale(0.015625)"/>
        <path id="DejaVuSans-31" d="M 794 531 
L 1825 531 
L 1825 4091 
L 703 3866 
L 703 4441 
L 1819 4666 
L 2450 4666 
L 2450 531 
L 3481 531 
L 3481 0 
L 794 0 
L 794 531 
z
" transform="scale(0.015625)"/>
        <path id="DejaVuSans-2d" d="M 313 2009 
L 1997 2009 
L 1997 1497 
L 313 1497 
L 313 2009 
z
" transform="scale(0.015625)"/>
        <path id="DejaVuSans-39" d="M 703 97 
L 703 672 
Q 941 559 1184 500 
Q 1428 441 1663 441 
Q 2288 441 2617 861 
Q 2947 1281 2994 2138 
Q 2813 1869 2534 1725 
Q 2256 1581 1919 1581 
Q 1219 1581 811 2004 
Q 403 2428 403 3163 
Q 403 3881 828 4315 
Q 1253 4750 1959 4750 
Q 2769 4750 3195 4129 
Q 3622 3509 3622 2328 
Q 3622 1225 3098 567 
Q 2575 -91 1691 -91 
Q 1453 -91 1209 -44 
Q 966 3 703 97 
z
M 1959 2075 
Q 2384 2075 2632 2365 
Q 2881 2656 2881 3163 
Q 2881 3666 2632 3958 
Q 2384 4250 1959 4250 
Q 1534 4250 1286 3958 
Q 1038 3666 1038 3163 
Q 1038 2656 1286 2365 
Q 1534 2075 1959 2075 
z
" transform="scale(0.015625)"/>
       </defs>
       <use xlink:href="#DejaVuSans-32"/>
       <use xlink:href="#DejaVuSans-30" x="63.623047"/>
       <use xlink:href="#DejaVuSans-32" x="127.246094"/>
       <use xlink:href="#DejaVuSans-31" x="190.869141"/>
       <use xlink:href="#DejaVuSans-2d" x="254.492188"/>
       <use xlink:href="#DejaVuSans-30" x="290.576172"/>
       <use xlink:href="#DejaVuSans-39" x="354.199219"/>
      </g>
     </g>
    </g>
    <g id="xtick_2">
     <g id="line2d_3">
      <path d="M 218.900313 320.4 
L 218.900313 43.2 
" clip-path="url(#pc93ba1ef08)" style="fill: none; stroke-dasharray: 5.12,1.28,0.8,1.28; stroke-dashoffset: 0; stroke: #b0b0b0; stroke-width: 0.8"/>
     </g>
     <g id="line2d_4">
      <g>
       <use xlink:href="#m158c3afb88" x="218.900313" y="320.4" style="fill: #a9a9a9; stroke: #a9a9a9; stroke-width: 0.8"/>
      </g>
     </g>
     <g id="text_2">
      <!-- 2022-01 -->
      <g style="fill: #a9a9a9" transform="translate(198.008907 334.998438) scale(0.1 -0.1)">
       <use xlink:href="#DejaVuSans-32"/>
       <use xlink:href="#DejaVuSans-30" x="63.623047"/>
       <use xlink:href="#DejaVuSans-32" x="127.246094"/>
       <use xlink:href="#DejaVuSans-32" x="190.869141"/>
       <use xlink:href="#DejaVuSans-2d" x="254.492188"/>
       <use xlink:href="#DejaVuSans-30" x="290.576172"/>
       <use xlink:href="#DejaVuSans-31" x="354.199219"/>
      </g>
     </g>
    </g>
    <g id="xtick_3">
     <g id="line2d_5">
      <path d="M 278.873444 320.4 
L 278.873444 43.2 
" clip-path="url(#pc93ba1ef08)" style="fill: none; stroke-dasharray: 5.12,1.28,0.8,1.28; stroke-dashoffset: 0; stroke: #b0b0b0; stroke-width: 0.8"/>
     </g>
     <g id="line2d_6">
      <g>
       <use xlink:href="#m158c3afb88" x="278.873444" y="320.4" style="fill: #a9a9a9; stroke: #a9a9a9; stroke-width: 0.8"/>
      </g>
     </g>
     <g id="text_3">
      <!-- 2022-05 -->
      <g style="fill: #a9a9a9" transform="translate(257.982038 334.998438) scale(0.1 -0.1)">
       <defs>
        <path id="DejaVuSans-35" d="M 691 4666 
L 3169 4666 
L 3169 4134 
L 1269 4134 
L 1269 2991 
Q 1406 3038 1543 3061 
Q 1681 3084 1819 3084 
Q 2600 3084 3056 2656 
Q 3513 2228 3513 1497 
Q 3513 744 3044 326 
Q 2575 -91 1722 -91 
Q 1428 -91 1123 -41 
Q 819 9 494 109 
L 494 744 
Q 775 591 1075 516 
Q 1375 441 1709 441 
Q 2250 441 2565 725 
Q 2881 1009 2881 1497 
Q 2881 1984 2565 2268 
Q 2250 2553 1709 2553 
Q 1456 2553 1204 2497 
Q 953 2441 691 2322 
L 691 4666 
z
" transform="scale(0.015625)"/>
       </defs>
       <use xlink:href="#DejaVuSans-32"/>
       <use xlink:href="#DejaVuSans-30" x="63.623047"/>
       <use xlink:href="#DejaVuSans-32" x="127.246094"/>
       <use xlink:href="#DejaVuSans-32" x="190.869141"/>
       <use xlink:href="#DejaVuSans-2d" x="254.492188"/>
       <use xlink:href="#DejaVuSans-30" x="290.576172"/>
       <use xlink:href="#DejaVuSans-35" x="354.199219"/>
      </g>
     </g>
    </g>
    <g id="xtick_4">
     <g id="line2d_7">
      <path d="M 340.345902 320.4 
L 340.345902 43.2 
" clip-path="url(#pc93ba1ef08)" style="fill: none; stroke-dasharray: 5.12,1.28,0.8,1.28; stroke-dashoffset: 0; stroke: #b0b0b0; stroke-width: 0.8"/>
     </g>
     <g id="line2d_8">
      <g>
       <use xlink:href="#m158c3afb88" x="340.345902" y="320.4" style="fill: #a9a9a9; stroke: #a9a9a9; stroke-width: 0.8"/>
      </g>
     </g>
     <g id="text_4">
      <!-- 2022-09 -->
      <g style="fill: #a9a9a9" transform="translate(319.454496 334.998438) scale(0.1 -0.1)">
       <use xlink:href="#DejaVuSans-32"/>
       <use xlink:href="#DejaVuSans-30" x="63.623047"/>
       <use xlink:href="#DejaVuSans-32" x="127.246094"/>
       <use xlink:href="#DejaVuSans-32" x="190.869141"/>
       <use xlink:href="#DejaVuSans-2d" x="254.492188"/>
       <use xlink:href="#DejaVuSans-30" x="290.576172"/>
       <use xlink:href="#DejaVuSans-39" x="354.199219"/>
      </g>
     </g>
    </g>
    <g id="xtick_5">
     <g id="line2d_9">
      <path d="M 401.318585 320.4 
L 401.318585 43.2 
" clip-path="url(#pc93ba1ef08)" style="fill: none; stroke-dasharray: 5.12,1.28,0.8,1.28; stroke-dashoffset: 0; stroke: #b0b0b0; stroke-width: 0.8"/>
     </g>
     <g id="line2d_10">
      <g>
       <use xlink:href="#m158c3afb88" x="401.318585" y="320.4" style="fill: #a9a9a9; stroke: #a9a9a9; stroke-width: 0.8"/>
      </g>
     </g>
     <g id="text_5">
      <!-- 2023-01 -->
      <g style="fill: #a9a9a9" transform="translate(380.427179 334.998438) scale(0.1 -0.1)">
       <defs>
        <path id="DejaVuSans-33" d="M 2597 2516 
Q 3050 2419 3304 2112 
Q 3559 1806 3559 1356 
Q 3559 666 3084 287 
Q 2609 -91 1734 -91 
Q 1441 -91 1130 -33 
Q 819 25 488 141 
L 488 750 
Q 750 597 1062 519 
Q 1375 441 1716 441 
Q 2309 441 2620 675 
Q 2931 909 2931 1356 
Q 2931 1769 2642 2001 
Q 2353 2234 1838 2234 
L 1294 2234 
L 1294 2753 
L 1863 2753 
Q 2328 2753 2575 2939 
Q 2822 3125 2822 3475 
Q 2822 3834 2567 4026 
Q 2313 4219 1838 4219 
Q 1578 4219 1281 4162 
Q 984 4106 628 3988 
L 628 4550 
Q 988 4650 1302 4700 
Q 1616 4750 1894 4750 
Q 2613 4750 3031 4423 
Q 3450 4097 3450 3541 
Q 3450 3153 3228 2886 
Q 3006 2619 2597 2516 
z
" transform="scale(0.015625)"/>
       </defs>
       <use xlink:href="#DejaVuSans-32"/>
       <use xlink:href="#DejaVuSans-30" x="63.623047"/>
       <use xlink:href="#DejaVuSans-32" x="127.246094"/>
       <use xlink:href="#DejaVuSans-33" x="190.869141"/>
       <use xlink:href="#DejaVuSans-2d" x="254.492188"/>
       <use xlink:href="#DejaVuSans-30" x="290.576172"/>
       <use xlink:href="#DejaVuSans-31" x="354.199219"/>
      </g>
     </g>
    </g>
    <g id="xtick_6">
     <g id="line2d_11">
      <path d="M 461.291715 320.4 
L 461.291715 43.2 
" clip-path="url(#pc93ba1ef08)" style="fill: none; stroke-dasharray: 5.12,1.28,0.8,1.28; stroke-dashoffset: 0; stroke: #b0b0b0; stroke-width: 0.8"/>
     </g>
     <g id="line2d_12">
      <g>
       <use xlink:href="#m158c3afb88" x="461.291715" y="320.4" style="fill: #a9a9a9; stroke: #a9a9a9; stroke-width: 0.8"/>
      </g>
     </g>
     <g id="text_6">
      <!-- 2023-05 -->
      <g style="fill: #a9a9a9" transform="translate(440.400309 334.998438) scale(0.1 -0.1)">
       <use xlink:href="#DejaVuSans-32"/>
       <use xlink:href="#DejaVuSans-30" x="63.623047"/>
       <use xlink:href="#DejaVuSans-32" x="127.246094"/>
       <use xlink:href="#DejaVuSans-33" x="190.869141"/>
       <use xlink:href="#DejaVuSans-2d" x="254.492188"/>
       <use xlink:href="#DejaVuSans-30" x="290.576172"/>
       <use xlink:href="#DejaVuSans-35" x="354.199219"/>
      </g>
     </g>
    </g>
    <g id="xtick_7">
     <g id="line2d_13">
      <path d="M 522.764174 320.4 
L 522.764174 43.2 
" clip-path="url(#pc93ba1ef08)" style="fill: none; stroke-dasharray: 5.12,1.28,0.8,1.28; stroke-dashoffset: 0; stroke: #b0b0b0; stroke-width: 0.8"/>
     </g>
     <g id="line2d_14">
      <g>
       <use xlink:href="#m158c3afb88" x="522.764174" y="320.4" style="fill: #a9a9a9; stroke: #a9a9a9; stroke-width: 0.8"/>
      </g>
     </g>
     <g id="text_7">
      <!-- 2023-09 -->
      <g style="fill: #a9a9a9" transform="translate(501.872768 334.998438) scale(0.1 -0.1)">
       <use xlink:href="#DejaVuSans-32"/>
       <use xlink:href="#DejaVuSans-30" x="63.623047"/>
       <use xlink:href="#DejaVuSans-32" x="127.246094"/>
       <use xlink:href="#DejaVuSans-33" x="190.869141"/>
       <use xlink:href="#DejaVuSans-2d" x="254.492188"/>
       <use xlink:href="#DejaVuSans-30" x="290.576172"/>
       <use xlink:href="#DejaVuSans-39" x="354.199219"/>
      </g>
     </g>
    </g>
    <g id="xtick_8">
     <g id="line2d_15">
      <path d="M 583.736856 320.4 
L 583.736856 43.2 
" clip-path="url(#pc93ba1ef08)" style="fill: none; stroke-dasharray: 5.12,1.28,0.8,1.28; stroke-dashoffset: 0; stroke: #b0b0b0; stroke-width: 0.8"/>
     </g>
     <g id="line2d_16">
      <g>
       <use xlink:href="#m158c3afb88" x="583.736856" y="320.4" style="fill: #a9a9a9; stroke: #a9a9a9; stroke-width: 0.8"/>
      </g>
     </g>
     <g id="text_8">
      <!-- 2024-01 -->
      <g style="fill: #a9a9a9" transform="translate(562.84545 334.998438) scale(0.1 -0.1)">
       <defs>
        <path id="DejaVuSans-34" d="M 2419 4116 
L 825 1625 
L 2419 1625 
L 2419 4116 
z
M 2253 4666 
L 3047 4666 
L 3047 1625 
L 3713 1625 
L 3713 1100 
L 3047 1100 
L 3047 0 
L 2419 0 
L 2419 1100 
L 313 1100 
L 313 1709 
L 2253 4666 
z
" transform="scale(0.015625)"/>
       </defs>
       <use xlink:href="#DejaVuSans-32"/>
       <use xlink:href="#DejaVuSans-30" x="63.623047"/>
       <use xlink:href="#DejaVuSans-32" x="127.246094"/>
       <use xlink:href="#DejaVuSans-34" x="190.869141"/>
       <use xlink:href="#DejaVuSans-2d" x="254.492188"/>
       <use xlink:href="#DejaVuSans-30" x="290.576172"/>
       <use xlink:href="#DejaVuSans-31" x="354.199219"/>
      </g>
     </g>
    </g>
    <g id="xtick_9">
     <g id="line2d_17">
      <path d="M 644.209763 320.4 
L 644.209763 43.2 
" clip-path="url(#pc93ba1ef08)" style="fill: none; stroke-dasharray: 5.12,1.28,0.8,1.28; stroke-dashoffset: 0; stroke: #b0b0b0; stroke-width: 0.8"/>
     </g>
     <g id="line2d_18">
      <g>
       <use xlink:href="#m158c3afb88" x="644.209763" y="320.4" style="fill: #a9a9a9; stroke: #a9a9a9; stroke-width: 0.8"/>
      </g>
     </g>
     <g id="text_9">
      <!-- 2024-05 -->
      <g style="fill: #a9a9a9" transform="translate(623.318356 334.998438) scale(0.1 -0.1)">
       <use xlink:href="#DejaVuSans-32"/>
       <use xlink:href="#DejaVuSans-30" x="63.623047"/>
       <use xlink:href="#DejaVuSans-32" x="127.246094"/>
       <use xlink:href="#DejaVuSans-34" x="190.869141"/>
       <use xlink:href="#DejaVuSans-2d" x="254.492188"/>
       <use xlink:href="#DejaVuSans-30" x="290.576172"/>
       <use xlink:href="#DejaVuSans-35" x="354.199219"/>
      </g>
     </g>
    </g>
    <g id="xtick_10">
     <g id="line2d_19">
      <path d="M 705.682221 320.4 
L 705.682221 43.2 
" clip-path="url(#pc93ba1ef08)" style="fill: none; stroke-dasharray: 5.12,1.28,0.8,1.28; stroke-dashoffset: 0; stroke: #b0b0b0; stroke-width: 0.8"/>
     </g>
     <g id="line2d_20">
      <g>
       <use xlink:href="#m158c3afb88" x="705.682221" y="320.4" style="fill: #a9a9a9; stroke: #a9a9a9; stroke-width: 0.8"/>
      </g>
     </g>
     <g id="text_10">
      <!-- 2024-09 -->
      <g style="fill: #a9a9a9" transform="translate(684.790815 334.998438) scale(0.1 -0.1)">
       <use xlink:href="#DejaVuSans-32"/>
       <use xlink:href="#DejaVuSans-30" x="63.623047"/>
       <use xlink:href="#DejaVuSans-32" x="127.246094"/>
       <use xlink:href="#DejaVuSans-34" x="190.869141"/>
       <use xlink:href="#DejaVuSans-2d" x="254.492188"/>
       <use xlink:href="#DejaVuSans-30" x="290.576172"/>
       <use xlink:href="#DejaVuSans-39" x="354.199219"/>
      </g>
     </g>
    </g>
    <g id="xtick_11">
     <g id="line2d_21">
      <path d="M 766.654904 320.4 
L 766.654904 43.2 
" clip-path="url(#pc93ba1ef08)" style="fill: none; stroke-dasharray: 5.12,1.28,0.8,1.28; stroke-dashoffset: 0; stroke: #b0b0b0; stroke-width: 0.8"/>
     </g>
     <g id="line2d_22">
      <g>
       <use xlink:href="#m158c3afb88" x="766.654904" y="320.4" style="fill: #a9a9a9; stroke: #a9a9a9; stroke-width: 0.8"/>
      </g>
     </g>
     <g id="text_11">
      <!-- 2025-01 -->
      <g style="fill: #a9a9a9" transform="translate(745.763497 334.998438) scale(0.1 -0.1)">
       <use xlink:href="#DejaVuSans-32"/>
       <use xlink:href="#DejaVuSans-30" x="63.623047"/>
       <use xlink:href="#DejaVuSans-32" x="127.246094"/>
       <use xlink:href="#DejaVuSans-35" x="190.869141"/>
       <use xlink:href="#DejaVuSans-2d" x="254.492188"/>
       <use xlink:href="#DejaVuSans-30" x="290.576172"/>
       <use xlink:href="#DejaVuSans-31" x="354.199219"/>
      </g>
     </g>
    </g>
   </g>
   <g id="matplotlib.axis_2">
    <g id="ytick_1">
     <g id="line2d_23">
      <path d="M 108 307.836036 
L 777.6 307.836036 
" clip-path="url(#pc93ba1ef08)" style="fill: none; stroke-dasharray: 5.12,1.28,0.8,1.28; stroke-dashoffset: 0; stroke: #b0b0b0; stroke-width: 0.8"/>
     </g>
     <g id="line2d_24">
      <defs>
       <path id="m4e2a0ef3b5" d="M 0 0 
L -3.5 0 
" style="stroke: #a9a9a9; stroke-width: 0.8"/>
      </defs>
      <g>
       <use xlink:href="#m4e2a0ef3b5" x="108" y="307.836036" style="fill: #a9a9a9; stroke: #a9a9a9; stroke-width: 0.8"/>
      </g>
     </g>
     <g id="text_12">
      <!-- 0 -->
      <g style="fill: #a9a9a9" transform="translate(94.6375 311.635255) scale(0.1 -0.1)">
       <use xlink:href="#DejaVuSans-30"/>
      </g>
     </g>
    </g>
    <g id="ytick_2">
     <g id="line2d_25">
      <path d="M 108 279.007207 
L 777.6 279.007207 
" clip-path="url(#pc93ba1ef08)" style="fill: none; stroke-dasharray: 5.12,1.28,0.8,1.28; stroke-dashoffset: 0; stroke: #b0b0b0; stroke-width: 0.8"/>
     </g>
     <g id="line2d_26">
      <g>
       <use xlink:href="#m4e2a0ef3b5" x="108" y="279.007207" style="fill: #a9a9a9; stroke: #a9a9a9; stroke-width: 0.8"/>
      </g>
     </g>
     <g id="text_13">
      <!-- 800 -->
      <g style="fill: #a9a9a9" transform="translate(81.9125 282.806426) scale(0.1 -0.1)">
       <defs>
        <path id="DejaVuSans-38" d="M 2034 2216 
Q 1584 2216 1326 1975 
Q 1069 1734 1069 1313 
Q 1069 891 1326 650 
Q 1584 409 2034 409 
Q 2484 409 2743 651 
Q 3003 894 3003 1313 
Q 3003 1734 2745 1975 
Q 2488 2216 2034 2216 
z
M 1403 2484 
Q 997 2584 770 2862 
Q 544 3141 544 3541 
Q 544 4100 942 4425 
Q 1341 4750 2034 4750 
Q 2731 4750 3128 4425 
Q 3525 4100 3525 3541 
Q 3525 3141 3298 2862 
Q 3072 2584 2669 2484 
Q 3125 2378 3379 2068 
Q 3634 1759 3634 1313 
Q 3634 634 3220 271 
Q 2806 -91 2034 -91 
Q 1263 -91 848 271 
Q 434 634 434 1313 
Q 434 1759 690 2068 
Q 947 2378 1403 2484 
z
M 1172 3481 
Q 1172 3119 1398 2916 
Q 1625 2713 2034 2713 
Q 2441 2713 2670 2916 
Q 2900 3119 2900 3481 
Q 2900 3844 2670 4047 
Q 2441 4250 2034 4250 
Q 1625 4250 1398 4047 
Q 1172 3844 1172 3481 
z
" transform="scale(0.015625)"/>
       </defs>
       <use xlink:href="#DejaVuSans-38"/>
       <use xlink:href="#DejaVuSans-30" x="63.623047"/>
       <use xlink:href="#DejaVuSans-30" x="127.246094"/>
      </g>
     </g>
    </g>
    <g id="ytick_3">
     <g id="line2d_27">
      <path d="M 108 250.178378 
L 777.6 250.178378 
" clip-path="url(#pc93ba1ef08)" style="fill: none; stroke-dasharray: 5.12,1.28,0.8,1.28; stroke-dashoffset: 0; stroke: #b0b0b0; stroke-width: 0.8"/>
     </g>
     <g id="line2d_28">
      <g>
       <use xlink:href="#m4e2a0ef3b5" x="108" y="250.178378" style="fill: #a9a9a9; stroke: #a9a9a9; stroke-width: 0.8"/>
      </g>
     </g>
     <g id="text_14">
      <!-- 1600 -->
      <g style="fill: #a9a9a9" transform="translate(75.55 253.977597) scale(0.1 -0.1)">
       <defs>
        <path id="DejaVuSans-36" d="M 2113 2584 
Q 1688 2584 1439 2293 
Q 1191 2003 1191 1497 
Q 1191 994 1439 701 
Q 1688 409 2113 409 
Q 2538 409 2786 701 
Q 3034 994 3034 1497 
Q 3034 2003 2786 2293 
Q 2538 2584 2113 2584 
z
M 3366 4563 
L 3366 3988 
Q 3128 4100 2886 4159 
Q 2644 4219 2406 4219 
Q 1781 4219 1451 3797 
Q 1122 3375 1075 2522 
Q 1259 2794 1537 2939 
Q 1816 3084 2150 3084 
Q 2853 3084 3261 2657 
Q 3669 2231 3669 1497 
Q 3669 778 3244 343 
Q 2819 -91 2113 -91 
Q 1303 -91 875 529 
Q 447 1150 447 2328 
Q 447 3434 972 4092 
Q 1497 4750 2381 4750 
Q 2619 4750 2861 4703 
Q 3103 4656 3366 4563 
z
" transform="scale(0.015625)"/>
       </defs>
       <use xlink:href="#DejaVuSans-31"/>
       <use xlink:href="#DejaVuSans-36" x="63.623047"/>
       <use xlink:href="#DejaVuSans-30" x="127.246094"/>
       <use xlink:href="#DejaVuSans-30" x="190.869141"/>
      </g>
     </g>
    </g>
    <g id="ytick_4">
     <g id="line2d_29">
      <path d="M 108 221.34955 
L 777.6 221.34955 
" clip-path="url(#pc93ba1ef08)" style="fill: none; stroke-dasharray: 5.12,1.28,0.8,1.28; stroke-dashoffset: 0; stroke: #b0b0b0; stroke-width: 0.8"/>
     </g>
     <g id="line2d_30">
      <g>
       <use xlink:href="#m4e2a0ef3b5" x="108" y="221.34955" style="fill: #a9a9a9; stroke: #a9a9a9; stroke-width: 0.8"/>
      </g>
     </g>
     <g id="text_15">
      <!-- 2400 -->
      <g style="fill: #a9a9a9" transform="translate(75.55 225.148768) scale(0.1 -0.1)">
       <use xlink:href="#DejaVuSans-32"/>
       <use xlink:href="#DejaVuSans-34" x="63.623047"/>
       <use xlink:href="#DejaVuSans-30" x="127.246094"/>
       <use xlink:href="#DejaVuSans-30" x="190.869141"/>
      </g>
     </g>
    </g>
    <g id="ytick_5">
     <g id="line2d_31">
      <path d="M 108 192.520721 
L 777.6 192.520721 
" clip-path="url(#pc93ba1ef08)" style="fill: none; stroke-dasharray: 5.12,1.28,0.8,1.28; stroke-dashoffset: 0; stroke: #b0b0b0; stroke-width: 0.8"/>
     </g>
     <g id="line2d_32">
      <g>
       <use xlink:href="#m4e2a0ef3b5" x="108" y="192.520721" style="fill: #a9a9a9; stroke: #a9a9a9; stroke-width: 0.8"/>
      </g>
     </g>
     <g id="text_16">
      <!-- 3200 -->
      <g style="fill: #a9a9a9" transform="translate(75.55 196.319939) scale(0.1 -0.1)">
       <use xlink:href="#DejaVuSans-33"/>
       <use xlink:href="#DejaVuSans-32" x="63.623047"/>
       <use xlink:href="#DejaVuSans-30" x="127.246094"/>
       <use xlink:href="#DejaVuSans-30" x="190.869141"/>
      </g>
     </g>
    </g>
    <g id="ytick_6">
     <g id="line2d_33">
      <path d="M 108 163.691892 
L 777.6 163.691892 
" clip-path="url(#pc93ba1ef08)" style="fill: none; stroke-dasharray: 5.12,1.28,0.8,1.28; stroke-dashoffset: 0; stroke: #b0b0b0; stroke-width: 0.8"/>
     </g>
     <g id="line2d_34">
      <g>
       <use xlink:href="#m4e2a0ef3b5" x="108" y="163.691892" style="fill: #a9a9a9; stroke: #a9a9a9; stroke-width: 0.8"/>
      </g>
     </g>
     <g id="text_17">
      <!-- 4000 -->
      <g style="fill: #a9a9a9" transform="translate(75.55 167.491111) scale(0.1 -0.1)">
       <use xlink:href="#DejaVuSans-34"/>
       <use xlink:href="#DejaVuSans-30" x="63.623047"/>
       <use xlink:href="#DejaVuSans-30" x="127.246094"/>
       <use xlink:href="#DejaVuSans-30" x="190.869141"/>
      </g>
     </g>
    </g>
    <g id="ytick_7">
     <g id="line2d_35">
      <path d="M 108 134.863063 
L 777.6 134.863063 
" clip-path="url(#pc93ba1ef08)" style="fill: none; stroke-dasharray: 5.12,1.28,0.8,1.28; stroke-dashoffset: 0; stroke: #b0b0b0; stroke-width: 0.8"/>
     </g>
     <g id="line2d_36">
      <g>
       <use xlink:href="#m4e2a0ef3b5" x="108" y="134.863063" style="fill: #a9a9a9; stroke: #a9a9a9; stroke-width: 0.8"/>
      </g>
     </g>
     <g id="text_18">
      <!-- 4800 -->
      <g style="fill: #a9a9a9" transform="translate(75.55 138.662282) scale(0.1 -0.1)">
       <use xlink:href="#DejaVuSans-34"/>
       <use xlink:href="#DejaVuSans-38" x="63.623047"/>
       <use xlink:href="#DejaVuSans-30" x="127.246094"/>
       <use xlink:href="#DejaVuSans-30" x="190.869141"/>
      </g>
     </g>
    </g>
    <g id="ytick_8">
     <g id="line2d_37">
      <path d="M 108 106.034234 
L 777.6 106.034234 
" clip-path="url(#pc93ba1ef08)" style="fill: none; stroke-dasharray: 5.12,1.28,0.8,1.28; stroke-dashoffset: 0; stroke: #b0b0b0; stroke-width: 0.8"/>
     </g>
     <g id="line2d_38">
      <g>
       <use xlink:href="#m4e2a0ef3b5" x="108" y="106.034234" style="fill: #a9a9a9; stroke: #a9a9a9; stroke-width: 0.8"/>
      </g>
     </g>
     <g id="text_19">
      <!-- 5600 -->
      <g style="fill: #a9a9a9" transform="translate(75.55 109.833453) scale(0.1 -0.1)">
       <use xlink:href="#DejaVuSans-35"/>
       <use xlink:href="#DejaVuSans-36" x="63.623047"/>
       <use xlink:href="#DejaVuSans-30" x="127.246094"/>
       <use xlink:href="#DejaVuSans-30" x="190.869141"/>
      </g>
     </g>
    </g>
    <g id="ytick_9">
     <g id="line2d_39">
      <path d="M 108 77.205405 
L 777.6 77.205405 
" clip-path="url(#pc93ba1ef08)" style="fill: none; stroke-dasharray: 5.12,1.28,0.8,1.28; stroke-dashoffset: 0; stroke: #b0b0b0; stroke-width: 0.8"/>
     </g>
     <g id="line2d_40">
      <g>
       <use xlink:href="#m4e2a0ef3b5" x="108" y="77.205405" style="fill: #a9a9a9; stroke: #a9a9a9; stroke-width: 0.8"/>
      </g>
     </g>
     <g id="text_20">
      <!-- 6400 -->
      <g style="fill: #a9a9a9" transform="translate(75.55 81.004624) scale(0.1 -0.1)">
       <use xlink:href="#DejaVuSans-36"/>
       <use xlink:href="#DejaVuSans-34" x="63.623047"/>
       <use xlink:href="#DejaVuSans-30" x="127.246094"/>
       <use xlink:href="#DejaVuSans-30" x="190.869141"/>
      </g>
     </g>
    </g>
    <g id="ytick_10">
     <g id="line2d_41">
      <path d="M 108 48.376577 
L 777.6 48.376577 
" clip-path="url(#pc93ba1ef08)" style="fill: none; stroke-dasharray: 5.12,1.28,0.8,1.28; stroke-dashoffset: 0; stroke: #b0b0b0; stroke-width: 0.8"/>
     </g>
     <g id="line2d_42">
      <g>
       <use xlink:href="#m4e2a0ef3b5" x="108" y="48.376577" style="fill: #a9a9a9; stroke: #a9a9a9; stroke-width: 0.8"/>
      </g>
     </g>
     <g id="text_21">
      <!-- 7200 -->
      <g style="fill: #a9a9a9" transform="translate(75.55 52.175795) scale(0.1 -0.1)">
       <defs>
        <path id="DejaVuSans-37" d="M 525 4666 
L 3525 4666 
L 3525 4397 
L 1831 0 
L 1172 0 
L 2766 4134 
L 525 4134 
L 525 4666 
z
" transform="scale(0.015625)"/>
       </defs>
       <use xlink:href="#DejaVuSans-37"/>
       <use xlink:href="#DejaVuSans-32" x="63.623047"/>
       <use xlink:href="#DejaVuSans-30" x="127.246094"/>
       <use xlink:href="#DejaVuSans-30" x="190.869141"/>
      </g>
     </g>
    </g>
   </g>
   <g id="line2d_43">
    <path d="M 138.436364 307.727928 
L 141.43502 307.475676 
L 141.934796 307.259459 
L 143.933901 307.007207 
L 145.933005 306.610811 
L 146.932557 306.466667 
L 149.431438 306.25045 
L 150.43099 305.854054 
L 150.930766 305.205405 
L 151.430542 304.845045 
L 151.930318 303.727928 
L 152.430094 303.655856 
L 152.92987 303.259459 
L 153.929422 302.754955 
L 155.928527 301.169369 
L 157.927631 300.196396 
L 159.426959 299.511712 
L 159.926735 298.718919 
L 160.926288 297.998198 
L 161.426064 297.781982 
L 166.423824 297.061261 
L 166.923601 296.845045 
L 170.422033 296.556757 
L 172.421137 296.088288 
L 176.419346 295.547748 
L 176.919122 295.295495 
L 177.418898 295.223423 
L 178.418451 294.899099 
L 181.916883 294.322523 
L 182.916435 294.034234 
L 187.41442 293.277477 
L 188.413972 293.061261 
L 189.413524 293.025225 
L 191.412629 292.556757 
L 191.912405 291.872072 
L 193.411733 291.295495 
L 194.911061 290.899099 
L 195.410837 290.646847 
L 196.41039 290.466667 
L 198.409494 289.89009 
L 199.409046 289.818018 
L 200.408598 289.565766 
L 202.407703 289.061261 
L 202.907479 289.025225 
L 203.907031 288.556757 
L 204.406807 288.484685 
L 204.906583 288.232432 
L 210.40412 287.331532 
L 212.403224 286.754955 
L 212.903 286.430631 
L 215.401881 285.601802 
L 216.401433 284.917117 
L 217.900761 284.628829 
L 230.89494 280.989189 
L 231.394716 280.989189 
L 231.894492 280.772973 
L 232.894044 280.664865 
L 233.39382 280.484685 
L 235.392924 280.376577 
L 236.392476 280.196396 
L 237.392029 279.691892 
L 238.891357 279.151351 
L 239.391133 278.827027 
L 240.390685 278.394595 
L 240.890461 278.142342 
L 241.890013 277.818018 
L 242.38979 277.673874 
L 243.389342 277.061261 
L 243.889118 276.520721 
L 244.88867 275.007207 
L 245.388446 274.863063 
L 245.888222 274.863063 
L 247.38755 273.998198 
L 247.887326 273.745946 
L 248.387103 273.637838 
L 248.886879 273.169369 
L 249.886431 272.772973 
L 250.885983 272.304505 
L 253.384863 269.133333 
L 256.38352 267.547748 
L 257.383072 266.754955 
L 257.882848 266.430631 
L 258.382624 265.673874 
L 258.8824 264.556757 
L 259.382176 263.8 
L 259.881953 263.403604 
L 260.381729 263.187387 
L 263.880161 260.232432 
L 264.879713 259.043243 
L 265.879266 258.322523 
L 268.378146 256.809009 
L 269.377698 256.268468 
L 271.376803 255.223423 
L 273.875683 252.989189 
L 274.875235 252.592793 
L 275.874787 251.908108 
L 276.374563 251.61982 
L 276.874339 251.547748 
L 278.373668 250.718919 
L 278.873444 250.178378 
L 281.372324 248.845045 
L 281.8721 248.664865 
L 283.371429 247.655856 
L 290.86807 245.025225 
L 291.867622 244.124324 
L 292.867174 243.655856 
L 293.866726 243.115315 
L 294.366502 242.827027 
L 295.366055 242.538739 
L 295.865831 242.214414 
L 296.365607 242.07027 
L 297.864935 241.097297 
L 300.363815 240.520721 
L 301.863144 239.655856 
L 303.362472 239.331532 
L 303.862248 239.187387 
L 305.361576 238.07027 
L 307.360681 237.52973 
L 307.860457 237.133333 
L 310.859113 236.124324 
L 311.858665 235.944144 
L 312.858218 235.547748 
L 316.35665 234.286486 
L 317.356202 234.142342 
L 318.855531 233.637838 
L 321.354411 232.448649 
L 323.353515 231.367568 
L 327.351724 229.745946 
L 327.8515 229.673874 
L 328.851052 229.061261 
L 329.350828 228.989189 
L 331.349933 228.16036 
L 333.349037 227.872072 
L 334.348589 227.367568 
L 334.848365 226.935135 
L 335.348142 226.034234 
L 337.347246 225.493694 
L 338.846574 224.736937 
L 339.34635 224.628829 
L 343.344559 222.718919 
L 344.843887 222.430631 
L 345.843439 221.926126 
L 346.343215 221.70991 
L 346.842991 221.637838 
L 348.842096 220.736937 
L 350.341424 219.8 
L 351.840752 219.511712 
L 354.339633 218.899099 
L 354.839409 218.502703 
L 356.338737 217.962162 
L 358.337841 217.169369 
L 358.837618 216.809009 
L 359.337394 216.628829 
L 360.336946 216.088288 
L 362.835826 215.259459 
L 364.335155 214.07027 
L 364.834931 213.962162 
L 365.834483 213.169369 
L 366.334259 213.097297 
L 366.834035 212.304505 
L 367.333811 212.088288 
L 367.833587 211.691892 
L 368.333363 211.61982 
L 369.332915 211.007207 
L 370.332468 210.682883 
L 370.832244 210.322523 
L 371.33202 210.142342 
L 372.831348 209.097297 
L 374.830452 208.052252 
L 375.330228 207.98018 
L 376.829557 207.223423 
L 377.329333 206.394595 
L 378.328885 205.673874 
L 378.828661 205.565766 
L 379.828213 204.953153 
L 380.327989 204.845045 
L 381.327541 204.340541 
L 383.326646 203.367568 
L 383.826422 203.007207 
L 384.825974 202.034234 
L 385.825526 201.421622 
L 386.325302 201.097297 
L 386.825078 200.556757 
L 388.824183 199.187387 
L 389.323959 198.610811 
L 389.823735 198.214414 
L 390.823287 197.854054 
L 391.822839 197.169369 
L 393.322167 196.412613 
L 393.821944 196.340541 
L 395.321272 195.547748 
L 396.320824 194.935135 
L 401.318585 193.133333 
L 401.818361 192.736937 
L 403.817465 191.98018 
L 404.317241 191.836036 
L 404.817017 191.43964 
L 407.315898 190.07027 
L 408.31545 188.088288 
L 409.315002 186.935135 
L 410.314554 186.358559 
L 411.813883 185.745946 
L 412.313659 185.673874 
L 412.813435 185.385586 
L 415.312315 184.592793 
L 415.812091 184.376577 
L 416.811644 183.691892 
L 418.310972 183.043243 
L 419.310524 182.502703 
L 419.8103 182.142342 
L 420.310076 181.926126 
L 420.809852 181.565766 
L 421.309628 181.025225 
L 422.30918 180.484685 
L 424.808061 179.151351 
L 427.806717 177.673874 
L 429.306046 177.241441 
L 430.805374 176.664865 
L 431.30515 176.304505 
L 432.304702 176.016216 
L 433.304254 175.61982 
L 433.80403 175.223423 
L 435.803135 174.538739 
L 436.802687 173.818018 
L 437.802239 173.385586 
L 438.801791 172.592793 
L 439.801343 172.232432 
L 440.30112 171.8 
L 440.800896 171.727928 
L 441.800448 170.971171 
L 442.8 170.466667 
L 443.299776 170.25045 
L 443.799552 169.745946 
L 447.297985 168.376577 
L 448.297537 167.944144 
L 449.796865 167.475676 
L 450.796417 167.331532 
L 451.296193 167.115315 
L 451.79597 167.043243 
L 452.795522 166.610811 
L 453.295298 166.574775 
L 455.294402 165.818018 
L 456.79373 164.772973 
L 457.293506 164.592793 
L 458.293059 164.052252 
L 458.792835 163.908108 
L 461.791491 162.25045 
L 462.291267 162.142342 
L 463.790596 161.277477 
L 465.289924 160.772973 
L 466.289476 160.448649 
L 468.28858 159.8 
L 469.288133 159.475676 
L 471.287237 159.079279 
L 471.787013 158.863063 
L 472.286789 158.790991 
L 473.286341 158.358559 
L 473.786117 158.286486 
L 474.285893 158.034234 
L 475.285446 157.854054 
L 476.784774 157.313514 
L 477.784326 157.205405 
L 479.283654 156.881081 
L 481.782535 156.448649 
L 494.776713 152.700901 
L 495.276489 152.196396 
L 496.276041 151.8 
L 499.274698 150.718919 
L 499.774474 150.394595 
L 500.27425 150.286486 
L 500.774026 149.998198 
L 502.273354 149.565766 
L 503.272906 149.313514 
L 503.772682 148.989189 
L 504.272459 148.881081 
L 504.772235 148.448649 
L 506.271563 148.16036 
L 507.271115 147.691892 
L 507.770891 147.115315 
L 509.769996 146.646847 
L 513.268428 145.926126 
L 513.768204 145.926126 
L 514.26798 145.70991 
L 516.267085 145.34955 
L 516.766861 145.133333 
L 518.765965 144.772973 
L 519.765517 144.340541 
L 520.765069 144.16036 
L 523.26395 143.547748 
L 525.263054 142.935135 
L 525.76283 142.827027 
L 526.262606 142.574775 
L 527.262159 142.322523 
L 527.761935 142.034234 
L 529.261263 141.52973 
L 529.761039 141.205405 
L 530.760591 140.917117 
L 531.760143 140.592793 
L 532.759695 140.196396 
L 534.259024 139.547748 
L 536.258128 139.295495 
L 540.256337 137.89009 
L 540.756113 137.52973 
L 541.255889 137.421622 
L 541.755665 137.169369 
L 542.255441 137.133333 
L 547.752978 135.223423 
L 550.251858 134.574775 
L 551.251411 134.106306 
L 552.750739 133.781982 
L 553.250515 133.385586 
L 553.750291 133.133333 
L 554.250067 132.520721 
L 554.749843 132.16036 
L 555.749395 131.872072 
L 556.249172 131.475676 
L 559.247828 130.358559 
L 559.747604 130.034234 
L 560.747156 129.745946 
L 561.246932 129.421622 
L 563.745813 128.628829 
L 565.245141 127.763964 
L 565.744917 127.655856 
L 568.243798 126.322523 
L 569.743126 125.673874 
L 570.242902 125.313514 
L 571.242454 124.989189 
L 572.242006 124.412613 
L 572.741782 124.232432 
L 573.241558 123.872072 
L 579.738648 121.601802 
L 580.238424 121.493694 
L 580.7382 121.169369 
L 582.737304 120.772973 
L 583.736856 120.376577 
L 584.236632 120.088288 
L 584.736408 119.944144 
L 586.735513 118.899099 
L 587.235289 118.827027 
L 588.734617 117.998198 
L 590.233945 117.493694 
L 593.732378 116.088288 
L 594.232154 115.944144 
L 594.73193 115.61982 
L 595.731482 115.511712 
L 596.231258 115.187387 
L 597.230811 115.007207 
L 598.230363 114.538739 
L 598.730139 114.322523 
L 599.229915 114.25045 
L 601.728795 113.277477 
L 603.228124 112.881081 
L 604.227676 112.628829 
L 605.727004 112.196396 
L 606.726556 111.8 
L 608.725661 110.718919 
L 609.725213 110.322523 
L 610.224989 109.998198 
L 611.224541 109.781982 
L 611.724317 109.493694 
L 612.224093 109.385586 
L 613.723421 108.556757 
L 614.722974 108.16036 
L 616.722078 107.403604 
L 619.220958 106.574775 
L 620.220511 106.07027 
L 622.719391 105.241441 
L 625.718047 104.052252 
L 627.717152 103.151351 
L 632.714913 101.241441 
L 633.214689 100.917117 
L 635.213793 100.232432 
L 635.713569 100.232432 
L 636.713121 99.8 
L 637.712674 98.899099 
L 638.21245 98.466667 
L 639.711778 97.745946 
L 640.211554 97.637838 
L 640.71133 97.385586 
L 641.211106 97.313514 
L 641.710882 96.953153 
L 642.210658 96.845045 
L 643.21021 96.232432 
L 644.709539 95.475676 
L 645.709091 95.079279 
L 646.208867 94.827027 
L 647.708195 94.502703 
L 650.207076 93.673874 
L 651.206628 93.34955 
L 652.705956 92.592793 
L 653.705508 92.124324 
L 654.70506 91.872072 
L 656.204389 91.187387 
L 660.702373 89.52973 
L 662.201702 88.628829 
L 662.701478 88.520721 
L 663.70103 88.016216 
L 664.700582 87.655856 
L 665.200358 87.223423 
L 666.19991 86.827027 
L 667.699239 86.214414 
L 668.199015 85.818018 
L 668.698791 85.781982 
L 669.698343 85.493694 
L 670.697895 85.169369 
L 671.197671 84.917117 
L 671.697447 84.845045 
L 673.196776 84.304505 
L 674.696104 83.763964 
L 675.695656 83.367568 
L 676.195432 82.971171 
L 677.69476 82.574775 
L 678.194536 82.286486 
L 679.194089 82.034234 
L 680.693417 81.205405 
L 681.193193 81.169369 
L 682.692521 80.700901 
L 683.692073 80.628829 
L 684.691626 80.232432 
L 687.690282 79.367568 
L 688.689834 79.331532 
L 692.688043 78.07027 
L 693.687595 77.52973 
L 694.187371 77.097297 
L 695.6867 76.232432 
L 696.686252 75.61982 
L 698.685356 75.043243 
L 699.185132 74.754955 
L 699.684908 74.646847 
L 700.184684 74.25045 
L 703.183341 73.025225 
L 705.182445 72.484685 
L 706.181997 72.052252 
L 706.681773 71.8 
L 707.681326 71.511712 
L 708.181102 71.187387 
L 709.180654 71.007207 
L 711.679534 69.854054 
L 712.17931 69.565766 
L 713.678639 69.205405 
L 714.178415 68.881081 
L 714.678191 68.700901 
L 715.177967 68.268468 
L 715.677743 68.196396 
L 718.176623 67.223423 
L 719.675952 66.863063 
L 720.175728 66.790991 
L 720.675504 66.574775 
L 721.17528 66.538739 
L 722.174832 66.214414 
L 722.674608 66.178378 
L 724.173936 65.601802 
L 726.173041 65.025225 
L 727.172593 64.268468 
L 729.171697 63.187387 
L 730.671026 62.682883 
L 733.669682 61.34955 
L 734.669234 60.809009 
L 735.16901 60.556757 
L 735.668786 60.088288 
L 738.167667 59.367568 
L 739.167219 58.827027 
L 741.166323 58.106306 
L 741.666099 57.637838 
L 743.665204 57.097297 
L 744.16498 56.736937 
L 746.66386 55.8 
L 747.163636 55.8 
L 747.163636 55.8 
" clip-path="url(#pc93ba1ef08)" style="fill: none; stroke: #1f77b4; stroke-width: 1.5; stroke-linecap: square"/>
   </g>
   <g id="line2d_44">
    <path d="M 138.93614 307.8 
L 143.434124 307.691892 
L 147.432333 307.511712 
L 149.431438 307.511712 
L 149.931214 307.367568 
L 152.430094 307.259459 
L 155.428751 306.935135 
L 158.427407 306.827027 
L 159.426959 306.718919 
L 162.925392 306.574775 
L 166.423824 306.466667 
L 168.922705 306.394595 
L 175.419794 306.286486 
L 177.918674 306.214414 
L 181.417107 306.106306 
L 183.915987 306.034234 
L 189.413524 305.926126 
L 191.412629 305.745946 
L 193.411733 305.70991 
L 196.41039 305.601802 
L 198.409494 305.565766 
L 200.908374 305.493694 
L 202.907479 305.313514 
L 207.405464 305.205405 
L 208.405016 305.133333 
L 210.40412 305.025225 
L 213.402777 304.917117 
L 215.401881 304.809009 
L 224.39785 304.268468 
L 227.896283 304.16036 
L 229.395611 304.016216 
L 231.894492 303.908108 
L 236.892253 303.655856 
L 241.890013 303.583784 
L 243.889118 303.367568 
L 245.888222 303.259459 
L 251.385759 302.754955 
L 254.884192 302.358559 
L 256.38352 302.286486 
L 260.881505 301.745946 
L 263.380385 301.673874 
L 264.879713 301.52973 
L 266.379042 301.421622 
L 280.372772 300.376577 
L 281.372324 300.196396 
L 284.370981 300.088288 
L 292.367398 299.61982 
L 295.865831 299.511712 
L 297.864935 299.295495 
L 300.363815 299.187387 
L 303.362472 299.079279 
L 305.861352 298.971171 
L 307.860457 298.935135 
L 310.359337 298.863063 
L 311.358889 298.718919 
L 318.355755 298.610811 
L 319.355307 298.502703 
L 325.35262 298.394595 
L 329.850605 298.178378 
L 333.349037 298.07027 
L 335.348142 297.854054 
L 338.846574 297.745946 
L 339.846126 297.565766 
L 342.345007 297.493694 
L 347.342768 297.421622 
L 349.841648 297.169369 
L 352.840305 297.061261 
L 354.839409 296.881081 
L 359.83717 296.628829 
L 364.834931 296.520721 
L 369.332915 296.304505 
L 370.832244 296.268468 
L 371.831796 296.124324 
L 374.330676 296.016216 
L 375.330228 295.944144 
L 376.329781 295.872072 
L 377.329333 295.8 
L 381.827318 295.727928 
L 383.326646 295.61982 
L 396.8206 294.754955 
L 399.319481 294.646847 
L 401.818361 294.574775 
L 408.815226 294.466667 
L 409.814778 294.322523 
L 416.811644 294.214414 
L 421.809404 293.962162 
L 422.808957 293.926126 
L 423.808509 293.818018 
L 426.307389 293.70991 
L 428.80627 293.637838 
L 431.30515 293.52973 
L 433.80403 293.457658 
L 438.302015 293.34955 
L 441.300672 293.241441 
L 448.297537 293.133333 
L 453.795074 292.845045 
L 455.794178 292.772973 
L 457.293506 292.664865 
L 464.290372 292.556757 
L 467.289028 292.448649 
L 476.284998 292.340541 
L 478.284102 292.304505 
L 484.281415 292.232432 
L 485.280967 292.16036 
L 492.277833 292.052252 
L 494.276937 292.016216 
L 507.271115 291.908108 
L 508.770443 291.763964 
L 531.260367 291.655856 
L 533.759248 291.583784 
L 546.753426 291.475676 
L 547.752978 291.403604 
L 550.251858 291.331532 
L 551.751187 291.187387 
L 554.749843 291.079279 
L 558.248276 290.935135 
L 562.746261 290.827027 
L 565.245141 290.754955 
L 568.743574 290.646847 
L 572.741782 290.466667 
L 575.240663 290.358559 
L 577.239767 290.322523 
L 581.737752 290.214414 
L 583.736856 290.178378 
L 590.233945 290.07027 
L 592.23305 290.034234 
L 594.73193 289.926126 
L 597.730587 289.818018 
L 601.229019 289.745946 
L 602.228571 289.673874 
L 614.223197 289.565766 
L 620.720287 289.205405 
L 623.219167 289.133333 
L 624.218719 289.025225 
L 625.218271 288.953153 
L 629.21648 288.845045 
L 632.215137 288.736937 
L 637.212897 288.628829 
L 639.711778 288.376577 
L 644.709539 288.268468 
L 645.709091 288.16036 
L 650.706852 288.052252 
L 653.205732 287.98018 
L 658.703269 287.944144 
L 659.702821 287.836036 
L 665.200358 287.727928 
L 666.19991 287.655856 
L 677.194984 287.547748 
L 680.193641 287.43964 
L 687.690282 287.331532 
L 689.689386 287.295495 
L 694.187371 287.223423 
L 695.186923 287.115315 
L 701.184236 287.007207 
L 704.182893 286.899099 
L 713.178863 286.790991 
L 714.678191 286.682883 
L 716.177519 286.574775 
L 717.676847 286.466667 
L 725.173489 286.358559 
L 728.671921 286.214414 
L 741.666099 286.106306 
L 746.164084 285.89009 
L 747.163636 285.89009 
L 747.163636 285.89009 
" clip-path="url(#pc93ba1ef08)" style="fill: none; stroke: #ff7f0e; stroke-width: 1.5; stroke-linecap: square"/>
   </g>
   <g id="patch_3">
    <path d="M 108 320.4 
L 108 43.2 
" style="fill: none; stroke: #a9a9a9; stroke-width: 0.8; stroke-linejoin: miter; stroke-linecap: square"/>
   </g>
   <g id="patch_4">
    <path d="M 777.6 320.4 
L 777.6 43.2 
" style="fill: none"/>
   </g>
   <g id="patch_5">
    <path d="M 108 320.4 
L 777.6 320.4 
" style="fill: none; stroke: #a9a9a9; stroke-width: 0.8; stroke-linejoin: miter; stroke-linecap: square"/>
   </g>
   <g id="patch_6">
    <path d="M 108 43.2 
L 777.6 43.2 
" style="fill: none"/>
   </g>
   <g id="text_22">
    <!-- get_subscribe history -->
    <g style="fill: #a9a9a9" transform="translate(378.6075 37.2) scale(0.12 -0.12)">
     <defs>
      <path id="DejaVuSans-67" d="M 2906 1791 
Q 2906 2416 2648 2759 
Q 2391 3103 1925 3103 
Q 1463 3103 1205 2759 
Q 947 2416 947 1791 
Q 947 1169 1205 825 
Q 1463 481 1925 481 
Q 2391 481 2648 825 
Q 2906 1169 2906 1791 
z
M 3481 434 
Q 3481 -459 3084 -895 
Q 2688 -1331 1869 -1331 
Q 1566 -1331 1297 -1286 
Q 1028 -1241 775 -1147 
L 775 -588 
Q 1028 -725 1275 -790 
Q 1522 -856 1778 -856 
Q 2344 -856 2625 -561 
Q 2906 -266 2906 331 
L 2906 616 
Q 2728 306 2450 153 
Q 2172 0 1784 0 
Q 1141 0 747 490 
Q 353 981 353 1791 
Q 353 2603 747 3093 
Q 1141 3584 1784 3584 
Q 2172 3584 2450 3431 
Q 2728 3278 2906 2969 
L 2906 3500 
L 3481 3500 
L 3481 434 
z
" transform="scale(0.015625)"/>
      <path id="DejaVuSans-65" d="M 3597 1894 
L 3597 1613 
L 953 1613 
Q 991 1019 1311 708 
Q 1631 397 2203 397 
Q 2534 397 2845 478 
Q 3156 559 3463 722 
L 3463 178 
Q 3153 47 2828 -22 
Q 2503 -91 2169 -91 
Q 1331 -91 842 396 
Q 353 884 353 1716 
Q 353 2575 817 3079 
Q 1281 3584 2069 3584 
Q 2775 3584 3186 3129 
Q 3597 2675 3597 1894 
z
M 3022 2063 
Q 3016 2534 2758 2815 
Q 2500 3097 2075 3097 
Q 1594 3097 1305 2825 
Q 1016 2553 972 2059 
L 3022 2063 
z
" transform="scale(0.015625)"/>
      <path id="DejaVuSans-74" d="M 1172 4494 
L 1172 3500 
L 2356 3500 
L 2356 3053 
L 1172 3053 
L 1172 1153 
Q 1172 725 1289 603 
Q 1406 481 1766 481 
L 2356 481 
L 2356 0 
L 1766 0 
Q 1100 0 847 248 
Q 594 497 594 1153 
L 594 3053 
L 172 3053 
L 172 3500 
L 594 3500 
L 594 4494 
L 1172 4494 
z
" transform="scale(0.015625)"/>
      <path id="DejaVuSans-5f" d="M 3263 -1063 
L 3263 -1509 
L -63 -1509 
L -63 -1063 
L 3263 -1063 
z
" transform="scale(0.015625)"/>
      <path id="DejaVuSans-73" d="M 2834 3397 
L 2834 2853 
Q 2591 2978 2328 3040 
Q 2066 3103 1784 3103 
Q 1356 3103 1142 2972 
Q 928 2841 928 2578 
Q 928 2378 1081 2264 
Q 1234 2150 1697 2047 
L 1894 2003 
Q 2506 1872 2764 1633 
Q 3022 1394 3022 966 
Q 3022 478 2636 193 
Q 2250 -91 1575 -91 
Q 1294 -91 989 -36 
Q 684 19 347 128 
L 347 722 
Q 666 556 975 473 
Q 1284 391 1588 391 
Q 1994 391 2212 530 
Q 2431 669 2431 922 
Q 2431 1156 2273 1281 
Q 2116 1406 1581 1522 
L 1381 1569 
Q 847 1681 609 1914 
Q 372 2147 372 2553 
Q 372 3047 722 3315 
Q 1072 3584 1716 3584 
Q 2034 3584 2315 3537 
Q 2597 3491 2834 3397 
z
" transform="scale(0.015625)"/>
      <path id="DejaVuSans-75" d="M 544 1381 
L 544 3500 
L 1119 3500 
L 1119 1403 
Q 1119 906 1312 657 
Q 1506 409 1894 409 
Q 2359 409 2629 706 
Q 2900 1003 2900 1516 
L 2900 3500 
L 3475 3500 
L 3475 0 
L 2900 0 
L 2900 538 
Q 2691 219 2414 64 
Q 2138 -91 1772 -91 
Q 1169 -91 856 284 
Q 544 659 544 1381 
z
M 1991 3584 
L 1991 3584 
z
" transform="scale(0.015625)"/>
      <path id="DejaVuSans-62" d="M 3116 1747 
Q 3116 2381 2855 2742 
Q 2594 3103 2138 3103 
Q 1681 3103 1420 2742 
Q 1159 2381 1159 1747 
Q 1159 1113 1420 752 
Q 1681 391 2138 391 
Q 2594 391 2855 752 
Q 3116 1113 3116 1747 
z
M 1159 2969 
Q 1341 3281 1617 3432 
Q 1894 3584 2278 3584 
Q 2916 3584 3314 3078 
Q 3713 2572 3713 1747 
Q 3713 922 3314 415 
Q 2916 -91 2278 -91 
Q 1894 -91 1617 61 
Q 1341 213 1159 525 
L 1159 0 
L 581 0 
L 581 4863 
L 1159 4863 
L 1159 2969 
z
" transform="scale(0.015625)"/>
      <path id="DejaVuSans-63" d="M 3122 3366 
L 3122 2828 
Q 2878 2963 2633 3030 
Q 2388 3097 2138 3097 
Q 1578 3097 1268 2742 
Q 959 2388 959 1747 
Q 959 1106 1268 751 
Q 1578 397 2138 397 
Q 2388 397 2633 464 
Q 2878 531 3122 666 
L 3122 134 
Q 2881 22 2623 -34 
Q 2366 -91 2075 -91 
Q 1284 -91 818 406 
Q 353 903 353 1747 
Q 353 2603 823 3093 
Q 1294 3584 2113 3584 
Q 2378 3584 2631 3529 
Q 2884 3475 3122 3366 
z
" transform="scale(0.015625)"/>
      <path id="DejaVuSans-72" d="M 2631 2963 
Q 2534 3019 2420 3045 
Q 2306 3072 2169 3072 
Q 1681 3072 1420 2755 
Q 1159 2438 1159 1844 
L 1159 0 
L 581 0 
L 581 3500 
L 1159 3500 
L 1159 2956 
Q 1341 3275 1631 3429 
Q 1922 3584 2338 3584 
Q 2397 3584 2469 3576 
Q 2541 3569 2628 3553 
L 2631 2963 
z
" transform="scale(0.015625)"/>
      <path id="DejaVuSans-69" d="M 603 3500 
L 1178 3500 
L 1178 0 
L 603 0 
L 603 3500 
z
M 603 4863 
L 1178 4863 
L 1178 4134 
L 603 4134 
L 603 4863 
z
" transform="scale(0.015625)"/>
      <path id="DejaVuSans-20" transform="scale(0.015625)"/>
      <path id="DejaVuSans-68" d="M 3513 2113 
L 3513 0 
L 2938 0 
L 2938 2094 
Q 2938 2591 2744 2837 
Q 2550 3084 2163 3084 
Q 1697 3084 1428 2787 
Q 1159 2491 1159 1978 
L 1159 0 
L 581 0 
L 581 4863 
L 1159 4863 
L 1159 2956 
Q 1366 3272 1645 3428 
Q 1925 3584 2291 3584 
Q 2894 3584 3203 3211 
Q 3513 2838 3513 2113 
z
" transform="scale(0.015625)"/>
      <path id="DejaVuSans-6f" d="M 1959 3097 
Q 1497 3097 1228 2736 
Q 959 2375 959 1747 
Q 959 1119 1226 758 
Q 1494 397 1959 397 
Q 2419 397 2687 759 
Q 2956 1122 2956 1747 
Q 2956 2369 2687 2733 
Q 2419 3097 1959 3097 
z
M 1959 3584 
Q 2709 3584 3137 3096 
Q 3566 2609 3566 1747 
Q 3566 888 3137 398 
Q 2709 -91 1959 -91 
Q 1206 -91 779 398 
Q 353 888 353 1747 
Q 353 2609 779 3096 
Q 1206 3584 1959 3584 
z
" transform="scale(0.015625)"/>
      <path id="DejaVuSans-79" d="M 2059 -325 
Q 1816 -950 1584 -1140 
Q 1353 -1331 966 -1331 
L 506 -1331 
L 506 -850 
L 844 -850 
Q 1081 -850 1212 -737 
Q 1344 -625 1503 -206 
L 1606 56 
L 191 3500 
L 800 3500 
L 1894 763 
L 2988 3500 
L 3597 3500 
L 2059 -325 
z
" transform="scale(0.015625)"/>
     </defs>
     <use xlink:href="#DejaVuSans-67"/>
     <use xlink:href="#DejaVuSans-65" x="63.476562"/>
     <use xlink:href="#DejaVuSans-74" x="125"/>
     <use xlink:href="#DejaVuSans-5f" x="164.208984"/>
     <use xlink:href="#DejaVuSans-73" x="214.208984"/>
     <use xlink:href="#DejaVuSans-75" x="266.308594"/>
     <use xlink:href="#DejaVuSans-62" x="329.6875"/>
     <use xlink:href="#DejaVuSans-73" x="393.164062"/>
     <use xlink:href="#DejaVuSans-63" x="445.263672"/>
     <use xlink:href="#DejaVuSans-72" x="500.244141"/>
     <use xlink:href="#DejaVuSans-69" x="541.357422"/>
     <use xlink:href="#DejaVuSans-62" x="569.140625"/>
     <use xlink:href="#DejaVuSans-65" x="632.617188"/>
     <use xlink:href="#DejaVuSans-20" x="694.140625"/>
     <use xlink:href="#DejaVuSans-68" x="725.927734"/>
     <use xlink:href="#DejaVuSans-69" x="789.306641"/>
     <use xlink:href="#DejaVuSans-73" x="817.089844"/>
     <use xlink:href="#DejaVuSans-74" x="869.189453"/>
     <use xlink:href="#DejaVuSans-6f" x="908.398438"/>
     <use xlink:href="#DejaVuSans-72" x="969.580078"/>
     <use xlink:href="#DejaVuSans-79" x="1010.693359"/>
    </g>
   </g>
   <g id="legend_1">
    <g id="line2d_45">
     <path d="M 815.08 328.498438 
L 825.08 328.498438 
L 835.08 328.498438 
" style="fill: none; stroke: #1f77b4; stroke-width: 1.5; stroke-linecap: square"/>
    </g>
    <g id="text_23">
     <!-- star -->
     <g style="fill: #a9a9a9" transform="translate(843.08 331.998438) scale(0.1 -0.1)">
      <defs>
       <path id="DejaVuSans-61" d="M 2194 1759 
Q 1497 1759 1228 1600 
Q 959 1441 959 1056 
Q 959 750 1161 570 
Q 1363 391 1709 391 
Q 2188 391 2477 730 
Q 2766 1069 2766 1631 
L 2766 1759 
L 2194 1759 
z
M 3341 1997 
L 3341 0 
L 2766 0 
L 2766 531 
Q 2569 213 2275 61 
Q 1981 -91 1556 -91 
Q 1019 -91 701 211 
Q 384 513 384 1019 
Q 384 1609 779 1909 
Q 1175 2209 1959 2209 
L 2766 2209 
L 2766 2266 
Q 2766 2663 2505 2880 
Q 2244 3097 1772 3097 
Q 1472 3097 1187 3025 
Q 903 2953 641 2809 
L 641 3341 
Q 956 3463 1253 3523 
Q 1550 3584 1831 3584 
Q 2591 3584 2966 3190 
Q 3341 2797 3341 1997 
z
" transform="scale(0.015625)"/>
      </defs>
      <use xlink:href="#DejaVuSans-73"/>
      <use xlink:href="#DejaVuSans-74" x="52.099609"/>
      <use xlink:href="#DejaVuSans-61" x="91.308594"/>
      <use xlink:href="#DejaVuSans-72" x="152.587891"/>
     </g>
    </g>
    <g id="line2d_46">
     <path d="M 815.08 343.176562 
L 825.08 343.176562 
L 835.08 343.176562 
" style="fill: none; stroke: #ff7f0e; stroke-width: 1.5; stroke-linecap: square"/>
    </g>
    <g id="text_24">
     <!-- fork -->
     <g style="fill: #a9a9a9" transform="translate(843.08 346.676562) scale(0.1 -0.1)">
      <defs>
       <path id="DejaVuSans-66" d="M 2375 4863 
L 2375 4384 
L 1825 4384 
Q 1516 4384 1395 4259 
Q 1275 4134 1275 3809 
L 1275 3500 
L 2222 3500 
L 2222 3053 
L 1275 3053 
L 1275 0 
L 697 0 
L 697 3053 
L 147 3053 
L 147 3500 
L 697 3500 
L 697 3744 
Q 697 4328 969 4595 
Q 1241 4863 1831 4863 
L 2375 4863 
z
" transform="scale(0.015625)"/>
       <path id="DejaVuSans-6b" d="M 581 4863 
L 1159 4863 
L 1159 1991 
L 2875 3500 
L 3609 3500 
L 1753 1863 
L 3688 0 
L 2938 0 
L 1159 1709 
L 1159 0 
L 581 0 
L 581 4863 
z
" transform="scale(0.015625)"/>
      </defs>
      <use xlink:href="#DejaVuSans-66"/>
      <use xlink:href="#DejaVuSans-6f" x="35.205078"/>
      <use xlink:href="#DejaVuSans-72" x="96.386719"/>
      <use xlink:href="#DejaVuSans-6b" x="137.5"/>
     </g>
    </g>
   </g>
  </g>
 </g>
 <defs>
  <clipPath id="pc93ba1ef08">
   <rect x="108" y="43.2" width="669.6" height="277.2"/>
  </clipPath>
 </defs>
</svg>
