<?xml version="1.0" encoding="utf-8" standalone="no"?>
<!DOCTYPE svg PUBLIC "-//W3C//DTD SVG 1.1//EN"
  "http://www.w3.org/Graphics/SVG/1.1/DTD/svg11.dtd">
<svg xmlns:xlink="http://www.w3.org/1999/xlink" width="864pt" height="360pt" viewBox="0 0 864 360" xmlns="http://www.w3.org/2000/svg" version="1.1">
 <metadata>
  <rdf:RDF xmlns:dc="http://purl.org/dc/elements/1.1/" xmlns:cc="http://creativecommons.org/ns#" xmlns:rdf="http://www.w3.org/1999/02/22-rdf-syntax-ns#">
   <cc:Work>
    <dc:type rdf:resource="http://purl.org/dc/dcmitype/StillImage"/>
    <dc:date>2024-11-21T20:06:02.847106</dc:date>
    <dc:format>image/svg+xml</dc:format>
    <dc:creator>
     <cc:Agent>
      <dc:title>Matplotlib v3.9.2, https://matplotlib.org/</dc:title>
     </cc:Agent>
    </dc:creator>
   </cc:Work>
  </rdf:RDF>
 </metadata>
 <defs>
  <style type="text/css">*{stroke-linejoin: round; stroke-linecap: butt}</style>
 </defs>
 <g id="figure_1">
  <g id="patch_1">
   <path d="M 0 360 
L 864 360 
L 864 0 
L 0 0 
L 0 360 
z
" style="fill: none; opacity: 0"/>
  </g>
  <g id="axes_1">
   <g id="patch_2">
    <path d="M 108 320.4 
L 777.6 320.4 
L 777.6 43.2 
L 108 43.2 
L 108 320.4 
z
" style="fill: none; opacity: 0"/>
   </g>
   <g id="matplotlib.axis_1">
    <g id="xtick_1">
     <g id="line2d_1">
      <path d="M 157.959689 320.4 
L 157.959689 43.2 
" clip-path="url(#pdc5202b5a7)" style="fill: none; stroke-dasharray: 5.12,1.28,0.8,1.28; stroke-dashoffset: 0; stroke: #b0b0b0; stroke-width: 0.8"/>
     </g>
     <g id="line2d_2">
      <defs>
       <path id="m63cc241450" d="M 0 0 
L 0 3.5 
" style="stroke: #a9a9a9; stroke-width: 0.8"/>
      </defs>
      <g>
       <use xlink:href="#m63cc241450" x="157.959689" y="320.4" style="fill: #a9a9a9; stroke: #a9a9a9; stroke-width: 0.8"/>
      </g>
     </g>
     <g id="text_1">
      <!-- 2021-09 -->
      <g style="fill: #a9a9a9" transform="translate(137.068283 334.998438) scale(0.1 -0.1)">
       <defs>
        <path id="DejaVuSans-32" d="M 1228 531 
L 3431 531 
L 3431 0 
L 469 0 
L 469 531 
Q 828 903 1448 1529 
Q 2069 2156 2228 2338 
Q 2531 2678 2651 2914 
Q 2772 3150 2772 3378 
Q 2772 3750 2511 3984 
Q 2250 4219 1831 4219 
Q 1534 4219 1204 4116 
Q 875 4013 500 3803 
L 500 4441 
Q 881 4594 1212 4672 
Q 1544 4750 1819 4750 
Q 2544 4750 2975 4387 
Q 3406 4025 3406 3419 
Q 3406 3131 3298 2873 
Q 3191 2616 2906 2266 
Q 2828 2175 2409 1742 
Q 1991 1309 1228 531 
z
" transform="scale(0.015625)"/>
        <path id="DejaVuSans-30" d="M 2034 4250 
Q 1547 4250 1301 3770 
Q 1056 3291 1056 2328 
Q 1056 1369 1301 889 
Q 1547 409 2034 409 
Q 2525 409 2770 889 
Q 3016 1369 3016 2328 
Q 3016 3291 2770 3770 
Q 2525 4250 2034 4250 
z
M 2034 4750 
Q 2819 4750 3233 4129 
Q 3647 3509 3647 2328 
Q 3647 1150 3233 529 
Q 2819 -91 2034 -91 
Q 1250 -91 836 529 
Q 422 1150 422 2328 
Q 422 3509 836 4129 
Q 1250 4750 2034 4750 
z
" transform="scale(0.015625)"/>
        <path id="DejaVuSans-31" d="M 794 531 
L 1825 531 
L 1825 4091 
L 703 3866 
L 703 4441 
L 1819 4666 
L 2450 4666 
L 2450 531 
L 3481 531 
L 3481 0 
L 794 0 
L 794 531 
z
" transform="scale(0.015625)"/>
        <path id="DejaVuSans-2d" d="M 313 2009 
L 1997 2009 
L 1997 1497 
L 313 1497 
L 313 2009 
z
" transform="scale(0.015625)"/>
        <path id="DejaVuSans-39" d="M 703 97 
L 703 672 
Q 941 559 1184 500 
Q 1428 441 1663 441 
Q 2288 441 2617 861 
Q 2947 1281 2994 2138 
Q 2813 1869 2534 1725 
Q 2256 1581 1919 1581 
Q 1219 1581 811 2004 
Q 403 2428 403 3163 
Q 403 3881 828 4315 
Q 1253 4750 1959 4750 
Q 2769 4750 3195 4129 
Q 3622 3509 3622 2328 
Q 3622 1225 3098 567 
Q 2575 -91 1691 -91 
Q 1453 -91 1209 -44 
Q 966 3 703 97 
z
M 1959 2075 
Q 2384 2075 2632 2365 
Q 2881 2656 2881 3163 
Q 2881 3666 2632 3958 
Q 2384 4250 1959 4250 
Q 1534 4250 1286 3958 
Q 1038 3666 1038 3163 
Q 1038 2656 1286 2365 
Q 1534 2075 1959 2075 
z
" transform="scale(0.015625)"/>
       </defs>
       <use xlink:href="#DejaVuSans-32"/>
       <use xlink:href="#DejaVuSans-30" x="63.623047"/>
       <use xlink:href="#DejaVuSans-32" x="127.246094"/>
       <use xlink:href="#DejaVuSans-31" x="190.869141"/>
       <use xlink:href="#DejaVuSans-2d" x="254.492188"/>
       <use xlink:href="#DejaVuSans-30" x="290.576172"/>
       <use xlink:href="#DejaVuSans-39" x="354.199219"/>
      </g>
     </g>
    </g>
    <g id="xtick_2">
     <g id="line2d_3">
      <path d="M 219.032656 320.4 
L 219.032656 43.2 
" clip-path="url(#pdc5202b5a7)" style="fill: none; stroke-dasharray: 5.12,1.28,0.8,1.28; stroke-dashoffset: 0; stroke: #b0b0b0; stroke-width: 0.8"/>
     </g>
     <g id="line2d_4">
      <g>
       <use xlink:href="#m63cc241450" x="219.032656" y="320.4" style="fill: #a9a9a9; stroke: #a9a9a9; stroke-width: 0.8"/>
      </g>
     </g>
     <g id="text_2">
      <!-- 2022-01 -->
      <g style="fill: #a9a9a9" transform="translate(198.141249 334.998438) scale(0.1 -0.1)">
       <use xlink:href="#DejaVuSans-32"/>
       <use xlink:href="#DejaVuSans-30" x="63.623047"/>
       <use xlink:href="#DejaVuSans-32" x="127.246094"/>
       <use xlink:href="#DejaVuSans-32" x="190.869141"/>
       <use xlink:href="#DejaVuSans-2d" x="254.492188"/>
       <use xlink:href="#DejaVuSans-30" x="290.576172"/>
       <use xlink:href="#DejaVuSans-31" x="354.199219"/>
      </g>
     </g>
    </g>
    <g id="xtick_3">
     <g id="line2d_5">
      <path d="M 279.104426 320.4 
L 279.104426 43.2 
" clip-path="url(#pdc5202b5a7)" style="fill: none; stroke-dasharray: 5.12,1.28,0.8,1.28; stroke-dashoffset: 0; stroke: #b0b0b0; stroke-width: 0.8"/>
     </g>
     <g id="line2d_6">
      <g>
       <use xlink:href="#m63cc241450" x="279.104426" y="320.4" style="fill: #a9a9a9; stroke: #a9a9a9; stroke-width: 0.8"/>
      </g>
     </g>
     <g id="text_3">
      <!-- 2022-05 -->
      <g style="fill: #a9a9a9" transform="translate(258.21302 334.998438) scale(0.1 -0.1)">
       <defs>
        <path id="DejaVuSans-35" d="M 691 4666 
L 3169 4666 
L 3169 4134 
L 1269 4134 
L 1269 2991 
Q 1406 3038 1543 3061 
Q 1681 3084 1819 3084 
Q 2600 3084 3056 2656 
Q 3513 2228 3513 1497 
Q 3513 744 3044 326 
Q 2575 -91 1722 -91 
Q 1428 -91 1123 -41 
Q 819 9 494 109 
L 494 744 
Q 775 591 1075 516 
Q 1375 441 1709 441 
Q 2250 441 2565 725 
Q 2881 1009 2881 1497 
Q 2881 1984 2565 2268 
Q 2250 2553 1709 2553 
Q 1456 2553 1204 2497 
Q 953 2441 691 2322 
L 691 4666 
z
" transform="scale(0.015625)"/>
       </defs>
       <use xlink:href="#DejaVuSans-32"/>
       <use xlink:href="#DejaVuSans-30" x="63.623047"/>
       <use xlink:href="#DejaVuSans-32" x="127.246094"/>
       <use xlink:href="#DejaVuSans-32" x="190.869141"/>
       <use xlink:href="#DejaVuSans-2d" x="254.492188"/>
       <use xlink:href="#DejaVuSans-30" x="290.576172"/>
       <use xlink:href="#DejaVuSans-35" x="354.199219"/>
      </g>
     </g>
    </g>
    <g id="xtick_4">
     <g id="line2d_7">
      <path d="M 340.67799 320.4 
L 340.67799 43.2 
" clip-path="url(#pdc5202b5a7)" style="fill: none; stroke-dasharray: 5.12,1.28,0.8,1.28; stroke-dashoffset: 0; stroke: #b0b0b0; stroke-width: 0.8"/>
     </g>
     <g id="line2d_8">
      <g>
       <use xlink:href="#m63cc241450" x="340.67799" y="320.4" style="fill: #a9a9a9; stroke: #a9a9a9; stroke-width: 0.8"/>
      </g>
     </g>
     <g id="text_4">
      <!-- 2022-09 -->
      <g style="fill: #a9a9a9" transform="translate(319.786584 334.998438) scale(0.1 -0.1)">
       <use xlink:href="#DejaVuSans-32"/>
       <use xlink:href="#DejaVuSans-30" x="63.623047"/>
       <use xlink:href="#DejaVuSans-32" x="127.246094"/>
       <use xlink:href="#DejaVuSans-32" x="190.869141"/>
       <use xlink:href="#DejaVuSans-2d" x="254.492188"/>
       <use xlink:href="#DejaVuSans-30" x="290.576172"/>
       <use xlink:href="#DejaVuSans-39" x="354.199219"/>
      </g>
     </g>
    </g>
    <g id="xtick_5">
     <g id="line2d_9">
      <path d="M 401.750957 320.4 
L 401.750957 43.2 
" clip-path="url(#pdc5202b5a7)" style="fill: none; stroke-dasharray: 5.12,1.28,0.8,1.28; stroke-dashoffset: 0; stroke: #b0b0b0; stroke-width: 0.8"/>
     </g>
     <g id="line2d_10">
      <g>
       <use xlink:href="#m63cc241450" x="401.750957" y="320.4" style="fill: #a9a9a9; stroke: #a9a9a9; stroke-width: 0.8"/>
      </g>
     </g>
     <g id="text_5">
      <!-- 2023-01 -->
      <g style="fill: #a9a9a9" transform="translate(380.859551 334.998438) scale(0.1 -0.1)">
       <defs>
        <path id="DejaVuSans-33" d="M 2597 2516 
Q 3050 2419 3304 2112 
Q 3559 1806 3559 1356 
Q 3559 666 3084 287 
Q 2609 -91 1734 -91 
Q 1441 -91 1130 -33 
Q 819 25 488 141 
L 488 750 
Q 750 597 1062 519 
Q 1375 441 1716 441 
Q 2309 441 2620 675 
Q 2931 909 2931 1356 
Q 2931 1769 2642 2001 
Q 2353 2234 1838 2234 
L 1294 2234 
L 1294 2753 
L 1863 2753 
Q 2328 2753 2575 2939 
Q 2822 3125 2822 3475 
Q 2822 3834 2567 4026 
Q 2313 4219 1838 4219 
Q 1578 4219 1281 4162 
Q 984 4106 628 3988 
L 628 4550 
Q 988 4650 1302 4700 
Q 1616 4750 1894 4750 
Q 2613 4750 3031 4423 
Q 3450 4097 3450 3541 
Q 3450 3153 3228 2886 
Q 3006 2619 2597 2516 
z
" transform="scale(0.015625)"/>
       </defs>
       <use xlink:href="#DejaVuSans-32"/>
       <use xlink:href="#DejaVuSans-30" x="63.623047"/>
       <use xlink:href="#DejaVuSans-32" x="127.246094"/>
       <use xlink:href="#DejaVuSans-33" x="190.869141"/>
       <use xlink:href="#DejaVuSans-2d" x="254.492188"/>
       <use xlink:href="#DejaVuSans-30" x="290.576172"/>
       <use xlink:href="#DejaVuSans-31" x="354.199219"/>
      </g>
     </g>
    </g>
    <g id="xtick_6">
     <g id="line2d_11">
      <path d="M 461.822727 320.4 
L 461.822727 43.2 
" clip-path="url(#pdc5202b5a7)" style="fill: none; stroke-dasharray: 5.12,1.28,0.8,1.28; stroke-dashoffset: 0; stroke: #b0b0b0; stroke-width: 0.8"/>
     </g>
     <g id="line2d_12">
      <g>
       <use xlink:href="#m63cc241450" x="461.822727" y="320.4" style="fill: #a9a9a9; stroke: #a9a9a9; stroke-width: 0.8"/>
      </g>
     </g>
     <g id="text_6">
      <!-- 2023-05 -->
      <g style="fill: #a9a9a9" transform="translate(440.931321 334.998438) scale(0.1 -0.1)">
       <use xlink:href="#DejaVuSans-32"/>
       <use xlink:href="#DejaVuSans-30" x="63.623047"/>
       <use xlink:href="#DejaVuSans-32" x="127.246094"/>
       <use xlink:href="#DejaVuSans-33" x="190.869141"/>
       <use xlink:href="#DejaVuSans-2d" x="254.492188"/>
       <use xlink:href="#DejaVuSans-30" x="290.576172"/>
       <use xlink:href="#DejaVuSans-35" x="354.199219"/>
      </g>
     </g>
    </g>
    <g id="xtick_7">
     <g id="line2d_13">
      <path d="M 523.396292 320.4 
L 523.396292 43.2 
" clip-path="url(#pdc5202b5a7)" style="fill: none; stroke-dasharray: 5.12,1.28,0.8,1.28; stroke-dashoffset: 0; stroke: #b0b0b0; stroke-width: 0.8"/>
     </g>
     <g id="line2d_14">
      <g>
       <use xlink:href="#m63cc241450" x="523.396292" y="320.4" style="fill: #a9a9a9; stroke: #a9a9a9; stroke-width: 0.8"/>
      </g>
     </g>
     <g id="text_7">
      <!-- 2023-09 -->
      <g style="fill: #a9a9a9" transform="translate(502.504886 334.998438) scale(0.1 -0.1)">
       <use xlink:href="#DejaVuSans-32"/>
       <use xlink:href="#DejaVuSans-30" x="63.623047"/>
       <use xlink:href="#DejaVuSans-32" x="127.246094"/>
       <use xlink:href="#DejaVuSans-33" x="190.869141"/>
       <use xlink:href="#DejaVuSans-2d" x="254.492188"/>
       <use xlink:href="#DejaVuSans-30" x="290.576172"/>
       <use xlink:href="#DejaVuSans-39" x="354.199219"/>
      </g>
     </g>
    </g>
    <g id="xtick_8">
     <g id="line2d_15">
      <path d="M 584.469258 320.4 
L 584.469258 43.2 
" clip-path="url(#pdc5202b5a7)" style="fill: none; stroke-dasharray: 5.12,1.28,0.8,1.28; stroke-dashoffset: 0; stroke: #b0b0b0; stroke-width: 0.8"/>
     </g>
     <g id="line2d_16">
      <g>
       <use xlink:href="#m63cc241450" x="584.469258" y="320.4" style="fill: #a9a9a9; stroke: #a9a9a9; stroke-width: 0.8"/>
      </g>
     </g>
     <g id="text_8">
      <!-- 2024-01 -->
      <g style="fill: #a9a9a9" transform="translate(563.577852 334.998438) scale(0.1 -0.1)">
       <defs>
        <path id="DejaVuSans-34" d="M 2419 4116 
L 825 1625 
L 2419 1625 
L 2419 4116 
z
M 2253 4666 
L 3047 4666 
L 3047 1625 
L 3713 1625 
L 3713 1100 
L 3047 1100 
L 3047 0 
L 2419 0 
L 2419 1100 
L 313 1100 
L 313 1709 
L 2253 4666 
z
" transform="scale(0.015625)"/>
       </defs>
       <use xlink:href="#DejaVuSans-32"/>
       <use xlink:href="#DejaVuSans-30" x="63.623047"/>
       <use xlink:href="#DejaVuSans-32" x="127.246094"/>
       <use xlink:href="#DejaVuSans-34" x="190.869141"/>
       <use xlink:href="#DejaVuSans-2d" x="254.492188"/>
       <use xlink:href="#DejaVuSans-30" x="290.576172"/>
       <use xlink:href="#DejaVuSans-31" x="354.199219"/>
      </g>
     </g>
    </g>
    <g id="xtick_9">
     <g id="line2d_17">
      <path d="M 645.041627 320.4 
L 645.041627 43.2 
" clip-path="url(#pdc5202b5a7)" style="fill: none; stroke-dasharray: 5.12,1.28,0.8,1.28; stroke-dashoffset: 0; stroke: #b0b0b0; stroke-width: 0.8"/>
     </g>
     <g id="line2d_18">
      <g>
       <use xlink:href="#m63cc241450" x="645.041627" y="320.4" style="fill: #a9a9a9; stroke: #a9a9a9; stroke-width: 0.8"/>
      </g>
     </g>
     <g id="text_9">
      <!-- 2024-05 -->
      <g style="fill: #a9a9a9" transform="translate(624.150221 334.998438) scale(0.1 -0.1)">
       <use xlink:href="#DejaVuSans-32"/>
       <use xlink:href="#DejaVuSans-30" x="63.623047"/>
       <use xlink:href="#DejaVuSans-32" x="127.246094"/>
       <use xlink:href="#DejaVuSans-34" x="190.869141"/>
       <use xlink:href="#DejaVuSans-2d" x="254.492188"/>
       <use xlink:href="#DejaVuSans-30" x="290.576172"/>
       <use xlink:href="#DejaVuSans-35" x="354.199219"/>
      </g>
     </g>
    </g>
    <g id="xtick_10">
     <g id="line2d_19">
      <path d="M 706.615191 320.4 
L 706.615191 43.2 
" clip-path="url(#pdc5202b5a7)" style="fill: none; stroke-dasharray: 5.12,1.28,0.8,1.28; stroke-dashoffset: 0; stroke: #b0b0b0; stroke-width: 0.8"/>
     </g>
     <g id="line2d_20">
      <g>
       <use xlink:href="#m63cc241450" x="706.615191" y="320.4" style="fill: #a9a9a9; stroke: #a9a9a9; stroke-width: 0.8"/>
      </g>
     </g>
     <g id="text_10">
      <!-- 2024-09 -->
      <g style="fill: #a9a9a9" transform="translate(685.723785 334.998438) scale(0.1 -0.1)">
       <use xlink:href="#DejaVuSans-32"/>
       <use xlink:href="#DejaVuSans-30" x="63.623047"/>
       <use xlink:href="#DejaVuSans-32" x="127.246094"/>
       <use xlink:href="#DejaVuSans-34" x="190.869141"/>
       <use xlink:href="#DejaVuSans-2d" x="254.492188"/>
       <use xlink:href="#DejaVuSans-30" x="290.576172"/>
       <use xlink:href="#DejaVuSans-39" x="354.199219"/>
      </g>
     </g>
    </g>
    <g id="xtick_11">
     <g id="line2d_21">
      <path d="M 767.688158 320.4 
L 767.688158 43.2 
" clip-path="url(#pdc5202b5a7)" style="fill: none; stroke-dasharray: 5.12,1.28,0.8,1.28; stroke-dashoffset: 0; stroke: #b0b0b0; stroke-width: 0.8"/>
     </g>
     <g id="line2d_22">
      <g>
       <use xlink:href="#m63cc241450" x="767.688158" y="320.4" style="fill: #a9a9a9; stroke: #a9a9a9; stroke-width: 0.8"/>
      </g>
     </g>
     <g id="text_11">
      <!-- 2025-01 -->
      <g style="fill: #a9a9a9" transform="translate(746.796752 334.998438) scale(0.1 -0.1)">
       <use xlink:href="#DejaVuSans-32"/>
       <use xlink:href="#DejaVuSans-30" x="63.623047"/>
       <use xlink:href="#DejaVuSans-32" x="127.246094"/>
       <use xlink:href="#DejaVuSans-35" x="190.869141"/>
       <use xlink:href="#DejaVuSans-2d" x="254.492188"/>
       <use xlink:href="#DejaVuSans-30" x="290.576172"/>
       <use xlink:href="#DejaVuSans-31" x="354.199219"/>
      </g>
     </g>
    </g>
   </g>
   <g id="matplotlib.axis_2">
    <g id="ytick_1">
     <g id="line2d_23">
      <path d="M 108 307.836072 
L 777.6 307.836072 
" clip-path="url(#pdc5202b5a7)" style="fill: none; stroke-dasharray: 5.12,1.28,0.8,1.28; stroke-dashoffset: 0; stroke: #b0b0b0; stroke-width: 0.8"/>
     </g>
     <g id="line2d_24">
      <defs>
       <path id="m0f43ea0d38" d="M 0 0 
L -3.5 0 
" style="stroke: #a9a9a9; stroke-width: 0.8"/>
      </defs>
      <g>
       <use xlink:href="#m0f43ea0d38" x="108" y="307.836072" style="fill: #a9a9a9; stroke: #a9a9a9; stroke-width: 0.8"/>
      </g>
     </g>
     <g id="text_12">
      <!-- 0 -->
      <g style="fill: #a9a9a9" transform="translate(94.6375 311.635291) scale(0.1 -0.1)">
       <use xlink:href="#DejaVuSans-30"/>
      </g>
     </g>
    </g>
    <g id="ytick_2">
     <g id="line2d_25">
      <path d="M 108 278.978357 
L 777.6 278.978357 
" clip-path="url(#pdc5202b5a7)" style="fill: none; stroke-dasharray: 5.12,1.28,0.8,1.28; stroke-dashoffset: 0; stroke: #b0b0b0; stroke-width: 0.8"/>
     </g>
     <g id="line2d_26">
      <g>
       <use xlink:href="#m0f43ea0d38" x="108" y="278.978357" style="fill: #a9a9a9; stroke: #a9a9a9; stroke-width: 0.8"/>
      </g>
     </g>
     <g id="text_13">
      <!-- 800 -->
      <g style="fill: #a9a9a9" transform="translate(81.9125 282.777575) scale(0.1 -0.1)">
       <defs>
        <path id="DejaVuSans-38" d="M 2034 2216 
Q 1584 2216 1326 1975 
Q 1069 1734 1069 1313 
Q 1069 891 1326 650 
Q 1584 409 2034 409 
Q 2484 409 2743 651 
Q 3003 894 3003 1313 
Q 3003 1734 2745 1975 
Q 2488 2216 2034 2216 
z
M 1403 2484 
Q 997 2584 770 2862 
Q 544 3141 544 3541 
Q 544 4100 942 4425 
Q 1341 4750 2034 4750 
Q 2731 4750 3128 4425 
Q 3525 4100 3525 3541 
Q 3525 3141 3298 2862 
Q 3072 2584 2669 2484 
Q 3125 2378 3379 2068 
Q 3634 1759 3634 1313 
Q 3634 634 3220 271 
Q 2806 -91 2034 -91 
Q 1263 -91 848 271 
Q 434 634 434 1313 
Q 434 1759 690 2068 
Q 947 2378 1403 2484 
z
M 1172 3481 
Q 1172 3119 1398 2916 
Q 1625 2713 2034 2713 
Q 2441 2713 2670 2916 
Q 2900 3119 2900 3481 
Q 2900 3844 2670 4047 
Q 2441 4250 2034 4250 
Q 1625 4250 1398 4047 
Q 1172 3844 1172 3481 
z
" transform="scale(0.015625)"/>
       </defs>
       <use xlink:href="#DejaVuSans-38"/>
       <use xlink:href="#DejaVuSans-30" x="63.623047"/>
       <use xlink:href="#DejaVuSans-30" x="127.246094"/>
      </g>
     </g>
    </g>
    <g id="ytick_3">
     <g id="line2d_27">
      <path d="M 108 250.120641 
L 777.6 250.120641 
" clip-path="url(#pdc5202b5a7)" style="fill: none; stroke-dasharray: 5.12,1.28,0.8,1.28; stroke-dashoffset: 0; stroke: #b0b0b0; stroke-width: 0.8"/>
     </g>
     <g id="line2d_28">
      <g>
       <use xlink:href="#m0f43ea0d38" x="108" y="250.120641" style="fill: #a9a9a9; stroke: #a9a9a9; stroke-width: 0.8"/>
      </g>
     </g>
     <g id="text_14">
      <!-- 1600 -->
      <g style="fill: #a9a9a9" transform="translate(75.55 253.91986) scale(0.1 -0.1)">
       <defs>
        <path id="DejaVuSans-36" d="M 2113 2584 
Q 1688 2584 1439 2293 
Q 1191 2003 1191 1497 
Q 1191 994 1439 701 
Q 1688 409 2113 409 
Q 2538 409 2786 701 
Q 3034 994 3034 1497 
Q 3034 2003 2786 2293 
Q 2538 2584 2113 2584 
z
M 3366 4563 
L 3366 3988 
Q 3128 4100 2886 4159 
Q 2644 4219 2406 4219 
Q 1781 4219 1451 3797 
Q 1122 3375 1075 2522 
Q 1259 2794 1537 2939 
Q 1816 3084 2150 3084 
Q 2853 3084 3261 2657 
Q 3669 2231 3669 1497 
Q 3669 778 3244 343 
Q 2819 -91 2113 -91 
Q 1303 -91 875 529 
Q 447 1150 447 2328 
Q 447 3434 972 4092 
Q 1497 4750 2381 4750 
Q 2619 4750 2861 4703 
Q 3103 4656 3366 4563 
z
" transform="scale(0.015625)"/>
       </defs>
       <use xlink:href="#DejaVuSans-31"/>
       <use xlink:href="#DejaVuSans-36" x="63.623047"/>
       <use xlink:href="#DejaVuSans-30" x="127.246094"/>
       <use xlink:href="#DejaVuSans-30" x="190.869141"/>
      </g>
     </g>
    </g>
    <g id="ytick_4">
     <g id="line2d_29">
      <path d="M 108 221.262926 
L 777.6 221.262926 
" clip-path="url(#pdc5202b5a7)" style="fill: none; stroke-dasharray: 5.12,1.28,0.8,1.28; stroke-dashoffset: 0; stroke: #b0b0b0; stroke-width: 0.8"/>
     </g>
     <g id="line2d_30">
      <g>
       <use xlink:href="#m0f43ea0d38" x="108" y="221.262926" style="fill: #a9a9a9; stroke: #a9a9a9; stroke-width: 0.8"/>
      </g>
     </g>
     <g id="text_15">
      <!-- 2400 -->
      <g style="fill: #a9a9a9" transform="translate(75.55 225.062145) scale(0.1 -0.1)">
       <use xlink:href="#DejaVuSans-32"/>
       <use xlink:href="#DejaVuSans-34" x="63.623047"/>
       <use xlink:href="#DejaVuSans-30" x="127.246094"/>
       <use xlink:href="#DejaVuSans-30" x="190.869141"/>
      </g>
     </g>
    </g>
    <g id="ytick_5">
     <g id="line2d_31">
      <path d="M 108 192.40521 
L 777.6 192.40521 
" clip-path="url(#pdc5202b5a7)" style="fill: none; stroke-dasharray: 5.12,1.28,0.8,1.28; stroke-dashoffset: 0; stroke: #b0b0b0; stroke-width: 0.8"/>
     </g>
     <g id="line2d_32">
      <g>
       <use xlink:href="#m0f43ea0d38" x="108" y="192.40521" style="fill: #a9a9a9; stroke: #a9a9a9; stroke-width: 0.8"/>
      </g>
     </g>
     <g id="text_16">
      <!-- 3200 -->
      <g style="fill: #a9a9a9" transform="translate(75.55 196.204429) scale(0.1 -0.1)">
       <use xlink:href="#DejaVuSans-33"/>
       <use xlink:href="#DejaVuSans-32" x="63.623047"/>
       <use xlink:href="#DejaVuSans-30" x="127.246094"/>
       <use xlink:href="#DejaVuSans-30" x="190.869141"/>
      </g>
     </g>
    </g>
    <g id="ytick_6">
     <g id="line2d_33">
      <path d="M 108 163.547495 
L 777.6 163.547495 
" clip-path="url(#pdc5202b5a7)" style="fill: none; stroke-dasharray: 5.12,1.28,0.8,1.28; stroke-dashoffset: 0; stroke: #b0b0b0; stroke-width: 0.8"/>
     </g>
     <g id="line2d_34">
      <g>
       <use xlink:href="#m0f43ea0d38" x="108" y="163.547495" style="fill: #a9a9a9; stroke: #a9a9a9; stroke-width: 0.8"/>
      </g>
     </g>
     <g id="text_17">
      <!-- 4000 -->
      <g style="fill: #a9a9a9" transform="translate(75.55 167.346714) scale(0.1 -0.1)">
       <use xlink:href="#DejaVuSans-34"/>
       <use xlink:href="#DejaVuSans-30" x="63.623047"/>
       <use xlink:href="#DejaVuSans-30" x="127.246094"/>
       <use xlink:href="#DejaVuSans-30" x="190.869141"/>
      </g>
     </g>
    </g>
    <g id="ytick_7">
     <g id="line2d_35">
      <path d="M 108 134.68978 
L 777.6 134.68978 
" clip-path="url(#pdc5202b5a7)" style="fill: none; stroke-dasharray: 5.12,1.28,0.8,1.28; stroke-dashoffset: 0; stroke: #b0b0b0; stroke-width: 0.8"/>
     </g>
     <g id="line2d_36">
      <g>
       <use xlink:href="#m0f43ea0d38" x="108" y="134.68978" style="fill: #a9a9a9; stroke: #a9a9a9; stroke-width: 0.8"/>
      </g>
     </g>
     <g id="text_18">
      <!-- 4800 -->
      <g style="fill: #a9a9a9" transform="translate(75.55 138.488998) scale(0.1 -0.1)">
       <use xlink:href="#DejaVuSans-34"/>
       <use xlink:href="#DejaVuSans-38" x="63.623047"/>
       <use xlink:href="#DejaVuSans-30" x="127.246094"/>
       <use xlink:href="#DejaVuSans-30" x="190.869141"/>
      </g>
     </g>
    </g>
    <g id="ytick_8">
     <g id="line2d_37">
      <path d="M 108 105.832064 
L 777.6 105.832064 
" clip-path="url(#pdc5202b5a7)" style="fill: none; stroke-dasharray: 5.12,1.28,0.8,1.28; stroke-dashoffset: 0; stroke: #b0b0b0; stroke-width: 0.8"/>
     </g>
     <g id="line2d_38">
      <g>
       <use xlink:href="#m0f43ea0d38" x="108" y="105.832064" style="fill: #a9a9a9; stroke: #a9a9a9; stroke-width: 0.8"/>
      </g>
     </g>
     <g id="text_19">
      <!-- 5600 -->
      <g style="fill: #a9a9a9" transform="translate(75.55 109.631283) scale(0.1 -0.1)">
       <use xlink:href="#DejaVuSans-35"/>
       <use xlink:href="#DejaVuSans-36" x="63.623047"/>
       <use xlink:href="#DejaVuSans-30" x="127.246094"/>
       <use xlink:href="#DejaVuSans-30" x="190.869141"/>
      </g>
     </g>
    </g>
    <g id="ytick_9">
     <g id="line2d_39">
      <path d="M 108 76.974349 
L 777.6 76.974349 
" clip-path="url(#pdc5202b5a7)" style="fill: none; stroke-dasharray: 5.12,1.28,0.8,1.28; stroke-dashoffset: 0; stroke: #b0b0b0; stroke-width: 0.8"/>
     </g>
     <g id="line2d_40">
      <g>
       <use xlink:href="#m0f43ea0d38" x="108" y="76.974349" style="fill: #a9a9a9; stroke: #a9a9a9; stroke-width: 0.8"/>
      </g>
     </g>
     <g id="text_20">
      <!-- 6400 -->
      <g style="fill: #a9a9a9" transform="translate(75.55 80.773567) scale(0.1 -0.1)">
       <use xlink:href="#DejaVuSans-36"/>
       <use xlink:href="#DejaVuSans-34" x="63.623047"/>
       <use xlink:href="#DejaVuSans-30" x="127.246094"/>
       <use xlink:href="#DejaVuSans-30" x="190.869141"/>
      </g>
     </g>
    </g>
    <g id="ytick_10">
     <g id="line2d_41">
      <path d="M 108 48.116633 
L 777.6 48.116633 
" clip-path="url(#pdc5202b5a7)" style="fill: none; stroke-dasharray: 5.12,1.28,0.8,1.28; stroke-dashoffset: 0; stroke: #b0b0b0; stroke-width: 0.8"/>
     </g>
     <g id="line2d_42">
      <g>
       <use xlink:href="#m0f43ea0d38" x="108" y="48.116633" style="fill: #a9a9a9; stroke: #a9a9a9; stroke-width: 0.8"/>
      </g>
     </g>
     <g id="text_21">
      <!-- 7200 -->
      <g style="fill: #a9a9a9" transform="translate(75.55 51.915852) scale(0.1 -0.1)">
       <defs>
        <path id="DejaVuSans-37" d="M 525 4666 
L 3525 4666 
L 3525 4397 
L 1831 0 
L 1172 0 
L 2766 4134 
L 525 4134 
L 525 4666 
z
" transform="scale(0.015625)"/>
       </defs>
       <use xlink:href="#DejaVuSans-37"/>
       <use xlink:href="#DejaVuSans-32" x="63.623047"/>
       <use xlink:href="#DejaVuSans-30" x="127.246094"/>
       <use xlink:href="#DejaVuSans-30" x="190.869141"/>
      </g>
     </g>
    </g>
   </g>
   <g id="line2d_43">
    <path d="M 138.436364 307.727856 
L 141.439952 307.475351 
L 141.94055 307.258918 
L 143.942943 307.006413 
L 145.945335 306.609619 
L 146.946531 306.465331 
L 149.449522 306.248898 
L 150.450718 305.852104 
L 150.951316 305.202806 
L 151.451914 304.842084 
L 151.952512 303.723848 
L 152.45311 303.651703 
L 152.953708 303.25491 
L 153.954904 302.7499 
L 155.957297 301.162725 
L 157.959689 300.188778 
L 159.461483 299.503407 
L 159.962081 298.70982 
L 160.963278 297.988377 
L 161.463876 297.771944 
L 166.469856 297.050501 
L 166.970455 296.834068 
L 170.474641 296.545491 
L 172.477033 296.076553 
L 176.481818 295.535471 
L 176.982416 295.282966 
L 177.483014 295.210822 
L 178.484211 294.886172 
L 181.988397 294.309018 
L 182.989593 294.020441 
L 187.494976 293.262926 
L 188.496172 293.046493 
L 189.497368 293.010421 
L 191.499761 292.541483 
L 192.000359 291.856112 
L 193.502153 291.278958 
L 195.003947 290.882164 
L 195.504545 290.629659 
L 196.505742 290.449299 
L 198.508134 289.872144 
L 199.50933 289.8 
L 200.510526 289.547495 
L 202.512919 289.042485 
L 203.013517 289.006413 
L 204.014713 288.537475 
L 204.515311 288.465331 
L 205.015909 288.212826 
L 210.522488 287.311022 
L 212.52488 286.733868 
L 213.025478 286.409218 
L 215.528469 285.579559 
L 216.529665 284.894188 
L 218.031459 284.605611 
L 231.04701 280.962325 
L 231.547608 280.962325 
L 232.048206 280.745892 
L 233.049402 280.637675 
L 233.55 280.457315 
L 235.552392 280.349098 
L 236.553589 280.168737 
L 237.554785 279.663727 
L 239.056579 279.122645 
L 239.557177 278.797996 
L 240.558373 278.36513 
L 241.058971 278.112625 
L 242.060167 277.787976 
L 242.560766 277.643687 
L 243.561962 277.030461 
L 244.06256 276.489379 
L 245.063756 274.974349 
L 245.564354 274.83006 
L 246.064952 274.83006 
L 247.566746 273.964329 
L 248.067344 273.711824 
L 248.567943 273.603607 
L 249.068541 273.134669 
L 250.069737 272.737876 
L 251.070933 272.268938 
L 253.573923 269.094589 
L 256.577512 267.507415 
L 257.578708 266.713828 
L 258.079306 266.389178 
L 258.579904 265.631663 
L 259.080502 264.513427 
L 259.5811 263.755912 
L 260.081699 263.359118 
L 260.582297 263.142685 
L 264.086483 260.18477 
L 265.087679 258.994389 
L 266.088876 258.272946 
L 268.591866 256.757916 
L 269.593062 256.216834 
L 271.595455 255.170741 
L 274.098445 252.934269 
L 275.099641 252.537475 
L 276.100837 251.852104 
L 276.601435 251.563527 
L 277.102033 251.491383 
L 278.603828 250.661723 
L 279.104426 250.120641 
L 281.607416 248.785972 
L 282.108014 248.605611 
L 283.609809 247.595591 
L 291.11878 244.962325 
L 292.119976 244.060521 
L 293.121172 243.591583 
L 294.122368 243.050501 
L 294.622967 242.761924 
L 295.624163 242.473347 
L 296.124761 242.148697 
L 296.625359 242.004409 
L 298.127153 241.030461 
L 300.630144 240.453307 
L 302.131938 239.587575 
L 303.633732 239.262926 
L 304.13433 239.118637 
L 305.636124 238.000401 
L 307.638517 237.459319 
L 308.139115 237.062525 
L 311.142703 236.052505 
L 312.1439 235.872144 
L 313.145096 235.475351 
L 316.649282 234.212826 
L 317.650478 234.068537 
L 319.152273 233.563527 
L 321.655263 232.373146 
L 323.657656 231.290982 
L 327.66244 229.667735 
L 328.163038 229.595591 
L 329.164234 228.982365 
L 329.664833 228.91022 
L 331.667225 228.080561 
L 333.669617 227.791984 
L 334.670813 227.286974 
L 335.171411 226.854108 
L 335.67201 225.952305 
L 337.674402 225.411222 
L 339.176196 224.653707 
L 339.676794 224.545491 
L 343.681579 222.633667 
L 345.183373 222.34509 
L 346.184569 221.84008 
L 346.685167 221.623647 
L 347.185766 221.551503 
L 349.188158 220.649699 
L 350.689952 219.711824 
L 352.191746 219.423246 
L 354.694737 218.81002 
L 355.195335 218.413226 
L 356.697129 217.872144 
L 358.699522 217.078557 
L 359.20012 216.717836 
L 359.700718 216.537475 
L 360.701914 215.996393 
L 363.204904 215.166733 
L 364.706699 213.976353 
L 365.207297 213.868136 
L 366.208493 213.074549 
L 366.709091 213.002405 
L 367.209689 212.208818 
L 367.710287 211.992385 
L 368.210885 211.595591 
L 368.711483 211.523447 
L 369.712679 210.91022 
L 370.713876 210.585571 
L 371.214474 210.22485 
L 371.715072 210.044489 
L 373.216866 208.998397 
L 375.219258 207.952305 
L 375.719856 207.88016 
L 377.221651 207.122645 
L 377.722249 206.292986 
L 378.723445 205.571543 
L 379.224043 205.463327 
L 380.225239 204.8501 
L 380.725837 204.741884 
L 381.727033 204.236874 
L 383.729426 203.262926 
L 384.230024 202.902204 
L 385.23122 201.928257 
L 386.232416 201.31503 
L 386.733014 200.990381 
L 387.233612 200.449299 
L 389.236005 199.078557 
L 389.736603 198.501403 
L 390.237201 198.104609 
L 391.238397 197.743888 
L 392.239593 197.058517 
L 393.741388 196.301002 
L 394.241986 196.228858 
L 395.74378 195.435271 
L 396.744976 194.822044 
L 401.750957 193.018437 
L 402.251555 192.621643 
L 404.253947 191.864128 
L 404.754545 191.71984 
L 405.255144 191.323046 
L 407.758134 189.952305 
L 408.75933 187.968337 
L 409.760526 186.814028 
L 410.761722 186.236874 
L 412.263517 185.623647 
L 412.764115 185.551503 
L 413.264713 185.262926 
L 415.767703 184.469339 
L 416.268301 184.252906 
L 417.269498 183.567535 
L 418.771292 182.918236 
L 419.772488 182.377154 
L 420.273086 182.016433 
L 420.773684 181.8 
L 421.274282 181.439279 
L 421.77488 180.898196 
L 422.776077 180.357114 
L 425.279067 179.022445 
L 428.282656 177.543487 
L 429.78445 177.110621 
L 431.286244 176.533467 
L 431.786842 176.172745 
L 432.788038 175.884168 
L 433.789234 175.487375 
L 434.289833 175.090581 
L 436.292225 174.40521 
L 437.293421 173.683768 
L 438.294617 173.250902 
L 439.295813 172.457315 
L 440.29701 172.096593 
L 440.797608 171.663727 
L 441.298206 171.591583 
L 442.299402 170.834068 
L 443.300598 170.329058 
L 443.801196 170.112625 
L 444.301794 169.607615 
L 447.805981 168.236874 
L 448.807177 167.804008 
L 450.308971 167.33507 
L 451.310167 167.190782 
L 451.810766 166.974349 
L 452.311364 166.902204 
L 453.31256 166.469339 
L 453.813158 166.433267 
L 455.81555 165.675752 
L 457.317344 164.629659 
L 457.817943 164.449299 
L 458.819139 163.908216 
L 459.319737 163.763928 
L 462.323325 162.104609 
L 462.823923 161.996393 
L 464.325718 161.130661 
L 465.827512 160.625651 
L 466.828708 160.301002 
L 468.8311 159.651703 
L 469.832297 159.327054 
L 471.834689 158.930261 
L 472.335287 158.713828 
L 472.835885 158.641683 
L 473.837081 158.208818 
L 474.337679 158.136673 
L 474.838278 157.884168 
L 475.839474 157.703808 
L 477.341268 157.162725 
L 478.342464 157.054509 
L 479.844258 156.72986 
L 482.347249 156.296994 
L 495.362799 152.545491 
L 495.863397 152.040481 
L 496.864593 151.643687 
L 499.868182 150.561523 
L 500.36878 150.236874 
L 500.869378 150.128657 
L 501.369976 149.84008 
L 502.87177 149.407214 
L 503.872967 149.154709 
L 504.373565 148.83006 
L 504.874163 148.721844 
L 505.374761 148.288978 
L 506.876555 148.000401 
L 507.877751 147.531463 
L 508.378349 146.954309 
L 510.380742 146.485371 
L 513.884928 145.763928 
L 514.385526 145.763928 
L 514.886124 145.547495 
L 516.888517 145.186774 
L 517.389115 144.970341 
L 519.391507 144.609619 
L 520.392703 144.176754 
L 521.3939 143.996393 
L 523.89689 143.383166 
L 525.899282 142.76994 
L 526.39988 142.661723 
L 526.900478 142.409218 
L 527.901675 142.156713 
L 528.402273 141.868136 
L 529.904067 141.363126 
L 530.404665 141.038477 
L 531.405861 140.7499 
L 532.407057 140.425251 
L 533.408254 140.028457 
L 534.910048 139.379158 
L 536.91244 139.126653 
L 540.917225 137.71984 
L 541.417823 137.359118 
L 541.918421 137.250902 
L 542.419019 136.998397 
L 542.919617 136.962325 
L 548.426196 135.050501 
L 550.929187 134.401202 
L 551.930383 133.932265 
L 553.432177 133.607615 
L 553.932775 133.210822 
L 554.433373 132.958317 
L 554.933971 132.34509 
L 555.434569 131.984369 
L 556.435766 131.695792 
L 556.936364 131.298998 
L 559.939952 130.180762 
L 560.44055 129.856112 
L 561.441746 129.567535 
L 561.942344 129.242886 
L 564.445335 128.449299 
L 565.947129 127.583567 
L 566.447727 127.475351 
L 568.950718 126.140681 
L 570.452512 125.491383 
L 570.95311 125.130661 
L 571.954306 124.806012 
L 572.955502 124.228858 
L 573.4561 124.048497 
L 573.956699 123.687776 
L 580.464474 121.41523 
L 580.965072 121.307014 
L 581.46567 120.982365 
L 583.468062 120.585571 
L 584.469258 120.188778 
L 584.969856 119.9002 
L 585.470455 119.755912 
L 587.472847 118.70982 
L 587.973445 118.637675 
L 589.475239 117.808016 
L 590.977033 117.303006 
L 594.48122 115.896192 
L 594.981818 115.751904 
L 595.482416 115.427255 
L 596.483612 115.319038 
L 596.984211 114.994389 
L 597.985407 114.814028 
L 598.986603 114.34509 
L 599.487201 114.128657 
L 599.987799 114.056513 
L 602.490789 113.082565 
L 603.992584 112.685772 
L 604.99378 112.433267 
L 606.495574 112.000401 
L 607.49677 111.603607 
L 609.499163 110.521443 
L 610.500359 110.124649 
L 611.000957 109.8 
L 612.002153 109.583567 
L 612.502751 109.29499 
L 613.003349 109.186774 
L 614.505144 108.357114 
L 615.50634 107.960321 
L 617.508732 107.202806 
L 620.011722 106.373146 
L 621.012919 105.868136 
L 623.515909 105.038477 
L 625.017703 104.497395 
L 625.518301 104.353106 
L 626.519498 103.812024 
L 628.52189 102.91022 
L 633.527871 100.998397 
L 634.028469 100.673747 
L 636.030861 99.988377 
L 636.531459 99.988377 
L 637.532656 99.555511 
L 638.533852 98.653707 
L 639.03445 98.220842 
L 640.536244 97.499399 
L 641.036842 97.391182 
L 641.53744 97.138677 
L 642.038038 97.066533 
L 642.538636 96.705812 
L 643.039234 96.597595 
L 644.040431 95.984369 
L 645.542225 95.226854 
L 646.543421 94.83006 
L 647.044019 94.577555 
L 648.545813 94.252906 
L 651.048804 93.423246 
L 652.05 93.098597 
L 653.551794 92.341082 
L 654.55299 91.872144 
L 655.554187 91.619639 
L 657.055981 90.934269 
L 661.561364 89.27495 
L 663.063158 88.373146 
L 663.563756 88.26493 
L 664.564952 87.75992 
L 665.566148 87.399198 
L 666.066746 86.966333 
L 667.067943 86.569539 
L 668.569737 85.956313 
L 669.070335 85.559519 
L 669.570933 85.523447 
L 670.572129 85.23487 
L 671.573325 84.91022 
L 672.073923 84.657715 
L 672.574522 84.585571 
L 674.076316 84.044489 
L 675.57811 83.503407 
L 676.579306 83.106613 
L 677.079904 82.70982 
L 678.581699 82.313026 
L 679.082297 82.024449 
L 680.083493 81.771944 
L 681.585287 80.942285 
L 682.085885 80.906212 
L 683.587679 80.437275 
L 684.588876 80.36513 
L 685.590072 79.968337 
L 688.59366 79.102605 
L 689.594856 79.066533 
L 693.599641 77.804008 
L 694.600837 77.262926 
L 695.101435 76.83006 
L 696.60323 75.964329 
L 697.604426 75.351102 
L 699.606818 74.773948 
L 700.107416 74.485371 
L 700.608014 74.377154 
L 701.108612 73.980361 
L 704.112201 72.753908 
L 706.114593 72.212826 
L 707.115789 71.77996 
L 707.616388 71.527455 
L 708.617584 71.238878 
L 709.118182 70.914228 
L 710.119378 70.733868 
L 712.622368 69.579559 
L 713.122967 69.290982 
L 714.624761 68.930261 
L 716.126555 67.956313 
L 716.627153 67.884168 
L 719.130144 66.91022 
L 720.631938 66.549499 
L 721.132536 66.477355 
L 721.633134 66.260922 
L 722.133732 66.22485 
L 723.134928 65.9002 
L 723.635526 65.864128 
L 725.137321 65.286974 
L 727.139713 64.70982 
L 728.140909 63.952305 
L 730.143301 62.87014 
L 731.645096 62.36513 
L 734.648684 61.030461 
L 735.64988 60.489379 
L 736.150478 60.236874 
L 736.651077 59.767936 
L 739.154067 59.046493 
L 740.155263 58.505411 
L 742.157656 57.783968 
L 742.658254 57.31503 
L 744.660646 56.773948 
L 745.161244 56.413226 
L 747.163636 55.8 
L 747.163636 55.8 
" clip-path="url(#pdc5202b5a7)" style="fill: none; stroke: #1f77b4; stroke-width: 1.5; stroke-linecap: square"/>
   </g>
   <g id="line2d_44">
    <path d="M 138.936962 307.8 
L 143.442344 307.691784 
L 147.447129 307.511423 
L 149.449522 307.511423 
L 149.95012 307.367134 
L 152.45311 307.258918 
L 155.456699 306.934269 
L 158.460287 306.826052 
L 159.461483 306.717836 
L 162.96567 306.573547 
L 166.469856 306.465331 
L 168.972847 306.393186 
L 175.480622 306.28497 
L 177.983612 306.212826 
L 181.487799 306.104609 
L 183.990789 306.032465 
L 189.497368 305.924248 
L 191.499761 305.743888 
L 193.502153 305.707816 
L 196.505742 305.599599 
L 198.508134 305.563527 
L 201.011124 305.491383 
L 203.013517 305.311022 
L 207.5189 305.202806 
L 208.520096 305.130661 
L 210.522488 305.022445 
L 213.526077 304.914228 
L 215.528469 304.806012 
L 224.539234 304.26493 
L 228.043421 304.156713 
L 229.545215 304.012425 
L 232.048206 303.904208 
L 237.054187 303.651703 
L 242.060167 303.579559 
L 244.06256 303.363126 
L 246.064952 303.25491 
L 251.571531 302.7499 
L 255.075718 302.353106 
L 256.577512 302.280962 
L 261.082895 301.73988 
L 263.585885 301.667735 
L 265.087679 301.523447 
L 266.589474 301.41523 
L 280.60622 300.369138 
L 281.607416 300.188778 
L 284.611005 300.080561 
L 292.620574 299.611623 
L 296.124761 299.503407 
L 298.127153 299.286974 
L 300.630144 299.178758 
L 303.633732 299.070541 
L 306.136722 298.962325 
L 308.139115 298.926253 
L 310.642105 298.854108 
L 311.643301 298.70982 
L 318.651675 298.601603 
L 319.652871 298.493387 
L 325.660048 298.38517 
L 330.165431 298.168737 
L 333.669617 298.060521 
L 335.67201 297.844088 
L 339.176196 297.735872 
L 340.177392 297.555511 
L 342.680383 297.483367 
L 347.686364 297.411222 
L 350.189354 297.158717 
L 353.192943 297.050501 
L 355.195335 296.87014 
L 360.201316 296.617635 
L 365.207297 296.509419 
L 369.712679 296.292986 
L 371.214474 296.256914 
L 372.21567 296.112625 
L 374.71866 296.004409 
L 375.719856 295.932265 
L 376.721053 295.86012 
L 377.722249 295.787976 
L 382.227632 295.715832 
L 383.729426 295.607615 
L 397.245574 294.741884 
L 399.748565 294.633667 
L 402.251555 294.561523 
L 409.259928 294.453307 
L 410.261124 294.309018 
L 417.269498 294.200802 
L 422.275478 293.948297 
L 423.276675 293.912224 
L 424.277871 293.804008 
L 426.780861 293.695792 
L 429.283852 293.623647 
L 431.786842 293.515431 
L 434.289833 293.443287 
L 438.795215 293.33507 
L 441.798804 293.226854 
L 448.807177 293.118637 
L 454.313756 292.83006 
L 456.316148 292.757916 
L 457.817943 292.649699 
L 464.826316 292.541483 
L 467.829904 292.433267 
L 476.84067 292.32505 
L 478.843062 292.288978 
L 484.850239 292.216834 
L 485.851435 292.144689 
L 492.859809 292.036473 
L 494.862201 292.000401 
L 507.877751 291.892184 
L 509.379545 291.747896 
L 531.906459 291.639679 
L 534.40945 291.567535 
L 547.425 291.459319 
L 548.426196 291.387174 
L 550.929187 291.31503 
L 552.430981 291.170741 
L 555.434569 291.062525 
L 558.938756 290.918236 
L 563.444139 290.81002 
L 565.947129 290.737876 
L 569.451316 290.629659 
L 573.4561 290.449299 
L 575.959091 290.341082 
L 577.961483 290.30501 
L 582.466866 290.196794 
L 584.469258 290.160721 
L 590.977033 290.052505 
L 592.979426 290.016433 
L 595.482416 289.908216 
L 598.486005 289.8 
L 601.990191 289.727856 
L 602.991388 289.655711 
L 615.005742 289.547495 
L 621.513517 289.186774 
L 624.016507 289.114629 
L 625.017703 289.006413 
L 626.0189 288.934269 
L 630.023684 288.826052 
L 633.027273 288.717836 
L 638.033254 288.609619 
L 640.536244 288.357114 
L 645.542225 288.248898 
L 646.543421 288.140681 
L 651.549402 288.032465 
L 654.052392 287.960321 
L 659.558971 287.924248 
L 660.560167 287.816032 
L 666.066746 287.707816 
L 667.067943 287.635671 
L 678.0811 287.527455 
L 681.084689 287.419238 
L 688.59366 287.311022 
L 690.596053 287.27495 
L 695.101435 287.202806 
L 696.102632 287.094589 
L 702.109809 286.986373 
L 705.113397 286.878156 
L 714.124163 286.76994 
L 715.625957 286.661723 
L 717.127751 286.553507 
L 718.629545 286.445291 
L 726.138517 286.337074 
L 729.642703 286.192786 
L 742.658254 286.084569 
L 747.163636 285.868136 
L 747.163636 285.868136 
" clip-path="url(#pdc5202b5a7)" style="fill: none; stroke: #ff7f0e; stroke-width: 1.5; stroke-linecap: square"/>
   </g>
   <g id="patch_3">
    <path d="M 108 320.4 
L 108 43.2 
" style="fill: none; stroke: #a9a9a9; stroke-width: 0.8; stroke-linejoin: miter; stroke-linecap: square"/>
   </g>
   <g id="patch_4">
    <path d="M 777.6 320.4 
L 777.6 43.2 
" style="fill: none"/>
   </g>
   <g id="patch_5">
    <path d="M 108 320.4 
L 777.6 320.4 
" style="fill: none; stroke: #a9a9a9; stroke-width: 0.8; stroke-linejoin: miter; stroke-linecap: square"/>
   </g>
   <g id="patch_6">
    <path d="M 108 43.2 
L 777.6 43.2 
" style="fill: none"/>
   </g>
   <g id="text_22">
    <!-- get_subscribe history -->
    <g style="fill: #a9a9a9" transform="translate(378.6075 37.2) scale(0.12 -0.12)">
     <defs>
      <path id="DejaVuSans-67" d="M 2906 1791 
Q 2906 2416 2648 2759 
Q 2391 3103 1925 3103 
Q 1463 3103 1205 2759 
Q 947 2416 947 1791 
Q 947 1169 1205 825 
Q 1463 481 1925 481 
Q 2391 481 2648 825 
Q 2906 1169 2906 1791 
z
M 3481 434 
Q 3481 -459 3084 -895 
Q 2688 -1331 1869 -1331 
Q 1566 -1331 1297 -1286 
Q 1028 -1241 775 -1147 
L 775 -588 
Q 1028 -725 1275 -790 
Q 1522 -856 1778 -856 
Q 2344 -856 2625 -561 
Q 2906 -266 2906 331 
L 2906 616 
Q 2728 306 2450 153 
Q 2172 0 1784 0 
Q 1141 0 747 490 
Q 353 981 353 1791 
Q 353 2603 747 3093 
Q 1141 3584 1784 3584 
Q 2172 3584 2450 3431 
Q 2728 3278 2906 2969 
L 2906 3500 
L 3481 3500 
L 3481 434 
z
" transform="scale(0.015625)"/>
      <path id="DejaVuSans-65" d="M 3597 1894 
L 3597 1613 
L 953 1613 
Q 991 1019 1311 708 
Q 1631 397 2203 397 
Q 2534 397 2845 478 
Q 3156 559 3463 722 
L 3463 178 
Q 3153 47 2828 -22 
Q 2503 -91 2169 -91 
Q 1331 -91 842 396 
Q 353 884 353 1716 
Q 353 2575 817 3079 
Q 1281 3584 2069 3584 
Q 2775 3584 3186 3129 
Q 3597 2675 3597 1894 
z
M 3022 2063 
Q 3016 2534 2758 2815 
Q 2500 3097 2075 3097 
Q 1594 3097 1305 2825 
Q 1016 2553 972 2059 
L 3022 2063 
z
" transform="scale(0.015625)"/>
      <path id="DejaVuSans-74" d="M 1172 4494 
L 1172 3500 
L 2356 3500 
L 2356 3053 
L 1172 3053 
L 1172 1153 
Q 1172 725 1289 603 
Q 1406 481 1766 481 
L 2356 481 
L 2356 0 
L 1766 0 
Q 1100 0 847 248 
Q 594 497 594 1153 
L 594 3053 
L 172 3053 
L 172 3500 
L 594 3500 
L 594 4494 
L 1172 4494 
z
" transform="scale(0.015625)"/>
      <path id="DejaVuSans-5f" d="M 3263 -1063 
L 3263 -1509 
L -63 -1509 
L -63 -1063 
L 3263 -1063 
z
" transform="scale(0.015625)"/>
      <path id="DejaVuSans-73" d="M 2834 3397 
L 2834 2853 
Q 2591 2978 2328 3040 
Q 2066 3103 1784 3103 
Q 1356 3103 1142 2972 
Q 928 2841 928 2578 
Q 928 2378 1081 2264 
Q 1234 2150 1697 2047 
L 1894 2003 
Q 2506 1872 2764 1633 
Q 3022 1394 3022 966 
Q 3022 478 2636 193 
Q 2250 -91 1575 -91 
Q 1294 -91 989 -36 
Q 684 19 347 128 
L 347 722 
Q 666 556 975 473 
Q 1284 391 1588 391 
Q 1994 391 2212 530 
Q 2431 669 2431 922 
Q 2431 1156 2273 1281 
Q 2116 1406 1581 1522 
L 1381 1569 
Q 847 1681 609 1914 
Q 372 2147 372 2553 
Q 372 3047 722 3315 
Q 1072 3584 1716 3584 
Q 2034 3584 2315 3537 
Q 2597 3491 2834 3397 
z
" transform="scale(0.015625)"/>
      <path id="DejaVuSans-75" d="M 544 1381 
L 544 3500 
L 1119 3500 
L 1119 1403 
Q 1119 906 1312 657 
Q 1506 409 1894 409 
Q 2359 409 2629 706 
Q 2900 1003 2900 1516 
L 2900 3500 
L 3475 3500 
L 3475 0 
L 2900 0 
L 2900 538 
Q 2691 219 2414 64 
Q 2138 -91 1772 -91 
Q 1169 -91 856 284 
Q 544 659 544 1381 
z
M 1991 3584 
L 1991 3584 
z
" transform="scale(0.015625)"/>
      <path id="DejaVuSans-62" d="M 3116 1747 
Q 3116 2381 2855 2742 
Q 2594 3103 2138 3103 
Q 1681 3103 1420 2742 
Q 1159 2381 1159 1747 
Q 1159 1113 1420 752 
Q 1681 391 2138 391 
Q 2594 391 2855 752 
Q 3116 1113 3116 1747 
z
M 1159 2969 
Q 1341 3281 1617 3432 
Q 1894 3584 2278 3584 
Q 2916 3584 3314 3078 
Q 3713 2572 3713 1747 
Q 3713 922 3314 415 
Q 2916 -91 2278 -91 
Q 1894 -91 1617 61 
Q 1341 213 1159 525 
L 1159 0 
L 581 0 
L 581 4863 
L 1159 4863 
L 1159 2969 
z
" transform="scale(0.015625)"/>
      <path id="DejaVuSans-63" d="M 3122 3366 
L 3122 2828 
Q 2878 2963 2633 3030 
Q 2388 3097 2138 3097 
Q 1578 3097 1268 2742 
Q 959 2388 959 1747 
Q 959 1106 1268 751 
Q 1578 397 2138 397 
Q 2388 397 2633 464 
Q 2878 531 3122 666 
L 3122 134 
Q 2881 22 2623 -34 
Q 2366 -91 2075 -91 
Q 1284 -91 818 406 
Q 353 903 353 1747 
Q 353 2603 823 3093 
Q 1294 3584 2113 3584 
Q 2378 3584 2631 3529 
Q 2884 3475 3122 3366 
z
" transform="scale(0.015625)"/>
      <path id="DejaVuSans-72" d="M 2631 2963 
Q 2534 3019 2420 3045 
Q 2306 3072 2169 3072 
Q 1681 3072 1420 2755 
Q 1159 2438 1159 1844 
L 1159 0 
L 581 0 
L 581 3500 
L 1159 3500 
L 1159 2956 
Q 1341 3275 1631 3429 
Q 1922 3584 2338 3584 
Q 2397 3584 2469 3576 
Q 2541 3569 2628 3553 
L 2631 2963 
z
" transform="scale(0.015625)"/>
      <path id="DejaVuSans-69" d="M 603 3500 
L 1178 3500 
L 1178 0 
L 603 0 
L 603 3500 
z
M 603 4863 
L 1178 4863 
L 1178 4134 
L 603 4134 
L 603 4863 
z
" transform="scale(0.015625)"/>
      <path id="DejaVuSans-20" transform="scale(0.015625)"/>
      <path id="DejaVuSans-68" d="M 3513 2113 
L 3513 0 
L 2938 0 
L 2938 2094 
Q 2938 2591 2744 2837 
Q 2550 3084 2163 3084 
Q 1697 3084 1428 2787 
Q 1159 2491 1159 1978 
L 1159 0 
L 581 0 
L 581 4863 
L 1159 4863 
L 1159 2956 
Q 1366 3272 1645 3428 
Q 1925 3584 2291 3584 
Q 2894 3584 3203 3211 
Q 3513 2838 3513 2113 
z
" transform="scale(0.015625)"/>
      <path id="DejaVuSans-6f" d="M 1959 3097 
Q 1497 3097 1228 2736 
Q 959 2375 959 1747 
Q 959 1119 1226 758 
Q 1494 397 1959 397 
Q 2419 397 2687 759 
Q 2956 1122 2956 1747 
Q 2956 2369 2687 2733 
Q 2419 3097 1959 3097 
z
M 1959 3584 
Q 2709 3584 3137 3096 
Q 3566 2609 3566 1747 
Q 3566 888 3137 398 
Q 2709 -91 1959 -91 
Q 1206 -91 779 398 
Q 353 888 353 1747 
Q 353 2609 779 3096 
Q 1206 3584 1959 3584 
z
" transform="scale(0.015625)"/>
      <path id="DejaVuSans-79" d="M 2059 -325 
Q 1816 -950 1584 -1140 
Q 1353 -1331 966 -1331 
L 506 -1331 
L 506 -850 
L 844 -850 
Q 1081 -850 1212 -737 
Q 1344 -625 1503 -206 
L 1606 56 
L 191 3500 
L 800 3500 
L 1894 763 
L 2988 3500 
L 3597 3500 
L 2059 -325 
z
" transform="scale(0.015625)"/>
     </defs>
     <use xlink:href="#DejaVuSans-67"/>
     <use xlink:href="#DejaVuSans-65" x="63.476562"/>
     <use xlink:href="#DejaVuSans-74" x="125"/>
     <use xlink:href="#DejaVuSans-5f" x="164.208984"/>
     <use xlink:href="#DejaVuSans-73" x="214.208984"/>
     <use xlink:href="#DejaVuSans-75" x="266.308594"/>
     <use xlink:href="#DejaVuSans-62" x="329.6875"/>
     <use xlink:href="#DejaVuSans-73" x="393.164062"/>
     <use xlink:href="#DejaVuSans-63" x="445.263672"/>
     <use xlink:href="#DejaVuSans-72" x="500.244141"/>
     <use xlink:href="#DejaVuSans-69" x="541.357422"/>
     <use xlink:href="#DejaVuSans-62" x="569.140625"/>
     <use xlink:href="#DejaVuSans-65" x="632.617188"/>
     <use xlink:href="#DejaVuSans-20" x="694.140625"/>
     <use xlink:href="#DejaVuSans-68" x="725.927734"/>
     <use xlink:href="#DejaVuSans-69" x="789.306641"/>
     <use xlink:href="#DejaVuSans-73" x="817.089844"/>
     <use xlink:href="#DejaVuSans-74" x="869.189453"/>
     <use xlink:href="#DejaVuSans-6f" x="908.398438"/>
     <use xlink:href="#DejaVuSans-72" x="969.580078"/>
     <use xlink:href="#DejaVuSans-79" x="1010.693359"/>
    </g>
   </g>
   <g id="legend_1">
    <g id="line2d_45">
     <path d="M 815.08 328.498438 
L 825.08 328.498438 
L 835.08 328.498438 
" style="fill: none; stroke: #1f77b4; stroke-width: 1.5; stroke-linecap: square"/>
    </g>
    <g id="text_23">
     <!-- star -->
     <g style="fill: #a9a9a9" transform="translate(843.08 331.998438) scale(0.1 -0.1)">
      <defs>
       <path id="DejaVuSans-61" d="M 2194 1759 
Q 1497 1759 1228 1600 
Q 959 1441 959 1056 
Q 959 750 1161 570 
Q 1363 391 1709 391 
Q 2188 391 2477 730 
Q 2766 1069 2766 1631 
L 2766 1759 
L 2194 1759 
z
M 3341 1997 
L 3341 0 
L 2766 0 
L 2766 531 
Q 2569 213 2275 61 
Q 1981 -91 1556 -91 
Q 1019 -91 701 211 
Q 384 513 384 1019 
Q 384 1609 779 1909 
Q 1175 2209 1959 2209 
L 2766 2209 
L 2766 2266 
Q 2766 2663 2505 2880 
Q 2244 3097 1772 3097 
Q 1472 3097 1187 3025 
Q 903 2953 641 2809 
L 641 3341 
Q 956 3463 1253 3523 
Q 1550 3584 1831 3584 
Q 2591 3584 2966 3190 
Q 3341 2797 3341 1997 
z
" transform="scale(0.015625)"/>
      </defs>
      <use xlink:href="#DejaVuSans-73"/>
      <use xlink:href="#DejaVuSans-74" x="52.099609"/>
      <use xlink:href="#DejaVuSans-61" x="91.308594"/>
      <use xlink:href="#DejaVuSans-72" x="152.587891"/>
     </g>
    </g>
    <g id="line2d_46">
     <path d="M 815.08 343.176562 
L 825.08 343.176562 
L 835.08 343.176562 
" style="fill: none; stroke: #ff7f0e; stroke-width: 1.5; stroke-linecap: square"/>
    </g>
    <g id="text_24">
     <!-- fork -->
     <g style="fill: #a9a9a9" transform="translate(843.08 346.676562) scale(0.1 -0.1)">
      <defs>
       <path id="DejaVuSans-66" d="M 2375 4863 
L 2375 4384 
L 1825 4384 
Q 1516 4384 1395 4259 
Q 1275 4134 1275 3809 
L 1275 3500 
L 2222 3500 
L 2222 3053 
L 1275 3053 
L 1275 0 
L 697 0 
L 697 3053 
L 147 3053 
L 147 3500 
L 697 3500 
L 697 3744 
Q 697 4328 969 4595 
Q 1241 4863 1831 4863 
L 2375 4863 
z
" transform="scale(0.015625)"/>
       <path id="DejaVuSans-6b" d="M 581 4863 
L 1159 4863 
L 1159 1991 
L 2875 3500 
L 3609 3500 
L 1753 1863 
L 3688 0 
L 2938 0 
L 1159 1709 
L 1159 0 
L 581 0 
L 581 4863 
z
" transform="scale(0.015625)"/>
      </defs>
      <use xlink:href="#DejaVuSans-66"/>
      <use xlink:href="#DejaVuSans-6f" x="35.205078"/>
      <use xlink:href="#DejaVuSans-72" x="96.386719"/>
      <use xlink:href="#DejaVuSans-6b" x="137.5"/>
     </g>
    </g>
   </g>
  </g>
 </g>
 <defs>
  <clipPath id="pdc5202b5a7">
   <rect x="108" y="43.2" width="669.6" height="277.2"/>
  </clipPath>
 </defs>
</svg>
